<svg width="512" height="512" viewBox="0 0 512 512" fill="none" xmlns="http://www.w3.org/2000/svg">
<g clip-path="url(#clip0_98_1051)">
<path d="M160 0C177.7 0 192 14.3 192 32V64H320V32C320 14.3 334.3 0 352 0C369.7 0 384 14.3 384 32V64H432C458.5 64 480 85.5 480 112V160H32V112C32 85.5 53.5 64 80 64H128V32C128 14.3 142.3 0 160 0ZM32 192H480V464C480 490.5 458.5 512 432 512H80C53.5 512 32 490.5 32 464V192ZM96 272V304C96 312.8 103.2 320 112 320H144C152.8 320 160 312.8 160 304V272C160 263.2 152.8 256 144 256H112C103.2 256 96 263.2 96 272ZM224 272V304C224 312.8 231.2 320 240 320H272C280.8 320 288 312.8 288 304V272C288 263.2 280.8 256 272 256H240C231.2 256 224 263.2 224 272ZM368 256C359.2 256 352 263.2 352 272V304C352 312.8 359.2 320 368 320H400C408.8 320 416 312.8 416 304V272C416 263.2 408.8 256 400 256H368ZM96 400V432C96 440.8 103.2 448 112 448H144C152.8 448 160 440.8 160 432V400C160 391.2 152.8 384 144 384H112C103.2 384 96 391.2 96 400ZM240 384C231.2 384 224 391.2 224 400V432C224 440.8 231.2 448 240 448H272C280.8 448 288 440.8 288 432V400C288 391.2 280.8 384 272 384H240ZM352 400V432C352 440.8 359.2 448 368 448H400C408.8 448 416 440.8 416 432V400C416 391.2 408.8 384 400 384H368C359.2 384 352 391.2 352 400Z" fill="black"/>
</g>
<defs>
<clipPath id="clip0_98_1051">
<rect width="448" height="512" fill="white" transform="translate(32)"/>
</clipPath>
</defs>
</svg>
