<svg width="512" height="512" viewBox="0 0 512 512" fill="none" xmlns="http://www.w3.org/2000/svg">
<path d="M466.954 60.016C479.867 44.4744 477.81 21.3906 462.269 8.47736C446.727 -4.43587 423.643 -2.3789 410.73 13.1627L256 198.862L101.27 13.1627C88.3565 -2.3789 65.2726 -4.43587 49.731 8.47736C34.1895 21.3906 32.1325 44.4744 45.0457 60.016L208.347 256L45.0457 451.984C32.1325 467.526 34.1895 490.609 49.731 503.523C65.2726 516.436 88.3565 514.379 101.27 498.837L256 313.138L410.73 498.837C423.643 514.379 446.727 516.436 462.269 503.523C477.81 490.609 479.867 467.526 466.954 451.984L303.653 256L466.954 60.016Z" fill="black"/>
</svg>
