<svg width="512" height="512" viewBox="0 0 512 512" fill="none" xmlns="http://www.w3.org/2000/svg">
<g clip-path="url(#clip0_98_1056)">
<path d="M363.08 18.769L314.631 67.2179L444.762 197.349L493.211 148.9C518.236 123.875 518.236 83.3342 493.211 58.3089L453.771 18.769C428.746 -6.25632 388.205 -6.25632 363.18 18.769H363.08ZM292.008 89.8407L58.6723 323.277C48.2618 333.687 40.6541 346.6 36.4499 360.714L1.01409 481.136C-1.48843 489.645 0.813891 498.754 7.02016 504.96C13.2264 511.166 22.3356 513.469 30.7441 511.066L151.166 475.63C165.28 471.426 178.193 463.818 188.604 453.408L422.139 219.972L292.008 89.8407Z" fill="black"/>
</g>
<defs>
<clipPath id="clip0_98_1056">
<rect width="512" height="512" fill="white"/>
</clipPath>
</defs>
</svg>
