<svg width="512" height="512" viewBox="0 0 512 512" fill="none" xmlns="http://www.w3.org/2000/svg">
<g clip-path="url(#clip0_98_1044)">
<path d="M256 256C289.948 256 322.505 242.514 346.51 218.51C370.514 194.505 384 161.948 384 128C384 94.0523 370.514 61.495 346.51 37.4903C322.505 13.4857 289.948 0 256 0C222.052 0 189.495 13.4857 165.49 37.4903C141.486 61.495 128 94.0523 128 128C128 161.948 141.486 194.505 165.49 218.51C189.495 242.514 222.052 256 256 256ZM210.3 304C111.8 304 32 383.8 32 482.3C32 498.7 45.3 512 61.7 512H450.3C466.7 512 480 498.7 480 482.3C480 383.8 400.2 304 301.7 304H210.3Z" fill="black"/>
</g>
<defs>
<clipPath id="clip0_98_1044">
<rect width="448" height="512" fill="white" transform="translate(32)"/>
</clipPath>
</defs>
</svg>
