<?xml version="1.0" standalone="no"?>
<!DOCTYPE svg PUBLIC "-//W3C//DTD SVG 1.1//EN" "http://www.w3.org/Graphics/SVG/1.1/DTD/svg11.dtd" >
<svg xmlns="http://www.w3.org/2000/svg" xmlns:xlink="http://www.w3.org/1999/xlink" version="1.1">
<metadata>
Created by FontForge 20201107 at Sat Sep 21 19:30:56 2024
 By 
Copyright (c) 2017 by Martin Va'cha. All rights reserved.
</metadata>
<defs>
<font id="Roobert-Regular" horiz-adv-x="0" >
  <font-face 
    font-family="Roobert"
    font-weight="400"
    font-stretch="normal"
    units-per-em="2048"
    panose-1="0 0 0 0 0 0 0 0 0 0"
    ascent="1638"
    descent="-410"
    x-height="1032"
    cap-height="1434"
    bbox="-383 -504 2732 2175"
    underline-thickness="102"
    underline-position="-255"
    unicode-range="U+000D-F8FF"
  />
<missing-glyph horiz-adv-x="2265" 
d="M1098 1630q-201 -7 -384 -92t-315.5 -222.5t-211 -324t-78.5 -387.5q0 -270 132 -502t359.5 -371.5t497.5 -148.5v2048zM1167 -412q85 24 156.5 166.5t113.5 368t42 481.5t-42.5 482.5t-114 369.5t-155.5 168v-2036zM1313 -381q150 56 268.5 199.5t185 349t66.5 436.5
q0 229 -66.5 435t-185 351t-268.5 203q106 -131 168.5 -396.5t62.5 -592.5t-62.5 -591t-168.5 -394zM1507 1556q182 -145 288 -400t106 -552q0 -296 -105 -550.5t-283 -397.5q288 115 466 375t178 573t-180 574.5t-470 377.5z" />
    <glyph glyph-name="f_f.liga" unicode="ff" horiz-adv-x="1345" 
d="M244 0v887h-215v145h215v105q0 148 86.5 233.5t234.5 85.5h162v-145h-156q-74 0 -118.5 -47t-44.5 -129v-103h436v105q0 148 86.5 233.5t234.5 85.5h162v-145h-156q-74 0 -118.5 -47t-44.5 -129v-103h319v-145h-319v-887h-164v887h-436v-887h-164z" />
    <glyph glyph-name="f_f_i.liga" unicode="ffi" horiz-adv-x="1779" 
d="M1622 1032v-1032h-164v887h-450v-887h-164v887h-436v-887h-164v887h-215v145h215v105q0 148 86.5 233.5t234.5 85.5h162v-145h-156q-74 0 -118.5 -47t-44.5 -129v-103h436v105q0 148 86.5 233.5t234.5 85.5h164v-145h-155q-76 0 -121 -47t-45 -129v-103h614z" />
    <glyph glyph-name="f_f_l.liga" unicode="ffl" horiz-adv-x="1765" 
d="M1446 1456h164v-1456h-164v887h-438v-887h-164v887h-436v-887h-164v887h-215v145h215v105q0 148 86.5 233.5t234.5 85.5h162v-145h-156q-74 0 -118.5 -47t-44.5 -129v-103h436v105q0 148 86.5 233.5t234.5 85.5h119v-145h-110q-76 0 -121 -47t-45 -129v-103h438v424z" />
    <glyph glyph-name="f_i.liga" unicode="fi" horiz-adv-x="1165" 
d="M1008 1032v-1032h-164v887h-436v-887h-164v887h-215v145h215v105q0 148 86.5 233.5t234.5 85.5h162v-145h-156q-74 0 -118.5 -47t-44.5 -129v-103h600z" />
    <glyph glyph-name="f_l.liga" unicode="fl" horiz-adv-x="1165" 
d="M844 1456h164v-1456h-164v887h-436v-887h-164v887h-215v145h215v105q0 148 86.5 233.5t234.5 85.5h119v-145h-113q-74 0 -118.5 -47t-44.5 -129v-103h436v424z" />
    <glyph glyph-name="r_f.liga" unicode="rf" horiz-adv-x="1316" 
d="M817 1137q0 147 87 233t235 86h161v-145h-155q-74 0 -119 -47t-45 -129v-103h319v-145h-319v-887h-164v1137zM156 0v1032h163v-209q34 107 101 158t180 51h121v-145h-131q-271 0 -271 -432v-455h-163z" />
    <glyph glyph-name="r_t.liga" unicode="rt" horiz-adv-x="1347" 
d="M817 1362h164v-330h315v-145h-315v-559q0 -86 44.5 -134.5t121.5 -48.5h149v-145h-155q-150 0 -237 87t-87 237v1038zM156 0v1032h163v-209q34 107 101 158t180 51h121v-145h-131q-271 0 -271 -432v-455h-163z" />
    <glyph glyph-name="t_t.liga" unicode="tt" horiz-adv-x="1413" 
d="M240 1362h163v-330h478v330h163v-330h318v-145h-318v-559q0 -85 45 -134t121 -49h152v-145h-158q-150 0 -236.5 87t-86.5 237v563h-478v-559q0 -85 45 -134t121 -49h152v-145h-158q-149 0 -236 87t-87 237v563h-215v145h215v330z" />
    <glyph glyph-name=".notdef" horiz-adv-x="2265" 
d="M1098 1630q-201 -7 -384 -92t-315.5 -222.5t-211 -324t-78.5 -387.5q0 -270 132 -502t359.5 -371.5t497.5 -148.5v2048zM1167 -412q85 24 156.5 166.5t113.5 368t42 481.5t-42.5 482.5t-114 369.5t-155.5 168v-2036zM1313 -381q150 56 268.5 199.5t185 349t66.5 436.5
q0 229 -66.5 435t-185 351t-268.5 203q106 -131 168.5 -396.5t62.5 -592.5t-62.5 -591t-168.5 -394zM1507 1556q182 -145 288 -400t106 -552q0 -296 -105 -550.5t-283 -397.5q288 115 466 375t178 573t-180 574.5t-470 377.5z" />
    <glyph glyph-name=".null" 
 />
    <glyph glyph-name="nonmarkingreturn" horiz-adv-x="682" 
 />
    <glyph glyph-name="CR" unicode="&#xd;" horiz-adv-x="491" 
 />
    <glyph glyph-name="space" unicode=" " horiz-adv-x="491" 
 />
    <glyph glyph-name="space" unicode="&#xa0;" horiz-adv-x="491" 
 />
    <glyph glyph-name="exclam" unicode="!" horiz-adv-x="507" 
d="M195 324l-48 1110h213l-47 -1110h-118zM162 0v190h186v-190h-186z" />
    <glyph glyph-name="quotedbl" unicode="&#x22;" horiz-adv-x="722" 
d="M475 1030l-35 426h174l-34 -426h-105zM109 1456h174l-35 -426h-105z" />
    <glyph glyph-name="numbersign" unicode="#" horiz-adv-x="1400" 
d="M233 0l97 428h-260v133h286l70 313h-268v132h297l96 428h141l-94 -428h334l96 428h141l-96 -428h260v-132h-286l-72 -313h268v-133h-297l-94 -428h-141l94 428h-336l-94 -428h-142zM498 561h338l69 313h-338z" />
    <glyph glyph-name="dollar" unicode="$" horiz-adv-x="1208" 
d="M524 -240v228q-203 25 -324.5 153t-133.5 328h172q14 -152 110.5 -240t261.5 -88q157 0 250.5 62.5t93.5 187.5q0 59 -28.5 103.5t-77.5 72.5t-111.5 50t-132.5 40.5t-139.5 39t-132 51.5t-111.5 71.5t-77.5 104t-28.5 145.5q0 154 111.5 256t297.5 121v223h154v-223
q184 -20 299.5 -133t128.5 -287h-172q-12 122 -101 194t-233 72t-226.5 -60t-82.5 -163q0 -58 29 -101.5t77.5 -70t112 -47t133.5 -38t140 -37.5t133.5 -50.5t112 -72.5t77.5 -108.5t29 -152.5q0 -176 -126 -283t-331 -122v-226h-154z" />
    <glyph glyph-name="percent" unicode="%" horiz-adv-x="1449" 
d="M127 0l1040 1434h154l-1040 -1434h-154zM66 1122q0 138 88.5 233t222.5 95q132 0 219.5 -95t87.5 -233t-87.5 -232.5t-219.5 -94.5q-134 0 -222.5 94.5t-88.5 232.5zM197 1122q0 -90 49 -148.5t131 -58.5q80 0 129 58.5t49 148.5q0 91 -49 150t-129 59q-82 0 -131 -59
t-49 -150zM768 311q0 138 88.5 233t222.5 95q132 0 219.5 -95t87.5 -233t-87.5 -232.5t-219.5 -94.5q-134 0 -222.5 94.5t-88.5 232.5zM899 311q0 -90 49 -148.5t131 -58.5q80 0 129 58.5t49 148.5q0 91 -49 150t-129 59q-82 0 -131 -59t-49 -150z" />
    <glyph glyph-name="ampersand" unicode="&#x26;" horiz-adv-x="1351" 
d="M547 -16q-208 0 -327.5 106.5t-119.5 294.5q0 74 23.5 135t69 108t93 80t113.5 68q-174 197 -174 338q0 148 101.5 242t259.5 94t259 -90.5t101 -231.5q0 -77 -24 -139.5t-70.5 -110.5t-94.5 -81t-116 -68l297 -326l53 80q35 58 72 96t77 55.5t74 23.5t78 6v-158
q-66 0 -118 -31t-82 -84l-56 -96l271 -295h-189l-160 172q-79 -98 -187.5 -143t-223.5 -45zM260 383q0 -120 75 -186t210 -66q189 0 311 152l-352 376q-57 -29 -95.5 -53.5t-75.5 -58.5t-55 -74.5t-18 -89.5zM381 1110q0 -61 42 -125.5t112 -140.5q62 33 99.5 56.5t78 58
t59.5 75.5t19 90q0 85 -58 139t-147 54t-147 -58t-58 -149z" />
    <glyph glyph-name="quotesingle" unicode="'" horiz-adv-x="391" 
d="M143 1030l-34 426h174l-35 -426h-105z" />
    <glyph glyph-name="parenleft" unicode="(" horiz-adv-x="575" 
d="M367 -270q-129 191 -201 422t-72 458q0 228 72 459t201 422h157q-260 -432 -260 -881q0 -221 67 -446t193 -434h-157z" />
    <glyph glyph-name="parenright" unicode=")" horiz-adv-x="575" 
d="M209 1491q129 -190 200.5 -422t71.5 -459q0 -228 -71.5 -458.5t-200.5 -421.5h-158q260 432 260 880q0 221 -67 446.5t-193 434.5h158z" />
    <glyph glyph-name="asterisk" unicode="*" horiz-adv-x="937" 
d="M291 733l-101 74l179 235l-287 97l39 118l285 -96v295h124v-295l285 96l41 -118l-289 -97l178 -235l-98 -74l-180 240z" />
    <glyph glyph-name="plus" unicode="+" horiz-adv-x="1269" 
d="M162 578v143h399v401h144v-401h401v-143h-401v-400h-144v400h-399z" />
    <glyph glyph-name="comma" unicode="," horiz-adv-x="419" 
d="M41 -133q44 0 71 29.5t27 76.5v217h168v-223q0 -107 -63 -174t-166 -67h-66v141h29z" />
    <glyph glyph-name="hyphen" unicode="-" horiz-adv-x="940" 
d="M96 578v143h748v-143h-748z" />
    <glyph glyph-name="period" unicode="." horiz-adv-x="442" 
d="M127 190h186v-190h-186v190z" />
    <glyph glyph-name="slash" unicode="/" horiz-adv-x="845" 
d="M29 0l643 1434h145l-645 -1434h-143z" />
    <glyph glyph-name="zero" unicode="0" horiz-adv-x="1296" 
d="M610 -16q-254 0 -370.5 169t-116.5 506v115q0 337 116.5 506.5t370.5 169.5h72q256 0 372.5 -169.5t116.5 -506.5v-115q0 -337 -116.5 -506t-372.5 -169h-72zM299 639q0 -253 76 -375.5t241 -122.5h64q165 0 241 122.5t76 375.5v156q0 252 -76 374.5t-241 122.5h-64
q-165 0 -241 -122.5t-76 -374.5v-156z" />
    <glyph glyph-name="one" unicode="1" horiz-adv-x="663" 
d="M485 1434v-1434h-174v1135q-35 -50 -129 -50h-135v158h115q73 0 108.5 41t44.5 150h170z" />
    <glyph glyph-name="two" unicode="2" horiz-adv-x="1163" 
d="M117 969q-7 219 122 350t351 131q205 0 335 -117.5t130 -310.5q0 -140 -85 -255.5t-249 -197.5l-205 -104q-102 -52 -175 -131.5t-73 -175.5h795v-158h-965v125q0 74 22.5 142t57.5 119t82.5 96.5t92.5 75.5t93 54l220 113q112 57 160 130t48 171q0 122 -79.5 196
t-204.5 74q-138 0 -218.5 -89.5t-74.5 -237.5h-180z" />
    <glyph glyph-name="three" unicode="3" horiz-adv-x="1198" 
d="M592 -16q-219 0 -365.5 130t-146.5 337h172q0 -138 96.5 -224t243.5 -86q152 0 240 70.5t88 196.5q0 124 -87.5 191t-240.5 67h-115v153h115q125 0 198.5 69.5t73.5 178.5q0 105 -76 165t-206 60q-124 0 -199 -70t-82 -196h-170q7 193 133 308.5t320 115.5
q199 0 327.5 -106.5t128.5 -270.5q0 -106 -58 -193t-148 -126q118 -38 192 -130.5t74 -217.5q0 -100 -41 -181t-111.5 -133t-162 -80t-193.5 -28z" />
    <glyph glyph-name="four" unicode="4" horiz-adv-x="1292" 
d="M838 0v358h-768v158l739 918h205v-918h223v-158h-223v-358h-176zM256 516h584v725z" />
    <glyph glyph-name="five" unicode="5" horiz-adv-x="1181" 
d="M573 -16q-196 0 -331 118t-154 301h170q15 -125 98.5 -193.5t214.5 -68.5q160 0 254.5 87.5t94.5 240.5q0 154 -95 247t-252 93q-116 0 -198 -44.5t-115 -123.5h-143l110 793h770v-158h-637l-63 -432q54 51 136 84t163 33q224 0 364 -137t140 -355q0 -217 -146.5 -351
t-380.5 -134z" />
    <glyph glyph-name="six" unicode="6" horiz-adv-x="1261" 
d="M645 958q222 0 364 -137.5t142 -349.5t-145.5 -349.5t-368.5 -137.5q-245 0 -389 179.5t-144 477.5q0 197 42.5 353t118.5 255.5t177.5 151t221.5 51.5q197 0 332 -106t163 -277h-174q-25 106 -108.5 166.5t-210.5 60.5q-112 0 -201 -74.5t-139 -201.5t-56 -285
q44 99 149.5 161t225.5 62zM305 473q0 -145 94 -238.5t240 -93.5q145 0 238.5 93.5t93.5 238.5q0 143 -93.5 235.5t-238.5 92.5q-146 0 -240 -92.5t-94 -235.5z" />
    <glyph glyph-name="seven" unicode="7" horiz-adv-x="1097" 
d="M309 0q1 92 9 165.5t30 166t67.5 194t116.5 215.5l330 535h-835v158h1032v-144l-391 -649q-111 -185 -147 -329.5t-38 -311.5h-174z" />
    <glyph glyph-name="eight" unicode="8" horiz-adv-x="1216" 
d="M608 -16q-104 0 -196 28.5t-162 81t-111 134t-41 180.5q0 127 75.5 226t191.5 138q-93 44 -151 121.5t-58 179.5q0 166 126 271.5t326 105.5q201 0 327 -105.5t126 -271.5q0 -102 -58 -179.5t-151 -121.5q117 -39 191.5 -137.5t74.5 -226.5q0 -99 -41 -180.5t-111 -134
t-162 -81t-196 -28.5zM276 408q0 -124 90 -195.5t242 -71.5t242 71.5t90 195.5q0 127 -90 199.5t-242 72.5t-242 -72.5t-90 -199.5zM330 1071q0 -107 75 -169t203 -62t203.5 62t75.5 169q0 105 -75.5 165t-203.5 60t-203 -60t-75 -165z" />
    <glyph glyph-name="nine" unicode="9" horiz-adv-x="1261" 
d="M616 475q-222 0 -363.5 138t-141.5 350t145.5 349.5t368.5 137.5q245 0 388.5 -179.5t143.5 -477.5q0 -197 -42.5 -353t-118.5 -255.5t-177 -151t-221 -51.5q-197 0 -332.5 106t-163.5 277h174q25 -106 109 -167t211 -61q168 0 277 160t118 401q-44 -99 -149.5 -161
t-225.5 -62zM291 961q0 -143 93.5 -235.5t238.5 -92.5q146 0 239.5 92.5t93.5 235.5q0 145 -93.5 238t-239.5 93q-145 0 -238.5 -93t-93.5 -238z" />
    <glyph glyph-name="colon" unicode=":" horiz-adv-x="444" 
d="M129 940h186v-190h-186v190zM129 0v190h186v-190h-186z" />
    <glyph glyph-name="semicolon" unicode=";" horiz-adv-x="530" 
d="M96 -133q44 0 71.5 29.5t27.5 76.5v217h167v-223q0 -107 -63 -174t-166 -67h-65v141h28zM184 750v190h187v-190h-187z" />
    <glyph glyph-name="less" unicode="&#x3c;" horiz-adv-x="1269" 
d="M1006 174l-762 381v160l762 381v-164l-615 -297l615 -297v-164z" />
    <glyph glyph-name="equal" unicode="=" horiz-adv-x="1269" 
d="M162 307v144h944v-144h-944zM162 766v143h944v-143h-944z" />
    <glyph glyph-name="greater" unicode="&#x3e;" horiz-adv-x="1269" 
d="M264 174v164l613 297l-613 297v164l762 -381v-160z" />
    <glyph glyph-name="question" unicode="?" horiz-adv-x="1021" 
d="M481 324q-154 0 -240.5 68t-86.5 204q0 62 21.5 109t57.5 75t83 48.5t99 32.5t104 23.5t99 26t83 35t57.5 55t21.5 82.5q0 104 -68 160.5t-190 56.5q-124 0 -205.5 -68.5t-87.5 -187.5h-166q7 185 135 295.5t324 110.5q200 0 319.5 -99t119.5 -266q0 -83 -35.5 -143.5
t-92 -93t-125 -55t-137 -38t-125 -33t-92 -48t-35.5 -76.5q0 -133 166 -133h291v-141h-295zM399 0v190h187v-190h-187z" />
    <glyph glyph-name="at" unicode="@" horiz-adv-x="1839" 
d="M1018 1470q162 0 296.5 -51t226.5 -142.5t143 -220t51 -280.5v-180q0 -177 -79.5 -285t-215.5 -108q-91 0 -162 41t-90 104q-32 -68 -112 -109.5t-191 -41.5q-188 0 -294 119t-104 305q0 187 104.5 305t291.5 118q83 0 158.5 -36.5t115.5 -96.5v121h148v-563
q0 -54 38 -88.5t95 -34.5q71 0 110 66t39 184v180q0 244 -155.5 398.5t-413.5 154.5h-172q-267 0 -432.5 -159t-165.5 -414v-250q0 -268 155 -431t408 -163h383v-141h-383q-320 0 -515.5 201t-195.5 534v250q0 212 93 374t262.5 251t390.5 89h172zM633 621q0 -136 72.5 -219
t193.5 -83q122 1 194 83.5t72 218.5q0 137 -72 219t-194 82q-121 0 -193.5 -82t-72.5 -219z" />
    <glyph glyph-name="A" unicode="A" horiz-adv-x="1351" 
d="M676 1219l-260 -676h518zM27 0l569 1434h160l569 -1434h-182l-148 387h-639l-149 -387h-180z" />
    <glyph glyph-name="B" unicode="B" horiz-adv-x="1282" 
d="M174 0v1434h514q203 0 319.5 -97.5t116.5 -271.5q0 -95 -55.5 -171.5t-134.5 -109.5q117 -39 186.5 -130.5t69.5 -235.5q0 -194 -124.5 -306t-344.5 -112h-547zM348 158h342q158 0 240 67t82 195q0 129 -82 196.5t-240 67.5h-342v-526zM348 840h334q131 0 199.5 55.5
t68.5 165.5q0 219 -266 219h-336v-440z" />
    <glyph glyph-name="C" unicode="C" horiz-adv-x="1470" 
d="M786 -16q-109 0 -209.5 28.5t-188 88t-152.5 144.5t-102.5 206.5t-37.5 265.5q0 145 37.5 266.5t102.5 206.5t153 144.5t188.5 87.5t208.5 28q154 0 286.5 -59.5t217 -165.5t103.5 -238h-183q-20 132 -140 218.5t-284 86.5q-230 0 -370 -151t-140 -424q0 -274 140 -425
t370 -151q167 0 288 86.5t138 218.5h179q-15 -132 -98.5 -238t-216 -165t-290.5 -59z" />
    <glyph glyph-name="D" unicode="D" horiz-adv-x="1406" 
d="M174 0v1434h422q151 0 281.5 -48.5t227.5 -138t152.5 -226.5t55.5 -304t-55.5 -304t-152.5 -226.5t-227.5 -138t-281.5 -48.5h-422zM350 158h244q108 0 202 32.5t170 98t120 175.5t44 253t-44 253t-120 175.5t-170 98t-202 32.5h-244v-1118z" />
    <glyph glyph-name="E" unicode="E" horiz-adv-x="1171" 
d="M174 0v1434h897v-158h-721v-457h588v-157h-588v-504h744v-158h-920z" />
    <glyph glyph-name="F" unicode="F" horiz-adv-x="1112" 
d="M174 0v1434h897v-158h-721v-473h588v-158h-588v-645h-176z" />
    <glyph glyph-name="G" unicode="G" horiz-adv-x="1519" 
d="M782 -16q-107 0 -207.5 29t-188 89t-152.5 145.5t-102.5 206t-37.5 263.5t38 263.5t103.5 206t153.5 145.5t188.5 89t208.5 29q246 0 420 -132t199 -337h-186q-25 137 -146 224t-287 87q-229 0 -371.5 -151t-142.5 -424q0 -272 142.5 -426t369.5 -154q119 0 219.5 41
t163 120t62.5 179q0 50 -30.5 79.5t-82.5 29.5h-323v151h356q41 0 84 -15.5t81.5 -45t63.5 -78t25 -106.5v-492h-164v250q-50 -120 -174.5 -193t-282.5 -73z" />
    <glyph glyph-name="H" unicode="H" horiz-adv-x="1458" 
d="M1108 1434h176v-1434h-176v662h-758v-662h-176v1434h176v-615h758v615z" />
    <glyph glyph-name="I" unicode="I" horiz-adv-x="524" 
d="M174 0v1434h176v-1434h-176z" />
    <glyph glyph-name="J" unicode="J" horiz-adv-x="677" 
d="M201 158q137 0 137 209v1067h174v-1072q0 -178 -77 -270t-222 -92h-188v158h176z" />
    <glyph glyph-name="K" unicode="K" horiz-adv-x="1286" 
d="M352 0h-178v1434h178v-680l664 680h223l-557 -576l618 -858h-210l-529 733l-209 -215v-518z" />
    <glyph glyph-name="L" unicode="L" horiz-adv-x="1089" 
d="M174 0v1434h176v-1276h717v-158h-893z" />
    <glyph glyph-name="M" unicode="M" horiz-adv-x="1748" 
d="M174 0v1434h229l471 -1198l474 1198h227v-1434h-170v1143l-455 -1143h-151l-455 1143v-1143h-170z" />
    <glyph glyph-name="N" unicode="N" horiz-adv-x="1462" 
d="M174 0v1434h201l737 -1168v1168h176v-1434h-201l-737 1163v-1163h-176z" />
    <glyph glyph-name="O" unicode="O" horiz-adv-x="1591" 
d="M795 -16q-149 0 -279.5 55.5t-223.5 152.5t-146.5 233t-53.5 292t53.5 292t146.5 233t223.5 152.5t279.5 55.5q150 0 281 -55.5t223.5 -152.5t146 -233t53.5 -292t-53.5 -292t-146 -233t-223.5 -152.5t-281 -55.5zM272 717q0 -247 149.5 -411.5t373.5 -164.5
q148 0 268 74.5t188 206.5t68 295t-68 294.5t-188 206t-268 74.5q-224 0 -373.5 -164t-149.5 -411z" />
    <glyph glyph-name="P" unicode="P" horiz-adv-x="1222" 
d="M174 0v1434h541q210 0 333 -116.5t123 -307.5t-123 -307.5t-333 -116.5h-365v-586h-176zM350 741h365q141 0 208.5 76t67.5 193q0 116 -67.5 192t-208.5 76h-365v-537z" />
    <glyph glyph-name="Q" unicode="Q" horiz-adv-x="1591" 
d="M1251 -276v-142h-184q-177 0 -263.5 77.5t-86.5 244.5v84q-179 18 -321.5 116t-223 258.5t-80.5 354.5q0 156 53.5 292t146.5 233t223.5 152.5t279.5 55.5q150 0 281 -55.5t223.5 -152.5t146 -233t53.5 -292q0 -194 -79.5 -353.5t-221.5 -258t-321 -117.5v-82
q0 -101 45.5 -141.5t148.5 -40.5h180zM272 717q0 -247 149.5 -411.5t373.5 -164.5q148 0 268 74.5t188 206.5t68 295t-68 294.5t-188 206t-268 74.5q-224 0 -373.5 -164t-149.5 -411z" />
    <glyph glyph-name="R" unicode="R" horiz-adv-x="1292" 
d="M174 0v1434h545q210 0 332.5 -115t122.5 -305q0 -115 -59.5 -200t-164.5 -134q84 -46 133.5 -130.5t57.5 -193.5l24 -356h-170l-24 346q-6 105 -70 171.5t-164 66.5h-387v-584h-176zM350 741h367q142 0 210 78t68 195q0 116 -67.5 190t-210.5 74h-367v-537z" />
    <glyph glyph-name="S" unicode="S" horiz-adv-x="1234" 
d="M621 -16q-240 0 -385.5 131.5t-159.5 353.5h172q14 -152 111 -240t262 -88q157 0 250.5 62.5t93.5 187.5q0 59 -28.5 103.5t-77.5 72.5t-112 50t-132.5 40.5t-139 39t-132.5 51.5t-112 71.5t-77.5 104t-28.5 145.5q0 170 134.5 275.5t350.5 105.5q215 0 353 -115.5
t153 -308.5h-172q-12 122 -101 194t-233 72t-226.5 -60t-82.5 -163q0 -58 29 -101.5t77.5 -70t112 -47t133.5 -38t140 -37.5t133.5 -50.5t112 -72.5t77.5 -108.5t29 -152.5q0 -190 -146 -298.5t-378 -108.5z" />
    <glyph glyph-name="T" unicode="T" horiz-adv-x="1138" 
d="M483 0v1276h-460v158h1091v-158h-457v-1276h-174z" />
    <glyph glyph-name="U" unicode="U" horiz-adv-x="1406" 
d="M702 -16q-245 0 -392.5 137.5t-147.5 370.5v942h172v-951q0 -157 100.5 -249.5t267.5 -92.5q168 0 269.5 92.5t101.5 249.5v951h172v-942q0 -233 -148.5 -370.5t-394.5 -137.5z" />
    <glyph glyph-name="V" unicode="V" horiz-adv-x="1325" 
d="M573 0l-540 1434h178l451 -1231l454 1231h178l-542 -1434h-179z" />
    <glyph glyph-name="W" unicode="W" horiz-adv-x="2029" 
d="M483 0l-442 1434h180l354 -1170l361 1170h156l362 -1170l354 1170h181l-441 -1434h-178l-354 1165l-357 -1165h-176z" />
    <glyph glyph-name="X" unicode="X" horiz-adv-x="1157" 
d="M25 0l462 727l-448 707h182l357 -564l358 564h182l-448 -707l460 -727h-184l-368 582l-369 -582h-184z" />
    <glyph glyph-name="Y" unicode="Y" horiz-adv-x="1271" 
d="M549 0v600l-508 834h199l397 -666l395 666h199l-508 -834v-600h-174z" />
    <glyph glyph-name="Z" unicode="Z" horiz-adv-x="1210" 
d="M55 0v158l877 1118h-830v158h1031v-158l-875 -1118h877v-158h-1080z" />
    <glyph glyph-name="bracketleft" unicode="[" horiz-adv-x="641" 
d="M170 -270v1761h414v-141h-254v-1479h254v-141h-414z" />
    <glyph glyph-name="backslash" unicode="\" horiz-adv-x="845" 
d="M817 0h-143l-645 1434h145z" />
    <glyph glyph-name="bracketright" unicode="]" horiz-adv-x="641" 
d="M471 1491v-1761h-414v141h254v1479h-254v141h414z" />
    <glyph glyph-name="asciicircum" unicode="^" horiz-adv-x="1269" 
d="M160 870l411 564h129l410 -564h-174l-301 418l-299 -418h-176z" />
    <glyph glyph-name="underscore" unicode="_" horiz-adv-x="1189" 
d="M123 -143v143h944v-143h-944z" />
    <glyph glyph-name="grave" unicode="`" horiz-adv-x="1228" 
d="M410 1145h-156l-213 303h190z" />
    <glyph glyph-name="a" unicode="a" horiz-adv-x="1124" 
d="M465 -16q-163 0 -261 85t-98 226q0 147 112 234t300 87h234q65 0 65 56q0 108 -73 172.5t-203 64.5q-113 0 -193 -60.5t-86 -146.5h-156q9 98 69.5 177.5t158 124.5t211.5 45q200 0 318 -105t118 -278v-666h-164v178q-41 -89 -136.5 -141.5t-215.5 -52.5zM274 297
q0 -80 58.5 -127t156.5 -47q155 0 241.5 91t86.5 251v27h-289q-116 0 -185 -52.5t-69 -142.5z" />
    <glyph glyph-name="b" unicode="b" horiz-adv-x="1245" 
d="M662 -16q-108 0 -202 51t-141 135v-170h-163v1456h163v-592q47 84 141 134.5t204 50.5q157 0 271 -71t170 -190.5t56 -271.5t-56 -271t-170.5 -190t-272.5 -71zM305 516q0 -175 93.5 -280t250.5 -105q155 0 248.5 105t93.5 280t-93.5 280t-248.5 105q-157 0 -250.5 -105
t-93.5 -280z" />
    <glyph glyph-name="c" unicode="c" horiz-adv-x="1128" 
d="M586 -16q-118 0 -215 44t-159 118.5t-95 169.5t-33 200t33 200t95 169.5t159 119t215 44.5q179 0 312.5 -99t156.5 -266h-162q-15 94 -101.5 155.5t-203.5 61.5q-109 0 -186 -53t-112.5 -138.5t-35.5 -193.5q0 -167 87 -276t247 -109q116 0 196.5 54t108.5 149h160
q-27 -161 -150 -255.5t-317 -94.5z" />
    <glyph glyph-name="d" unicode="d" horiz-adv-x="1245" 
d="M584 -16q-234 0 -366 149t-132 383q0 152 56.5 271.5t170.5 190.5t271 71q109 0 202.5 -51t139.5 -134v592h164v-1456h-164v170q-46 -85 -139.5 -135.5t-202.5 -50.5zM256 516q0 -175 93.5 -280t248.5 -105t248.5 105t93.5 280t-93.5 280t-248.5 105t-248.5 -105
t-93.5 -280z" />
    <glyph glyph-name="e" unicode="e" horiz-adv-x="1148" 
d="M594 -16q-149 0 -266.5 73t-180.5 195.5t-63 269.5q0 231 133.5 379t357.5 148q147 0 257.5 -64t167.5 -173t57 -247q0 -43 -4 -71h-807q9 -161 105.5 -263t242.5 -102q125 0 203.5 52.5t103.5 150.5h166q-26 -159 -154 -253.5t-319 -94.5zM254 625h635q-9 131 -93 207.5
t-221 76.5q-131 0 -214.5 -74t-106.5 -210z" />
    <glyph glyph-name="f" unicode="f" horiz-adv-x="743" 
d="M244 0v887h-215v145h215v105q0 148 86.5 233.5t234.5 85.5h162v-145h-156q-74 0 -118.5 -47t-44.5 -129v-103h319v-145h-319v-887h-164z" />
    <glyph glyph-name="g" unicode="g" horiz-adv-x="1245" 
d="M221 -418v142h477q100 0 164 67t64 170v182q-35 -72 -129.5 -115.5t-212.5 -43.5q-234 0 -366 149t-132 383q0 152 56.5 271.5t170.5 190.5t271 71q104 0 199.5 -47t142.5 -121v151h164v-1077q0 -164 -107 -268.5t-274 -104.5h-488zM256 516q0 -175 93.5 -280t248.5 -105
t248.5 105t93.5 280t-93.5 280t-248.5 105t-248.5 -105t-93.5 -280z" />
    <glyph glyph-name="h" unicode="h" horiz-adv-x="1187" 
d="M156 0v1456h163v-622q40 105 130.5 160t212.5 55q175 0 280 -114.5t105 -303.5v-631h-164v604q0 132 -70.5 213.5t-187.5 81.5q-134 0 -220 -96t-86 -246v-557h-163z" />
    <glyph glyph-name="i" unicode="i" horiz-adv-x="477" 
d="M156 0v1032h163v-1032h-163zM143 1227v229h189v-229h-189z" />
    <glyph glyph-name="j" unicode="j" horiz-adv-x="477" 
d="M-72 -418v142h86q69 0 105.5 47.5t36.5 138.5v1122h163v-1128q0 -157 -75 -239.5t-219 -82.5h-97zM143 1227v229h189v-229h-189z" />
    <glyph glyph-name="k" unicode="k" horiz-adv-x="1056" 
d="M156 0v1456h166v-862l487 438h217l-444 -403l483 -629h-207l-399 518l-137 -125v-393h-166z" />
    <glyph glyph-name="l" unicode="l" horiz-adv-x="477" 
d="M156 0v1456h163v-1456h-163z" />
    <glyph glyph-name="m" unicode="m" horiz-adv-x="1806" 
d="M156 0v1032h163v-198q32 97 114.5 156t199.5 59q130 0 221 -58t117 -162q30 93 124 156.5t210 63.5q168 0 264 -106.5t96 -293.5v-649h-164v606q0 134 -62.5 215.5t-170.5 81.5q-129 0 -203 -81.5t-74 -215.5v-606h-164v606q0 133 -62.5 215t-168.5 82
q-128 0 -202.5 -81.5t-74.5 -215.5v-606h-163z" />
    <glyph glyph-name="n" unicode="n" horiz-adv-x="1187" 
d="M156 0v1032h163v-198q40 105 130.5 160t212.5 55q175 0 280 -114.5t105 -303.5v-631h-164v604q0 132 -70.5 213.5t-187.5 81.5q-134 0 -220 -96t-86 -246v-557h-163z" />
    <glyph glyph-name="o" unicode="o" horiz-adv-x="1218" 
d="M608 -16q-229 0 -376.5 150t-147.5 382q0 233 147.5 383t376.5 150q230 0 378.5 -150t148.5 -383q0 -232 -148.5 -382t-378.5 -150zM252 516q0 -169 99 -277t257 -108q159 0 259 108t100 277t-100 277t-259 108q-158 0 -257 -108t-99 -277z" />
    <glyph glyph-name="p" unicode="p" horiz-adv-x="1245" 
d="M156 -418v1450h163v-170q47 85 142 136t205 51q231 0 363 -150t132 -383q0 -152 -57.5 -271.5t-172.5 -190t-272 -70.5q-108 0 -201 49.5t-139 132.5v-584h-163zM305 516q0 -175 93.5 -280t250.5 -105q155 0 248.5 105t93.5 280t-93.5 280t-248.5 105q-157 0 -250.5 -105
t-93.5 -280z" />
    <glyph glyph-name="q" unicode="q" horiz-adv-x="1245" 
d="M1090 -418h-164v584q-46 -83 -138.5 -132.5t-201.5 -49.5q-155 0 -270 70.5t-172.5 190t-57.5 271.5q0 233 132 383t364 150q110 0 203.5 -51t140.5 -136v170h164v-1450zM256 516q0 -175 93.5 -280t248.5 -105t248.5 105t93.5 280t-93.5 280t-248.5 105t-248.5 -105
t-93.5 -280z" />
    <glyph glyph-name="r" unicode="r" horiz-adv-x="759" 
d="M590 887q-271 0 -271 -432v-455h-163v1032h163v-209q34 107 101 158t180 51h131v-145h-141z" />
    <glyph glyph-name="s" unicode="s" horiz-adv-x="954" 
d="M487 -16q-178 0 -288.5 93.5t-122.5 254.5h157q10 -100 75.5 -152.5t178.5 -52.5q96 0 157 45.5t61 110.5q0 62 -33.5 99t-86.5 52t-117.5 24.5t-128.5 24t-117 41t-86.5 86.5t-33.5 150q0 130 101 209.5t266 79.5q168 0 275 -86.5t116 -229.5h-158q-7 61 -48.5 103
t-89.5 57.5t-99 15.5q-91 0 -146 -40t-55 -107q0 -44 20.5 -73.5t55.5 -44.5t80.5 -24t95.5 -15.5t100 -16t95.5 -30t80.5 -52.5t55.5 -87.5t20.5 -131.5q0 -137 -105 -220t-276 -83z" />
    <glyph glyph-name="t" unicode="t" horiz-adv-x="772" 
d="M240 1362h163v-330h318v-145h-318v-559q0 -85 45 -134t121 -49h152v-145h-158q-149 0 -236 87t-87 237v563h-215v145h215v330z" />
    <glyph glyph-name="u" unicode="u" horiz-adv-x="1187" 
d="M1032 1032v-1032h-164v199q-40 -105 -129.5 -160t-210.5 -55q-175 0 -280 114t-105 303v631h164v-604q0 -132 70.5 -213.5t187.5 -81.5q132 0 217.5 96t85.5 246v557h164z" />
    <glyph glyph-name="v" unicode="v" horiz-adv-x="1011" 
d="M420 0l-379 1032h170l293 -827l295 827h170l-377 -1032h-172z" />
    <glyph glyph-name="w" unicode="w" horiz-adv-x="1546" 
d="M362 0l-313 1032h164l227 -819l254 819h160l252 -819l225 819h166l-313 -1032h-158l-254 821l-252 -821h-158z" />
    <glyph glyph-name="x" unicode="x" horiz-adv-x="960" 
d="M190 0h-174l375 543l-342 489h182l250 -360l250 360h182l-342 -489l375 -543h-174l-291 416z" />
    <glyph glyph-name="y" unicode="y" horiz-adv-x="1011" 
d="M295 -418l133 402l-387 1048h170l293 -819l295 819h170l-334 -913l-182 -537h-158z" />
    <glyph glyph-name="z" unicode="z" horiz-adv-x="993" 
d="M68 0v145l639 742h-609v145h799v-145l-633 -742h662v-145h-858z" />
    <glyph glyph-name="braceleft" unicode="{" horiz-adv-x="647" 
d="M457 -270q-94 0 -154.5 57.5t-60.5 153.5v428q0 91 -40 130.5t-132 39.5v143q92 0 132 39.5t40 130.5v428q0 96 60.5 153.5t154.5 57.5h118v-141h-65q-57 0 -83 -23.5t-26 -77.5v-440q0 -89 -35 -133t-106 -66q71 -22 106 -65.5t35 -132.5v-441q0 -54 26 -77t83 -23h65
v-141h-118z" />
    <glyph glyph-name="bar" unicode="|" horiz-adv-x="505" 
d="M174 -102v1638h160v-1638h-160z" />
    <glyph glyph-name="braceright" unicode="}" horiz-adv-x="647" 
d="M190 1491q94 0 155 -57.5t61 -153.5v-428q0 -91 40 -130.5t132 -39.5v-143q-92 0 -132 -39.5t-40 -130.5v-428q0 -96 -61 -153.5t-155 -57.5h-118v141h65q57 0 83 23t26 77v441q0 89 35 132.5t106 65.5q-71 22 -106 66t-35 133v440q0 54 -26 77.5t-83 23.5h-65v141h118z
" />
    <glyph glyph-name="asciitilde" unicode="~" horiz-adv-x="1269" 
d="M842 516q-54 0 -102.5 17t-84.5 41.5t-69.5 49t-71.5 41.5t-76 17q-59 0 -97.5 -43t-43.5 -113h-152q9 143 90 227.5t201 84.5q53 0 101 -17t84.5 -41.5t71 -49t72.5 -41.5t75 -17q55 0 95 40t46 115h149q-10 -144 -89.5 -227.5t-198.5 -83.5z" />
    <glyph glyph-name="exclamdown" unicode="&#xa1;" horiz-adv-x="479" 
d="M133 -418l47 1110h121l47 -1110h-215zM150 825v191h186v-191h-186z" />
    <glyph glyph-name="cent" unicode="&#xa2;" horiz-adv-x="1169" 
d="M545 -240v228q-137 16 -237 94.5t-148.5 190.5t-48.5 243t48.5 243t148.5 190.5t237 94.5v230h153v-232q152 -23 257.5 -117.5t125.5 -240.5h-161q-15 94 -102 155.5t-204 61.5q-161 0 -247 -108.5t-86 -276.5q0 -167 86.5 -276t246.5 -109q116 0 197 54.5t109 148.5h159
q-24 -141 -123.5 -232.5t-257.5 -111.5v-230h-153z" />
    <glyph glyph-name="sterling" unicode="&#xa3;" horiz-adv-x="1206" 
d="M139 154q100 106 146.5 195t46.5 194q0 46 -17 102h-225v152h166q-59 141 -59 235q0 193 122.5 305.5t315.5 112.5q86 0 162.5 -26t138 -75.5t99.5 -129t42 -179.5h-174q-8 129 -82.5 190.5t-185.5 61.5q-114 0 -186 -68.5t-72 -195.5q0 -40 10 -84t20 -70.5t31 -76.5
h430v-152h-374q14 -58 14 -102q0 -178 -172 -385h536q34 0 53 18.5t19 52.5v136h176v-144q0 -107 -57 -164t-164 -57h-760v154z" />
    <glyph glyph-name="currency" unicode="&#xa4;" horiz-adv-x="1363" 
d="M1157 -76l-153 158q-134 -98 -318 -98q-188 0 -321 102l-160 -162l-115 115l162 162q-92 134 -92 315q0 179 92 313l-162 166l113 113l162 -160q138 101 321 101q180 0 315 -99l158 158l115 -113l-158 -159q94 -140 94 -320q0 -184 -96 -319l160 -158zM330 516
q0 -170 98.5 -277.5t257.5 -107.5t257.5 107.5t98.5 277.5t-98.5 277.5t-257.5 107.5t-257.5 -107.5t-98.5 -277.5z" />
    <glyph glyph-name="yen" unicode="&#xa5;" horiz-adv-x="1290" 
d="M174 594v141h301l-426 699h199l397 -666l395 666h199l-426 -699h307v-141h-389v-197h389v-141h-389v-256h-174v256h-383v141h383v197h-383z" />
    <glyph glyph-name="brokenbar" unicode="&#xa6;" horiz-adv-x="505" 
d="M174 821v715h160v-715h-160zM174 -102v714h160v-714h-160z" />
    <glyph glyph-name="section" unicode="&#xa7;" horiz-adv-x="1210" 
d="M94 25h166q12 -139 102 -221.5t240 -82.5q141 0 225 58t84 172q0 55 -27 96t-73.5 66.5t-106 45.5t-125.5 37.5t-132 37t-125.5 48.5t-106 67.5t-73.5 99.5t-27 139q0 143 139 252q-115 90 -115 250q0 161 126 260.5t327 99.5q202 0 330.5 -108.5t140.5 -292.5h-162
q-11 111 -95 178t-214 67q-131 0 -205 -55t-74 -149q0 -54 27.5 -94t74 -64.5t106.5 -43.5t126.5 -35t132.5 -34.5t126 -48t106.5 -68.5t74 -102t27.5 -145q0 -145 -123 -252q104 -94 99 -250q-3 -120 -67 -208.5t-172.5 -133.5t-248.5 -45q-223 0 -359.5 125t-148.5 334z
M289 588q0 -51 25.5 -90t65 -62t99.5 -44t115.5 -33.5t127 -32t122.5 -39.5q90 66 90 168q0 50 -24 88.5t-60 62.5t-93 45t-108.5 34.5t-121 33t-117.5 37.5q-57 -27 -89 -70.5t-32 -97.5z" />
    <glyph glyph-name="dieresis" unicode="&#xa8;" horiz-adv-x="745" 
d="M506 1409h156v-188h-156v188zM170 1221v188h156v-188h-156z" />
    <glyph glyph-name="copyright" unicode="&#xa9;" horiz-adv-x="1822" 
d="M915 287q-84 0 -159 28t-133.5 81t-92.5 138.5t-34 192.5t34.5 192.5t93 138.5t133 81t158.5 28q149 0 252.5 -79t122.5 -209h-137q-13 79 -78.5 126.5t-159.5 47.5q-128 0 -207 -86t-79 -240t79 -240t207 -86q96 0 162 48t80 126h133q-15 -129 -119 -208.5t-256 -79.5z
M113 717q0 166 62 314.5t168 254.5t254 168t314 62t314.5 -62t254.5 -168t168 -254.5t62 -314.5q0 -221 -105 -404.5t-288.5 -289t-405.5 -105.5q-166 0 -314 62t-254 168.5t-168 254.5t-62 314zM231 717q1 -143 54 -270t143.5 -218.5t216 -144.5t266.5 -53t267 53
t216 144.5t143 218.5t54 270q-1 143 -54 270t-143 218.5t-216 144.5t-267 53t-266.5 -53t-216 -144.5t-143.5 -218.5t-54 -270z" />
    <glyph glyph-name="ordfeminine" unicode="&#xaa;" horiz-adv-x="763" 
d="M315 811q-92 0 -151.5 53t-59.5 133q0 94 62 145.5t180 51.5h133q37 0 37 39q0 54 -42.5 88.5t-108.5 34.5q-62 0 -104 -35.5t-44 -83.5h-113q8 91 81.5 152t179.5 61q118 0 193 -62t75 -163v-404h-117v99q-24 -48 -79 -78.5t-122 -30.5zM225 1001q0 -40 33 -67t80 -27
q84 0 131 50t47 137v18h-156q-135 0 -135 -111z" />
    <glyph glyph-name="guillemotleft" unicode="&#xab;" horiz-adv-x="1355" 
d="M1233 172l-600 412v102l600 412v-172l-430 -291l430 -291v-172zM100 584v102l600 412v-172l-430 -291l430 -291v-172z" />
    <glyph glyph-name="logicalnot" unicode="&#xac;" horiz-adv-x="1269" 
d="M936 283v362h-793v150h961v-512h-168z" />
    <glyph glyph-name="uni00AD" unicode="&#xad;" horiz-adv-x="940" 
d="M96 578v143h748v-143h-748z" />
    <glyph glyph-name="registered" unicode="&#xae;" horiz-adv-x="1124" 
d="M561 614q-195 0 -322.5 128.5t-127.5 324.5q0 195 127.5 322t322.5 127t323 -127t128 -322q0 -197 -127.5 -325t-323.5 -128zM209 1067q0 -157 98.5 -258.5t253.5 -101.5t254.5 102t99.5 258q0 155 -100 255.5t-254 100.5t-253 -100.5t-99 -255.5zM385 829v484h201
q75 0 118.5 -39t43.5 -103q0 -40 -17.5 -70t-46.5 -42q49 -26 55 -101l11 -129h-95l-12 115q-3 34 -16.5 48t-44.5 14h-99v-177h-98zM483 1092h92q74 0 74 67q0 31 -17.5 50.5t-56.5 19.5h-92v-137z" />
    <glyph glyph-name="macron" unicode="&#xaf;" horiz-adv-x="739" 
d="M41 1210v138h545v-138h-545z" />
    <glyph glyph-name="degree" unicode="&#xb0;" horiz-adv-x="751" 
d="M375 969q-111 0 -180.5 67.5t-69.5 171.5q0 103 69.5 170.5t180.5 67.5q110 0 181 -68t71 -170q0 -103 -71 -171t-181 -68zM244 1208q0 -55 37 -90t94 -35q58 0 94.5 34.5t36.5 90.5q0 54 -36.5 88.5t-94.5 34.5q-57 0 -94 -34.5t-37 -88.5z" />
    <glyph glyph-name="plusminus" unicode="&#xb1;" horiz-adv-x="1269" 
d="M162 760v143h399v402h144v-402h401v-143h-401v-400h-144v400h-399zM162 0v143h944v-143h-944z" />
    <glyph glyph-name="uni00B2" unicode="&#xb2;" horiz-adv-x="724" 
d="M74 1229q-4 136 75.5 216.5t215.5 80.5q128 0 208 -72t80 -190q0 -172 -200 -273l-117 -57q-135 -73 -137 -164h456v-115h-587l-2 93q0 52 19.5 99.5t52 82.5t65.5 59.5t69 42.5l134 68q116 61 116 166q0 67 -43.5 108t-113.5 41q-75 0 -118.5 -51t-39.5 -135h-133z" />
    <glyph glyph-name="uni00B3" unicode="&#xb3;" horiz-adv-x="739" 
d="M365 645q-133 0 -223.5 78t-90.5 203h127q0 -75 53.5 -120.5t133.5 -45.5q84 0 131 38t47 107q0 67 -47 103t-131 36h-72v111h69q68 0 108 38t40 99q0 57 -42 90t-112 33q-67 0 -108.5 -38.5t-44.5 -106.5h-121q3 114 80.5 185t195.5 71q121 0 202 -66t81 -164
q0 -58 -34 -109.5t-85 -78.5q70 -26 112 -79t42 -126q0 -120 -90 -189t-221 -69z" />
    <glyph glyph-name="acute" unicode="&#xb4;" horiz-adv-x="561" 
d="M92 1145l178 303h191l-213 -303h-156z" />
    <glyph glyph-name="uni00B5" unicode="&#xb5;" horiz-adv-x="1208" 
d="M160 -418v1450h164v-604q0 -132 70.5 -213.5t187.5 -81.5q132 0 217.5 96t85.5 246v557h164v-1032h-164v199q-38 -105 -124 -160t-204 -55q-132 0 -233 98v-500h-164z" />
    <glyph glyph-name="paragraph" unicode="&#xb6;" horiz-adv-x="1310" 
d="M434 678q-166 0 -282.5 110t-116.5 267q0 158 116.5 268.5t282.5 110.5h795v-148h-131v-1704h-164v1704h-334v-1704h-166v1096z" />
    <glyph glyph-name="periodcentered" unicode="&#xb7;" horiz-adv-x="448" 
d="M131 831h188v-229h-188v229z" />
    <glyph glyph-name="cedilla" unicode="&#xb8;" horiz-adv-x="499" 
d="M156 -162l92 197h110l-67 -137q106 11 176 -29.5t70 -122.5q0 -87 -70.5 -132.5t-190.5 -45.5q-86 0 -159 29v102q79 -29 159 -29q134 0 134 74q0 45 -65 59.5t-132 -6.5z" />
    <glyph glyph-name="uni00B9" unicode="&#xb9;" horiz-adv-x="438" 
d="M326 1516v-861h-129v660q-22 -31 -88 -31h-76v115h67q47 0 71 25.5t30 91.5h125z" />
    <glyph glyph-name="ordmasculine" unicode="&#xba;" horiz-adv-x="817" 
d="M410 811q-140 0 -230 90t-90 229q0 140 90 230t230 90q138 0 228.5 -90.5t90.5 -229.5t-90.5 -229t-228.5 -90zM213 1130q0 -94 54.5 -152t142.5 -58q87 0 140.5 58t53.5 152q0 96 -53 154.5t-141 58.5t-142.5 -59t-54.5 -154z" />
    <glyph glyph-name="guillemotright" unicode="&#xbb;" horiz-adv-x="1353" 
d="M655 172v172l428 291l-428 291v172l598 -412v-102zM125 172v172l428 291l-428 291v172l598 -412v-102z" />
    <glyph glyph-name="onequarter" unicode="&#xbc;" horiz-adv-x="1660" 
d="M346 1434v-861h-129v660q-22 -31 -88 -31h-76v115h68q47 0 70.5 25.5t29.5 91.5h125zM158 0l1040 1434h154l-1041 -1434h-153zM907 201v114l436 545h146v-545h123v-114h-123v-201h-131v201h-451zM1040 315h318v396z" />
    <glyph glyph-name="onehalf" unicode="&#xbd;" horiz-adv-x="1777" 
d="M354 1434v-861h-129v660q-22 -31 -88 -31h-76v115h68q47 0 70.5 25.5t29.5 91.5h125zM164 0l1040 1434h154l-1041 -1434h-153zM1098 92q0 52 19.5 99.5t52.5 82.5t66 60t69 43l133 67q116 61 116 166q0 67 -44 108.5t-113 41.5q-75 0 -118.5 -51.5t-39.5 -135.5h-133
q-4 136 75.5 216.5t215.5 80.5q128 0 208.5 -72t80.5 -190q0 -171 -201 -272l-117 -57q-135 -73 -137 -164h457v-115h-588z" />
    <glyph glyph-name="threequarters" unicode="&#xbe;" horiz-adv-x="1941" 
d="M391 563q-133 0 -223 78t-90 203h127q0 -75 53 -120.5t133 -45.5q84 0 131 38t47 107q0 67 -47 103.5t-131 36.5h-72v110h70q68 0 108 38t40 99q0 57 -42 90t-112 33q-67 0 -109 -38.5t-45 -106.5h-120q3 114 80.5 185t195.5 71q121 0 202 -66t81 -164q0 -58 -34 -109.5
t-85 -78.5q69 -26 111 -78.5t42 -126.5q0 -120 -90 -189t-221 -69zM430 0l1040 1434h154l-1040 -1434h-154zM1180 201v114l436 545h145v-545h123v-114h-123v-201h-131v201h-450zM1313 315h317v396z" />
    <glyph glyph-name="questiondown" unicode="&#xbf;" horiz-adv-x="1003" 
d="M532 692q154 0 241 -68t87 -204q0 -70 -27 -120.5t-71 -78t-100.5 -48t-115 -31t-115 -27t-100.5 -35.5t-71 -57t-27 -91q0 -104 68.5 -160.5t190.5 -56.5q124 0 205 68.5t87 187.5h166q-7 -185 -134.5 -295t-323.5 -110q-200 0 -319.5 98.5t-119.5 265.5q0 66 22 117
t59 84t85 57t101.5 39.5t106.5 28.5t101 26t85 30t59 43.5t22 62.5q0 133 -166 133h-290v141h294zM428 825v191h186v-191h-186z" />
    <glyph glyph-name="Agrave" unicode="&#xc0;" horiz-adv-x="1351" 
d="M676 1219l-260 -676h518zM27 0l569 1434h160l569 -1434h-182l-148 387h-639l-149 -387h-180zM434 1808h191l190 -260h-153z" />
    <glyph glyph-name="Aacute" unicode="&#xc1;" horiz-adv-x="1351" 
d="M676 1219l-260 -676h518zM27 0l569 1434h160l569 -1434h-182l-148 387h-639l-149 -387h-180zM594 1548l190 260h191l-227 -260h-154z" />
    <glyph glyph-name="Acircumflex" unicode="&#xc2;" horiz-adv-x="1351" 
d="M676 1219l-260 -676h518zM27 0l569 1434h160l569 -1434h-182l-148 387h-639l-149 -387h-180zM377 1548l223 244h158l225 -244h-156l-147 144l-152 -144h-151z" />
    <glyph glyph-name="Atilde" unicode="&#xc3;" horiz-adv-x="1351" 
d="M676 1219l-260 -676h518zM27 0l569 1434h160l569 -1434h-182l-148 387h-639l-149 -387h-180zM354 1612q7 93 61 151t132 58q52 0 97 -20.5t80 -41t64 -20.5q31 0 52.5 19t29.5 52h125q-6 -95 -59 -151.5t-133 -56.5q-51 0 -96 20t-81 40.5t-65 20.5q-31 0 -52.5 -19.5
t-27.5 -51.5h-127z" />
    <glyph glyph-name="Adieresis" unicode="&#xc4;" horiz-adv-x="1351" 
d="M676 1219l-260 -676h518zM27 0l569 1434h160l569 -1434h-182l-148 387h-639l-149 -387h-180zM430 1622v188h156v-188h-156zM766 1622v188h156v-188h-156z" />
    <glyph glyph-name="Aring" unicode="&#xc5;" horiz-adv-x="1351" 
d="M676 1219l-260 -676h518zM27 0l569 1434h160l569 -1434h-182l-148 387h-639l-149 -387h-180zM428 1733q0 94 68.5 152.5t177.5 58.5t178.5 -59t69.5 -152q0 -94 -69.5 -154.5t-178.5 -60.5q-108 0 -177 60.5t-69 154.5zM547 1733q0 -51 35 -82t92 -31q58 0 94.5 31
t36.5 82q0 49 -37 80.5t-94 31.5t-92 -31t-35 -81z" />
    <glyph glyph-name="AE" unicode="&#xc6;" horiz-adv-x="1851" 
d="M145 0h-190l926 1434h870v-158h-621v-457h488v-157h-488v-504h644v-158h-818v387h-567zM487 545h469v745z" />
    <glyph glyph-name="Ccedilla" unicode="&#xc7;" horiz-adv-x="1470" 
d="M627 -162l69 150q-123 14 -230 66.5t-190.5 141t-131.5 222.5t-48 299q0 145 37.5 266.5t102.5 206.5t153 144.5t188.5 87.5t208.5 28q154 0 286.5 -59.5t217 -165.5t103.5 -238h-183q-20 132 -140 218.5t-284 86.5q-230 0 -370 -151t-140 -424q0 -274 140 -425t370 -151
q167 0 288 86.5t138 218.5h179q-15 -130 -95.5 -234.5t-208.5 -164t-282 -63.5l-43 -86q106 11 176 -29.5t70 -122.5q0 -87 -70 -132.5t-190 -45.5q-87 0 -160 29v102q79 -29 160 -29q133 0 133 74q0 45 -64.5 59.5t-132.5 -6.5z" />
    <glyph glyph-name="Egrave" unicode="&#xc8;" horiz-adv-x="1171" 
d="M174 0v1434h897v-158h-721v-457h588v-157h-588v-504h744v-158h-920zM383 1808h190l191 -260h-154z" />
    <glyph glyph-name="Eacute" unicode="&#xc9;" horiz-adv-x="1171" 
d="M174 0v1434h897v-158h-721v-457h588v-157h-588v-504h744v-158h-920zM543 1548l190 260h191l-228 -260h-153z" />
    <glyph glyph-name="Ecircumflex" unicode="&#xca;" horiz-adv-x="1171" 
d="M174 0v1434h897v-158h-721v-457h588v-157h-588v-504h744v-158h-920zM326 1548l223 244h158l225 -244h-156l-147 144l-152 -144h-151z" />
    <glyph glyph-name="Edieresis" unicode="&#xcb;" horiz-adv-x="1171" 
d="M174 0v1434h897v-158h-721v-457h588v-157h-588v-504h744v-158h-920zM379 1622v188h156v-188h-156zM715 1622v188h155v-188h-155z" />
    <glyph glyph-name="Igrave" unicode="&#xcc;" horiz-adv-x="524" 
d="M174 0v1434h176v-1434h-176zM18 1808h191l190 -260h-153z" />
    <glyph glyph-name="Iacute" unicode="&#xcd;" horiz-adv-x="524" 
d="M174 0v1434h176v-1434h-176zM178 1548l191 260h190l-227 -260h-154z" />
    <glyph glyph-name="Icircumflex" unicode="&#xce;" horiz-adv-x="524" 
d="M174 0v1434h176v-1434h-176zM-39 1548l223 244h158l225 -244h-155l-148 144l-151 -144h-152z" />
    <glyph glyph-name="Idieresis" unicode="&#xcf;" horiz-adv-x="524" 
d="M174 0v1434h176v-1434h-176zM14 1622v188h156v-188h-156zM350 1622v188h156v-188h-156z" />
    <glyph glyph-name="Eth" unicode="&#xd0;" horiz-adv-x="1478" 
d="M246 0v653h-203v133h203v648h422q151 0 281 -48.5t227 -138t152.5 -226.5t55.5 -304t-55.5 -304t-152.5 -226.5t-227 -138t-281 -48.5h-422zM422 158h244q108 0 202 32.5t170 98t120 175.5t44 253t-44 253t-120 175.5t-170 98t-202 32.5h-244v-490h383v-133h-383v-495z
" />
    <glyph glyph-name="Ntilde" unicode="&#xd1;" horiz-adv-x="1462" 
d="M174 0v1434h201l737 -1168v1168h176v-1434h-201l-737 1163v-1163h-176zM412 1612q7 94 60.5 151.5t131.5 57.5q52 0 97 -20.5t80.5 -41t64.5 -20.5q31 0 52.5 19t29.5 52h125q-6 -94 -59.5 -151t-133.5 -57q-51 0 -96 20t-81 40.5t-65 20.5q-31 0 -52 -19.5t-27 -51.5
h-127z" />
    <glyph glyph-name="Ograve" unicode="&#xd2;" horiz-adv-x="1591" 
d="M795 -16q-149 0 -279.5 55.5t-223.5 152.5t-146.5 233t-53.5 292t53.5 292t146.5 233t223.5 152.5t279.5 55.5q150 0 281 -55.5t223.5 -152.5t146 -233t53.5 -292t-53.5 -292t-146 -233t-223.5 -152.5t-281 -55.5zM272 717q0 -247 149.5 -411.5t373.5 -164.5
q148 0 268 74.5t188 206.5t68 295t-68 294.5t-188 206t-268 74.5q-224 0 -373.5 -164t-149.5 -411zM553 1808h190l191 -260h-154z" />
    <glyph glyph-name="Oacute" unicode="&#xd3;" horiz-adv-x="1591" 
d="M795 -16q-149 0 -279.5 55.5t-223.5 152.5t-146.5 233t-53.5 292t53.5 292t146.5 233t223.5 152.5t279.5 55.5q150 0 281 -55.5t223.5 -152.5t146 -233t53.5 -292t-53.5 -292t-146 -233t-223.5 -152.5t-281 -55.5zM272 717q0 -247 149.5 -411.5t373.5 -164.5
q148 0 268 74.5t188 206.5t68 295t-68 294.5t-188 206t-268 74.5q-224 0 -373.5 -164t-149.5 -411zM713 1548l190 260h191l-228 -260h-153z" />
    <glyph glyph-name="Ocircumflex" unicode="&#xd4;" horiz-adv-x="1591" 
d="M795 -16q-149 0 -279.5 55.5t-223.5 152.5t-146.5 233t-53.5 292t53.5 292t146.5 233t223.5 152.5t279.5 55.5q150 0 281 -55.5t223.5 -152.5t146 -233t53.5 -292t-53.5 -292t-146 -233t-223.5 -152.5t-281 -55.5zM272 717q0 -247 149.5 -411.5t373.5 -164.5
q148 0 268 74.5t188 206.5t68 295t-68 294.5t-188 206t-268 74.5q-224 0 -373.5 -164t-149.5 -411zM496 1548l223 244h158l225 -244h-156l-147 144l-152 -144h-151z" />
    <glyph glyph-name="Otilde" unicode="&#xd5;" horiz-adv-x="1591" 
d="M795 -16q-149 0 -279.5 55.5t-223.5 152.5t-146.5 233t-53.5 292t53.5 292t146.5 233t223.5 152.5t279.5 55.5q150 0 281 -55.5t223.5 -152.5t146 -233t53.5 -292t-53.5 -292t-146 -233t-223.5 -152.5t-281 -55.5zM272 717q0 -247 149.5 -411.5t373.5 -164.5
q148 0 268 74.5t188 206.5t68 295t-68 294.5t-188 206t-268 74.5q-224 0 -373.5 -164t-149.5 -411zM475 1612q7 93 61 151t132 58q52 0 97 -20.5t80 -41t64 -20.5q31 0 52.5 19t29.5 52h125q-6 -95 -59 -151.5t-133 -56.5q-51 0 -96 20t-81 40.5t-65 20.5q-31 0 -52.5 -19.5
t-27.5 -51.5h-127z" />
    <glyph glyph-name="Odieresis" unicode="&#xd6;" horiz-adv-x="1591" 
d="M795 -16q-149 0 -279.5 55.5t-223.5 152.5t-146.5 233t-53.5 292t53.5 292t146.5 233t223.5 152.5t279.5 55.5q150 0 281 -55.5t223.5 -152.5t146 -233t53.5 -292t-53.5 -292t-146 -233t-223.5 -152.5t-281 -55.5zM272 717q0 -247 149.5 -411.5t373.5 -164.5
q148 0 268 74.5t188 206.5t68 295t-68 294.5t-188 206t-268 74.5q-224 0 -373.5 -164t-149.5 -411zM549 1622v188h156v-188h-156zM885 1622v188h155v-188h-155z" />
    <glyph glyph-name="multiply" unicode="&#xd7;" horiz-adv-x="1269" 
d="M326 266l-103 103l309 309l-311 311l105 103l311 -310l309 310l103 -103l-310 -309l310 -311l-103 -103l-311 309z" />
    <glyph glyph-name="Oslash" unicode="&#xd8;" horiz-adv-x="1591" 
d="M795 -16q-229 0 -406 125l-121 -152l-100 86l123 152q-95 100 -147 233.5t-52 288.5q0 156 53.5 292t146.5 233t223.5 152.5t279.5 55.5q227 0 407 -125l121 152l100 -86l-123 -152q95 -100 147 -233.5t52 -288.5q0 -156 -53.5 -292t-146 -233t-223.5 -152.5t-281 -55.5z
M272 717q0 -226 127 -385l697 862q-131 98 -301 98q-224 0 -373.5 -164t-149.5 -411zM496 238q134 -97 299 -97q148 0 268 74.5t188 206.5t68 295q0 226 -127 385z" />
    <glyph glyph-name="Ugrave" unicode="&#xd9;" horiz-adv-x="1406" 
d="M702 -16q-245 0 -392.5 137.5t-147.5 370.5v942h172v-951q0 -157 100.5 -249.5t267.5 -92.5q168 0 269.5 92.5t101.5 249.5v951h172v-942q0 -233 -148.5 -370.5t-394.5 -137.5zM461 1808h190l191 -260h-154z" />
    <glyph glyph-name="Uacute" unicode="&#xda;" horiz-adv-x="1406" 
d="M702 -16q-245 0 -392.5 137.5t-147.5 370.5v942h172v-951q0 -157 100.5 -249.5t267.5 -92.5q168 0 269.5 92.5t101.5 249.5v951h172v-942q0 -233 -148.5 -370.5t-394.5 -137.5zM621 1548l190 260h190l-227 -260h-153z" />
    <glyph glyph-name="Ucircumflex" unicode="&#xdb;" horiz-adv-x="1406" 
d="M702 -16q-245 0 -392.5 137.5t-147.5 370.5v942h172v-951q0 -157 100.5 -249.5t267.5 -92.5q168 0 269.5 92.5t101.5 249.5v951h172v-942q0 -233 -148.5 -370.5t-394.5 -137.5zM403 1548l224 244h157l226 -244h-156l-147 144l-152 -144h-152z" />
    <glyph glyph-name="Udieresis" unicode="&#xdc;" horiz-adv-x="1406" 
d="M702 -16q-245 0 -392.5 137.5t-147.5 370.5v942h172v-951q0 -157 100.5 -249.5t267.5 -92.5q168 0 269.5 92.5t101.5 249.5v951h172v-942q0 -233 -148.5 -370.5t-394.5 -137.5zM457 1622v188h155v-188h-155zM793 1622v188h155v-188h-155z" />
    <glyph glyph-name="Yacute" unicode="&#xdd;" horiz-adv-x="1271" 
d="M549 0v600l-508 834h199l397 -666l395 666h199l-508 -834v-600h-174zM553 1548l190 260h191l-227 -260h-154z" />
    <glyph glyph-name="Thorn" unicode="&#xde;" horiz-adv-x="1249" 
d="M174 0v1434h176v-314h365q213 0 334.5 -107t121.5 -296t-121.5 -296.5t-334.5 -107.5h-365v-313h-176zM350 469h365q143 0 209.5 67t66.5 181t-66.5 181t-209.5 67h-365v-496z" />
    <glyph glyph-name="germandbls" unicode="&#xdf;" horiz-adv-x="1251" 
d="M207 930q0 240 126 380t353 140q198 0 309 -101t111 -266q0 -107 -53.5 -186t-130.5 -113q113 -39 179 -131t66 -235q0 -194 -121 -306t-335 -112h-187v158h158q153 0 234 67t81 195q0 130 -81 199t-234 69h-158v150h150q128 0 196 59.5t68 181.5q0 101 -65 163.5
t-185 62.5q-149 0 -232 -103t-83 -274v-928h-166v688h-137v150h137v92z" />
    <glyph glyph-name="agrave" unicode="&#xe0;" horiz-adv-x="1124" 
d="M465 -16q-163 0 -261 85t-98 226q0 147 112 234t300 87h234q65 0 65 56q0 108 -73 172.5t-203 64.5q-113 0 -193 -60.5t-86 -146.5h-156q9 98 69.5 177.5t158 124.5t211.5 45q200 0 318 -105t118 -278v-666h-164v178q-41 -89 -136.5 -141.5t-215.5 -52.5zM268 1448h191
l178 -303h-156zM274 297q0 -80 58.5 -127t156.5 -47q155 0 241.5 91t86.5 251v27h-289q-116 0 -185 -52.5t-69 -142.5z" />
    <glyph glyph-name="aacute" unicode="&#xe1;" horiz-adv-x="1124" 
d="M465 -16q-163 0 -261 85t-98 226q0 147 112 234t300 87h234q65 0 65 56q0 108 -73 172.5t-203 64.5q-113 0 -193 -60.5t-86 -146.5h-156q9 98 69.5 177.5t158 124.5t211.5 45q200 0 318 -105t118 -278v-666h-164v178q-41 -89 -136.5 -141.5t-215.5 -52.5zM274 297
q0 -80 58.5 -127t156.5 -47q155 0 241.5 91t86.5 251v27h-289q-116 0 -185 -52.5t-69 -142.5zM481 1145l178 303h191l-213 -303h-156z" />
    <glyph glyph-name="acircumflex" unicode="&#xe2;" horiz-adv-x="1124" 
d="M465 -16q-163 0 -261 85t-98 226q0 147 112 234t300 87h234q65 0 65 56q0 108 -73 172.5t-203 64.5q-113 0 -193 -60.5t-86 -146.5h-156q9 98 69.5 177.5t158 124.5t211.5 45q200 0 318 -105t118 -278v-666h-164v178q-41 -89 -136.5 -141.5t-215.5 -52.5zM268 1145
l226 287h137l225 -287h-156l-137 172l-141 -172h-154zM274 297q0 -80 58.5 -127t156.5 -47q155 0 241.5 91t86.5 251v27h-289q-116 0 -185 -52.5t-69 -142.5z" />
    <glyph glyph-name="atilde" unicode="&#xe3;" horiz-adv-x="1124" 
d="M465 -16q-163 0 -261 85t-98 226q0 147 112 234t300 87h234q65 0 65 56q0 108 -73 172.5t-203 64.5q-113 0 -193 -60.5t-86 -146.5h-156q9 98 69.5 177.5t158 124.5t211.5 45q200 0 318 -105t118 -278v-666h-164v178q-41 -89 -136.5 -141.5t-215.5 -52.5zM238 1210
q7 94 60.5 151.5t131.5 57.5q52 0 97 -20.5t80.5 -41t64.5 -20.5q30 0 52 19.5t30 52.5h125q-6 -95 -59.5 -152t-133.5 -57q-51 0 -96 20.5t-81 41t-65 20.5q-30 0 -51.5 -19.5t-27.5 -52.5h-127zM274 297q0 -80 58.5 -127t156.5 -47q155 0 241.5 91t86.5 251v27h-289
q-116 0 -185 -52.5t-69 -142.5z" />
    <glyph glyph-name="adieresis" unicode="&#xe4;" horiz-adv-x="1124" 
d="M465 -16q-163 0 -261 85t-98 226q0 147 112 234t300 87h234q65 0 65 56q0 108 -73 172.5t-203 64.5q-113 0 -193 -60.5t-86 -146.5h-156q9 98 69.5 177.5t158 124.5t211.5 45q200 0 318 -105t118 -278v-666h-164v178q-41 -89 -136.5 -141.5t-215.5 -52.5zM274 297
q0 -80 58.5 -127t156.5 -47q155 0 241.5 91t86.5 251v27h-289q-116 0 -185 -52.5t-69 -142.5zM313 1221v188h156v-188h-156zM649 1221v188h156v-188h-156z" />
    <glyph glyph-name="aring" unicode="&#xe5;" horiz-adv-x="1124" 
d="M465 -16q-163 0 -261 85t-98 226q0 147 112 234t300 87h234q65 0 65 56q0 108 -73 172.5t-203 64.5q-113 0 -193 -60.5t-86 -146.5h-156q9 98 69.5 177.5t158 124.5t211.5 45q200 0 318 -105t118 -278v-666h-164v178q-41 -89 -136.5 -141.5t-215.5 -52.5zM274 297
q0 -80 58.5 -127t156.5 -47q155 0 241.5 91t86.5 251v27h-289q-116 0 -185 -52.5t-69 -142.5zM311 1343q0 95 70.5 159.5t175.5 64.5q106 0 177 -64.5t71 -159.5q0 -98 -71 -162.5t-177 -64.5t-176 64.5t-70 162.5zM430 1343q0 -54 35.5 -88t91.5 -34q57 0 94 34t37 88
q0 53 -37 87t-94 34q-55 0 -91 -34t-36 -87z" />
    <glyph glyph-name="ae" unicode="&#xe6;" horiz-adv-x="1882" 
d="M475 -16q-167 0 -268 87t-101 222q0 160 104 246t308 86h240q59 0 59 55q0 103 -80 166t-200 63q-113 0 -191 -61t-86 -148h-154q13 150 136.5 249.5t292.5 99.5q127 0 230 -50.5t157 -138.5q64 90 163.5 139.5t223.5 49.5q147 0 257.5 -64t167 -173t56.5 -247
q0 -43 -4 -71h-807q7 -160 105 -262.5t243 -102.5q125 0 203.5 52.5t103.5 150.5h166q-26 -159 -154 -253.5t-319 -94.5q-140 0 -252 65t-178 180q-115 -245 -422 -245zM274 295q0 -75 60.5 -123.5t152.5 -48.5q155 0 242.5 91t87.5 251v37h-289q-132 0 -193 -52.5
t-61 -154.5zM987 625h635q-9 131 -92.5 207.5t-220.5 76.5q-131 0 -215 -74t-107 -210z" />
    <glyph glyph-name="ccedilla" unicode="&#xe7;" horiz-adv-x="1128" 
d="M467 -162l70 148q-142 12 -247 90t-155.5 192t-50.5 248q0 105 33 200t95 169.5t159 119t215 44.5q179 0 312.5 -99t156.5 -266h-162q-15 94 -101.5 155.5t-203.5 61.5q-109 0 -186 -53t-112.5 -138.5t-35.5 -193.5q0 -167 87 -276t247 -109q116 0 196.5 54t108.5 149
h160q-25 -148 -131.5 -240.5t-276.5 -107.5l-43 -88q106 11 176 -29.5t70 -122.5q0 -87 -70 -132.5t-190 -45.5q-88 0 -160 29v102q79 -29 160 -29q133 0 133 74q0 45 -64.5 59.5t-132.5 -6.5z" />
    <glyph glyph-name="egrave" unicode="&#xe8;" horiz-adv-x="1148" 
d="M594 -16q-149 0 -266.5 73t-180.5 195.5t-63 269.5q0 231 133.5 379t357.5 148q147 0 257.5 -64t167.5 -173t57 -247q0 -43 -4 -71h-807q9 -161 105.5 -263t242.5 -102q125 0 203.5 52.5t103.5 150.5h166q-26 -159 -154 -253.5t-319 -94.5zM254 625h635q-9 131 -93 207.5
t-221 76.5q-131 0 -214.5 -74t-106.5 -210zM285 1448h190l178 -303h-155z" />
    <glyph glyph-name="eacute" unicode="&#xe9;" horiz-adv-x="1148" 
d="M594 -16q-149 0 -266.5 73t-180.5 195.5t-63 269.5q0 231 133.5 379t357.5 148q147 0 257.5 -64t167.5 -173t57 -247q0 -43 -4 -71h-807q9 -161 105.5 -263t242.5 -102q125 0 203.5 52.5t103.5 150.5h166q-26 -159 -154 -253.5t-319 -94.5zM254 625h635q-9 131 -93 207.5
t-221 76.5q-131 0 -214.5 -74t-106.5 -210zM500 1145l178 303h190l-213 -303h-155z" />
    <glyph glyph-name="ecircumflex" unicode="&#xea;" horiz-adv-x="1148" 
d="M594 -16q-149 0 -266.5 73t-180.5 195.5t-63 269.5q0 231 133.5 379t357.5 148q147 0 257.5 -64t167.5 -173t57 -247q0 -43 -4 -71h-807q9 -161 105.5 -263t242.5 -102q125 0 203.5 52.5t103.5 150.5h166q-26 -159 -154 -253.5t-319 -94.5zM254 625h635q-9 131 -93 207.5
t-221 76.5q-131 0 -214.5 -74t-106.5 -210zM285 1145l225 287h137l225 -287h-155l-137 172l-142 -172h-153z" />
    <glyph glyph-name="edieresis" unicode="&#xeb;" horiz-adv-x="1148" 
d="M594 -16q-149 0 -266.5 73t-180.5 195.5t-63 269.5q0 231 133.5 379t357.5 148q147 0 257.5 -64t167.5 -173t57 -247q0 -43 -4 -71h-807q9 -161 105.5 -263t242.5 -102q125 0 203.5 52.5t103.5 150.5h166q-26 -159 -154 -253.5t-319 -94.5zM254 625h635q-9 131 -93 207.5
t-221 76.5q-131 0 -214.5 -74t-106.5 -210zM330 1221v188h155v-188h-155zM666 1221v188h155v-188h-155z" />
    <glyph glyph-name="igrave" unicode="&#xec;" horiz-adv-x="477" 
d="M156 0v1032h163v-1032h-163zM-53 1448h190l178 -303h-155z" />
    <glyph glyph-name="iacute" unicode="&#xed;" horiz-adv-x="477" 
d="M156 0v1032h163v-1032h-163zM160 1145l178 303h190l-213 -303h-155z" />
    <glyph glyph-name="icircumflex" unicode="&#xee;" horiz-adv-x="477" 
d="M156 0v1032h163v-1032h-163zM-53 1145l225 287h137l226 -287h-156l-137 172l-142 -172h-153z" />
    <glyph glyph-name="idieresis" unicode="&#xef;" horiz-adv-x="477" 
d="M156 0v1032h163v-1032h-163zM-8 1221v188h155v-188h-155zM328 1221v188h155v-188h-155z" />
    <glyph glyph-name="eth" unicode="&#xf0;" horiz-adv-x="1175" 
d="M584 -16q-116 0 -212 42t-158 112.5t-96 160.5t-34 188q0 132 57.5 245.5t171 186t260.5 72.5q178 0 304 -123q-86 167 -291 336l-150 -119l-80 91l129 104q-111 80 -254 164h215q70 -40 138 -84l131 104l80 -92l-107 -86q89 -68 157.5 -141.5t124.5 -165.5t85.5 -205
t29.5 -242q0 -113 -34 -212.5t-97 -174.5t-158.5 -118t-211.5 -43zM252 487q0 -94 35.5 -173.5t112.5 -132t184 -52.5q109 0 186.5 52.5t112.5 131.5t35 174q0 70 -21 133.5t-60.5 115t-105 82t-147.5 30.5q-107 0 -184 -53t-112.5 -133.5t-35.5 -174.5z" />
    <glyph glyph-name="ntilde" unicode="&#xf1;" horiz-adv-x="1187" 
d="M156 0v1032h163v-198q40 105 130.5 160t212.5 55q175 0 280 -114.5t105 -303.5v-631h-164v604q0 132 -70.5 213.5t-187.5 81.5q-134 0 -220 -96t-86 -246v-557h-163zM274 1210q7 93 61 151t132 58q52 0 97 -20.5t80.5 -41t64.5 -20.5q30 0 52 19.5t30 52.5h124
q-6 -95 -59 -152t-133 -57q-51 0 -96 20.5t-81 41t-65 20.5q-31 0 -52.5 -20t-27.5 -52h-127z" />
    <glyph glyph-name="ograve" unicode="&#xf2;" horiz-adv-x="1218" 
d="M608 -16q-229 0 -376.5 150t-147.5 382q0 233 147.5 383t376.5 150q230 0 378.5 -150t148.5 -383q0 -232 -148.5 -382t-378.5 -150zM252 516q0 -169 99 -277t257 -108q159 0 259 108t100 277t-100 277t-259 108q-158 0 -257 -108t-99 -277zM317 1448h191l178 -303h-156z
" />
    <glyph glyph-name="oacute" unicode="&#xf3;" horiz-adv-x="1218" 
d="M608 -16q-229 0 -376.5 150t-147.5 382q0 233 147.5 383t376.5 150q230 0 378.5 -150t148.5 -383q0 -232 -148.5 -382t-378.5 -150zM252 516q0 -169 99 -277t257 -108q159 0 259 108t100 277t-100 277t-259 108q-158 0 -257 -108t-99 -277zM532 1145l179 303h190
l-213 -303h-156z" />
    <glyph glyph-name="ocircumflex" unicode="&#xf4;" horiz-adv-x="1218" 
d="M608 -16q-229 0 -376.5 150t-147.5 382q0 233 147.5 383t376.5 150q230 0 378.5 -150t148.5 -383q0 -232 -148.5 -382t-378.5 -150zM252 516q0 -169 99 -277t257 -108q159 0 259 108t100 277t-100 277t-259 108q-158 0 -257 -108t-99 -277zM317 1145l226 287h137
l225 -287h-155l-138 172l-141 -172h-154z" />
    <glyph glyph-name="otilde" unicode="&#xf5;" horiz-adv-x="1218" 
d="M608 -16q-229 0 -376.5 150t-147.5 382q0 233 147.5 383t376.5 150q230 0 378.5 -150t148.5 -383q0 -232 -148.5 -382t-378.5 -150zM252 516q0 -169 99 -277t257 -108q159 0 259 108t100 277t-100 277t-259 108q-158 0 -257 -108t-99 -277zM289 1210q7 94 60.5 151.5
t131.5 57.5q52 0 97 -20.5t80.5 -41t64.5 -20.5q30 0 52 19.5t30 52.5h125q-6 -95 -59.5 -152t-133.5 -57q-51 0 -96 20.5t-80.5 41t-64.5 20.5q-31 0 -52.5 -20t-27.5 -52h-127z" />
    <glyph glyph-name="odieresis" unicode="&#xf6;" horiz-adv-x="1218" 
d="M608 -16q-229 0 -376.5 150t-147.5 382q0 233 147.5 383t376.5 150q230 0 378.5 -150t148.5 -383q0 -232 -148.5 -382t-378.5 -150zM252 516q0 -169 99 -277t257 -108q159 0 259 108t100 277t-100 277t-259 108q-158 0 -257 -108t-99 -277zM362 1221v188h156v-188h-156z
M698 1221v188h156v-188h-156z" />
    <glyph glyph-name="divide" unicode="&#xf7;" horiz-adv-x="1269" 
d="M164 578v143h944v-143h-944zM543 154v190h186v-190h-186zM543 954v191h186v-191h-186z" />
    <glyph glyph-name="oslash" unicode="&#xf8;" horiz-adv-x="1222" 
d="M612 -16q-166 0 -293 82l-104 -129l-86 73l102 127q-143 149 -143 379q0 233 147.5 383t376.5 150q166 0 293 -82l103 127l86 -74l-101 -123q146 -149 146 -381t-148.5 -382t-378.5 -150zM256 516q0 -147 78 -252l473 582q-83 55 -195 55q-158 0 -257 -108t-99 -277z
M418 186q86 -55 194 -55q159 0 259 108t100 277q0 150 -80 254z" />
    <glyph glyph-name="ugrave" unicode="&#xf9;" horiz-adv-x="1187" 
d="M1032 1032v-1032h-164v199q-40 -105 -129.5 -160t-210.5 -55q-175 0 -280 114t-105 303v631h164v-604q0 -132 70.5 -213.5t187.5 -81.5q132 0 217.5 96t85.5 246v557h164zM301 1448h191l178 -303h-156z" />
    <glyph glyph-name="uacute" unicode="&#xfa;" horiz-adv-x="1187" 
d="M1032 1032v-1032h-164v199q-40 -105 -129.5 -160t-210.5 -55q-175 0 -280 114t-105 303v631h164v-604q0 -132 70.5 -213.5t187.5 -81.5q132 0 217.5 96t85.5 246v557h164zM516 1145l178 303h191l-213 -303h-156z" />
    <glyph glyph-name="ucircumflex" unicode="&#xfb;" horiz-adv-x="1187" 
d="M1032 1032v-1032h-164v199q-40 -105 -129.5 -160t-210.5 -55q-175 0 -280 114t-105 303v631h164v-604q0 -132 70.5 -213.5t187.5 -81.5q132 0 217.5 96t85.5 246v557h164zM301 1145l225 287h138l225 -287h-156l-137 172l-141 -172h-154z" />
    <glyph glyph-name="udieresis" unicode="&#xfc;" horiz-adv-x="1187" 
d="M1032 1032v-1032h-164v199q-40 -105 -129.5 -160t-210.5 -55q-175 0 -280 114t-105 303v631h164v-604q0 -132 70.5 -213.5t187.5 -81.5q132 0 217.5 96t85.5 246v557h164zM346 1221v188h156v-188h-156zM682 1221v188h156v-188h-156z" />
    <glyph glyph-name="yacute" unicode="&#xfd;" horiz-adv-x="1011" 
d="M295 -418l133 402l-387 1048h170l293 -819l295 819h170l-334 -913l-182 -537h-158zM436 1145l178 303h191l-213 -303h-156z" />
    <glyph glyph-name="thorn" unicode="&#xfe;" horiz-adv-x="1245" 
d="M156 -418v1866h168v-551q60 68 154.5 110t187.5 42q155 0 269 -71t170 -190.5t56 -271.5q0 -113 -33 -210t-95 -169t-157.5 -112.5t-213.5 -40.5q-105 0 -199.5 40t-138.5 99v-541h-168zM307 516q0 -173 88.5 -279t251.5 -106q164 0 255 106.5t91 278.5q0 170 -91 277.5
t-255 107.5q-162 0 -251 -107.5t-89 -277.5z" />
    <glyph glyph-name="ydieresis" unicode="&#xff;" horiz-adv-x="1011" 
d="M295 -418l133 402l-387 1048h170l293 -819l295 819h170l-334 -913l-182 -537h-158zM266 1221v188h158v-188h-158zM602 1221v188h158v-188h-158z" />
    <glyph glyph-name="Amacron" unicode="&#x100;" horiz-adv-x="1351" 
d="M676 1219l-260 -676h518zM27 0l569 1434h160l569 -1434h-182l-148 387h-639l-149 -387h-180zM403 1612v137h545v-137h-545z" />
    <glyph glyph-name="amacron" unicode="&#x101;" horiz-adv-x="1124" 
d="M465 -16q-163 0 -261 85t-98 226q0 147 112 234t300 87h234q65 0 65 56q0 108 -73 172.5t-203 64.5q-113 0 -193 -60.5t-86 -146.5h-156q9 98 69.5 177.5t158 124.5t211.5 45q200 0 318 -105t118 -278v-666h-164v178q-41 -89 -136.5 -141.5t-215.5 -52.5zM274 297
q0 -80 58.5 -127t156.5 -47q155 0 241.5 91t86.5 251v27h-289q-116 0 -185 -52.5t-69 -142.5zM287 1210v138h544v-138h-544z" />
    <glyph glyph-name="Abreve" unicode="&#x102;" horiz-adv-x="1351" 
d="M676 1219l-260 -676h518zM27 0l569 1434h160l569 -1434h-182l-148 387h-639l-149 -387h-180zM389 1819h137q0 -67 41.5 -103.5t110.5 -36.5q68 0 109.5 36.5t41.5 103.5h136q0 -120 -79.5 -194.5t-207.5 -74.5q-129 0 -209 74.5t-80 194.5z" />
    <glyph glyph-name="abreve" unicode="&#x103;" horiz-adv-x="1124" 
d="M465 -16q-163 0 -261 85t-98 226q0 147 112 234t300 87h234q65 0 65 56q0 108 -73 172.5t-203 64.5q-113 0 -193 -60.5t-86 -146.5h-156q9 98 69.5 177.5t158 124.5t211.5 45q200 0 318 -105t118 -278v-666h-164v178q-41 -89 -136.5 -141.5t-215.5 -52.5zM270 1434h138
q0 -70 41.5 -113t109.5 -43q67 0 109.5 43t42.5 113h137q0 -124 -80.5 -204.5t-208.5 -80.5t-208.5 80.5t-80.5 204.5zM274 297q0 -80 58.5 -127t156.5 -47q155 0 241.5 91t86.5 251v27h-289q-116 0 -185 -52.5t-69 -142.5z" />
    <glyph glyph-name="Aogonek" unicode="&#x104;" horiz-adv-x="1351" 
d="M676 1219l-260 -676h518zM27 0l569 1434h160l569 -1434q-58 -43 -92.5 -102.5t-34.5 -118.5q0 -43 20.5 -66.5t53.5 -23.5q46 0 94 51l70 -90q-81 -84 -191 -84q-80 0 -130 49.5t-50 130.5q0 143 145 254h-67l-148 387h-639l-149 -387h-180z" />
    <glyph glyph-name="aogonek" unicode="&#x105;" horiz-adv-x="1124" 
d="M465 -16q-163 0 -261 85t-98 226q0 147 112 234t300 87h234q65 0 65 56q0 108 -73 172.5t-203 64.5q-113 0 -193 -60.5t-86 -146.5h-156q9 98 69.5 177.5t158 124.5t211.5 45q200 0 318 -105t118 -278v-666q-58 -43 -92.5 -102.5t-34.5 -118.5q0 -43 20.5 -66.5
t53.5 -23.5q46 0 94 51l70 -90q-81 -84 -191 -84q-80 0 -130 49.5t-50 130.5q0 143 145 254h-49v178q-41 -89 -136.5 -141.5t-215.5 -52.5zM274 297q0 -80 58.5 -127t156.5 -47q155 0 241.5 91t86.5 251v27h-289q-116 0 -185 -52.5t-69 -142.5z" />
    <glyph glyph-name="Cacute" unicode="&#x106;" horiz-adv-x="1470" 
d="M786 -16q-109 0 -209.5 28.5t-188 88t-152.5 144.5t-102.5 206.5t-37.5 265.5q0 145 37.5 266.5t102.5 206.5t153 144.5t188.5 87.5t208.5 28q154 0 286.5 -59.5t217 -165.5t103.5 -238h-183q-20 132 -140 218.5t-284 86.5q-230 0 -370 -151t-140 -424q0 -274 140 -425
t370 -151q167 0 288 86.5t138 218.5h179q-15 -132 -98.5 -238t-216 -165t-290.5 -59zM684 1548l190 260h191l-227 -260h-154z" />
    <glyph glyph-name="cacute" unicode="&#x107;" horiz-adv-x="1128" 
d="M586 -16q-118 0 -215 44t-159 118.5t-95 169.5t-33 200t33 200t95 169.5t159 119t215 44.5q179 0 312.5 -99t156.5 -266h-162q-15 94 -101.5 155.5t-203.5 61.5q-109 0 -186 -53t-112.5 -138.5t-35.5 -193.5q0 -167 87 -276t247 -109q116 0 196.5 54t108.5 149h160
q-27 -161 -150 -255.5t-317 -94.5zM506 1145l178 303h190l-212 -303h-156z" />
    <glyph glyph-name="Ccircumflex" unicode="&#x108;" horiz-adv-x="1470" 
d="M786 -16q-109 0 -209.5 28.5t-188 88t-152.5 144.5t-102.5 206.5t-37.5 265.5q0 145 37.5 266.5t102.5 206.5t153 144.5t188.5 87.5t208.5 28q154 0 286.5 -59.5t217 -165.5t103.5 -238h-183q-20 132 -140 218.5t-284 86.5q-230 0 -370 -151t-140 -424q0 -274 140 -425
t370 -151q167 0 288 86.5t138 218.5h179q-15 -132 -98.5 -238t-216 -165t-290.5 -59zM467 1548l223 244h158l225 -244h-155l-148 144l-152 -144h-151z" />
    <glyph glyph-name="ccircumflex" unicode="&#x109;" horiz-adv-x="1128" 
d="M586 -16q-118 0 -215 44t-159 118.5t-95 169.5t-33 200t33 200t95 169.5t159 119t215 44.5q179 0 312.5 -99t156.5 -266h-162q-15 94 -101.5 155.5t-203.5 61.5q-109 0 -186 -53t-112.5 -138.5t-35.5 -193.5q0 -167 87 -276t247 -109q116 0 196.5 54t108.5 149h160
q-27 -161 -150 -255.5t-317 -94.5zM293 1145l225 287h137l226 -287h-156l-137 172l-142 -172h-153z" />
    <glyph glyph-name="Cdotaccent" unicode="&#x10a;" horiz-adv-x="1470" 
d="M786 -16q-109 0 -209.5 28.5t-188 88t-152.5 144.5t-102.5 206.5t-37.5 265.5q0 145 37.5 266.5t102.5 206.5t153 144.5t188.5 87.5t208.5 28q154 0 286.5 -59.5t217 -165.5t103.5 -238h-183q-20 132 -140 218.5t-284 86.5q-230 0 -370 -151t-140 -424q0 -274 140 -425
t370 -151q167 0 288 86.5t138 218.5h179q-15 -132 -98.5 -238t-216 -165t-290.5 -59zM674 1628v230h188v-230h-188z" />
    <glyph glyph-name="cdotaccent" unicode="&#x10b;" horiz-adv-x="1128" 
d="M586 -16q-118 0 -215 44t-159 118.5t-95 169.5t-33 200t33 200t95 169.5t159 119t215 44.5q179 0 312.5 -99t156.5 -266h-162q-15 94 -101.5 155.5t-203.5 61.5q-109 0 -186 -53t-112.5 -138.5t-35.5 -193.5q0 -167 87 -276t247 -109q116 0 196.5 54t108.5 149h160
q-27 -161 -150 -255.5t-317 -94.5zM489 1227v229h189v-229h-189z" />
    <glyph glyph-name="Ccaron" unicode="&#x10c;" horiz-adv-x="1470" 
d="M786 -16q-109 0 -209.5 28.5t-188 88t-152.5 144.5t-102.5 206.5t-37.5 265.5q0 145 37.5 266.5t102.5 206.5t153 144.5t188.5 87.5t208.5 28q154 0 286.5 -59.5t217 -165.5t103.5 -238h-183q-20 132 -140 218.5t-284 86.5q-230 0 -370 -151t-140 -424q0 -274 140 -425
t370 -151q167 0 288 86.5t138 218.5h179q-15 -132 -98.5 -238t-216 -165t-290.5 -59zM455 1794h163l148 -145l145 145h166l-231 -246h-160z" />
    <glyph glyph-name="ccaron" unicode="&#x10d;" horiz-adv-x="1128" 
d="M586 -16q-118 0 -215 44t-159 118.5t-95 169.5t-33 200t33 200t95 169.5t159 119t215 44.5q179 0 312.5 -99t156.5 -266h-162q-15 94 -101.5 155.5t-203.5 61.5q-109 0 -186 -53t-112.5 -138.5t-35.5 -193.5q0 -167 87 -276t247 -109q116 0 196.5 54t108.5 149h160
q-27 -161 -150 -255.5t-317 -94.5zM289 1434h153l140 -170l139 170h153l-223 -287h-139z" />
    <glyph glyph-name="Dcaron" unicode="&#x10e;" horiz-adv-x="1406" 
d="M174 0v1434h422q151 0 281.5 -48.5t227.5 -138t152.5 -226.5t55.5 -304t-55.5 -304t-152.5 -226.5t-227.5 -138t-281.5 -48.5h-422zM299 1794h164l147 -145l146 145h166l-232 -246h-160zM350 158h244q108 0 202 32.5t170 98t120 175.5t44 253t-44 253t-120 175.5t-170 98
t-202 32.5h-244v-1118z" />
    <glyph glyph-name="dcaron" unicode="&#x10f;" horiz-adv-x="1286" 
d="M584 -16q-234 0 -366 149t-132 383q0 152 56.5 271.5t170.5 190.5t271 71q109 0 202.5 -51t139.5 -134v592h164v-1456h-164v170q-46 -85 -139.5 -135.5t-202.5 -50.5zM256 516q0 -175 93.5 -280t248.5 -105t248.5 105t93.5 280t-93.5 280t-248.5 105t-248.5 -105
t-93.5 -280zM1188 1147l67 354h162l-104 -354h-125z" />
    <glyph glyph-name="Dcroat" unicode="&#x110;" horiz-adv-x="1478" 
d="M246 0v653h-203v133h203v648h422q151 0 281 -48.5t227 -138t152.5 -226.5t55.5 -304t-55.5 -304t-152.5 -226.5t-227 -138t-281 -48.5h-422zM422 158h244q108 0 202 32.5t170 98t120 175.5t44 253t-44 253t-120 175.5t-170 98t-202 32.5h-244v-490h383v-133h-383v-495z
" />
    <glyph glyph-name="dcroat" unicode="&#x111;" horiz-adv-x="1245" 
d="M584 -16q-234 0 -366 149t-132 383q0 152 56.5 271.5t170.5 190.5t271 71q109 0 202.5 -51t139.5 -134v318h-357v127h357v147h164v-147h176v-127h-176v-1182h-164v170q-46 -85 -139.5 -135.5t-202.5 -50.5zM256 516q0 -175 93.5 -280t248.5 -105t248.5 105t93.5 280
t-93.5 280t-248.5 105t-248.5 -105t-93.5 -280z" />
    <glyph glyph-name="Emacron" unicode="&#x112;" horiz-adv-x="1171" 
d="M174 0v1434h897v-158h-721v-457h588v-157h-588v-504h744v-158h-920zM352 1612v137h545v-137h-545z" />
    <glyph glyph-name="emacron" unicode="&#x113;" horiz-adv-x="1148" 
d="M594 -16q-149 0 -266.5 73t-180.5 195.5t-63 269.5q0 231 133.5 379t357.5 148q147 0 257.5 -64t167.5 -173t57 -247q0 -43 -4 -71h-807q9 -161 105.5 -263t242.5 -102q125 0 203.5 52.5t103.5 150.5h166q-26 -159 -154 -253.5t-319 -94.5zM254 625h635q-9 131 -93 207.5
t-221 76.5q-131 0 -214.5 -74t-106.5 -210zM303 1210v138h545v-138h-545z" />
    <glyph glyph-name="Ebreve" unicode="&#x114;" horiz-adv-x="1171" 
d="M174 0v1434h897v-158h-721v-457h588v-157h-588v-504h744v-158h-920zM338 1819h137q0 -67 41.5 -103.5t110.5 -36.5q68 0 109.5 36.5t41.5 103.5h135q0 -120 -79 -194.5t-207 -74.5q-129 0 -209 74.5t-80 194.5z" />
    <glyph glyph-name="ebreve" unicode="&#x115;" horiz-adv-x="1148" 
d="M594 -16q-149 0 -266.5 73t-180.5 195.5t-63 269.5q0 231 133.5 379t357.5 148q147 0 257.5 -64t167.5 -173t57 -247q0 -43 -4 -71h-807q9 -161 105.5 -263t242.5 -102q125 0 203.5 52.5t103.5 150.5h166q-26 -159 -154 -253.5t-319 -94.5zM254 625h635q-9 131 -93 207.5
t-221 76.5q-131 0 -214.5 -74t-106.5 -210zM289 1434h137q0 -70 42 -113t110 -43q67 0 109 43t42 113h137q0 -124 -80 -204.5t-208 -80.5t-208.5 80.5t-80.5 204.5z" />
    <glyph glyph-name="Edotaccent" unicode="&#x116;" horiz-adv-x="1171" 
d="M174 0v1434h897v-158h-721v-457h588v-157h-588v-504h744v-158h-920zM530 1628v230h189v-230h-189z" />
    <glyph glyph-name="edotaccent" unicode="&#x117;" horiz-adv-x="1148" 
d="M594 -16q-149 0 -266.5 73t-180.5 195.5t-63 269.5q0 231 133.5 379t357.5 148q147 0 257.5 -64t167.5 -173t57 -247q0 -43 -4 -71h-807q9 -161 105.5 -263t242.5 -102q125 0 203.5 52.5t103.5 150.5h166q-26 -159 -154 -253.5t-319 -94.5zM254 625h635q-9 131 -93 207.5
t-221 76.5q-131 0 -214.5 -74t-106.5 -210zM483 1227v229h189v-229h-189z" />
    <glyph glyph-name="Eogonek" unicode="&#x118;" horiz-adv-x="1171" 
d="M174 0v1434h897v-158h-721v-457h588v-157h-588v-504h744v-158q-58 -43 -92.5 -102.5t-34.5 -118.5q0 -43 20 -66.5t53 -23.5q47 0 95 51l69 -90q-81 -84 -190 -84q-80 0 -130 49.5t-50 130.5q0 143 145 254h-805z" />
    <glyph glyph-name="eogonek" unicode="&#x119;" horiz-adv-x="1148" 
d="M836 -350q-81 -84 -191 -84q-80 0 -130 49.5t-50 130.5q0 133 125 238q-148 1 -264.5 74.5t-179 195.5t-62.5 268q0 231 133.5 379t357.5 148q147 0 257.5 -64t167.5 -173t57 -247q0 -43 -4 -71h-807q9 -161 105.5 -263t242.5 -102q125 0 203.5 52.5t103.5 150.5h166
q-22 -130 -114.5 -219t-233.5 -117q-55 -44 -88 -102t-33 -115q0 -43 20.5 -66.5t53.5 -23.5q46 0 94 51zM254 625h635q-9 131 -93 207.5t-221 76.5q-131 0 -214.5 -74t-106.5 -210z" />
    <glyph glyph-name="Ecaron" unicode="&#x11a;" horiz-adv-x="1171" 
d="M174 0v1434h897v-158h-721v-457h588v-157h-588v-504h744v-158h-920zM313 1794h164l148 -145l145 145h166l-231 -246h-160z" />
    <glyph glyph-name="ecaron" unicode="&#x11b;" horiz-adv-x="1148" 
d="M594 -16q-149 0 -266.5 73t-180.5 195.5t-63 269.5q0 231 133.5 379t357.5 148q147 0 257.5 -64t167.5 -173t57 -247q0 -43 -4 -71h-807q9 -161 105.5 -263t242.5 -102q125 0 203.5 52.5t103.5 150.5h166q-26 -159 -154 -253.5t-319 -94.5zM254 625h635q-9 131 -93 207.5
t-221 76.5q-131 0 -214.5 -74t-106.5 -210zM283 1434h153l139 -170l140 170h153l-223 -287h-139z" />
    <glyph glyph-name="Gcircumflex" unicode="&#x11c;" horiz-adv-x="1519" 
d="M782 -16q-107 0 -207.5 29t-188 89t-152.5 145.5t-102.5 206t-37.5 263.5t38 263.5t103.5 206t153.5 145.5t188.5 89t208.5 29q246 0 420 -132t199 -337h-186q-25 137 -146 224t-287 87q-229 0 -371.5 -151t-142.5 -424q0 -272 142.5 -426t369.5 -154q119 0 219.5 41
t163 120t62.5 179q0 50 -30.5 79.5t-82.5 29.5h-323v151h356q41 0 84 -15.5t81.5 -45t63.5 -78t25 -106.5v-492h-164v250q-50 -120 -174.5 -193t-282.5 -73zM461 1548l223 244h158l225 -244h-156l-147 144l-152 -144h-151z" />
    <glyph glyph-name="gcircumflex" unicode="&#x11d;" horiz-adv-x="1245" 
d="M221 -418v142h477q100 0 164 67t64 170v182q-35 -72 -129.5 -115.5t-212.5 -43.5q-234 0 -366 149t-132 383q0 152 56.5 271.5t170.5 190.5t271 71q104 0 199.5 -47t142.5 -121v151h164v-1077q0 -164 -107 -268.5t-274 -104.5h-488zM256 516q0 -175 93.5 -280t248.5 -105
t248.5 105t93.5 280t-93.5 280t-248.5 105t-248.5 -105t-93.5 -280zM317 1145l226 287h137l225 -287h-155l-138 172l-141 -172h-154z" />
    <glyph glyph-name="Gbreve" unicode="&#x11e;" horiz-adv-x="1519" 
d="M782 -16q-107 0 -207.5 29t-188 89t-152.5 145.5t-102.5 206t-37.5 263.5t38 263.5t103.5 206t153.5 145.5t188.5 89t208.5 29q246 0 420 -132t199 -337h-186q-25 137 -146 224t-287 87q-229 0 -371.5 -151t-142.5 -424q0 -272 142.5 -426t369.5 -154q119 0 219.5 41
t163 120t62.5 179q0 50 -30.5 79.5t-82.5 29.5h-323v151h356q41 0 84 -15.5t81.5 -45t63.5 -78t25 -106.5v-492h-164v250q-50 -120 -174.5 -193t-282.5 -73zM471 1819h137q0 -67 41.5 -103.5t110.5 -36.5q68 0 109.5 36.5t41.5 103.5h136q0 -120 -79.5 -194.5t-207.5 -74.5
q-129 0 -209 74.5t-80 194.5z" />
    <glyph glyph-name="gbreve" unicode="&#x11f;" horiz-adv-x="1245" 
d="M221 -418v142h477q100 0 164 67t64 170v182q-35 -72 -129.5 -115.5t-212.5 -43.5q-234 0 -366 149t-132 383q0 152 56.5 271.5t170.5 190.5t271 71q104 0 199.5 -47t142.5 -121v151h164v-1077q0 -164 -107 -268.5t-274 -104.5h-488zM256 516q0 -175 93.5 -280t248.5 -105
t248.5 105t93.5 280t-93.5 280t-248.5 105t-248.5 -105t-93.5 -280zM319 1434h138q0 -70 41.5 -113t109.5 -43q67 0 109.5 43t42.5 113h137q0 -124 -80.5 -204.5t-208.5 -80.5t-208.5 80.5t-80.5 204.5z" />
    <glyph glyph-name="Gdotaccent" unicode="&#x120;" horiz-adv-x="1519" 
d="M782 -16q-107 0 -207.5 29t-188 89t-152.5 145.5t-102.5 206t-37.5 263.5t38 263.5t103.5 206t153.5 145.5t188.5 89t208.5 29q246 0 420 -132t199 -337h-186q-25 137 -146 224t-287 87q-229 0 -371.5 -151t-142.5 -424q0 -272 142.5 -426t369.5 -154q119 0 219.5 41
t163 120t62.5 179q0 50 -30.5 79.5t-82.5 29.5h-323v151h356q41 0 84 -15.5t81.5 -45t63.5 -78t25 -106.5v-492h-164v250q-50 -120 -174.5 -193t-282.5 -73zM666 1628v230h188v-230h-188z" />
    <glyph glyph-name="gdotaccent" unicode="&#x121;" horiz-adv-x="1245" 
d="M221 -418v142h477q100 0 164 67t64 170v182q-35 -72 -129.5 -115.5t-212.5 -43.5q-234 0 -366 149t-132 383q0 152 56.5 271.5t170.5 190.5t271 71q104 0 199.5 -47t142.5 -121v151h164v-1077q0 -164 -107 -268.5t-274 -104.5h-488zM256 516q0 -175 93.5 -280t248.5 -105
t248.5 105t93.5 280t-93.5 280t-248.5 105t-248.5 -105t-93.5 -280zM514 1227v229h188v-229h-188z" />
    <glyph glyph-name="uni0122" unicode="&#x122;" horiz-adv-x="1519" 
d="M782 -16q-107 0 -207.5 29t-188 89t-152.5 145.5t-102.5 206t-37.5 263.5t38 263.5t103.5 206t153.5 145.5t188.5 89t208.5 29q246 0 420 -132t199 -337h-186q-25 137 -146 224t-287 87q-229 0 -371.5 -151t-142.5 -424q0 -272 142.5 -426t369.5 -154q119 0 219.5 41
t163 120t62.5 179q0 50 -30.5 79.5t-82.5 29.5h-323v151h356q41 0 84 -15.5t81.5 -45t63.5 -78t25 -106.5v-492h-164v250q-50 -120 -174.5 -193t-282.5 -73zM571 -444l113 305h184l-151 -305h-146z" />
    <glyph glyph-name="uni0123" unicode="&#x123;" horiz-adv-x="1245" 
d="M221 -418v142h477q100 0 164 67t64 170v182q-35 -72 -129.5 -115.5t-212.5 -43.5q-234 0 -366 149t-132 383q0 152 56.5 271.5t170.5 190.5t271 71q104 0 199.5 -47t142.5 -121v151h164v-1077q0 -164 -107 -268.5t-274 -104.5h-488zM256 516q0 -175 93.5 -280t248.5 -105
t248.5 105t93.5 280t-93.5 280t-248.5 105t-248.5 -105t-93.5 -280zM547 1151l119 307h118l-61 -307h-176z" />
    <glyph glyph-name="Hcircumflex" unicode="&#x124;" horiz-adv-x="1458" 
d="M1108 1434h176v-1434h-176v662h-758v-662h-176v1434h176v-615h758v615zM430 1548l223 244h158l225 -244h-155l-148 144l-151 -144h-152z" />
    <glyph glyph-name="hcircumflex" unicode="&#x125;" horiz-adv-x="1187" 
d="M156 0v1456h163v-622q40 105 130.5 160t212.5 55q175 0 280 -114.5t105 -303.5v-631h-164v604q0 132 -70.5 213.5t-187.5 81.5q-134 0 -220 -96t-86 -246v-557h-163zM-63 1548l223 244h157l226 -244h-156l-147 144l-152 -144h-151z" />
    <glyph glyph-name="Hbar" unicode="&#x126;" horiz-adv-x="1492" 
d="M1126 1434h177v-148h139v-141h-139v-1145h-177v662h-757v-662h-176v1145h-144v141h144v148h176v-148h757v148zM369 819h757v326h-757v-326z" />
    <glyph glyph-name="hbar" unicode="&#x127;" horiz-adv-x="1187" 
d="M156 0v1182h-174v127h174v147h163v-147h359v-127h-359v-348q40 105 130.5 160t212.5 55q175 0 280 -114.5t105 -303.5v-631h-164v604q0 132 -70.5 213.5t-187.5 81.5q-134 0 -220 -96t-86 -246v-557h-163z" />
    <glyph glyph-name="Itilde" unicode="&#x128;" horiz-adv-x="524" 
d="M174 0v1434h176v-1434h-176zM-59 1612q7 94 60.5 151.5t131.5 57.5q52 0 97 -20.5t80.5 -41t64.5 -20.5q31 0 52.5 19t29.5 52h125q-6 -94 -59.5 -151t-133.5 -57q-51 0 -96 20t-81 40.5t-65 20.5q-31 0 -52 -19.5t-27 -51.5h-127z" />
    <glyph glyph-name="itilde" unicode="&#x129;" horiz-adv-x="477" 
d="M156 0v1032h163v-1032h-163zM-84 1210q7 93 61 151t132 58q52 0 97 -20.5t80 -41t64 -20.5q30 0 52 19.5t30 52.5h125q-6 -95 -59 -152t-133 -57q-51 0 -96 20.5t-81 41t-65 20.5q-31 0 -52.5 -20t-27.5 -52h-127z" />
    <glyph glyph-name="Imacron" unicode="&#x12a;" horiz-adv-x="524" 
d="M174 0v1434h176v-1434h-176zM-12 1612v137h544v-137h-544z" />
    <glyph glyph-name="imacron" unicode="&#x12b;" horiz-adv-x="477" 
d="M156 0v1032h163v-1032h-163zM-35 1210v138h545v-138h-545z" />
    <glyph glyph-name="Ibreve" unicode="&#x12c;" horiz-adv-x="524" 
d="M174 0v1434h176v-1434h-176zM-27 1819h138q0 -67 41 -103.5t110 -36.5q68 0 110 36.5t42 103.5h135q0 -120 -79.5 -194.5t-207.5 -74.5q-129 0 -209 74.5t-80 194.5z" />
    <glyph glyph-name="ibreve" unicode="&#x12d;" horiz-adv-x="477" 
d="M156 0v1032h163v-1032h-163zM-51 1434h137q0 -70 42 -113t110 -43q67 0 109 43t42 113h137q0 -124 -80 -204.5t-208 -80.5t-208.5 80.5t-80.5 204.5z" />
    <glyph glyph-name="Iogonek" unicode="&#x12e;" horiz-adv-x="524" 
d="M174 0v1434h176v-1434h-10q-58 -43 -92.5 -102.5t-34.5 -118.5q0 -43 20.5 -66.5t53.5 -23.5q46 0 94 51l70 -90q-81 -84 -191 -84q-80 0 -130 49.5t-50 130.5q0 143 145 254h-51z" />
    <glyph glyph-name="iogonek" unicode="&#x12f;" horiz-adv-x="477" 
d="M156 0v1032h163v-1032q-58 -43 -92 -102.5t-34 -118.5q0 -43 20 -66.5t53 -23.5q46 0 94 51l70 -90q-81 -84 -190 -84q-80 0 -130.5 49.5t-50.5 130.5q0 143 146 254h-49zM143 1227v229h189v-229h-189z" />
    <glyph glyph-name="Idotaccent" unicode="&#x130;" horiz-adv-x="524" 
d="M174 0v1434h176v-1434h-176zM168 1628v230h188v-230h-188z" />
    <glyph glyph-name="dotlessi" unicode="&#x131;" horiz-adv-x="477" 
d="M156 0v1032h163v-1032h-163z" />
    <glyph glyph-name="IJ" unicode="&#x132;" horiz-adv-x="1191" 
d="M174 0v1434h176v-1434h-176zM539 0v158h176q137 0 137 209v1067h174v-1072q0 -178 -77 -270t-222 -92h-188z" />
    <glyph glyph-name="ij" unicode="&#x133;" horiz-adv-x="909" 
d="M156 0v1032h163v-1032h-163zM143 1227v229h189v-229h-189zM362 -418v142h87q69 0 105 47.5t36 138.5v1122h164v-1128q0 -157 -75.5 -239.5t-219.5 -82.5h-97zM575 1227v229h189v-229h-189z" />
    <glyph glyph-name="Jcircumflex" unicode="&#x134;" horiz-adv-x="677" 
d="M201 158q137 0 137 209v1067h174v-1072q0 -178 -77 -270t-222 -92h-188v158h176zM125 1548l223 244h158l225 -244h-156l-147 144l-152 -144h-151z" />
    <glyph glyph-name="jcircumflex" unicode="&#x135;" horiz-adv-x="477" 
d="M-72 -418v142h86q69 0 105.5 47.5t36.5 138.5v1122h163v-1128q0 -157 -75 -239.5t-219 -82.5h-97zM-63 1147l223 244h157l226 -244h-156l-147 143l-152 -143h-151z" />
    <glyph glyph-name="uni0136" unicode="&#x136;" horiz-adv-x="1286" 
d="M352 0h-178v1434h178v-680l664 680h223l-557 -576l618 -858h-210l-529 733l-209 -215v-518zM446 -444l113 305h184l-151 -305h-146z" />
    <glyph glyph-name="uni0137" unicode="&#x137;" horiz-adv-x="1056" 
d="M156 0v1456h166v-862l487 438h217l-444 -403l483 -629h-207l-399 518l-137 -125v-393h-166zM330 -444l112 305h185l-152 -305h-145z" />
    <glyph glyph-name="kgreenlandic" unicode="&#x138;" horiz-adv-x="1056" 
d="M322 0h-166v1032h166v-434l495 434h209l-444 -403l483 -629h-207l-399 518l-137 -125v-393z" />
    <glyph glyph-name="Lacute" unicode="&#x139;" horiz-adv-x="1089" 
d="M174 0v1434h176v-1276h717v-158h-893zM184 1548l191 260h190l-227 -260h-154z" />
    <glyph glyph-name="lacute" unicode="&#x13a;" horiz-adv-x="477" 
d="M156 0v1456h163v-1456h-163zM156 1546l178 303h190l-213 -303h-155z" />
    <glyph glyph-name="uni013B" unicode="&#x13b;" horiz-adv-x="1089" 
d="M174 0v1434h176v-1276h717v-158h-893zM389 -444l113 305h184l-151 -305h-146z" />
    <glyph glyph-name="uni013C" unicode="&#x13c;" horiz-adv-x="477" 
d="M156 0v1456h163v-1456h-163zM45 -444l113 305h184l-152 -305h-145z" />
    <glyph glyph-name="Lcaron" unicode="&#x13d;" horiz-adv-x="1091" 
d="M174 0v1434h176v-1276h717v-158h-893zM586 1147l67 354h162l-104 -354h-125z" />
    <glyph glyph-name="lcaron" unicode="&#x13e;" horiz-adv-x="518" 
d="M156 0v1456h163v-1456h-163zM420 1147l67 354h162l-104 -354h-125z" />
    <glyph glyph-name="Ldot" unicode="&#x13f;" horiz-adv-x="1101" 
d="M174 0v1434h176v-1276h717v-158h-893zM662 612v230h188v-230h-188z" />
    <glyph glyph-name="ldot" unicode="&#x140;" horiz-adv-x="614" 
d="M156 0v1456h163v-1456h-163zM453 643v229h188v-229h-188z" />
    <glyph glyph-name="Lslash" unicode="&#x141;" horiz-adv-x="1153" 
d="M238 0v522l-160 -108v164l160 108v748h176v-631l172 117v-162l-172 -117v-483h716v-158h-892z" />
    <glyph glyph-name="lslash" unicode="&#x142;" horiz-adv-x="641" 
d="M246 0v627l-170 -115v164l170 115v665h164v-555l174 117v-162l-174 -119v-737h-164z" />
    <glyph glyph-name="Nacute" unicode="&#x143;" horiz-adv-x="1462" 
d="M174 0v1434h201l737 -1168v1168h176v-1434h-201l-737 1163v-1163h-176zM649 1548l191 260h190l-227 -260h-154z" />
    <glyph glyph-name="nacute" unicode="&#x144;" horiz-adv-x="1187" 
d="M156 0v1032h163v-198q40 105 130.5 160t212.5 55q175 0 280 -114.5t105 -303.5v-631h-164v604q0 132 -70.5 213.5t-187.5 81.5q-134 0 -220 -96t-86 -246v-557h-163zM520 1145l178 303h191l-213 -303h-156z" />
    <glyph glyph-name="uni0145" unicode="&#x145;" horiz-adv-x="1462" 
d="M174 0v1434h201l737 -1168v1168h176v-1434h-201l-737 1163v-1163h-176zM545 -444l112 305h185l-152 -305h-145z" />
    <glyph glyph-name="uni0146" unicode="&#x146;" horiz-adv-x="1187" 
d="M156 0v1032h163v-198q40 105 130.5 160t212.5 55q175 0 280 -114.5t105 -303.5v-631h-164v604q0 132 -70.5 213.5t-187.5 81.5q-134 0 -220 -96t-86 -246v-557h-163zM408 -444l112 305h185l-152 -305h-145z" />
    <glyph glyph-name="Ncaron" unicode="&#x147;" horiz-adv-x="1462" 
d="M174 0v1434h201l737 -1168v1168h176v-1434h-201l-737 1163v-1163h-176zM420 1794h164l147 -145l146 145h165l-231 -246h-160z" />
    <glyph glyph-name="ncaron" unicode="&#x148;" horiz-adv-x="1187" 
d="M156 0v1032h163v-198q40 105 130.5 160t212.5 55q175 0 280 -114.5t105 -303.5v-631h-164v604q0 132 -70.5 213.5t-187.5 81.5q-134 0 -220 -96t-86 -246v-557h-163zM303 1434h154l139 -170l139 170h154l-223 -287h-140z" />
    <glyph glyph-name="napostrophe" unicode="&#x149;" horiz-adv-x="1187" 
d="M156 0v1032h163v-198q40 105 130.5 160t212.5 55q175 0 280 -114.5t105 -303.5v-631h-164v604q0 132 -70.5 213.5t-187.5 81.5q-134 0 -220 -96t-86 -246v-557h-163zM-39 1147l68 354h161l-104 -354h-125z" />
    <glyph glyph-name="Eng" unicode="&#x14a;" horiz-adv-x="1462" 
d="M799 -418v158h176q67 0 102 52t35 151v22l-762 1190v-1155h-176v1434h201l737 -1158v1158h176v-1489q0 -178 -77 -270.5t-222 -92.5h-190z" />
    <glyph glyph-name="eng" unicode="&#x14b;" horiz-adv-x="1187" 
d="M655 -418v142h84q70 0 107 47.5t37 138.5v694q0 132 -70.5 213.5t-187.5 81.5q-134 0 -220 -96t-86 -246v-557h-163v1032h163v-198q40 105 130.5 160t212.5 55q175 0 280 -114.5t105 -303.5v-727q0 -157 -76 -239.5t-221 -82.5h-95z" />
    <glyph glyph-name="Omacron" unicode="&#x14c;" horiz-adv-x="1591" 
d="M795 -16q-149 0 -279.5 55.5t-223.5 152.5t-146.5 233t-53.5 292t53.5 292t146.5 233t223.5 152.5t279.5 55.5q150 0 281 -55.5t223.5 -152.5t146 -233t53.5 -292t-53.5 -292t-146 -233t-223.5 -152.5t-281 -55.5zM272 717q0 -247 149.5 -411.5t373.5 -164.5
q148 0 268 74.5t188 206.5t68 295t-68 294.5t-188 206t-268 74.5q-224 0 -373.5 -164t-149.5 -411zM522 1612v137h545v-137h-545z" />
    <glyph glyph-name="omacron" unicode="&#x14d;" horiz-adv-x="1218" 
d="M608 -16q-229 0 -376.5 150t-147.5 382q0 233 147.5 383t376.5 150q230 0 378.5 -150t148.5 -383q0 -232 -148.5 -382t-378.5 -150zM252 516q0 -169 99 -277t257 -108q159 0 259 108t100 277t-100 277t-259 108q-158 0 -257 -108t-99 -277zM336 1210v138h545v-138h-545z
" />
    <glyph glyph-name="Obreve" unicode="&#x14e;" horiz-adv-x="1591" 
d="M795 -16q-149 0 -279.5 55.5t-223.5 152.5t-146.5 233t-53.5 292t53.5 292t146.5 233t223.5 152.5t279.5 55.5q150 0 281 -55.5t223.5 -152.5t146 -233t53.5 -292t-53.5 -292t-146 -233t-223.5 -152.5t-281 -55.5zM272 717q0 -247 149.5 -411.5t373.5 -164.5
q148 0 268 74.5t188 206.5t68 295t-68 294.5t-188 206t-268 74.5q-224 0 -373.5 -164t-149.5 -411zM508 1819h137q0 -67 41.5 -103.5t110.5 -36.5q68 0 109.5 36.5t41.5 103.5h135q0 -120 -79 -194.5t-207 -74.5q-129 0 -209 74.5t-80 194.5z" />
    <glyph glyph-name="obreve" unicode="&#x14f;" horiz-adv-x="1218" 
d="M608 -16q-229 0 -376.5 150t-147.5 382q0 233 147.5 383t376.5 150q230 0 378.5 -150t148.5 -383q0 -232 -148.5 -382t-378.5 -150zM252 516q0 -169 99 -277t257 -108q159 0 259 108t100 277t-100 277t-259 108q-158 0 -257 -108t-99 -277zM322 1434h137q0 -70 41.5 -113
t109.5 -43q67 0 109.5 43t42.5 113h137q0 -124 -80.5 -204.5t-208.5 -80.5t-208 80.5t-80 204.5z" />
    <glyph glyph-name="Ohungarumlaut" unicode="&#x150;" horiz-adv-x="1591" 
d="M795 -16q-149 0 -279.5 55.5t-223.5 152.5t-146.5 233t-53.5 292t53.5 292t146.5 233t223.5 152.5t279.5 55.5q150 0 281 -55.5t223.5 -152.5t146 -233t53.5 -292t-53.5 -292t-146 -233t-223.5 -152.5t-281 -55.5zM272 717q0 -247 149.5 -411.5t373.5 -164.5
q148 0 268 74.5t188 206.5t68 295t-68 294.5t-188 206t-268 74.5q-224 0 -373.5 -164t-149.5 -411zM565 1548l193 260h188l-225 -260h-156zM842 1548l192 260h189l-226 -260h-155z" />
    <glyph glyph-name="ohungarumlaut" unicode="&#x151;" horiz-adv-x="1218" 
d="M608 -16q-229 0 -376.5 150t-147.5 382q0 233 147.5 383t376.5 150q230 0 378.5 -150t148.5 -383q0 -232 -148.5 -382t-378.5 -150zM252 516q0 -169 99 -277t257 -108q159 0 259 108t100 277t-100 277t-259 108q-158 0 -257 -108t-99 -277zM369 1145l178 303h190
l-213 -303h-155zM645 1145l178 303h191l-213 -303h-156z" />
    <glyph glyph-name="OE" unicode="&#x152;" horiz-adv-x="2056" 
d="M811 0q-151 0 -281.5 48.5t-227.5 138t-152.5 226.5t-55.5 304t55.5 304t152.5 226.5t227.5 138t281.5 48.5h1145v-158h-723v-457h588v-157h-588v-504h745v-158h-1167zM276 717q0 -143 44.5 -253t121 -175.5t171 -98t202.5 -32.5h244v1118h-244q-108 0 -202.5 -32.5
t-171 -98t-121 -175.5t-44.5 -253z" />
    <glyph glyph-name="oe" unicode="&#x153;" horiz-adv-x="2052" 
d="M608 -16q-229 0 -376.5 150t-147.5 382q0 233 147.5 383t376.5 150q146 0 263.5 -63t185.5 -175q62 112 170.5 175t251.5 63q147 0 257.5 -64t167 -173t56.5 -247q0 -43 -4 -71h-807q9 -161 105.5 -263t242.5 -102q125 0 203.5 52.5t103.5 150.5h166
q-26 -159 -154 -253.5t-319 -94.5q-143 0 -256.5 67t-179.5 182q-67 -117 -185.5 -183t-267.5 -66zM252 516q0 -169 99 -277t257 -108q159 0 259 108t100 277t-100 277t-259 108q-158 0 -257 -108t-99 -277zM1157 625h635q-9 131 -92.5 207.5t-220.5 76.5q-131 0 -215 -74
t-107 -210z" />
    <glyph glyph-name="Racute" unicode="&#x154;" horiz-adv-x="1292" 
d="M174 0v1434h545q210 0 332.5 -115t122.5 -305q0 -115 -59.5 -200t-164.5 -134q84 -46 133.5 -130.5t57.5 -193.5l24 -356h-170l-24 346q-6 105 -70 171.5t-164 66.5h-387v-584h-176zM350 741h367q142 0 210 78t68 195q0 116 -67.5 190t-210.5 74h-367v-537zM543 1548
l190 260h191l-228 -260h-153z" />
    <glyph glyph-name="racute" unicode="&#x155;" horiz-adv-x="759" 
d="M590 887q-271 0 -271 -432v-455h-163v1032h163v-209q34 107 101 158t180 51h131v-145h-141zM373 1145l178 303h190l-213 -303h-155z" />
    <glyph glyph-name="uni0156" unicode="&#x156;" horiz-adv-x="1292" 
d="M174 0v1434h545q210 0 332.5 -115t122.5 -305q0 -115 -59.5 -200t-164.5 -134q84 -46 133.5 -130.5t57.5 -193.5l24 -356h-170l-24 346q-6 105 -70 171.5t-164 66.5h-387v-584h-176zM350 741h367q142 0 210 78t68 195q0 116 -67.5 190t-210.5 74h-367v-537zM475 -444
l113 305h184l-151 -305h-146z" />
    <glyph glyph-name="uni0157" unicode="&#x157;" horiz-adv-x="759" 
d="M590 887q-271 0 -271 -432v-455h-163v1032h163v-209q34 107 101 158t180 51h131v-145h-141zM49 -444l113 305h184l-151 -305h-146z" />
    <glyph glyph-name="Rcaron" unicode="&#x158;" horiz-adv-x="1292" 
d="M174 0v1434h545q210 0 332.5 -115t122.5 -305q0 -115 -59.5 -200t-164.5 -134q84 -46 133.5 -130.5t57.5 -193.5l24 -356h-170l-24 346q-6 105 -70 171.5t-164 66.5h-387v-584h-176zM313 1794h164l148 -145l145 145h166l-231 -246h-160zM350 741h367q142 0 210 78t68 195
q0 116 -67.5 190t-210.5 74h-367v-537z" />
    <glyph glyph-name="rcaron" unicode="&#x159;" horiz-adv-x="759" 
d="M590 887q-271 0 -271 -432v-455h-163v1032h163v-209q34 107 101 158t180 51h131v-145h-141zM158 1434h153l140 -170l139 170h153l-223 -287h-139z" />
    <glyph glyph-name="Sacute" unicode="&#x15a;" horiz-adv-x="1234" 
d="M621 -16q-240 0 -385.5 131.5t-159.5 353.5h172q14 -152 111 -240t262 -88q157 0 250.5 62.5t93.5 187.5q0 59 -28.5 103.5t-77.5 72.5t-112 50t-132.5 40.5t-139 39t-132.5 51.5t-112 71.5t-77.5 104t-28.5 145.5q0 170 134.5 275.5t350.5 105.5q215 0 353 -115.5
t153 -308.5h-172q-12 122 -101 194t-233 72t-226.5 -60t-82.5 -163q0 -58 29 -101.5t77.5 -70t112 -47t133.5 -38t140 -37.5t133.5 -50.5t112 -72.5t77.5 -108.5t29 -152.5q0 -190 -146 -298.5t-378 -108.5zM524 1548l191 260h190l-227 -260h-154z" />
    <glyph glyph-name="sacute" unicode="&#x15b;" horiz-adv-x="954" 
d="M487 -16q-178 0 -288.5 93.5t-122.5 254.5h157q10 -100 75.5 -152.5t178.5 -52.5q96 0 157 45.5t61 110.5q0 62 -33.5 99t-86.5 52t-117.5 24.5t-128.5 24t-117 41t-86.5 86.5t-33.5 150q0 130 101 209.5t266 79.5q168 0 275 -86.5t116 -229.5h-158q-7 61 -48.5 103
t-89.5 57.5t-99 15.5q-91 0 -146 -40t-55 -107q0 -44 20.5 -73.5t55.5 -44.5t80.5 -24t95.5 -15.5t100 -16t95.5 -30t80.5 -52.5t55.5 -87.5t20.5 -131.5q0 -137 -105 -220t-276 -83zM387 1145l178 303h191l-213 -303h-156z" />
    <glyph glyph-name="Scircumflex" unicode="&#x15c;" horiz-adv-x="1234" 
d="M621 -16q-240 0 -385.5 131.5t-159.5 353.5h172q14 -152 111 -240t262 -88q157 0 250.5 62.5t93.5 187.5q0 59 -28.5 103.5t-77.5 72.5t-112 50t-132.5 40.5t-139 39t-132.5 51.5t-112 71.5t-77.5 104t-28.5 145.5q0 170 134.5 275.5t350.5 105.5q215 0 353 -115.5
t153 -308.5h-172q-12 122 -101 194t-233 72t-226.5 -60t-82.5 -163q0 -58 29 -101.5t77.5 -70t112 -47t133.5 -38t140 -37.5t133.5 -50.5t112 -72.5t77.5 -108.5t29 -152.5q0 -190 -146 -298.5t-378 -108.5zM309 1548l223 244h158l225 -244h-155l-148 144l-151 -144h-152z
" />
    <glyph glyph-name="scircumflex" unicode="&#x15d;" horiz-adv-x="954" 
d="M487 -16q-178 0 -288.5 93.5t-122.5 254.5h157q10 -100 75.5 -152.5t178.5 -52.5q96 0 157 45.5t61 110.5q0 62 -33.5 99t-86.5 52t-117.5 24.5t-128.5 24t-117 41t-86.5 86.5t-33.5 150q0 130 101 209.5t266 79.5q168 0 275 -86.5t116 -229.5h-158q-7 61 -48.5 103
t-89.5 57.5t-99 15.5q-91 0 -146 -40t-55 -107q0 -44 20.5 -73.5t55.5 -44.5t80.5 -24t95.5 -15.5t100 -16t95.5 -30t80.5 -52.5t55.5 -87.5t20.5 -131.5q0 -137 -105 -220t-276 -83zM172 1145l225 287h138l225 -287h-156l-137 172l-141 -172h-154z" />
    <glyph glyph-name="Scedilla" unicode="&#x15e;" horiz-adv-x="1234" 
d="M494 -162l69 148q-216 17 -345.5 146.5t-141.5 336.5h172q14 -152 111 -240t262 -88q157 0 250.5 62.5t93.5 187.5q0 59 -28.5 103.5t-77.5 72.5t-112 50t-132.5 40.5t-139 39t-132.5 51.5t-112 71.5t-77.5 104t-28.5 145.5q0 170 134.5 275.5t350.5 105.5
q215 0 353 -115.5t153 -308.5h-172q-12 122 -101 194t-233 72t-226.5 -60t-82.5 -163q0 -58 29 -101.5t77.5 -70t112 -47t133.5 -38t140 -37.5t133.5 -50.5t112 -72.5t77.5 -108.5t29 -152.5q0 -180 -131 -287t-342 -118l-43 -88q106 11 175.5 -29.5t69.5 -122.5
q0 -87 -70 -132.5t-190 -45.5q-86 0 -159 29v102q79 -29 159 -29q134 0 134 74q0 45 -65 59.5t-132 -6.5z" />
    <glyph glyph-name="scedilla" unicode="&#x15f;" horiz-adv-x="954" 
d="M328 -162l71 152q-142 23 -227.5 113t-95.5 229h157q10 -100 75.5 -152.5t178.5 -52.5q96 0 157 45.5t61 110.5q0 62 -33.5 99t-86.5 52t-117.5 24.5t-128.5 24t-117 41t-86.5 86.5t-33.5 150q0 130 101 209.5t266 79.5q168 0 275 -86.5t116 -229.5h-158q-7 61 -48.5 103
t-89.5 57.5t-99 15.5q-91 0 -146 -40t-55 -107q0 -44 20.5 -73.5t55.5 -44.5t80.5 -24t95.5 -15.5t100 -16t95.5 -30t80.5 -52.5t55.5 -87.5t20.5 -131.5q0 -134 -99 -216t-263 -87l-43 -86q106 11 176 -29.5t70 -122.5q0 -87 -70 -132.5t-190 -45.5q-87 0 -160 29v102
q79 -29 160 -29q133 0 133 74q0 45 -65 59.5t-132 -6.5z" />
    <glyph glyph-name="Scaron" unicode="&#x160;" horiz-adv-x="1234" 
d="M621 -16q-240 0 -385.5 131.5t-159.5 353.5h172q14 -152 111 -240t262 -88q157 0 250.5 62.5t93.5 187.5q0 59 -28.5 103.5t-77.5 72.5t-112 50t-132.5 40.5t-139 39t-132.5 51.5t-112 71.5t-77.5 104t-28.5 145.5q0 170 134.5 275.5t350.5 105.5q215 0 353 -115.5
t153 -308.5h-172q-12 122 -101 194t-233 72t-226.5 -60t-82.5 -163q0 -58 29 -101.5t77.5 -70t112 -47t133.5 -38t140 -37.5t133.5 -50.5t112 -72.5t77.5 -108.5t29 -152.5q0 -190 -146 -298.5t-378 -108.5zM297 1794h164l147 -145l146 145h166l-232 -246h-160z" />
    <glyph glyph-name="scaron" unicode="&#x161;" horiz-adv-x="954" 
d="M487 -16q-178 0 -288.5 93.5t-122.5 254.5h157q10 -100 75.5 -152.5t178.5 -52.5q96 0 157 45.5t61 110.5q0 62 -33.5 99t-86.5 52t-117.5 24.5t-128.5 24t-117 41t-86.5 86.5t-33.5 150q0 130 101 209.5t266 79.5q168 0 275 -86.5t116 -229.5h-158q-7 61 -48.5 103
t-89.5 57.5t-99 15.5q-91 0 -146 -40t-55 -107q0 -44 20.5 -73.5t55.5 -44.5t80.5 -24t95.5 -15.5t100 -16t95.5 -30t80.5 -52.5t55.5 -87.5t20.5 -131.5q0 -137 -105 -220t-276 -83zM170 1434h154l139 -170l139 170h154l-224 -287h-139z" />
    <glyph glyph-name="uni0162" unicode="&#x162;" horiz-adv-x="1138" 
d="M483 0v1276h-460v158h1091v-158h-457v-1276h-51l-51 -102q106 11 176 -29.5t70 -122.5q0 -87 -70 -132.5t-190 -45.5q-87 0 -160 29v102q79 -29 160 -29q133 0 133 74q0 45 -65 59.5t-132 -6.5l-57 41l76 162h-13z" />
    <glyph glyph-name="uni0163" unicode="&#x163;" horiz-adv-x="772" 
d="M240 1362h163v-330h318v-145h-318v-559q0 -85 45 -134t121 -49h152v-145h-158h-10l-51 -102q106 11 176 -29.5t70 -122.5q0 -87 -70.5 -132.5t-190.5 -45.5q-87 0 -159 29v102q79 -29 159 -29q134 0 134 74q0 45 -64.5 59.5t-132.5 -6.5l-57 41l84 178
q-100 28 -155.5 108.5t-55.5 199.5v563h-215v145h215v330z" />
    <glyph glyph-name="Tcaron" unicode="&#x164;" horiz-adv-x="1138" 
d="M483 0v1276h-460v158h1091v-158h-457v-1276h-174zM258 1794h164l147 -145l146 145h166l-232 -246h-160z" />
    <glyph glyph-name="tcaron" unicode="&#x165;" horiz-adv-x="772" 
d="M240 1362h163v-330h318v-145h-318v-559q0 -85 45 -134t121 -49h152v-145h-158q-149 0 -236 87t-87 237v563h-215v145h215v330zM561 1147l68 354h162l-105 -354h-125z" />
    <glyph glyph-name="Tbar" unicode="&#x166;" horiz-adv-x="1171" 
d="M500 0v649h-295v133h295v494h-461v158h1091v-158h-456v-494h293v-133h-293v-649h-174z" />
    <glyph glyph-name="tbar" unicode="&#x167;" horiz-adv-x="802" 
d="M268 1362h164v-330h318v-145h-318v-305h313v-127h-313v-127q0 -85 45 -134t121 -49h152v-145h-158q-150 0 -237 87t-87 237v131h-219v127h219v305h-215v145h215v330z" />
    <glyph glyph-name="Utilde" unicode="&#x168;" horiz-adv-x="1406" 
d="M702 -16q-245 0 -392.5 137.5t-147.5 370.5v942h172v-951q0 -157 100.5 -249.5t267.5 -92.5q168 0 269.5 92.5t101.5 249.5v951h172v-942q0 -233 -148.5 -370.5t-394.5 -137.5zM383 1612q7 94 60.5 151.5t131.5 57.5q52 0 97 -20.5t80.5 -41t64.5 -20.5q31 0 52.5 19
t29.5 52h125q-6 -94 -59.5 -151t-133.5 -57q-40 0 -77.5 12.5t-61 28t-51 28t-51.5 12.5q-31 0 -52.5 -19.5t-27.5 -51.5h-127z" />
    <glyph glyph-name="utilde" unicode="&#x169;" horiz-adv-x="1187" 
d="M1032 1032v-1032h-164v199q-40 -105 -129.5 -160t-210.5 -55q-175 0 -280 114t-105 303v631h164v-604q0 -132 70.5 -213.5t187.5 -81.5q132 0 217.5 96t85.5 246v557h164zM270 1210q7 93 61 151t132 58q52 0 97 -20.5t80.5 -41t64.5 -20.5q30 0 51.5 19.5t29.5 52.5h125
q-6 -95 -59 -152t-133 -57q-51 0 -96 20.5t-81 41t-65 20.5q-31 0 -52.5 -20t-27.5 -52h-127z" />
    <glyph glyph-name="Umacron" unicode="&#x16a;" horiz-adv-x="1406" 
d="M702 -16q-245 0 -392.5 137.5t-147.5 370.5v942h172v-951q0 -157 100.5 -249.5t267.5 -92.5q168 0 269.5 92.5t101.5 249.5v951h172v-942q0 -233 -148.5 -370.5t-394.5 -137.5zM430 1612v137h545v-137h-545z" />
    <glyph glyph-name="umacron" unicode="&#x16b;" horiz-adv-x="1187" 
d="M1032 1032v-1032h-164v199q-40 -105 -129.5 -160t-210.5 -55q-175 0 -280 114t-105 303v631h164v-604q0 -132 70.5 -213.5t187.5 -81.5q132 0 217.5 96t85.5 246v557h164zM319 1210v138h545v-138h-545z" />
    <glyph glyph-name="Ubreve" unicode="&#x16c;" horiz-adv-x="1406" 
d="M702 -16q-245 0 -392.5 137.5t-147.5 370.5v942h172v-951q0 -157 100.5 -249.5t267.5 -92.5q168 0 269.5 92.5t101.5 249.5v951h172v-942q0 -233 -148.5 -370.5t-394.5 -137.5zM416 1819h137q0 -67 41.5 -103.5t110.5 -36.5q68 0 109.5 36.5t41.5 103.5h135
q0 -120 -79 -194.5t-207 -74.5q-129 0 -209 74.5t-80 194.5z" />
    <glyph glyph-name="ubreve" unicode="&#x16d;" horiz-adv-x="1187" 
d="M1032 1032v-1032h-164v199q-40 -105 -129.5 -160t-210.5 -55q-175 0 -280 114t-105 303v631h164v-604q0 -132 70.5 -213.5t187.5 -81.5q132 0 217.5 96t85.5 246v557h164zM305 1434h137q0 -70 42 -113t110 -43q67 0 109 43t42 113h138q0 -124 -80.5 -204.5t-208.5 -80.5
t-208.5 80.5t-80.5 204.5z" />
    <glyph glyph-name="Uring" unicode="&#x16e;" horiz-adv-x="1406" 
d="M702 -16q-245 0 -392.5 137.5t-147.5 370.5v942h172v-951q0 -157 100.5 -249.5t267.5 -92.5q168 0 269.5 92.5t101.5 249.5v951h172v-942q0 -233 -148.5 -370.5t-394.5 -137.5zM455 1733q0 94 68 152.5t177 58.5t178.5 -59t69.5 -152q0 -94 -69.5 -154.5t-178.5 -60.5
q-108 0 -176.5 60.5t-68.5 154.5zM573 1733q0 -51 35 -82t92 -31q58 0 94.5 31t36.5 82q0 49 -37 80.5t-94 31.5t-92 -31t-35 -81z" />
    <glyph glyph-name="uring" unicode="&#x16f;" horiz-adv-x="1187" 
d="M1032 1032v-1032h-164v199q-40 -105 -129.5 -160t-210.5 -55q-175 0 -280 114t-105 303v631h164v-604q0 -132 70.5 -213.5t187.5 -81.5q132 0 217.5 96t85.5 246v557h164zM344 1343q0 95 70.5 159.5t175.5 64.5q106 0 177 -64.5t71 -159.5q0 -98 -71 -162.5t-177 -64.5
t-176 64.5t-70 162.5zM463 1343q0 -54 35.5 -88t91.5 -34q57 0 94 34t37 88q0 53 -37 87t-94 34q-55 0 -91 -34t-36 -87z" />
    <glyph glyph-name="Uhungarumlaut" unicode="&#x170;" horiz-adv-x="1406" 
d="M702 -16q-245 0 -392.5 137.5t-147.5 370.5v942h172v-951q0 -157 100.5 -249.5t267.5 -92.5q168 0 269.5 92.5t101.5 249.5v951h172v-942q0 -233 -148.5 -370.5t-394.5 -137.5zM473 1548l193 260h188l-225 -260h-156zM750 1548l192 260h188l-225 -260h-155z" />
    <glyph glyph-name="uhungarumlaut" unicode="&#x171;" horiz-adv-x="1187" 
d="M1032 1032v-1032h-164v199q-40 -105 -129.5 -160t-210.5 -55q-175 0 -280 114t-105 303v631h164v-604q0 -132 70.5 -213.5t187.5 -81.5q132 0 217.5 96t85.5 246v557h164zM352 1145l178 303h191l-213 -303h-156zM629 1145l178 303h190l-213 -303h-155z" />
    <glyph glyph-name="Uogonek" unicode="&#x172;" horiz-adv-x="1406" 
d="M907 -350q-81 -84 -190 -84q-80 0 -130 49.5t-50 130.5q0 134 127 238q-229 12 -365.5 148t-136.5 360v942h172v-951q0 -157 100.5 -249.5t267.5 -92.5q168 0 269.5 92.5t101.5 249.5v951h172v-942q0 -214 -125.5 -348t-339.5 -156q-50 -44 -80 -99t-30 -110
q0 -43 20 -66.5t53 -23.5q47 0 95 51z" />
    <glyph glyph-name="uogonek" unicode="&#x173;" horiz-adv-x="1187" 
d="M1032 1032v-1032q-58 -43 -92.5 -102.5t-34.5 -118.5q0 -43 20.5 -66.5t53.5 -23.5q46 0 94 51l70 -90q-81 -84 -191 -84q-80 0 -130 49.5t-50 130.5q0 143 146 254h-50v199q-40 -105 -129.5 -160t-210.5 -55q-175 0 -280 114t-105 303v631h164v-604q0 -132 70.5 -213.5
t187.5 -81.5q132 0 217.5 96t85.5 246v557h164z" />
    <glyph glyph-name="Wcircumflex" unicode="&#x174;" horiz-adv-x="2029" 
d="M483 0l-442 1434h180l354 -1170l361 1170h156l362 -1170l354 1170h181l-441 -1434h-178l-354 1165l-357 -1165h-176zM717 1548l223 244h158l225 -244h-156l-147 144l-152 -144h-151z" />
    <glyph glyph-name="wcircumflex" unicode="&#x175;" horiz-adv-x="1546" 
d="M362 0l-313 1032h164l227 -819l254 819h160l252 -819l225 819h166l-313 -1032h-158l-254 821l-252 -821h-158zM481 1145l226 287h137l225 -287h-156l-137 172l-141 -172h-154z" />
    <glyph glyph-name="Ycircumflex" unicode="&#x176;" horiz-adv-x="1271" 
d="M549 0v600l-508 834h199l397 -666l395 666h199l-508 -834v-600h-174zM338 1548l223 244h158l225 -244h-156l-147 144l-152 -144h-151z" />
    <glyph glyph-name="ycircumflex" unicode="&#x177;" horiz-adv-x="1011" 
d="M295 -418l133 402l-387 1048h170l293 -819l295 819h170l-334 -913l-182 -537h-158zM223 1145l226 287h137l225 -287h-156l-137 172l-141 -172h-154z" />
    <glyph glyph-name="Ydieresis" unicode="&#x178;" horiz-adv-x="1271" 
d="M549 0v600l-508 834h199l397 -666l395 666h199l-508 -834v-600h-174zM389 1622v188h158v-188h-158zM725 1622v188h158v-188h-158z" />
    <glyph glyph-name="Zacute" unicode="&#x179;" horiz-adv-x="1210" 
d="M55 0v158l877 1118h-830v158h1031v-158l-875 -1118h877v-158h-1080zM543 1548l190 260h191l-228 -260h-153z" />
    <glyph glyph-name="zacute" unicode="&#x17a;" horiz-adv-x="993" 
d="M68 0v145l639 742h-609v145h799v-145l-633 -742h662v-145h-858zM438 1145l178 303h191l-213 -303h-156z" />
    <glyph glyph-name="Zdotaccent" unicode="&#x17b;" horiz-adv-x="1210" 
d="M55 0v158l877 1118h-830v158h1031v-158l-875 -1118h877v-158h-1080zM532 1628v230h189v-230h-189z" />
    <glyph glyph-name="zdotaccent" unicode="&#x17c;" horiz-adv-x="993" 
d="M68 0v145l639 742h-609v145h799v-145l-633 -742h662v-145h-858zM422 1227v229h188v-229h-188z" />
    <glyph glyph-name="Zcaron" unicode="&#x17d;" horiz-adv-x="1210" 
d="M55 0v158l877 1118h-830v158h1031v-158l-875 -1118h877v-158h-1080zM313 1794h164l148 -145l145 145h166l-231 -246h-160z" />
    <glyph glyph-name="zcaron" unicode="&#x17e;" horiz-adv-x="993" 
d="M68 0v145l639 742h-609v145h799v-145l-633 -742h662v-145h-858zM221 1434h154l139 -170l139 170h154l-223 -287h-140z" />
    <glyph glyph-name="longs" unicode="&#x17f;" horiz-adv-x="604" 
d="M244 0v887h-215v145h215v105q0 148 86.5 233.5t234.5 85.5h162v-145h-156q-74 0 -118.5 -47t-44.5 -129v-1135h-164z" />
    <glyph glyph-name="uni018F" unicode="&#x18f;" horiz-adv-x="1523" 
d="M90 975q34 215 207.5 344t435.5 129q149 0 278.5 -57.5t221.5 -156.5t144.5 -237.5t52.5 -296.5q0 -214 -84.5 -379t-236.5 -254.5t-349 -89.5q-291 0 -472.5 181.5t-181.5 476.5q0 38 7 94h1142q-5 159 -75 288.5t-187.5 203t-259.5 73.5q-187 0 -308 -84t-157 -235
h-178zM283 586q2 -200 134.5 -329.5t342.5 -129.5q198 0 327 122t160 337h-964z" />
    <glyph glyph-name="florin" unicode="&#x192;" horiz-adv-x="1232" 
d="M1176 1032v-145h-416l-201 -965q-38 -188 -138.5 -264t-275.5 -76h-114v144l143 -2q88 -2 143 42t76 144l205 977h-297v145h326l18 84q40 188 140 264t276 76h115v-141l-144 2q-90 0 -145 -44t-76 -143l-20 -98h385z" />
    <glyph glyph-name="uni019D" unicode="&#x19d;" horiz-adv-x="1462" 
d="M37 -260q137 0 137 209v1485h201l737 -1168v1168h176v-1434h-201l-737 1163v-1218q0 -177 -77.5 -270t-221.5 -93h-190v158h176z" />
    <glyph glyph-name="Gcaron" unicode="&#x1e6;" horiz-adv-x="1519" 
d="M782 -16q-107 0 -207.5 29t-188 89t-152.5 145.5t-102.5 206t-37.5 263.5t38 263.5t103.5 206t153.5 145.5t188.5 89t208.5 29q246 0 420 -132t199 -337h-186q-25 137 -146 224t-287 87q-229 0 -371.5 -151t-142.5 -424q0 -272 142.5 -426t369.5 -154q119 0 219.5 41
t163 120t62.5 179q0 50 -30.5 79.5t-82.5 29.5h-323v151h356q41 0 84 -15.5t81.5 -45t63.5 -78t25 -106.5v-492h-164v250q-50 -120 -174.5 -193t-282.5 -73zM465 1835h153l140 -170l139 170h154l-224 -287h-139z" />
    <glyph glyph-name="gcaron" unicode="&#x1e7;" horiz-adv-x="1245" 
d="M221 -418v142h477q100 0 164 67t64 170v182q-35 -72 -129.5 -115.5t-212.5 -43.5q-234 0 -366 149t-132 383q0 152 56.5 271.5t170.5 190.5t271 71q104 0 199.5 -47t142.5 -121v151h164v-1077q0 -164 -107 -268.5t-274 -104.5h-488zM256 516q0 -175 93.5 -280t248.5 -105
t248.5 105t93.5 280t-93.5 280t-248.5 105t-248.5 -105t-93.5 -280zM313 1434h154l139 -170l139 170h154l-223 -287h-139z" />
    <glyph glyph-name="uni01EA" unicode="&#x1ea;" horiz-adv-x="1591" 
d="M795 -16q-149 0 -279.5 55.5t-223.5 152.5t-146.5 233t-53.5 292t53.5 292t146.5 233t223.5 152.5t279.5 55.5q150 0 281 -55.5t223.5 -152.5t146 -233t53.5 -292q0 -256 -134.5 -446t-356.5 -257q-55 -43 -87 -100t-32 -115q0 -43 20.5 -66.5t53.5 -23.5q46 0 94 51
l69 -90q-81 -84 -190 -84q-80 0 -130 50t-50 131q0 119 104 219q-20 -2 -65 -2zM272 717q0 -247 149.5 -411.5t373.5 -164.5q148 0 268 74.5t188 206.5t68 295t-68 294.5t-188 206t-268 74.5q-224 0 -373.5 -164t-149.5 -411z" />
    <glyph glyph-name="uni01EB" unicode="&#x1eb;" horiz-adv-x="1218" 
d="M608 131q159 0 259 108t100 277t-100 277t-259 108q-158 0 -257 -108t-99 -277t99 -277t257 -108zM84 516q0 233 147.5 383t376.5 150q230 0 378.5 -150t148.5 -383q0 -208 -121.5 -352.5t-317.5 -173.5q-53 -43 -83.5 -99t-30.5 -112q0 -43 20 -66.5t53 -23.5
q47 0 95 51l69 -90q-81 -84 -190 -84q-80 0 -130 49.5t-50 130.5q0 135 126 238q-217 12 -354 160.5t-137 371.5z" />
    <glyph glyph-name="Aringacute" unicode="&#x1fa;" horiz-adv-x="1351" 
d="M676 1219l-260 -676h518zM27 0l569 1434h160l569 -1434h-182l-148 387h-639l-149 -387h-180zM428 1733q0 81 51.5 136t138.5 70l173 236h190l-213 -244q70 -22 112 -74.5t42 -123.5q0 -94 -69.5 -154.5t-178.5 -60.5q-108 0 -177 60.5t-69 154.5zM547 1733q0 -51 35 -82
t92 -31q58 0 94.5 31t36.5 82q0 49 -37 80.5t-94 31.5t-92 -31t-35 -81z" />
    <glyph glyph-name="aringacute" unicode="&#x1fb;" horiz-adv-x="1124" 
d="M465 -16q-163 0 -261 85t-98 226q0 147 112 234t300 87h234q65 0 65 56q0 108 -73 172.5t-203 64.5q-113 0 -193 -60.5t-86 -146.5h-156q9 98 69.5 177.5t158 124.5t211.5 45q200 0 318 -105t118 -278v-666h-164v178q-41 -89 -136.5 -141.5t-215.5 -52.5zM274 297
q0 -80 58.5 -127t156.5 -47q155 0 241.5 91t86.5 251v27h-289q-116 0 -185 -52.5t-69 -142.5zM311 1343q0 77 47.5 135t124.5 78l176 302h191l-213 -302q76 -24 122 -81t46 -132q0 -98 -71 -162.5t-177 -64.5t-176 64.5t-70 162.5zM430 1343q0 -54 35.5 -88t91.5 -34
q57 0 94 34t37 88q0 53 -37 87t-94 34q-55 0 -91 -34t-36 -87z" />
    <glyph glyph-name="AEacute" unicode="&#x1fc;" horiz-adv-x="1851" 
d="M145 0h-190l926 1434h870v-158h-621v-457h488v-157h-488v-504h644v-158h-818v387h-567zM487 545h469v745zM1198 1548l191 260h190l-227 -260h-154z" />
    <glyph glyph-name="aeacute" unicode="&#x1fd;" horiz-adv-x="1882" 
d="M475 -16q-167 0 -268 87t-101 222q0 160 104 246t308 86h240q59 0 59 55q0 103 -80 166t-200 63q-113 0 -191 -61t-86 -148h-154q13 150 136.5 249.5t292.5 99.5q127 0 230 -50.5t157 -138.5q64 90 163.5 139.5t223.5 49.5q147 0 257.5 -64t167 -173t56.5 -247
q0 -43 -4 -71h-807q7 -160 105 -262.5t243 -102.5q125 0 203.5 52.5t103.5 150.5h166q-26 -159 -154 -253.5t-319 -94.5q-140 0 -252 65t-178 180q-115 -245 -422 -245zM274 295q0 -75 60.5 -123.5t152.5 -48.5q155 0 242.5 91t87.5 251v37h-289q-132 0 -193 -52.5
t-61 -154.5zM877 1145l178 303h190l-213 -303h-155zM987 625h635q-9 131 -92.5 207.5t-220.5 76.5q-131 0 -215 -74t-107 -210z" />
    <glyph glyph-name="Oslashacute" unicode="&#x1fe;" horiz-adv-x="1591" 
d="M795 -16q-229 0 -406 125l-121 -152l-100 86l123 152q-95 100 -147 233.5t-52 288.5q0 156 53.5 292t146.5 233t223.5 152.5t279.5 55.5q227 0 407 -125l121 152l100 -86l-123 -152q95 -100 147 -233.5t52 -288.5q0 -156 -53.5 -292t-146 -233t-223.5 -152.5t-281 -55.5z
M272 717q0 -226 127 -385l697 862q-131 98 -301 98q-224 0 -373.5 -164t-149.5 -411zM496 238q134 -97 299 -97q148 0 268 74.5t188 206.5t68 295q0 226 -127 385zM713 1548l190 260h191l-228 -260h-153z" />
    <glyph glyph-name="oslashacute" unicode="&#x1ff;" horiz-adv-x="1222" 
d="M612 -16q-166 0 -293 82l-104 -129l-86 73l102 127q-143 149 -143 379q0 233 147.5 383t376.5 150q166 0 293 -82l103 127l86 -74l-101 -123q146 -149 146 -381t-148.5 -382t-378.5 -150zM256 516q0 -147 78 -252l473 582q-83 55 -195 55q-158 0 -257 -108t-99 -277z
M418 186q86 -55 194 -55q159 0 259 108t100 277q0 150 -80 254zM545 1145l178 303h190l-213 -303h-155z" />
    <glyph glyph-name="uni0218" unicode="&#x218;" horiz-adv-x="1234" 
d="M621 -16q-240 0 -385.5 131.5t-159.5 353.5h172q14 -152 111 -240t262 -88q157 0 250.5 62.5t93.5 187.5q0 59 -28.5 103.5t-77.5 72.5t-112 50t-132.5 40.5t-139 39t-132.5 51.5t-112 71.5t-77.5 104t-28.5 145.5q0 170 134.5 275.5t350.5 105.5q215 0 353 -115.5
t153 -308.5h-172q-12 122 -101 194t-233 72t-226.5 -60t-82.5 -163q0 -58 29 -101.5t77.5 -70t112 -47t133.5 -38t140 -37.5t133.5 -50.5t112 -72.5t77.5 -108.5t29 -152.5q0 -190 -146 -298.5t-378 -108.5zM440 -444l113 305h184l-151 -305h-146z" />
    <glyph glyph-name="uni0219" unicode="&#x219;" horiz-adv-x="954" 
d="M487 -16q-178 0 -288.5 93.5t-122.5 254.5h157q10 -100 75.5 -152.5t178.5 -52.5q96 0 157 45.5t61 110.5q0 62 -33.5 99t-86.5 52t-117.5 24.5t-128.5 24t-117 41t-86.5 86.5t-33.5 150q0 130 101 209.5t266 79.5q168 0 275 -86.5t116 -229.5h-158q-7 61 -48.5 103
t-89.5 57.5t-99 15.5q-91 0 -146 -40t-55 -107q0 -44 20.5 -73.5t55.5 -44.5t80.5 -24t95.5 -15.5t100 -16t95.5 -30t80.5 -52.5t55.5 -87.5t20.5 -131.5q0 -137 -105 -220t-276 -83zM276 -444l113 305h184l-151 -305h-146z" />
    <glyph glyph-name="uni021A" unicode="&#x21a;" horiz-adv-x="1138" 
d="M483 0v1276h-460v158h1091v-158h-457v-1276h-174zM381 -444l113 305h184l-152 -305h-145z" />
    <glyph glyph-name="uni021B" unicode="&#x21b;" horiz-adv-x="772" 
d="M240 1362h163v-330h318v-145h-318v-559q0 -85 45 -134t121 -49h152v-145h-158q-149 0 -236 87t-87 237v563h-215v145h215v330zM313 -444l113 305h184l-151 -305h-146z" />
    <glyph glyph-name="uni0232" unicode="&#x232;" horiz-adv-x="1271" 
d="M549 0v600l-508 834h199l397 -666l395 666h199l-508 -834v-600h-174zM362 1612v137h545v-137h-545z" />
    <glyph glyph-name="uni0233" unicode="&#x233;" horiz-adv-x="1011" 
d="M295 -418l133 402l-387 1048h170l293 -819l295 819h170l-334 -913l-182 -537h-158zM240 1210v138h544v-138h-544z" />
    <glyph glyph-name="uni0237" unicode="&#x237;" horiz-adv-x="477" 
d="M-72 -418v142h86q69 0 105.5 47.5t36.5 138.5v1122h163v-1128q0 -157 -75 -239.5t-219 -82.5h-97z" />
    <glyph glyph-name="uni0259" unicode="&#x259;" horiz-adv-x="1148" 
d="M573 -16q-221 0 -351 136t-130 347q0 42 4 74h809q-9 160 -107 262t-243 102q-125 0 -202.5 -53t-102.5 -152h-168q26 159 154 254t319 95q149 0 267 -73t181.5 -195.5t63.5 -270.5q0 -231 -134.5 -378.5t-359.5 -147.5zM262 408q9 -131 92 -208t219 -77q132 0 216.5 74
t107.5 211h-635z" />
    <glyph glyph-name="uni0272" unicode="&#x272;" horiz-adv-x="1187" 
d="M-72 -418v142h86q69 0 105.5 47.5t36.5 138.5v1122h163v-198q40 105 130.5 160t212.5 55q175 0 280 -114.5t105 -303.5v-631h-164v604q0 132 -70.5 213.5t-187.5 81.5q-134 0 -220 -96t-86 -246v-653q0 -157 -75 -239.5t-219 -82.5h-97z" />
    <glyph glyph-name="uni02BC" unicode="&#x2bc;" horiz-adv-x="403" 
d="M104 1147l66 354h164l-105 -354h-125z" />
    <glyph glyph-name="circumflex" unicode="&#x2c6;" horiz-adv-x="808" 
d="M98 1145l226 287h137l225 -287h-156l-137 172l-141 -172h-154z" />
    <glyph glyph-name="caron" unicode="&#x2c7;" horiz-adv-x="798" 
d="M276 1147l-223 287h154l139 -170l139 170h154l-223 -287h-140z" />
    <glyph glyph-name="breve" unicode="&#x2d8;" horiz-adv-x="811" 
d="M340 1149q-128 0 -208.5 80.5t-80.5 204.5h137q0 -70 42 -113t110 -43q67 0 109.5 43t42.5 113h137q0 -124 -80.5 -204.5t-208.5 -80.5z" />
    <glyph glyph-name="dotaccent" unicode="&#x2d9;" horiz-adv-x="413" 
d="M100 1456h189v-229h-189v229z" />
    <glyph glyph-name="ring" unicode="&#x2da;" horiz-adv-x="638" 
d="M297 1116q-106 0 -176 64.5t-70 162.5q0 95 70.5 159.5t175.5 64.5q106 0 177 -64.5t71 -159.5q0 -98 -71 -162.5t-177 -64.5zM170 1343q0 -54 35.5 -88t91.5 -34q57 0 94 34t37 88q0 53 -37 87t-94 34q-55 0 -91 -34t-36 -87z" />
    <glyph glyph-name="ogonek" unicode="&#x2db;" horiz-adv-x="512" 
d="M420 -350q-81 -84 -191 -84q-80 0 -130 49.5t-50 130.5q0 143 146 254h114q-58 -43 -92.5 -102.5t-34.5 -118.5q0 -43 20.5 -66.5t53.5 -23.5q46 0 94 51z" />
    <glyph glyph-name="tilde" unicode="&#x2dc;" horiz-adv-x="817" 
d="M506 1200q-51 0 -96 20.5t-81 41t-65 20.5q-31 0 -52.5 -20t-27.5 -52h-127q7 93 61 151t132 58q52 0 97 -20.5t80.5 -41t64.5 -20.5q30 0 51.5 19.5t29.5 52.5h125q-6 -95 -59 -152t-133 -57z" />
    <glyph glyph-name="hungarumlaut" unicode="&#x2dd;" horiz-adv-x="884" 
d="M57 1145l179 303h190l-213 -303h-156zM334 1145l178 303h190l-213 -303h-155z" />
    <glyph glyph-name="gravecomb" unicode="&#x300;" 
d="M410 1145h-156l-213 303h190z" />
    <glyph glyph-name="acutecomb" unicode="&#x301;" 
d="M49 1145l178 303h191l-213 -303h-156z" />
    <glyph glyph-name="uni0302" unicode="&#x302;" 
d="M51 1145l225 287h138l225 -287h-156l-137 172l-141 -172h-154z" />
    <glyph glyph-name="tildecomb" unicode="&#x303;" 
d="M496 1200q-51 0 -96 20.5t-81 41t-65 20.5q-31 0 -52.5 -20t-27.5 -52h-127q7 93 61 151t132 58q52 0 97 -20.5t80 -41t64 -20.5q30 0 52 19.5t30 52.5h125q-6 -95 -59 -152t-133 -57z" />
    <glyph glyph-name="uni0304" unicode="&#x304;" 
d="M51 1210v138h545v-138h-545z" />
    <glyph glyph-name="uni0306" unicode="&#x306;" 
d="M344 1149q-128 0 -208.5 80.5t-80.5 204.5h138q0 -70 41.5 -113t109.5 -43q67 0 109.5 43t42.5 113h137q0 -124 -80.5 -204.5t-208.5 -80.5z" />
    <glyph glyph-name="uni0307" unicode="&#x307;" 
d="M102 1456h189v-229h-189v229z" />
    <glyph glyph-name="uni0308" unicode="&#x308;" 
d="M438 1409h156v-188h-156v188zM102 1221v188h156v-188h-156z" />
    <glyph glyph-name="uni030A" unicode="&#x30a;" 
d="M293 1116q-106 0 -176 64.5t-70 162.5q0 95 70.5 159.5t175.5 64.5q106 0 177 -64.5t71 -159.5q0 -98 -71 -162.5t-177 -64.5zM166 1343q0 -54 35.5 -88t91.5 -34q57 0 94 34t37 88q0 53 -37 87t-94 34q-55 0 -91 -34t-36 -87z" />
    <glyph glyph-name="uni030B" unicode="&#x30b;" 
d="M72 1145l178 303h190l-213 -303h-155zM348 1145l178 303h191l-213 -303h-156z" />
    <glyph glyph-name="uni030C" unicode="&#x30c;" 
d="M272 1147l-223 287h154l139 -170l139 170h154l-223 -287h-140z" />
    <glyph glyph-name="uni0312" unicode="&#x312;" 
d="M281 1458l-62 -307h-176l119 307h119z" />
    <glyph glyph-name="uni0326" unicode="&#x326;" 
d="M102 -444l113 305h184l-151 -305h-146z" />
    <glyph glyph-name="uni0327" unicode="&#x327;" 
d="M141 -162l92 197h111l-68 -137q106 11 176 -29.5t70 -122.5q0 -87 -70 -132.5t-190 -45.5q-87 0 -160 29v102q79 -29 160 -29q133 0 133 74q0 45 -64.5 59.5t-131.5 -6.5z" />
    <glyph glyph-name="uni0328" unicode="&#x328;" 
d="M406 -350q-81 -84 -191 -84q-80 0 -130 49.5t-50 130.5q0 143 145 254h115q-58 -43 -92.5 -102.5t-34.5 -118.5q0 -43 20.5 -66.5t53.5 -23.5q46 0 94 51z" />
    <glyph glyph-name="uni0E3F" unicode="&#xe3f;" horiz-adv-x="1275" 
d="M530 -240v240h-356v1434h356v235h162v-235q202 -2 317 -99t115 -270q0 -95 -55.5 -171.5t-134.5 -109.5q117 -39 186.5 -130.5t69.5 -235.5q0 -194 -124.5 -306t-344.5 -112h-29v-240h-162zM348 158h342q158 0 240 67t82 195q0 129 -82 196.5t-240 67.5h-342v-526z
M348 840h334q131 0 199.5 55.5t68.5 165.5q0 219 -266 219h-336v-440z" />
    <glyph glyph-name="uni1E20" unicode="&#x1e20;" horiz-adv-x="1519" 
d="M782 -16q-107 0 -207.5 29t-188 89t-152.5 145.5t-102.5 206t-37.5 263.5t38 263.5t103.5 206t153.5 145.5t188.5 89t208.5 29q246 0 420 -132t199 -337h-186q-25 137 -146 224t-287 87q-229 0 -371.5 -151t-142.5 -424q0 -272 142.5 -426t369.5 -154q119 0 219.5 41
t163 120t62.5 179q0 50 -30.5 79.5t-82.5 29.5h-323v151h356q41 0 84 -15.5t81.5 -45t63.5 -78t25 -106.5v-492h-164v250q-50 -120 -174.5 -193t-282.5 -73zM485 1612v137h545v-137h-545z" />
    <glyph glyph-name="uni1E21" unicode="&#x1e21;" horiz-adv-x="1245" 
d="M221 -418v142h477q100 0 164 67t64 170v182q-35 -72 -129.5 -115.5t-212.5 -43.5q-234 0 -366 149t-132 383q0 152 56.5 271.5t170.5 190.5t271 71q104 0 199.5 -47t142.5 -121v151h164v-1077q0 -164 -107 -268.5t-274 -104.5h-488zM256 516q0 -175 93.5 -280t248.5 -105
t248.5 105t93.5 280t-93.5 280t-248.5 105t-248.5 -105t-93.5 -280zM334 1210v138h545v-138h-545z" />
    <glyph glyph-name="Wgrave" unicode="&#x1e80;" horiz-adv-x="2029" 
d="M483 0l-442 1434h180l354 -1170l361 1170h156l362 -1170l354 1170h181l-441 -1434h-178l-354 1165l-357 -1165h-176zM774 1808h191l190 -260h-154z" />
    <glyph glyph-name="wgrave" unicode="&#x1e81;" horiz-adv-x="1546" 
d="M362 0l-313 1032h164l227 -819l254 819h160l252 -819l225 819h166l-313 -1032h-158l-254 821l-252 -821h-158zM481 1448h191l178 -303h-156z" />
    <glyph glyph-name="Wacute" unicode="&#x1e82;" horiz-adv-x="2029" 
d="M483 0l-442 1434h180l354 -1170l361 1170h156l362 -1170l354 1170h181l-441 -1434h-178l-354 1165l-357 -1165h-176zM934 1548l190 260h191l-228 -260h-153z" />
    <glyph glyph-name="wacute" unicode="&#x1e83;" horiz-adv-x="1546" 
d="M362 0l-313 1032h164l227 -819l254 819h160l252 -819l225 819h166l-313 -1032h-158l-254 821l-252 -821h-158zM696 1145l178 303h191l-213 -303h-156z" />
    <glyph glyph-name="Wdieresis" unicode="&#x1e84;" horiz-adv-x="2029" 
d="M483 0l-442 1434h180l354 -1170l361 1170h156l362 -1170l354 1170h181l-441 -1434h-178l-354 1165l-357 -1165h-176zM770 1622v188h156v-188h-156zM1106 1622v188h156v-188h-156z" />
    <glyph glyph-name="wdieresis" unicode="&#x1e85;" horiz-adv-x="1546" 
d="M362 0l-313 1032h164l227 -819l254 819h160l252 -819l225 819h166l-313 -1032h-158l-254 821l-252 -821h-158zM526 1221v188h156v-188h-156zM862 1221v188h156v-188h-156z" />
    <glyph glyph-name="uni1E9E" unicode="&#x1e9e;" horiz-adv-x="1288" 
d="M162 930q0 238 134 379t361 141q198 0 332.5 -116.5t151.5 -305.5l-279 -215q173 -45 252.5 -144t79.5 -251q0 -194 -124.5 -306t-344.5 -112h-233v158h204q158 0 239 67t81 195t-88.5 196t-249.5 68h-41v127l319 254q-13 104 -95 167.5t-202 63.5q-148 0 -235.5 -100
t-87.5 -268v-928h-174v930z" />
    <glyph glyph-name="uni1EA0" unicode="&#x1ea0;" horiz-adv-x="1351" 
d="M676 1219l-260 -676h518zM27 0l569 1434h160l569 -1434h-182l-148 387h-639l-149 -387h-180zM582 -369v230h188v-230h-188z" />
    <glyph glyph-name="uni1EA1" unicode="&#x1ea1;" horiz-adv-x="1124" 
d="M465 -16q-163 0 -261 85t-98 226q0 147 112 234t300 87h234q65 0 65 56q0 108 -73 172.5t-203 64.5q-113 0 -193 -60.5t-86 -146.5h-156q9 98 69.5 177.5t158 124.5t211.5 45q200 0 318 -105t118 -278v-666h-164v178q-41 -89 -136.5 -141.5t-215.5 -52.5zM274 297
q0 -80 58.5 -127t156.5 -47q155 0 241.5 91t86.5 251v27h-289q-116 0 -185 -52.5t-69 -142.5zM463 -369v230h188v-230h-188z" />
    <glyph glyph-name="uni1EB8" unicode="&#x1eb8;" horiz-adv-x="1171" 
d="M174 0v1434h897v-158h-721v-457h588v-157h-588v-504h744v-158h-920zM535 -369v230h188v-230h-188z" />
    <glyph glyph-name="uni1EB9" unicode="&#x1eb9;" horiz-adv-x="1148" 
d="M594 -16q-149 0 -266.5 73t-180.5 195.5t-63 269.5q0 231 133.5 379t357.5 148q147 0 257.5 -64t167.5 -173t57 -247q0 -43 -4 -71h-807q9 -161 105.5 -263t242.5 -102q125 0 203.5 52.5t103.5 150.5h166q-26 -159 -154 -253.5t-319 -94.5zM254 625h635q-9 131 -93 207.5
t-221 76.5q-131 0 -214.5 -74t-106.5 -210zM477 -369v230h189v-230h-189z" />
    <glyph glyph-name="uni1EBC" unicode="&#x1ebc;" horiz-adv-x="1171" 
d="M174 0v1434h897v-158h-721v-457h588v-157h-588v-504h744v-158h-920zM303 1612q7 93 61 151t132 58q52 0 97 -20.5t80 -41t64 -20.5q31 0 52.5 19t29.5 52h125q-6 -95 -59 -151.5t-133 -56.5q-51 0 -96 20t-81 40.5t-65 20.5q-31 0 -52.5 -19.5t-27.5 -51.5h-127z" />
    <glyph glyph-name="uni1EBD" unicode="&#x1ebd;" horiz-adv-x="1148" 
d="M594 -16q-149 0 -266.5 73t-180.5 195.5t-63 269.5q0 231 133.5 379t357.5 148q147 0 257.5 -64t167.5 -173t57 -247q0 -43 -4 -71h-807q9 -161 105.5 -263t242.5 -102q125 0 203.5 52.5t103.5 150.5h166q-26 -159 -154 -253.5t-319 -94.5zM254 625h635q-9 131 -93 207.5
t-221 76.5q-131 0 -214.5 -74t-106.5 -210zM256 1210q7 93 61 151t132 58q52 0 97 -20.5t80 -41t64 -20.5q30 0 52 19.5t30 52.5h125q-6 -95 -59 -152t-133 -57q-51 0 -96 20.5t-81 41t-65 20.5q-31 0 -52.5 -20t-27.5 -52h-127z" />
    <glyph glyph-name="uni1ECA" unicode="&#x1eca;" horiz-adv-x="524" 
d="M174 0v1434h176v-1434h-176zM166 -369v230h188v-230h-188z" />
    <glyph glyph-name="uni1ECB" unicode="&#x1ecb;" horiz-adv-x="477" 
d="M156 0v1032h163v-1032h-163zM143 -369v230h189v-230h-189zM143 1227v229h189v-229h-189z" />
    <glyph glyph-name="uni1ECC" unicode="&#x1ecc;" horiz-adv-x="1591" 
d="M795 -16q-149 0 -279.5 55.5t-223.5 152.5t-146.5 233t-53.5 292t53.5 292t146.5 233t223.5 152.5t279.5 55.5q150 0 281 -55.5t223.5 -152.5t146 -233t53.5 -292t-53.5 -292t-146 -233t-223.5 -152.5t-281 -55.5zM272 717q0 -247 149.5 -411.5t373.5 -164.5
q148 0 268 74.5t188 206.5t68 295t-68 294.5t-188 206t-268 74.5q-224 0 -373.5 -164t-149.5 -411zM700 -369v230h189v-230h-189z" />
    <glyph glyph-name="uni1ECD" unicode="&#x1ecd;" horiz-adv-x="1218" 
d="M608 -16q-229 0 -376.5 150t-147.5 382q0 233 147.5 383t376.5 150q230 0 378.5 -150t148.5 -383q0 -232 -148.5 -382t-378.5 -150zM252 516q0 -169 99 -277t257 -108q159 0 259 108t100 277t-100 277t-259 108q-158 0 -257 -108t-99 -277zM514 -369v230h188v-230h-188z
" />
    <glyph glyph-name="uni1EE5" unicode="&#x1ee5;" horiz-adv-x="1187" 
d="M1032 1032v-1032h-164v199q-40 -105 -129.5 -160t-210.5 -55q-175 0 -280 114t-105 303v631h164v-604q0 -132 70.5 -213.5t187.5 -81.5q132 0 217.5 96t85.5 246v557h164zM498 -369v230h188v-230h-188z" />
    <glyph glyph-name="Ygrave" unicode="&#x1ef2;" horiz-adv-x="1271" 
d="M549 0v600l-508 834h199l397 -666l395 666h199l-508 -834v-600h-174zM393 1808h191l190 -260h-153z" />
    <glyph glyph-name="ygrave" unicode="&#x1ef3;" horiz-adv-x="1011" 
d="M295 -418l133 402l-387 1048h170l293 -819l295 819h170l-334 -913l-182 -537h-158zM221 1448h191l178 -303h-156z" />
    <glyph glyph-name="uni1EF8" unicode="&#x1ef8;" horiz-adv-x="1271" 
d="M549 0v600l-508 834h199l397 -666l395 666h199l-508 -834v-600h-174zM315 1612q7 93 61 151t132 58q52 0 97 -20.5t80.5 -41t64.5 -20.5q30 0 51.5 19t29.5 52h125q-6 -95 -59 -151.5t-133 -56.5q-51 0 -96 20t-81 40.5t-65 20.5q-31 0 -52.5 -19.5t-27.5 -51.5h-127z
" />
    <glyph glyph-name="uni1EF9" unicode="&#x1ef9;" horiz-adv-x="1011" 
d="M295 -418l133 402l-387 1048h170l293 -819l295 819h170l-334 -913l-182 -537h-158zM193 1210q7 94 60.5 151.5t131.5 57.5q52 0 97 -20.5t80.5 -41t64.5 -20.5q30 0 52 19.5t30 52.5h125q-6 -95 -59.5 -152t-133.5 -57q-51 0 -96 20.5t-81 41t-65 20.5q-31 0 -52.5 -20
t-27.5 -52h-126z" />
    <glyph glyph-name="endash" unicode="&#x2013;" horiz-adv-x="1118" 
d="M96 578v143h926v-143h-926z" />
    <glyph glyph-name="emdash" unicode="&#x2014;" horiz-adv-x="1566" 
d="M96 578v143h1374v-143h-1374z" />
    <glyph glyph-name="quoteleft" unicode="&#x2018;" horiz-adv-x="468" 
d="M365 1325q-40 0 -65.5 -27t-25.5 -71v-201h-153v207q0 100 58.5 161.5t152.5 61.5h59v-131h-26z" />
    <glyph glyph-name="quoteright" unicode="&#x2019;" horiz-adv-x="477" 
d="M131 1159q40 0 65 27t25 71v201h154v-207q0 -100 -58.5 -161.5t-152.5 -61.5h-60v131h27z" />
    <glyph glyph-name="quotesinglbase" unicode="&#x201a;" horiz-adv-x="399" 
d="M45 -143q40 0 65 27t25 71v201h154v-207q0 -100 -58.5 -161.5t-152.5 -61.5h-60v131h27z" />
    <glyph glyph-name="quotedblleft" unicode="&#x201c;" horiz-adv-x="806" 
d="M365 1325q-40 0 -65.5 -27t-25.5 -71v-201h-153v207q0 100 58.5 161.5t152.5 61.5h59v-131h-26zM459 1026v207q0 100 58.5 161.5t152.5 61.5h59v-131h-27q-40 0 -65 -27t-25 -71v-201h-153z" />
    <glyph glyph-name="quotedblright" unicode="&#x201d;" horiz-adv-x="815" 
d="M469 1159q40 0 65 27t25 71v201h154v-207q0 -100 -58.5 -161.5t-152.5 -61.5h-60v131h27zM104 1028v131h27q40 0 65 27t25 71v201h154v-207q0 -100 -58.5 -161.5t-152.5 -61.5h-60z" />
    <glyph glyph-name="quotedblbase" unicode="&#x201e;" horiz-adv-x="737" 
d="M383 -152q40 0 65 27.5t25 71.5v200h154v-206q0 -100 -58.5 -162t-152.5 -62h-60v131h27zM18 -283v131h27q40 0 65 27.5t25 71.5v200h154v-206q0 -100 -58.5 -162t-152.5 -62h-60z" />
    <glyph glyph-name="dagger" unicode="&#x2020;" horiz-adv-x="899" 
d="M371 -102v993h-303v141h303v504h159v-504h301v-141h-301v-993h-159z" />
    <glyph glyph-name="daggerdbl" unicode="&#x2021;" horiz-adv-x="931" 
d="M387 -504v504h-303v141h303v750h-303v141h303v504h160v-504h301v-141h-301v-750h301v-141h-301v-504h-160z" />
    <glyph glyph-name="bullet" unicode="&#x2022;" horiz-adv-x="727" 
d="M365 362q-78 0 -132.5 55t-54.5 132t54.5 131.5t132.5 54.5q75 0 129.5 -55t54.5 -131t-54.5 -131.5t-129.5 -55.5z" />
    <glyph glyph-name="ellipsis" unicode="&#x2026;" horiz-adv-x="1146" 
d="M127 190h186v-190h-186v190zM479 0v190h187v-190h-187zM834 0v190h186v-190h-186z" />
    <glyph glyph-name="perthousand" unicode="&#x2030;" horiz-adv-x="2144" 
d="M127 0l1040 1434h154l-1040 -1434h-154zM66 1122q0 138 88.5 233t222.5 95q132 0 219.5 -95t87.5 -233t-87.5 -232.5t-219.5 -94.5q-134 0 -222.5 94.5t-88.5 232.5zM197 1122q0 -90 49 -148.5t131 -58.5q80 0 129 58.5t49 148.5q0 91 -49 150t-129 59q-82 0 -131 -59
t-49 -150zM768 311q0 138 88.5 233t222.5 95q132 0 219.5 -95t87.5 -233t-87.5 -232.5t-219.5 -94.5q-134 0 -222.5 94.5t-88.5 232.5zM899 311q0 -90 49 -148.5t131 -58.5q80 0 129 58.5t49 148.5q0 91 -49 150t-129 59q-82 0 -131 -59t-49 -150zM1487 311q0 138 88.5 233
t222.5 95q132 0 219.5 -95t87.5 -233t-87.5 -232.5t-219.5 -94.5q-134 0 -222.5 94.5t-88.5 232.5zM1618 311q0 -90 49 -148.5t131 -58.5q80 0 129 58.5t49 148.5q0 91 -49 150t-129 59q-82 0 -131 -59t-49 -150z" />
    <glyph glyph-name="guilsinglleft" unicode="&#x2039;" horiz-adv-x="823" 
d="M700 172l-600 412v102l600 412v-172l-430 -291l430 -291v-172z" />
    <glyph glyph-name="guilsinglright" unicode="&#x203a;" horiz-adv-x="823" 
d="M125 172v172l428 291l-428 291v172l598 -412v-102z" />
    <glyph glyph-name="fraction" unicode="&#x2044;" horiz-adv-x="430" 
d="M-383 0l1040 1434h154l-1040 -1434h-154z" />
    <glyph glyph-name="uni2070" unicode="&#x2070;" horiz-adv-x="804" 
d="M379 645q-303 0 -303 408v65q0 408 303 408h45q156 0 229.5 -103.5t73.5 -304.5v-65q0 -201 -73.5 -304.5t-229.5 -103.5h-45zM207 1028q0 -268 178 -268h35q178 0 178 268v117q0 266 -178 266h-35q-178 0 -178 -266v-117z" />
    <glyph glyph-name="uni2074" unicode="&#x2074;" horiz-adv-x="802" 
d="M500 655v201h-451v115l436 545h146v-545h123v-115h-123v-201h-131zM182 971h318v395z" />
    <glyph glyph-name="uni2075" unicode="&#x2075;" horiz-adv-x="727" 
d="M352 645q-117 0 -201.5 75.5t-93.5 182.5h119q9 -68 56 -106.5t120 -38.5q87 0 139 48.5t52 131.5q0 85 -52.5 135.5t-138.5 50.5q-130 0 -172 -92h-104l67 484h467v-115h-370l-35 -230q31 25 75.5 41.5t86.5 16.5q135 0 219 -81t84 -210q0 -130 -89 -211.5t-229 -81.5z
" />
    <glyph glyph-name="uni2076" unicode="&#x2076;" horiz-adv-x="778" 
d="M403 1231q134 0 219 -83t85 -210q0 -126 -89.5 -209.5t-224.5 -83.5q-150 0 -236.5 110.5t-86.5 291.5q0 231 96 355t258 124q113 0 193.5 -66.5t95.5 -169.5h-123q-12 57 -57.5 92t-104.5 35q-107 0 -171 -87t-69 -222q28 54 88.5 88.5t126.5 34.5zM205 940
q0 -82 52.5 -134t135.5 -52q85 0 138 52t53 134q0 80 -53.5 131t-137.5 51q-83 0 -135.5 -51t-52.5 -131z" />
    <glyph glyph-name="uni2077" unicode="&#x2077;" horiz-adv-x="681" 
d="M184 655q0 117 27.5 219t101.5 220l191 307h-479v115h624v-105l-229 -375q-63 -103 -85 -189.5t-22 -191.5h-129z" />
    <glyph glyph-name="uni2078" unicode="&#x2078;" horiz-adv-x="753" 
d="M377 645q-133 0 -222 69.5t-89 186.5q0 77 42 134t109 83q-52 29 -84.5 74.5t-32.5 103.5q0 101 77 165.5t200 64.5q124 0 201 -64t77 -166q0 -58 -33 -104t-87 -74q69 -25 111 -83t42 -134q0 -117 -89 -186.5t-222 -69.5zM193 905q0 -68 50 -107.5t134 -39.5
q85 0 134.5 39t49.5 108t-49.5 109.5t-134.5 40.5q-84 0 -134 -40.5t-50 -109.5zM223 1292q0 -57 42 -91t112 -34q71 0 113 34t42 91q0 58 -42 91.5t-113 33.5t-112.5 -33.5t-41.5 -91.5z" />
    <glyph glyph-name="uni2079" unicode="&#x2079;" horiz-adv-x="778" 
d="M375 940q-134 0 -218.5 83t-84.5 210q0 126 89 209.5t224 83.5q150 0 237 -110.5t87 -291.5q0 -231 -96.5 -355t-258.5 -124q-113 0 -193 66t-95 170h122q12 -57 57.5 -92t104.5 -35q107 0 171 87t69 222q-28 -54 -88.5 -88.5t-126.5 -34.5zM195 1231q0 -80 53 -131
t137 -51q83 0 135.5 51t52.5 131q0 82 -52.5 134t-135.5 52q-84 0 -137 -52t-53 -134z" />
    <glyph glyph-name="franc" unicode="&#x20a3;" horiz-adv-x="1193" 
d="M864 295h-432v-295h-176v295h-182v143h182v996h897v-158h-721v-473h588v-158h-588v-207h432v-143z" />
    <glyph glyph-name="uni20A6" unicode="&#x20a6;" horiz-adv-x="1771" 
d="M328 0v459h-209v141h209v231h-209v142h209v461h200l293 -461h447v461h174v-461h213v-142h-213v-231h213v-141h-213v-459h-201l-291 459h-446v-459h-176zM504 600h356l-145 231h-211v-231zM504 973h121l-121 190v-190zM909 831l148 -231h211v231h-359zM1145 459l123 -193
v193h-123z" />
    <glyph glyph-name="uni20A9" unicode="&#x20a9;" horiz-adv-x="2244" 
d="M96 874v142h183l-129 418h180l127 -418h458l129 418h156l129 -418h461l127 418h180l-129 -418h180v-142h-223l-61 -198h284v-141h-327l-164 -535h-178l-162 535h-385l-164 -535h-176l-166 535h-330v141h287l-61 198h-226zM500 874l59 -198h252l61 198h-372zM602 535
l82 -271l84 271h-166zM975 676h299l-62 198h-176zM1079 1016h90l-45 149zM1374 874l62 -198h252l59 198h-373zM1479 535l84 -271l82 271h-166z" />
    <glyph glyph-name="uni20AA" unicode="&#x20aa;" horiz-adv-x="1691" 
d="M569 0v1096h166v-944h430q88 0 142.5 53.5t54.5 140.5v1088h166v-1106q0 -147 -94.5 -237.5t-245.5 -90.5h-619zM172 0v1434h619q153 0 247.5 -90t94.5 -238v-768h-168v749q0 88 -54 142.5t-143 54.5h-428v-1284h-168z" />
    <glyph glyph-name="dong" unicode="&#x20ab;" horiz-adv-x="1343" 
d="M1100 -141v-127h-893v127h893zM96 516q0 152 56.5 271.5t170.5 190.5t271 71q109 0 202.5 -51t139.5 -134v318h-356v127h356v147h164v-147h176v-127h-176v-1182h-164v170q-46 -85 -139.5 -135.5t-202.5 -50.5q-234 0 -366 149t-132 383zM266 516q0 -175 93.5 -280
t248.5 -105t248.5 105t93.5 280t-93.5 280t-248.5 105t-248.5 -105t-93.5 -280z" />
    <glyph glyph-name="Euro" unicode="&#x20ac;" horiz-adv-x="1394" 
d="M1300 338q-30 -167 -139.5 -260.5t-290.5 -93.5h-75q-442 0 -502 499h-176v144h166v32v115v49h-166v142h178q66 485 500 485h75q179 0 287.5 -91.5t138.5 -252.5h-180q-22 87 -86 136.5t-162 49.5h-67q-280 0 -330 -327h504v-142h-516v-28v-156v-12h516v-144h-506
q47 -342 332 -342h67q100 0 165 53t87 144h180z" />
    <glyph glyph-name="uni20B1" unicode="&#x20b1;" horiz-adv-x="1550" 
d="M86 1055v143h201v236h540q151 0 259.5 -62.5t158.5 -173.5h234v-143h-197q2 -14 2 -45t-2 -47h199v-144h-236q-52 -109 -160 -171t-258 -62h-364v-586h-176v819h-201v144h201v92h-201zM463 741h364q136 0 211 78h-575v-78zM463 963h639q2 16 2 47t-2 45h-639v-92z
M463 1198h577q-73 80 -213 80h-364v-80z" />
    <glyph glyph-name="uni20B4" unicode="&#x20b4;" horiz-adv-x="1560" 
d="M778 -16q-232 0 -374 100.5t-142 271.5q0 80 31 144h-176v143h327q6 3 18 8.5t15 7.5l262 129h-622v144h903q86 58 86 155q0 91 -86 148t-223 57q-139 0 -230.5 -67.5t-103.5 -169.5h-172q15 173 154.5 284t351.5 111q215 0 350 -101.5t135 -261.5q0 -91 -39 -155h201
v-144h-383l-295 -145h678v-143h-940q-64 -57 -64 -144q0 -101 93 -158t245 -57q167 0 267 65.5t114 184.5h172q-13 -189 -162 -298t-391 -109z" />
    <glyph glyph-name="uni20B9" unicode="&#x20b9;" horiz-adv-x="1239" 
d="M719 334q-6 106 -70 172.5t-164 66.5h-379v150h349q124 0 193 56.5t89 152.5h-631v141h631q-16 97 -85.5 154t-196.5 57h-349v150h1063v-142h-358q94 -97 111 -219h247v-141h-251q-36 -174 -220 -262q84 -45 133.5 -130.5t57.5 -195.5l22 -344h-170z" />
    <glyph glyph-name="uni20BA" unicode="&#x20ba;" horiz-adv-x="1320" 
d="M319 0v485l-202 -112v166l202 112v185l-202 -113v168l202 113v430h175v-334l368 203v-168l-368 -203v-184l368 204v-168l-368 -202v-424q261 0 403 139t150 383h172q-6 -324 -202 -502t-542 -178h-156z" />
    <glyph glyph-name="uni20BD" unicode="&#x20bd;" horiz-adv-x="1351" 
d="M94 270v142h205v174h-205v141h205v707h541q210 0 333 -116.5t123 -307.5t-123 -307.5t-333 -116.5h-365v-174h432v-142h-432v-270h-176v270h-205zM475 741h365q141 0 208.5 76t67.5 193q0 116 -67.5 192t-208.5 76h-365v-537z" />
    <glyph glyph-name="uni20BF" unicode="&#x20bf;" horiz-adv-x="1269" 
d="M721 -240v240h-2h-195v-240h-147v240h-205v1434h205v235h147v-235h162h35v235h147v-260q121 -37 187.5 -126t66.5 -218q0 -95 -55.5 -171.5t-134.5 -109.5q117 -39 186.5 -130.5t69.5 -235.5q0 -158 -84 -263t-236 -139v-256h-147zM346 158h342q158 0 240 67t82 195
q0 129 -82 196.5t-240 67.5h-342v-526zM346 840h334q131 0 199.5 55.5t68.5 165.5q0 219 -266 219h-336v-440z" />
    <glyph glyph-name="uni2113" unicode="&#x2113;" horiz-adv-x="1028" 
d="M940 328q-19 -164 -112.5 -254t-237.5 -90q-160 0 -251 90t-91 252v209l-166 -48v152l166 45v369q0 184 101.5 290.5t275.5 106.5q148 0 239.5 -103t91.5 -274q0 -163 -92 -282t-291 -173l-153 -40v-238q0 -91 47 -144t133 -53q75 0 121 49t55 136h164zM420 729l121 33
q241 68 241 303q0 107 -42 167t-117 60q-91 0 -147 -69.5t-56 -194.5v-299z" />
    <glyph glyph-name="trademark" unicode="&#x2122;" horiz-adv-x="1345" 
d="M610 866v568h129l166 -410l166 410h129v-568h-104v367l-148 -367h-88l-145 367v-367h-105zM68 1333v101h450v-101h-170v-467h-110v467h-170z" />
    <glyph glyph-name="uni2126" unicode="&#x2126;" horiz-adv-x="1574" 
d="M637 0h-490v158h310q-155 100 -248.5 263.5t-93.5 346.5q0 193 88 349.5t242 244.5t343 88q188 0 341.5 -88t241 -244.5t87.5 -349.5q0 -185 -91.5 -347.5t-244.5 -262.5h308v-158h-490v199q157 87 247.5 239.5t90.5 325.5q0 234 -138.5 385t-353.5 151
q-212 0 -350.5 -151.5t-138.5 -384.5q0 -172 91 -324t249 -241v-199z" />
    <glyph glyph-name="uni2153" unicode="&#x2153;" horiz-adv-x="1708" 
d="M346 1434v-861h-129v660q-22 -31 -88 -31h-76v115h68q47 0 70.5 25.5t29.5 91.5h125zM158 0l1040 1434h154l-1041 -1434h-153zM1020 270h127q0 -75 53 -120.5t133 -45.5q83 0 130.5 38.5t47.5 107.5q0 67 -47 103t-131 36h-71v111h69q68 0 108 38t40 99q0 57 -42 90
t-112 33q-67 0 -109 -39t-45 -107h-120q3 114 80.5 185t195.5 71q121 0 202 -65.5t81 -163.5q0 -58 -34 -109.5t-85 -78.5q70 -26 112 -79t42 -126q0 -120 -90.5 -189t-221.5 -69q-133 0 -223 77.5t-90 202.5z" />
    <glyph glyph-name="uni2154" unicode="&#x2154;" horiz-adv-x="1984" 
d="M94 1147q-4 136 75.5 216.5t215.5 80.5q128 0 208.5 -72t80.5 -190q0 -172 -201 -273l-117 -57q-135 -73 -137 -164h457v-115h-588l-2 93q0 52 19.5 99.5t52.5 82.5t66 59.5t69 42.5l133 68q117 61 117 166q0 67 -44 108t-114 41q-75 0 -118.5 -51t-39.5 -135h-133z
M436 0l1041 1434h153l-1040 -1434h-154zM1296 270h127q0 -75 53.5 -120.5t133.5 -45.5q83 0 130.5 38.5t47.5 107.5q0 67 -47 103t-131 36h-72v111h70q68 0 107.5 38t39.5 99q0 57 -42 90t-111 33q-67 0 -109 -39t-45 -107h-121q3 114 81 185t196 71q121 0 201.5 -65.5
t80.5 -163.5q0 -58 -34 -109.5t-85 -78.5q70 -26 112 -79t42 -126q0 -120 -90 -189t-221 -69q-133 0 -223.5 77.5t-90.5 202.5z" />
    <glyph glyph-name="oneeighth" unicode="&#x215b;" horiz-adv-x="1708" 
d="M346 1434v-861h-129v660q-22 -31 -88 -31h-76v115h68q47 0 70.5 25.5t29.5 91.5h125zM158 0l1040 1434h154l-1041 -1434h-153zM1020 246q0 77 42 134t109 83q-51 29 -83.5 74.5t-32.5 103.5q0 101 76.5 165t199.5 64q124 0 201.5 -64t77.5 -165q0 -57 -33.5 -103.5
t-87.5 -74.5q69 -25 111 -83t42 -134q0 -117 -89 -186.5t-222 -69.5t-222 69.5t-89 186.5zM1147 250q0 -69 50 -108.5t134 -39.5q85 0 135 39.5t50 108.5t-50 109t-135 40q-84 0 -134 -40t-50 -109zM1178 637q0 -57 41.5 -91t111.5 -34q71 0 113.5 34t42.5 91
q0 58 -42.5 91.5t-113.5 33.5t-112 -33.5t-41 -91.5z" />
    <glyph glyph-name="threeeighths" unicode="&#x215c;" horiz-adv-x="1990" 
d="M391 563q-133 0 -223 78t-90 203h127q0 -75 53 -120.5t133 -45.5q84 0 131 38t47 107q0 67 -47 103.5t-131 36.5h-72v110h70q68 0 108 38t40 99q0 57 -42 90t-112 33q-67 0 -109 -38.5t-45 -106.5h-120q3 114 80.5 185t195.5 71q121 0 202 -66t81 -164q0 -58 -34 -109.5
t-85 -78.5q69 -26 111 -78.5t42 -126.5q0 -120 -90 -189t-221 -69zM430 0l1040 1434h154l-1040 -1434h-154zM1292 246q0 77 42.5 134t109.5 83q-52 29 -84.5 74.5t-32.5 103.5q0 101 77 165t200 64q124 0 201 -63.5t77 -165.5q0 -57 -33.5 -103.5t-87.5 -74.5
q69 -25 111.5 -83t42.5 -134q0 -117 -89 -186.5t-222 -69.5t-222.5 69.5t-89.5 186.5zM1419 250q0 -68 50.5 -108t134.5 -40q85 0 134.5 39.5t49.5 108.5t-49.5 109t-134.5 40q-84 0 -134.5 -40t-50.5 -109zM1450 637q0 -57 42 -91t112 -34q71 0 113 34t42 91q0 58 -42 91.5
t-113 33.5t-112.5 -33.5t-41.5 -91.5z" />
    <glyph glyph-name="fiveeighths" unicode="&#x215d;" horiz-adv-x="1955" 
d="M358 563q-117 0 -201.5 75.5t-93.5 182.5h119q9 -68 56 -106.5t120 -38.5q87 0 139 48.5t52 131.5q0 85 -52.5 135.5t-138.5 50.5q-130 0 -172 -92h-104l68 484h466v-115h-370l-35 -229q31 24 75 40.5t87 16.5q135 0 219 -81t84 -210q0 -130 -89 -211.5t-229 -81.5z
M406 0l1040 1434h153l-1040 -1434h-153zM1268 246q0 77 42 134t109 83q-51 29 -83.5 74.5t-32.5 103.5q0 101 76.5 165t199.5 64q124 0 201.5 -64t77.5 -165q0 -57 -33.5 -103.5t-87.5 -74.5q69 -25 111 -83t42 -134q0 -117 -89 -186.5t-222 -69.5t-222 69.5t-89 186.5z
M1395 250q0 -69 50 -108.5t134 -39.5q85 0 134.5 39.5t49.5 108.5t-49.5 109t-134.5 40q-84 0 -134 -40t-50 -109zM1425 637q0 -57 42 -91t112 -34q71 0 113.5 34t42.5 91q0 58 -42.5 91.5t-113.5 33.5t-112.5 -33.5t-41.5 -91.5z" />
    <glyph glyph-name="seveneighths" unicode="&#x215e;" horiz-adv-x="1714" 
d="M199 573q0 117 27.5 219t101.5 220l190 307h-479v115h625v-105l-230 -375q-63 -103 -84.5 -189t-21.5 -192h-129zM164 0l1040 1434h154l-1041 -1434h-153zM1028 246q0 77 42.5 134t109.5 83q-52 29 -84.5 74.5t-32.5 103.5q0 101 76.5 165t199.5 64q124 0 201.5 -64
t77.5 -165q0 -57 -33.5 -103.5t-87.5 -74.5q69 -25 111.5 -83t42.5 -134q0 -117 -89.5 -186.5t-222.5 -69.5t-222 69.5t-89 186.5zM1155 250q0 -69 50 -108.5t134 -39.5q85 0 135 39.5t50 108.5t-50 109t-135 40q-84 0 -134 -40t-50 -109zM1186 637q0 -57 41.5 -91
t111.5 -34q71 0 113.5 34t42.5 91q0 58 -42.5 91.5t-113.5 33.5t-112 -33.5t-41 -91.5z" />
    <glyph glyph-name="arrowleft" unicode="&#x2190;" horiz-adv-x="1497" 
d="M655 -31l-561 561l563 564l95 -97l-398 -395h1037v-143h-1037l396 -396z" />
    <glyph glyph-name="arrowup" unicode="&#x2191;" horiz-adv-x="1302" 
d="M184 659l-94 95l563 563l561 -561l-94 -94l-395 395v-1039h-143v1039z" />
    <glyph glyph-name="arrowright" unicode="&#x2192;" horiz-adv-x="1497" 
d="M842 -31l-94 94l395 396h-1039v143h1039l-398 395l95 97l563 -564z" />
    <glyph glyph-name="arrowdown" unicode="&#x2193;" horiz-adv-x="1306" 
d="M651 0l-561 561l94 94l396 -395v1036h143v-1036l395 397l96 -94z" />
    <glyph glyph-name="arrowboth" unicode="&#x2194;" horiz-adv-x="2134" 
d="M1483 -31l-94 94l395 396h-1434l395 -396l-92 -94l-561 561l563 564l93 -97l-398 -395h1434l-398 395l95 97l561 -564z" />
    <glyph glyph-name="arrowupdn" unicode="&#x2195;" horiz-adv-x="1245" 
d="M621 -344l-562 561l95 92l395 -395v1434l-395 -396l-95 95l562 559l563 -562l-97 -94l-395 398v-1434l395 397l97 -92z" />
    <glyph glyph-name="uni2196" unicode="&#x2196;" horiz-adv-x="1175" 
d="M999 35l-733 733l2 -561h-135v794l793 3v-134l-557 -2l733 -733z" />
    <glyph glyph-name="uni2197" unicode="&#x2197;" horiz-adv-x="1173" 
d="M174 33l-100 102l733 733h-561v133h794v-792h-133v555z" />
    <glyph glyph-name="uni2198" unicode="&#x2198;" horiz-adv-x="1171" 
d="M246 -2v133h559l-735 733l102 101l733 -734v562h133v-795h-792z" />
    <glyph glyph-name="uni2199" unicode="&#x2199;" horiz-adv-x="1171" 
d="M926 -2l-793 2v795h135l-2 -562l733 734l103 -101l-733 -733l557 -2v-133z" />
    <glyph glyph-name="partialdiff" unicode="&#x2202;" horiz-adv-x="1232" 
d="M604 -16q-137 0 -253.5 65t-184.5 177.5t-68 246.5q0 200 145 341.5t353 141.5q121 0 231.5 -63t155.5 -160q-1 124 -39.5 231t-101.5 179.5t-146 118t-171 55.5t-179 -17t-168 -92l-90 127q64 52 144 84t165.5 42t174 -5.5t170 -53t153.5 -106.5t125 -160t84 -219.5
t31 -279.5q0 -298 -143 -475.5t-388 -177.5zM256 475q0 -148 97.5 -243t250.5 -95q155 0 253.5 95t98.5 243q0 145 -98.5 238.5t-253.5 93.5q-153 0 -250.5 -93.5t-97.5 -238.5z" />
    <glyph glyph-name="uni2206" unicode="&#x2206;" horiz-adv-x="1361" 
d="M760 1434l571 -1434h-1300l571 1434h158zM272 156h818l-408 1046z" />
    <glyph glyph-name="product" unicode="&#x220f;" horiz-adv-x="1361" 
d="M172 0v1434h1018v-1434h-184v1276h-652v-1276h-182z" />
    <glyph glyph-name="summation" unicode="&#x2211;" horiz-adv-x="1101" 
d="M84 0v154l491 563l-491 563v154h934v-158h-721l436 -490v-139l-436 -489h721v-158h-934z" />
    <glyph glyph-name="minus" unicode="&#x2212;" horiz-adv-x="1269" 
d="M162 578v143h944v-143h-944z" />
    <glyph glyph-name="radical" unicode="&#x221a;" horiz-adv-x="1208" 
d="M524 0l-207 643h-211v158h324l180 -588l379 1221h174l-458 -1434h-181z" />
    <glyph glyph-name="infinity" unicode="&#x221e;" horiz-adv-x="1888" 
d="M514 342q-188 0 -300 109t-112 284t112 284t300 109q121 0 237 -64.5t193 -184.5q80 120 195.5 184.5t236.5 64.5q188 0 300 -109t112 -284t-112 -284t-300 -109q-120 0 -236 65.5t-196 184.5q-78 -119 -194 -184.5t-236 -65.5zM260 735q0 -116 72.5 -184t187.5 -68
q101 0 190 66t154 186q-65 120 -154 186t-190 66q-115 0 -187.5 -68t-72.5 -184zM1024 735q67 -120 156.5 -186t189.5 -66q116 0 187 67.5t71 184.5t-71 184.5t-187 67.5q-100 0 -189.5 -66t-156.5 -186z" />
    <glyph glyph-name="integral" unicode="&#x222b;" horiz-adv-x="870" 
d="M676 1456h162v-145h-156q-76 0 -120 -46.5t-44 -129.5v-1233q0 -146 -87 -233t-234 -87h-164v146h155q76 0 121 47.5t45 130.5v1231q0 147 87 233t235 86z" />
    <glyph glyph-name="approxequal" unicode="&#x2248;" horiz-adv-x="1269" 
d="M844 289q-54 0 -102.5 17t-84.5 41.5t-69.5 49t-71.5 41.5t-76 17q-59 0 -97.5 -43t-43.5 -113h-152q9 143 90 227t201 84q53 0 101 -17t84.5 -41.5t71 -49t72.5 -41.5t75 -17q55 0 95 40.5t46 115.5h150q-10 -144 -90 -227.5t-199 -83.5zM147 737q9 143 90 227.5
t201 84.5q53 0 101 -17t84.5 -41.5t71 -49t72.5 -41.5t75 -17q55 0 95 40t46 115h150q-10 -144 -90 -227.5t-199 -83.5q-54 0 -102.5 17t-84.5 41.5t-69.5 49t-71.5 41.5t-76 17q-59 0 -97.5 -43t-43.5 -113h-152z" />
    <glyph glyph-name="notequal" unicode="&#x2260;" horiz-adv-x="1269" 
d="M244 51l141 256h-225v144h303l172 315h-475v143h555l141 258h166l-141 -258h223v-143h-303l-174 -315h477v-144h-555l-141 -256h-164z" />
    <glyph glyph-name="lessequal" unicode="&#x2264;" horiz-adv-x="1269" 
d="M246 0v143h764v-143h-764zM250 596v160l762 381v-164l-615 -297l615 -297v-164z" />
    <glyph glyph-name="greaterequal" unicode="&#x2265;" horiz-adv-x="1269" 
d="M260 215v164l612 297l-612 297v164l762 -381v-160zM262 0v143h756v-143h-756z" />
    <glyph glyph-name="lozenge" unicode="&#x25ca;" horiz-adv-x="1155" 
d="M498 0l-400 717l400 717h159l400 -717l-400 -717h-159zM264 717l314 -561l313 561l-313 561z" />
    <glyph glyph-name="uni25CF" unicode="&#x25cf;" horiz-adv-x="1695" 
d="M115 717q0 200 98 368.5t266.5 266.5t368.5 98t368.5 -98t266.5 -266.5t98 -368.5q0 -201 -98 -369.5t-266.5 -266t-368.5 -97.5t-368.5 97.5t-266.5 266t-98 369.5z" />
    <glyph glyph-name="uni2669" unicode="&#x2669;" horiz-adv-x="942" 
d="M635 1434h135v-1434q0 -154 -107.5 -261.5t-259.5 -107.5q-154 0 -261 107.5t-107 261.5q0 152 107.5 259.5t260.5 107.5q131 0 232 -82v1149z" />
    <glyph glyph-name="musicalnote" unicode="&#x266a;" horiz-adv-x="1376" 
d="M1225 1055q0 109 -73 179.5t-185 70.5h-197v-1305q0 -154 -107.5 -261.5t-259.5 -107.5q-154 0 -261 107.5t-107 261.5q0 152 107.5 259.5t260.5 107.5q131 0 232 -82v1149h332q164 0 270 -106.5t106 -272.5v-109h-118v109z" />
    <glyph glyph-name="musicalnotedbl" unicode="&#x266b;" horiz-adv-x="1957" 
d="M1651 1305h-881v-1305q0 -154 -107.5 -261.5t-259.5 -107.5q-154 0 -261 107.5t-107 261.5q0 152 107.5 259.5t260.5 107.5q131 0 232 -82v1149h1151v-1434q0 -154 -107.5 -261.5t-259.5 -107.5q-154 0 -261 107.5t-107 261.5q0 152 107.5 259.5t260.5 107.5
q131 0 232 -82v1020z" />
    <glyph glyph-name="uniF8FF" unicode="&#xf8ff;" horiz-adv-x="1767" 
d="M444 -16q-119 0 -205.5 85.5t-86.5 206.5q0 123 86 211t206 88h146v283h-146q-120 0 -206 87t-86 210q0 120 86 207.5t206 87.5t208.5 -87.5t88.5 -207.5v-145h283v145q0 120 88.5 207.5t208.5 87.5q121 0 209 -87.5t88 -207.5q0 -121 -88 -209t-209 -88h-145v-283h145
q121 0 209 -88.5t88 -210.5q0 -119 -88 -205.5t-209 -86.5t-209 85.5t-88 206.5v146h-283l2 -146q1 -121 -87.5 -206.5t-211.5 -85.5zM305 276q0 -60 40 -100.5t99 -40.5q60 0 103 40.5t43 100.5v146h-146q-59 0 -99 -42.5t-40 -103.5zM305 1155q0 -60 40.5 -102.5
t98.5 -42.5h146v145q0 60 -43 102.5t-103 42.5q-58 0 -98.5 -42.5t-40.5 -102.5zM741 575h283v283h-283v-283zM1176 276q0 -59 43 -100t102 -41q60 0 100.5 41t40.5 100q0 62 -40.5 104t-100.5 42h-145v-146zM1176 1010h145q60 0 100.5 42.5t40.5 102.5q0 59 -41 102
t-100 43q-60 0 -102.5 -42.5t-42.5 -102.5v-145z" />
    <glyph glyph-name="uni004A0301" horiz-adv-x="679" 
d="M203 158q137 0 137 209v1067h174v-1072q0 -178 -77 -270t-222 -92h-188v158h176zM348 1546l178 303h191l-213 -303h-156z" />
    <glyph glyph-name="uni013B.loclMAH" horiz-adv-x="1089" 
d="M174 0v1434h176v-1276h717v-158h-893zM389 -444l113 305h184l-151 -305h-146z" />
    <glyph glyph-name="uni0145.loclMAH" horiz-adv-x="1462" 
d="M174 0v1434h201l737 -1168v1168h176v-1434h-201l-737 1163v-1163h-176zM545 -444l112 305h185l-152 -305h-145z" />
    <glyph glyph-name="E.titl" horiz-adv-x="1163" 
d="M385 0q-107 0 -164 57t-57 164v993q0 106 57 163t164 57h676v-158h-649q-34 0 -53 -19t-19 -53v-385h588v-157h-588v-433q0 -34 19 -52.5t53 -18.5h671v-158h-698z" />
    <glyph glyph-name="Eacute.titl" horiz-adv-x="1163" 
d="M385 0q-107 0 -164 57t-57 164v993q0 106 57 163t164 57h676v-158h-649q-34 0 -53 -19t-19 -53v-385h588v-157h-588v-433q0 -34 19 -52.5t53 -18.5h671v-158h-698zM555 1548l190 260h191l-227 -260h-154z" />
    <glyph glyph-name="Ebreve.titl" horiz-adv-x="1163" 
d="M385 0q-107 0 -164 57t-57 164v993q0 106 57 163t164 57h676v-158h-649q-34 0 -53 -19t-19 -53v-385h588v-157h-588v-433q0 -34 19 -52.5t53 -18.5h671v-158h-698zM350 1819h137q0 -67 41.5 -103.5t110.5 -36.5q68 0 110 36.5t42 103.5h135q0 -120 -79.5 -194.5
t-207.5 -74.5q-129 0 -209 74.5t-80 194.5z" />
    <glyph glyph-name="Ecaron.titl" horiz-adv-x="1163" 
d="M385 0q-107 0 -164 57t-57 164v993q0 106 57 163t164 57h676v-158h-649q-34 0 -53 -19t-19 -53v-385h588v-157h-588v-433q0 -34 19 -52.5t53 -18.5h671v-158h-698zM328 1794h164l147 -145l145 145h166l-231 -246h-160z" />
    <glyph glyph-name="Ecircumflex.titl" horiz-adv-x="1163" 
d="M385 0q-107 0 -164 57t-57 164v993q0 106 57 163t164 57h676v-158h-649q-34 0 -53 -19t-19 -53v-385h588v-157h-588v-433q0 -34 19 -52.5t53 -18.5h671v-158h-698zM340 1548l223 244h158l225 -244h-155l-148 144l-151 -144h-152z" />
    <glyph glyph-name="Edieresis.titl" horiz-adv-x="1163" 
d="M385 0q-107 0 -164 57t-57 164v993q0 106 57 163t164 57h676v-158h-649q-34 0 -53 -19t-19 -53v-385h588v-157h-588v-433q0 -34 19 -52.5t53 -18.5h671v-158h-698zM393 1622v188h156v-188h-156zM729 1622v188h156v-188h-156z" />
    <glyph glyph-name="Edotaccent.titl" horiz-adv-x="1163" 
d="M385 0q-107 0 -164 57t-57 164v993q0 106 57 163t164 57h676v-158h-649q-34 0 -53 -19t-19 -53v-385h588v-157h-588v-433q0 -34 19 -52.5t53 -18.5h671v-158h-698zM545 1628v230h188v-230h-188z" />
    <glyph glyph-name="uni1EB8.titl" horiz-adv-x="1163" 
d="M385 0q-107 0 -164 57t-57 164v993q0 106 57 163t164 57h676v-158h-649q-34 0 -53 -19t-19 -53v-385h588v-157h-588v-433q0 -34 19 -52.5t53 -18.5h671v-158h-698zM485 -369v230h189v-230h-189z" />
    <glyph glyph-name="Egrave.titl" horiz-adv-x="1163" 
d="M385 0q-107 0 -164 57t-57 164v993q0 106 57 163t164 57h676v-158h-649q-34 0 -53 -19t-19 -53v-385h588v-157h-588v-433q0 -34 19 -52.5t53 -18.5h671v-158h-698zM395 1808h191l190 -260h-153z" />
    <glyph glyph-name="Emacron.titl" horiz-adv-x="1163" 
d="M385 0q-107 0 -164 57t-57 164v993q0 106 57 163t164 57h676v-158h-649q-34 0 -53 -19t-19 -53v-385h588v-157h-588v-433q0 -34 19 -52.5t53 -18.5h671v-158h-698zM367 1612v137h544v-137h-544z" />
    <glyph glyph-name="Eogonek.titl" horiz-adv-x="1163" 
d="M385 0q-107 0 -164 57t-57 164v993q0 106 57 163t164 57h676v-158h-649q-34 0 -53 -19t-19 -53v-385h588v-157h-588v-433q0 -34 19 -52.5t53 -18.5h671v-158q-58 -43 -92.5 -102.5t-34.5 -118.5q0 -43 20.5 -66.5t53.5 -23.5q46 0 94 51l70 -90q-81 -84 -190 -84
q-80 0 -130.5 49.5t-50.5 130.5q0 143 146 254h-584z" />
    <glyph glyph-name="F.titl" horiz-adv-x="1107" 
d="M170 1214q0 106 57 163t164 57h676v-158h-649q-34 0 -53 -19t-19 -53v-401h588v-158h-588v-645h-176v1214z" />
    <glyph glyph-name="L.titl" horiz-adv-x="1085" 
d="M391 0q-107 0 -164 57t-57 164v1213h176v-1205q0 -34 19 -52.5t53 -18.5h645v-158h-672z" />
    <glyph glyph-name="Lacute.titl" horiz-adv-x="1085" 
d="M391 0q-107 0 -164 57t-57 164v1213h176v-1205q0 -34 19 -52.5t53 -18.5h645v-158h-672zM176 1548l191 260h190l-227 -260h-154z" />
    <glyph glyph-name="Lcaron.titl" horiz-adv-x="1087" 
d="M391 0q-107 0 -164 57t-57 164v1213h176v-1205q0 -34 19 -52.5t53 -18.5h645v-158h-672zM582 1147l67 354h162l-104 -354h-125z" />
    <glyph glyph-name="uni013B.titl" horiz-adv-x="1085" 
d="M391 0q-107 0 -164 57t-57 164v1213h176v-1205q0 -34 19 -52.5t53 -18.5h645v-158h-672zM385 -444l113 305h184l-152 -305h-145z" />
    <glyph glyph-name="Ldot.titl" horiz-adv-x="1089" 
d="M391 0q-107 0 -164 57t-57 164v1213h176v-1205q0 -34 19 -52.5t53 -18.5h645v-158h-672zM602 557v229h189v-229h-189z" />
    <glyph glyph-name="Lslash.titl" horiz-adv-x="1146" 
d="M453 0q-107 0 -164.5 57t-57.5 164v299l-157 -106v164l157 106v750h177v-631l174 117v-162l-174 -119v-410q0 -34 18.5 -52.5t52.5 -18.5h645v-158h-671z" />
    <glyph glyph-name="uni013B.titl.loclMAH" horiz-adv-x="1085" 
d="M391 0q-107 0 -164 57t-57 164v1213h176v-1205q0 -34 19 -52.5t53 -18.5h645v-158h-672zM385 -444l113 305h184l-152 -305h-145z" />
    <glyph glyph-name="O_O.dlig" horiz-adv-x="2826" 
d="M770 -16q-198 0 -353 94.5t-239 261.5t-84 377t84 377t239 261.5t353 94.5q88 0 166.5 -19.5t134.5 -51t104 -69.5t83 -76t62.5 -69.5t51 -51t41.5 -19.5t42 19.5t51.5 51t62.5 69.5t83 76t104 69.5t134 51t166 19.5q198 0 353 -94.5t239 -261.5t84 -377
q0 -157 -49.5 -292.5t-137 -232.5t-214 -152.5t-275.5 -55.5q-88 0 -166 19.5t-134 51t-104 69.5t-83 76t-62.5 69.5t-51.5 51t-42 19.5q-21 0 -51 -26.5t-62 -66t-83 -85.5t-109.5 -85.5t-147.5 -66t-190 -26.5zM274 717q0 -164 61 -295t174.5 -206t260.5 -75q81 0 150 21
t117.5 55t90.5 75t76 82.5t65.5 75.5t68 55t75.5 21t75.5 -21t68 -55t65.5 -75t75.5 -82.5t90 -75.5t118 -55t150.5 -21q147 0 260.5 75t174.5 206t61 295t-61 294.5t-175 205.5t-262 75q-80 0 -149 -21t-117.5 -55t-90 -75t-75.5 -82.5t-65.5 -75.5t-68 -55t-75.5 -21
t-75.5 21t-68 55t-65.5 75.5t-76 82.5t-90.5 75t-117.5 55t-150 21q-147 0 -260.5 -75t-174.5 -205.5t-61 -294.5z" />
    <glyph glyph-name="T_T.dlig" horiz-adv-x="2009" 
d="M483 0v1276h-460v158h1962v-158h-457v-1276h-174v1276h-697v-1276h-174z" />
    <glyph glyph-name="T_h.dlig" horiz-adv-x="2136" 
d="M1104 0v1276h-447v-1276h-174v1276h-460v158h1245v-600q41 105 130.5 160t211.5 55q175 0 280 -114.5t105 -303.5v-631h-164v604q0 132 -70.5 213.5t-187.5 81.5q-134 0 -219.5 -95.5t-85.5 -246.5v-557h-164z" />
    <glyph glyph-name="T_i.dlig" horiz-adv-x="1400" 
d="M483 0v1276h-460v158h1091v-158h-457v-1276h-174zM1081 0v1032h164v-1032h-164z" />
    <glyph glyph-name="i.loclTRK" horiz-adv-x="477" 
d="M156 0v1032h163v-1032h-163zM143 1227v229h189v-229h-189z" />
    <glyph glyph-name="uni006A0301" horiz-adv-x="477" 
d="M-72 -418v142h86q69 0 105.5 47.5t36.5 138.5v1122h163v-1128q0 -157 -75 -239.5t-219 -82.5h-97zM160 1145l178 303h190l-213 -303h-155z" />
    <glyph glyph-name="germandbls.calt" horiz-adv-x="1271" 
d="M156 930q0 238 134 379t361 141q198 0 332.5 -116.5t151.5 -305.5l-279 -215q173 -45 252.5 -144t79.5 -251q0 -194 -124.5 -306t-344.5 -112h-234v158h205q158 0 239 67t81 195t-88.5 196t-249.5 68h-41v127l319 254q-13 104 -95 167.5t-202 63.5q-148 0 -235.5 -100
t-87.5 -268v-928h-174v930z" />
    <glyph glyph-name="uni013C.loclMAH" horiz-adv-x="477" 
d="M156 0v1456h163v-1456h-163zM45 -444l113 305h184l-152 -305h-145z" />
    <glyph glyph-name="uni0146.loclMAH" horiz-adv-x="1187" 
d="M156 0v1032h163v-198q40 105 130.5 160t212.5 55q175 0 280 -114.5t105 -303.5v-631h-164v604q0 132 -70.5 213.5t-187.5 81.5q-134 0 -220 -96t-86 -246v-557h-163zM408 -444l112 305h185l-152 -305h-145z" />
    <glyph glyph-name="a.ss01" horiz-adv-x="1245" 
d="M584 -16q-234 0 -366 149t-132 383q0 152 56.5 271.5t170.5 190.5t271 71q102 0 197 -47t145 -121v151h164v-1032h-164v154q-36 -73 -131.5 -121.5t-210.5 -48.5zM256 516q0 -175 93.5 -280t248.5 -105t248.5 105t93.5 280t-93.5 280t-248.5 105t-248.5 -105t-93.5 -280z
" />
    <glyph glyph-name="aacute.ss01" horiz-adv-x="1245" 
d="M584 -16q-234 0 -366 149t-132 383q0 152 56.5 271.5t170.5 190.5t271 71q102 0 197 -47t145 -121v151h164v-1032h-164v154q-36 -73 -131.5 -121.5t-210.5 -48.5zM256 516q0 -175 93.5 -280t248.5 -105t248.5 105t93.5 280t-93.5 280t-248.5 105t-248.5 -105t-93.5 -280z
M543 1145l178 303h190l-213 -303h-155z" />
    <glyph glyph-name="abreve.ss01" horiz-adv-x="1245" 
d="M584 -16q-234 0 -366 149t-132 383q0 152 56.5 271.5t170.5 190.5t271 71q102 0 197 -47t145 -121v151h164v-1032h-164v154q-36 -73 -131.5 -121.5t-210.5 -48.5zM256 516q0 -175 93.5 -280t248.5 -105t248.5 105t93.5 280t-93.5 280t-248.5 105t-248.5 -105t-93.5 -280z
M332 1434h137q0 -70 42 -113t110 -43q67 0 109 43t42 113h137q0 -124 -80 -204.5t-208 -80.5t-208.5 80.5t-80.5 204.5z" />
    <glyph glyph-name="acircumflex.ss01" horiz-adv-x="1245" 
d="M584 -16q-234 0 -366 149t-132 383q0 152 56.5 271.5t170.5 190.5t271 71q102 0 197 -47t145 -121v151h164v-1032h-164v154q-36 -73 -131.5 -121.5t-210.5 -48.5zM256 516q0 -175 93.5 -280t248.5 -105t248.5 105t93.5 280t-93.5 280t-248.5 105t-248.5 -105t-93.5 -280z
M328 1145l225 287h137l225 -287h-155l-137 172l-142 -172h-153z" />
    <glyph glyph-name="adieresis.ss01" horiz-adv-x="1245" 
d="M584 -16q-234 0 -366 149t-132 383q0 152 56.5 271.5t170.5 190.5t271 71q102 0 197 -47t145 -121v151h164v-1032h-164v154q-36 -73 -131.5 -121.5t-210.5 -48.5zM256 516q0 -175 93.5 -280t248.5 -105t248.5 105t93.5 280t-93.5 280t-248.5 105t-248.5 -105t-93.5 -280z
M373 1221v188h155v-188h-155zM709 1221v188h155v-188h-155z" />
    <glyph glyph-name="uni1EA1.ss01" horiz-adv-x="1245" 
d="M584 -16q-234 0 -366 149t-132 383q0 152 56.5 271.5t170.5 190.5t271 71q102 0 197 -47t145 -121v151h164v-1032h-164v154q-36 -73 -131.5 -121.5t-210.5 -48.5zM256 516q0 -175 93.5 -280t248.5 -105t248.5 105t93.5 280t-93.5 280t-248.5 105t-248.5 -105t-93.5 -280z
M524 -369v230h189v-230h-189z" />
    <glyph glyph-name="agrave.ss01" horiz-adv-x="1245" 
d="M584 -16q-234 0 -366 149t-132 383q0 152 56.5 271.5t170.5 190.5t271 71q102 0 197 -47t145 -121v151h164v-1032h-164v154q-36 -73 -131.5 -121.5t-210.5 -48.5zM256 516q0 -175 93.5 -280t248.5 -105t248.5 105t93.5 280t-93.5 280t-248.5 105t-248.5 -105t-93.5 -280z
M328 1448h190l178 -303h-155z" />
    <glyph glyph-name="amacron.ss01" horiz-adv-x="1245" 
d="M584 -16q-234 0 -366 149t-132 383q0 152 56.5 271.5t170.5 190.5t271 71q102 0 197 -47t145 -121v151h164v-1032h-164v154q-36 -73 -131.5 -121.5t-210.5 -48.5zM256 516q0 -175 93.5 -280t248.5 -105t248.5 105t93.5 280t-93.5 280t-248.5 105t-248.5 -105t-93.5 -280z
M346 1210v138h545v-138h-545z" />
    <glyph glyph-name="aogonek.ss01" horiz-adv-x="1245" 
d="M584 -16q-234 0 -366 149t-132 383q0 152 56.5 271.5t170.5 190.5t271 71q102 0 197 -47t145 -121v151h164v-1032q-58 -43 -92.5 -102.5t-34.5 -118.5q0 -43 20 -66.5t53 -23.5q46 0 94 51l70 -90q-81 -84 -190 -84q-80 0 -130.5 49.5t-50.5 130.5q0 143 146 254h-49v154
q-36 -73 -131.5 -121.5t-210.5 -48.5zM256 516q0 -175 93.5 -280t248.5 -105t248.5 105t93.5 280t-93.5 280t-248.5 105t-248.5 -105t-93.5 -280z" />
    <glyph glyph-name="aring.ss01" horiz-adv-x="1245" 
d="M584 -16q-234 0 -366 149t-132 383q0 152 56.5 271.5t170.5 190.5t271 71q102 0 197 -47t145 -121v151h164v-1032h-164v154q-36 -73 -131.5 -121.5t-210.5 -48.5zM256 516q0 -175 93.5 -280t248.5 -105t248.5 105t93.5 280t-93.5 280t-248.5 105t-248.5 -105t-93.5 -280z
M371 1343q0 96 70 160t175 64q106 0 177 -64.5t71 -159.5q0 -98 -71 -162.5t-177 -64.5t-175.5 64.5t-69.5 162.5zM489 1343q0 -54 35.5 -88t91.5 -34q57 0 94.5 34t37.5 88q0 52 -37.5 86.5t-94.5 34.5q-55 0 -91 -34t-36 -87z" />
    <glyph glyph-name="aringacute.ss01" horiz-adv-x="1245" 
d="M584 -16q-234 0 -366 149t-132 383q0 152 56.5 271.5t170.5 190.5t271 71q102 0 197 -47t145 -121v151h164v-1032h-164v154q-36 -73 -131.5 -121.5t-210.5 -48.5zM256 516q0 -175 93.5 -280t248.5 -105t248.5 105t93.5 280t-93.5 280t-248.5 105t-248.5 -105t-93.5 -280z
M371 1343q0 77 47.5 135t124.5 78l176 302h190l-213 -302q76 -24 122 -81t46 -132q0 -98 -71 -162.5t-177 -64.5t-175.5 64.5t-69.5 162.5zM489 1343q0 -54 35.5 -88t91.5 -34q57 0 94.5 34t37.5 88q0 52 -37.5 86.5t-94.5 34.5q-55 0 -91 -34t-36 -87z" />
    <glyph glyph-name="atilde.ss01" horiz-adv-x="1245" 
d="M584 -16q-234 0 -366 149t-132 383q0 152 56.5 271.5t170.5 190.5t271 71q102 0 197 -47t145 -121v151h164v-1032h-164v154q-36 -73 -131.5 -121.5t-210.5 -48.5zM256 516q0 -175 93.5 -280t248.5 -105t248.5 105t93.5 280t-93.5 280t-248.5 105t-248.5 -105t-93.5 -280z
M297 1210q7 94 60.5 151.5t131.5 57.5q52 0 97 -20.5t80.5 -41t64.5 -20.5q30 0 52 19.5t30 52.5h125q-6 -95 -59.5 -152t-133.5 -57q-51 0 -96 20.5t-80.5 41t-64.5 20.5q-31 0 -52.5 -20t-27.5 -52h-127z" />
    <glyph glyph-name="g.ss02" horiz-adv-x="1060" 
d="M387 -418q-144 0 -230.5 84.5t-86.5 218.5q0 67 31.5 123t82.5 92q-86 58 -86 166q0 13 2 25.5t4 22.5t8 22t9 20t12.5 21t13.5 19t17 20.5t17.5 20t19.5 22.5t20 22q-67 89 -67 213q0 159 109.5 257t277.5 98q78 0 157 -29l144 160l108 -101l-125 -139q105 -97 105 -246
q0 -159 -109.5 -256.5t-279.5 -97.5q-124 0 -215 51q-39 -41 -53.5 -64.5t-14.5 -52.5q0 -90 127 -90h291q153 0 245.5 -70.5t92.5 -209.5q0 -143 -81 -232.5t-226 -89.5h-320zM231 -115q0 -68 45.5 -114.5t114.5 -46.5h311q78 0 115 44t37 119q0 160 -195 160h-235
q-63 0 -107 8q-86 -59 -86 -170zM313 694q0 -100 66.5 -159.5t161.5 -59.5q96 0 161.5 59t65.5 160t-65.5 160t-161.5 59q-95 0 -161.5 -59.5t-66.5 -159.5z" />
    <glyph glyph-name="gbreve.ss02" horiz-adv-x="1060" 
d="M387 -418q-144 0 -230.5 84.5t-86.5 218.5q0 67 31.5 123t82.5 92q-86 58 -86 166q0 13 2 25.5t4 22.5t8 22t9 20t12.5 21t13.5 19t17 20.5t17.5 20t19.5 22.5t20 22q-67 89 -67 213q0 159 109.5 257t277.5 98q78 0 157 -29l144 160l108 -101l-125 -139q105 -97 105 -246
q0 -159 -109.5 -256.5t-279.5 -97.5q-124 0 -215 51q-39 -41 -53.5 -64.5t-14.5 -52.5q0 -90 127 -90h291q153 0 245.5 -70.5t92.5 -209.5q0 -143 -81 -232.5t-226 -89.5h-320zM231 -115q0 -68 45.5 -114.5t114.5 -46.5h311q78 0 115 44t37 119q0 160 -195 160h-235
q-63 0 -107 8q-86 -59 -86 -170zM250 1434h137q0 -70 42 -113t110 -43q67 0 109 43t42 113h137q0 -124 -80 -204.5t-208 -80.5t-208.5 80.5t-80.5 204.5zM313 694q0 -100 66.5 -159.5t161.5 -59.5q96 0 161.5 59t65.5 160t-65.5 160t-161.5 59q-95 0 -161.5 -59.5
t-66.5 -159.5z" />
    <glyph glyph-name="gcaron.ss02" horiz-adv-x="1060" 
d="M387 -418q-144 0 -230.5 84.5t-86.5 218.5q0 67 31.5 123t82.5 92q-86 58 -86 166q0 13 2 25.5t4 22.5t8 22t9 20t12.5 21t13.5 19t17 20.5t17.5 20t19.5 22.5t20 22q-67 89 -67 213q0 159 109.5 257t277.5 98q78 0 157 -29l144 160l108 -101l-125 -139q105 -97 105 -246
q0 -159 -109.5 -256.5t-279.5 -97.5q-124 0 -215 51q-39 -41 -53.5 -64.5t-14.5 -52.5q0 -90 127 -90h291q153 0 245.5 -70.5t92.5 -209.5q0 -143 -81 -232.5t-226 -89.5h-320zM231 -115q0 -68 45.5 -114.5t114.5 -46.5h311q78 0 115 44t37 119q0 160 -195 160h-235
q-63 0 -107 8q-86 -59 -86 -170zM246 1434h153l140 -170l139 170h153l-223 -287h-139zM313 694q0 -100 66.5 -159.5t161.5 -59.5q96 0 161.5 59t65.5 160t-65.5 160t-161.5 59q-95 0 -161.5 -59.5t-66.5 -159.5z" />
    <glyph glyph-name="gcircumflex.ss02" horiz-adv-x="1060" 
d="M387 -418q-144 0 -230.5 84.5t-86.5 218.5q0 67 31.5 123t82.5 92q-86 58 -86 166q0 13 2 25.5t4 22.5t8 22t9 20t12.5 21t13.5 19t17 20.5t17.5 20t19.5 22.5t20 22q-67 89 -67 213q0 159 109.5 257t277.5 98q78 0 157 -29l113 125h-92l-137 172l-142 -172h-153l225 287
h137l213 -271l88 -82l-125 -139q105 -97 105 -246q0 -159 -109.5 -256.5t-279.5 -97.5q-124 0 -215 51q-39 -41 -53.5 -64.5t-14.5 -52.5q0 -90 127 -90h291q153 0 245.5 -70.5t92.5 -209.5q0 -143 -81 -232.5t-226 -89.5h-320zM231 -115q0 -68 45.5 -114.5t114.5 -46.5h311
q78 0 115 44t37 119q0 160 -195 160h-235q-63 0 -107 8q-86 -59 -86 -170zM313 694q0 -100 66.5 -159.5t161.5 -59.5q96 0 161.5 59t65.5 160t-65.5 160t-161.5 59q-95 0 -161.5 -59.5t-66.5 -159.5z" />
    <glyph glyph-name="uni0123.ss02" horiz-adv-x="1060" 
d="M387 -418q-144 0 -230.5 84.5t-86.5 218.5q0 67 31.5 123t82.5 92q-86 58 -86 166q0 13 2 25.5t4 22.5t8 22t9 20t12.5 21t13.5 19t17 20.5t17.5 20t19.5 22.5t20 22q-67 89 -67 213q0 159 109.5 257t277.5 98q78 0 157 -29l144 160l108 -101l-125 -139q105 -97 105 -246
q0 -159 -109.5 -256.5t-279.5 -97.5q-124 0 -215 51q-39 -41 -53.5 -64.5t-14.5 -52.5q0 -90 127 -90h291q153 0 245.5 -70.5t92.5 -209.5q0 -143 -81 -232.5t-226 -89.5h-320zM231 -115q0 -68 45.5 -114.5t114.5 -46.5h311q78 0 115 44t37 119q0 160 -195 160h-235
q-63 0 -107 8q-86 -59 -86 -170zM313 694q0 -100 66.5 -159.5t161.5 -59.5q96 0 161.5 59t65.5 160t-65.5 160t-161.5 59q-95 0 -161.5 -59.5t-66.5 -159.5zM477 1151l119 307h119l-62 -307h-176z" />
    <glyph glyph-name="gdotaccent.ss02" horiz-adv-x="1060" 
d="M387 -418q-144 0 -230.5 84.5t-86.5 218.5q0 67 31.5 123t82.5 92q-86 58 -86 166q0 13 2 25.5t4 22.5t8 22t9 20t12.5 21t13.5 19t17 20.5t17.5 20t19.5 22.5t20 22q-67 89 -67 213q0 159 109.5 257t277.5 98q78 0 157 -29l144 160l108 -101l-125 -139q105 -97 105 -246
q0 -159 -109.5 -256.5t-279.5 -97.5q-124 0 -215 51q-39 -41 -53.5 -64.5t-14.5 -52.5q0 -90 127 -90h291q153 0 245.5 -70.5t92.5 -209.5q0 -143 -81 -232.5t-226 -89.5h-320zM231 -115q0 -68 45.5 -114.5t114.5 -46.5h311q78 0 115 44t37 119q0 160 -195 160h-235
q-63 0 -107 8q-86 -59 -86 -170zM313 694q0 -100 66.5 -159.5t161.5 -59.5q96 0 161.5 59t65.5 160t-65.5 160t-161.5 59q-95 0 -161.5 -59.5t-66.5 -159.5zM444 1227v229h189v-229h-189z" />
    <glyph glyph-name="uni1E21.ss02" horiz-adv-x="1060" 
d="M387 -418q-144 0 -230.5 84.5t-86.5 218.5q0 67 31.5 123t82.5 92q-86 58 -86 166q0 13 2 25.5t4 22.5t8 22t9 20t12.5 21t13.5 19t17 20.5t17.5 20t19.5 22.5t20 22q-67 89 -67 213q0 159 109.5 257t277.5 98q78 0 157 -29l144 160l108 -101l-125 -139q105 -97 105 -246
q0 -159 -109.5 -256.5t-279.5 -97.5q-124 0 -215 51q-39 -41 -53.5 -64.5t-14.5 -52.5q0 -90 127 -90h291q153 0 245.5 -70.5t92.5 -209.5q0 -143 -81 -232.5t-226 -89.5h-320zM231 -115q0 -68 45.5 -114.5t114.5 -46.5h311q78 0 115 44t37 119q0 160 -195 160h-235
q-63 0 -107 8q-86 -59 -86 -170zM266 1210v138h545v-138h-545zM313 694q0 -100 66.5 -159.5t161.5 -59.5q96 0 161.5 59t65.5 160t-65.5 160t-161.5 59q-95 0 -161.5 -59.5t-66.5 -159.5z" />
    <glyph glyph-name="y.ss03" horiz-adv-x="1011" 
d="M133 -418v142h111q45 0 80 30.5t63 114.5l39 117l-385 1046h170l293 -827l295 827h170l-377 -1030l-57 -162q-47 -129 -112.5 -193.5t-170.5 -64.5h-119z" />
    <glyph glyph-name="yacute.ss03" horiz-adv-x="1011" 
d="M133 -418v142h111q45 0 80 30.5t63 114.5l39 117l-385 1046h170l293 -827l295 827h170l-377 -1030l-57 -162q-47 -129 -112.5 -193.5t-170.5 -64.5h-119zM436 1145l178 303h191l-213 -303h-156z" />
    <glyph glyph-name="ycircumflex.ss03" horiz-adv-x="1011" 
d="M133 -418v142h111q45 0 80 30.5t63 114.5l39 117l-385 1046h170l293 -827l295 827h170l-377 -1030l-57 -162q-47 -129 -112.5 -193.5t-170.5 -64.5h-119zM223 1145l226 287h137l225 -287h-156l-137 172l-141 -172h-154z" />
    <glyph glyph-name="ydieresis.ss03" horiz-adv-x="1011" 
d="M133 -418v142h111q45 0 80 30.5t63 114.5l39 117l-385 1046h170l293 -827l295 827h170l-377 -1030l-57 -162q-47 -129 -112.5 -193.5t-170.5 -64.5h-119zM266 1221v188h158v-188h-158zM602 1221v188h158v-188h-158z" />
    <glyph glyph-name="ygrave.ss03" horiz-adv-x="1011" 
d="M133 -418v142h111q45 0 80 30.5t63 114.5l39 117l-385 1046h170l293 -827l295 827h170l-377 -1030l-57 -162q-47 -129 -112.5 -193.5t-170.5 -64.5h-119zM221 1448h191l178 -303h-156z" />
    <glyph glyph-name="uni0233.ss03" horiz-adv-x="1011" 
d="M133 -418v142h111q45 0 80 30.5t63 114.5l39 117l-385 1046h170l293 -827l295 827h170l-377 -1030l-57 -162q-47 -129 -112.5 -193.5t-170.5 -64.5h-119zM240 1210v138h544v-138h-544z" />
    <glyph glyph-name="uni1EF9.ss03" horiz-adv-x="1011" 
d="M133 -418v142h111q45 0 80 30.5t63 114.5l39 117l-385 1046h170l293 -827l295 827h170l-377 -1030l-57 -162q-47 -129 -112.5 -193.5t-170.5 -64.5h-119zM193 1210q7 94 60.5 151.5t131.5 57.5q52 0 97 -20.5t80.5 -41t64.5 -20.5q30 0 52 19.5t30 52.5h125
q-6 -95 -59.5 -152t-133.5 -57q-51 0 -96 20.5t-81 41t-65 20.5q-31 0 -52.5 -20t-27.5 -52h-126z" />
    <glyph glyph-name="t.ss04" horiz-adv-x="772" 
d="M563 0q-149 0 -236 87t-87 237v563h-215v145h159q56 0 56 55v275h163v-330h318v-145h-318v-559q0 -85 45 -134t121 -49h152v-145h-158z" />
    <glyph glyph-name="tbar.ss04" horiz-adv-x="796" 
d="M592 0q-150 0 -237 87t-87 237v131h-219v127h219v305h-215v145h160q55 0 55 55v275h164v-330h318v-145h-318v-305h313v-127h-313v-127q0 -85 45 -134t121 -49h152v-145h-158z" />
    <glyph glyph-name="tcaron.ss04" horiz-adv-x="772" 
d="M563 0q-149 0 -236 87t-87 237v563h-215v145h159q56 0 56 55v275h163v-330h318v-145h-318v-559q0 -85 45 -134t121 -49h152v-145h-158zM561 1147l68 354h162l-105 -354h-125z" />
    <glyph glyph-name="uni0163.ss04" horiz-adv-x="772" 
d="M381 -162l82 174q-105 26 -164 108t-59 204v563h-215v145h159q56 0 56 55v275h163v-330h318v-145h-318v-559q0 -85 45 -134t121 -49h152v-145h-154l-51 -102q106 11 176 -29.5t70 -122.5q0 -87 -70 -132.5t-190 -45.5q-88 0 -160 29v102q79 -29 160 -29q133 0 133 74
q0 45 -64.5 59.5t-132.5 -6.5z" />
    <glyph glyph-name="uni021B.ss04" horiz-adv-x="772" 
d="M563 0q-149 0 -236 87t-87 237v563h-215v145h159q56 0 56 55v275h163v-330h318v-145h-318v-559q0 -85 45 -134t121 -49h152v-145h-158zM328 -444l112 305h185l-152 -305h-145z" />
    <glyph glyph-name="ae.ss05" horiz-adv-x="2011" 
d="M584 -16q-234 0 -366 149t-132 383q0 152 56.5 271.5t170.5 190.5t271 71q102 0 197 -47t145 -121v151h155v-153q125 170 361 170q218 0 347.5 -136t129.5 -348q0 -43 -4 -71h-807q9 -161 105.5 -263t242.5 -102q125 0 202.5 52.5t102.5 150.5h168q-26 -159 -154 -253.5
t-319 -94.5q-244 0 -375 180v-164h-155v154q-36 -73 -131.5 -121.5t-210.5 -48.5zM256 516q0 -175 93.5 -280t248.5 -105t248.5 105t93.5 280t-93.5 280t-248.5 105t-248.5 -105t-93.5 -280zM1116 625h633q-9 132 -90.5 208t-218.5 76q-131 0 -216 -74t-108 -210z" />
    <glyph glyph-name="aeacute.ss05" horiz-adv-x="2011" 
d="M584 -16q-234 0 -366 149t-132 383q0 152 56.5 271.5t170.5 190.5t271 71q102 0 197 -47t145 -121v151h155v-153q125 170 361 170q218 0 347.5 -136t129.5 -348q0 -43 -4 -71h-807q9 -161 105.5 -263t242.5 -102q125 0 202.5 52.5t102.5 150.5h168q-26 -159 -154 -253.5
t-319 -94.5q-244 0 -375 180v-164h-155v154q-36 -73 -131.5 -121.5t-210.5 -48.5zM256 516q0 -175 93.5 -280t248.5 -105t248.5 105t93.5 280t-93.5 280t-248.5 105t-248.5 -105t-93.5 -280zM930 1145l178 303h190l-213 -303h-155zM1116 625h633q-9 132 -90.5 208t-218.5 76
q-131 0 -216 -74t-108 -210z" />
    <glyph glyph-name="l.ss06" horiz-adv-x="530" 
d="M502 145v-145h-84q-128 0 -199.5 71.5t-71.5 198.5v1186h164v-1177q0 -63 31.5 -98.5t93.5 -35.5h66z" />
    <glyph glyph-name="lacute.ss06" horiz-adv-x="530" 
d="M502 145v-145h-84q-128 0 -199.5 71.5t-71.5 198.5v1186h164v-1177q0 -63 31.5 -98.5t93.5 -35.5h66zM145 1546l179 303h190l-213 -303h-156z" />
    <glyph glyph-name="lcaron.ss06" horiz-adv-x="536" 
d="M502 145v-145h-84q-128 0 -199.5 71.5t-71.5 198.5v1186h164v-1177q0 -63 31.5 -98.5t93.5 -35.5h66zM410 1147l67 354h162l-104 -354h-125z" />
    <glyph glyph-name="uni013C.ss06" horiz-adv-x="530" 
d="M502 145v-145h-84q-128 0 -199.5 71.5t-71.5 198.5v1186h164v-1177q0 -63 31.5 -98.5t93.5 -35.5h66zM137 -444l113 305h184l-151 -305h-146z" />
    <glyph glyph-name="ldot.ss06" horiz-adv-x="606" 
d="M502 145v-145h-84q-128 0 -199.5 71.5t-71.5 198.5v1186h164v-1177q0 -63 31.5 -98.5t93.5 -35.5h66zM436 643v229h189v-229h-189z" />
    <glyph glyph-name="lslash.ss06" horiz-adv-x="663" 
d="M590 145v-145h-84q-128 0 -199 71.5t-71 198.5v357l-170 -115v164l170 115v665h163v-555l174 117v-162l-174 -119v-458q0 -63 31.5 -98.5t93.5 -35.5h66z" />
    <glyph glyph-name="o_o.dlig" horiz-adv-x="2127" 
d="M590 -16q-227 0 -365.5 149t-138.5 383t139 383.5t365 149.5q69 0 130.5 -18t102.5 -44.5t78.5 -57.5t63 -57.5t51.5 -44.5t47 -18q25 0 56.5 24.5t68.5 60t82.5 71t116 60t153.5 24.5q225 0 363.5 -149.5t138.5 -383.5t-138.5 -383t-363.5 -149q-83 0 -153.5 24.5
t-116 59.5t-82.5 70.5t-68.5 60t-56.5 24.5t-56 -24.5t-67.5 -59.5t-81.5 -70.5t-115.5 -60t-152.5 -24.5zM254 516q0 -169 93.5 -276t248.5 -107q66 0 124.5 26t100.5 63t80 74t79.5 63t82.5 26t83 -26t80.5 -63t80.5 -74t100.5 -63t124.5 -26q155 0 248.5 107t93.5 276
q0 171 -93.5 278t-248.5 107q-66 0 -124.5 -26t-100.5 -63.5t-80.5 -75t-80.5 -63.5t-83 -26t-82.5 26t-79.5 63.5t-80 75t-100.5 63.5t-124.5 26q-155 0 -248.5 -107t-93.5 -278z" />
    <glyph glyph-name="f_f_l.ss06.liga" horiz-adv-x="1830" 
d="M1802 145v-145h-84q-128 0 -199 71.5t-71 198.5v617h-440v-887h-164v887h-436v-887h-164v887h-215v145h215v105q0 148 86.5 233.5t234.5 85.5h162v-145h-156q-74 0 -118.5 -47t-44.5 -129v-103h436v105q0 148 86.5 233.5t234.5 85.5h119v-145h-110q-76 0 -121 -47
t-45 -129v-103h440v424h164v-1177q0 -63 31.5 -98.5t93.5 -35.5h65z" />
    <glyph glyph-name="f_l.ss06.liga" horiz-adv-x="1228" 
d="M1198 145v-145h-84q-128 0 -199 71.5t-71 198.5v617h-436v-887h-164v887h-215v145h215v105q0 148 86.5 233.5t234.5 85.5h119v-145h-113q-74 0 -118.5 -47t-44.5 -129v-103h436v424h164v-1177q0 -63 31.5 -98.5t93.5 -35.5h65z" />
    <glyph glyph-name="ordfeminine.ss05" horiz-adv-x="841" 
d="M389 811q-138 0 -217.5 89.5t-79.5 229.5q0 141 79.5 230.5t217.5 89.5q59 0 112 -25t83 -65v80h121v-619h-121v84q-21 -39 -75 -66.5t-120 -27.5zM215 1130q0 -95 51.5 -152.5t136.5 -57.5q86 0 138.5 57.5t52.5 152.5q0 97 -52.5 155t-138.5 58t-137 -58t-51 -155z" />
    <glyph glyph-name="zero.zero" horiz-adv-x="1296" 
d="M610 -16q-254 0 -370.5 169t-116.5 506v115q0 337 116.5 506.5t370.5 169.5h72q256 0 371.5 -169t115.5 -507v-115q0 -338 -115.5 -506.5t-371.5 -168.5h-72zM299 639q0 -208 49 -320l486 936q-64 37 -154 37h-64q-165 0 -241 -122.5t-76 -374.5v-156zM461 180
q62 -39 155 -39h64q165 0 241 122.5t76 375.5v156q0 204 -49 323z" />
    <glyph glyph-name="zero.inferior" horiz-adv-x="804" 
d="M379 -10q-303 0 -303 407v66q0 407 303 407h45q156 0 229.5 -103t73.5 -304v-66q0 -201 -73.5 -304t-229.5 -103h-45zM207 373q0 -269 178 -269h35q178 0 178 269v116q0 267 -178 267h-35q-178 0 -178 -267v-116z" />
    <glyph glyph-name="one.inferior" horiz-adv-x="438" 
d="M326 860v-860h-129v659q-21 -30 -88 -30h-76v114h67q47 0 71 25.5t30 91.5h125z" />
    <glyph glyph-name="two.inferior" horiz-adv-x="724" 
d="M74 573q-4 136 75.5 216.5t215.5 80.5q128 0 208 -72t80 -190q0 -171 -200 -272l-117 -57q-135 -73 -137 -164h456v-115h-587l-2 92q0 99 62.5 171.5t143.5 113.5l134 67q116 61 116 166q0 67 -44 108.5t-113 41.5q-75 0 -118.5 -51.5t-39.5 -135.5h-133z" />
    <glyph glyph-name="three.inferior" horiz-adv-x="739" 
d="M365 -10q-133 0 -223.5 77.5t-90.5 202.5h127q0 -75 53.5 -120.5t133.5 -45.5q83 0 130.5 38.5t47.5 107.5q0 67 -47 103t-131 36h-72v111h69q68 0 108 38t40 99q0 57 -42 90t-112 33q-67 0 -108.5 -39t-44.5 -107h-121q3 114 80.5 185t195.5 71q121 0 202 -65.5
t81 -163.5q0 -58 -34 -109.5t-85 -78.5q70 -26 112 -79t42 -126q0 -120 -90 -189t-221 -69z" />
    <glyph glyph-name="four.inferior" horiz-adv-x="802" 
d="M500 0v201h-451v114l436 545h146v-545h123v-114h-123v-201h-131zM182 315h318v396z" />
    <glyph glyph-name="five.inferior" horiz-adv-x="727" 
d="M352 -10q-117 0 -201.5 75.5t-93.5 182.5h119q9 -69 56 -107.5t120 -38.5q87 0 139 49t52 132q0 85 -52.5 135.5t-138.5 50.5q-130 0 -172 -92h-104l67 483h467v-115h-370l-35 -229q31 24 75 40.5t87 16.5q135 0 219 -80.5t84 -209.5q0 -130 -89 -211.5t-229 -81.5z" />
    <glyph glyph-name="six.inferior" horiz-adv-x="778" 
d="M403 575q134 0 219 -82.5t85 -209.5q0 -126 -89.5 -209.5t-224.5 -83.5q-150 0 -236.5 110t-86.5 291q0 231 96 355t258 124q113 0 193.5 -66t95.5 -169h-123q-12 57 -57.5 92t-104.5 35q-107 0 -171 -87t-69 -222q28 54 88.5 88t126.5 34zM205 285q0 -82 52.5 -134.5
t135.5 -52.5q84 0 137.5 52.5t53.5 134.5q0 80 -53.5 131t-137.5 51q-83 0 -135.5 -51t-52.5 -131z" />
    <glyph glyph-name="seven.inferior" horiz-adv-x="681" 
d="M184 0q0 117 27.5 218.5t101.5 219.5l191 307h-479v115h624v-104l-229 -375q-63 -103 -85 -189.5t-22 -191.5h-129z" />
    <glyph glyph-name="eight.inferior" horiz-adv-x="753" 
d="M377 -10q-133 0 -222 69.5t-89 186.5q0 77 42 134t109 83q-52 29 -84.5 74.5t-32.5 103.5q0 101 77 165t200 64q124 0 201 -63.5t77 -165.5q0 -58 -33 -104t-87 -74q69 -25 111 -83t42 -134q0 -117 -89 -186.5t-222 -69.5zM193 250q0 -69 50 -108.5t134 -39.5
q85 0 134.5 39.5t49.5 108.5t-49.5 109t-134.5 40q-84 0 -134 -40t-50 -109zM223 637q0 -57 42 -91t112 -34q71 0 113 34t42 91q0 58 -42 91.5t-113 33.5t-112.5 -33.5t-41.5 -91.5z" />
    <glyph glyph-name="nine.inferior" horiz-adv-x="778" 
d="M375 285q-134 0 -218.5 83t-84.5 210q0 126 89 209t224 83q150 0 237 -110t87 -291q0 -231 -96.5 -355t-258.5 -124q-113 0 -193 66t-95 169h122q12 -57 57.5 -92t104.5 -35q107 0 171 87.5t69 222.5q-28 -54 -88.5 -88.5t-126.5 -34.5zM195 575q0 -80 53 -131t137 -51
q83 0 135.5 51t52.5 131q0 82 -52.5 134.5t-135.5 52.5q-84 0 -137 -52.5t-53 -134.5z" />
    <glyph glyph-name="eight.ss06" horiz-adv-x="1191" 
d="M596 -16q-212 0 -349.5 110.5t-137.5 280.5q0 71 22.5 126t54.5 86t63.5 53.5t54 42.5t22.5 40t-20.5 38.5t-49 39.5t-57.5 50.5t-49.5 83.5t-20.5 126q0 168 132.5 278.5t334.5 110.5t333.5 -110.5t131.5 -278.5q0 -72 -20 -126t-48.5 -83.5t-57.5 -50.5t-49 -39.5
t-20 -38.5t22 -40t53.5 -42.5t63.5 -53.5t54 -86t22 -126q0 -171 -136 -281t-349 -110zM274 385q0 -106 91.5 -176t230.5 -70q141 0 232.5 70t91.5 176q0 55 -24 98.5t-58 72t-68 53t-58 53.5t-24 61q0 33 22 60.5t53 50.5t62.5 49.5t53.5 69.5t22 98q0 108 -85.5 175.5
t-219.5 67.5q-135 0 -220 -67.5t-85 -175.5q0 -55 21.5 -98t51.5 -69.5t60.5 -49.5t52 -50.5t21.5 -60.5q0 -32 -23 -61t-56 -53.5t-66 -53t-56 -72t-23 -98.5z" />
    <glyph glyph-name="zero.tf" horiz-adv-x="1325" 
d="M625 -16q-254 0 -371 169.5t-117 505.5v115q0 336 117 506t371 170h71q256 0 373 -169.5t117 -506.5v-115q0 -337 -116.5 -506t-373.5 -169h-71zM313 639q0 -252 76.5 -375t241.5 -123h63q165 0 241.5 123t76.5 375v156q0 252 -76.5 374.5t-241.5 122.5h-63
q-165 0 -241.5 -122.5t-76.5 -374.5v-156z" />
    <glyph glyph-name="one.tf" horiz-adv-x="1325" 
d="M268 158h346v977q-35 -50 -129 -50h-135v158h115q73 0 108.5 41t44.5 150h170v-1276h306v-158h-826v158z" />
    <glyph glyph-name="two.tf" horiz-adv-x="1325" 
d="M197 969q-7 219 122 350t351 131q205 0 335 -117.5t130 -310.5q0 -140 -85 -255.5t-249 -197.5l-205 -104q-102 -52 -175 -131.5t-73 -175.5h795v-158h-965v125q0 74 22.5 142t57.5 119t82.5 96.5t92.5 75.5t93 54l219 113q112 57 160.5 130.5t48.5 170.5
q0 122 -79.5 196t-204.5 74q-138 0 -218.5 -89.5t-74.5 -237.5h-180z" />
    <glyph glyph-name="three.tf" horiz-adv-x="1325" 
d="M655 -16q-219 0 -365.5 130t-146.5 337h172q0 -138 96.5 -224t243.5 -86q152 0 240 70.5t88 196.5q0 124 -87.5 191t-240.5 67h-114v153h114q125 0 199 69.5t74 178.5q0 105 -76.5 165t-206.5 60q-124 0 -198.5 -69.5t-81.5 -196.5h-170q7 193 132.5 308.5t319.5 115.5
q199 0 328 -106.5t129 -270.5q0 -106 -58.5 -193t-148.5 -126q118 -38 192 -130.5t74 -217.5q0 -100 -41 -181t-111.5 -133t-162 -80t-193.5 -28z" />
    <glyph glyph-name="four.tf" horiz-adv-x="1325" 
d="M852 0v358h-768v158l739 918h205v-918h223v-158h-223v-358h-176zM270 516h584v725z" />
    <glyph glyph-name="five.tf" horiz-adv-x="1325" 
d="M645 -16q-196 0 -331 118t-154 301h170q15 -125 98.5 -193.5t214.5 -68.5q159 0 253.5 87.5t94.5 240.5q0 154 -94.5 247t-251.5 93q-116 0 -198 -44.5t-115 -123.5h-144l111 793h770v-158h-637l-63 -432q54 51 136 84t163 33q224 0 363.5 -136.5t139.5 -355.5
q0 -217 -146 -351t-380 -134z" />
    <glyph glyph-name="six.tf" horiz-adv-x="1325" 
d="M678 958q222 0 364 -137.5t142 -349.5t-145.5 -349.5t-368.5 -137.5q-245 0 -389 179.5t-144 477.5q0 197 42.5 353t118.5 255.5t177 151t221 51.5q197 0 332.5 -106t163.5 -277h-174q-25 106 -109 166.5t-211 60.5q-168 0 -277 -160t-118 -401q44 99 149.5 161t225.5 62
zM338 473q0 -145 94 -238.5t240 -93.5q145 0 238.5 93.5t93.5 238.5q0 143 -93.5 235.5t-238.5 92.5q-146 0 -240 -92.5t-94 -235.5z" />
    <glyph glyph-name="seven.tf" horiz-adv-x="1325" 
d="M424 0q1 92 9 165.5t30 166t67.5 194t116.5 215.5l330 535h-836v158h1033v-144l-392 -649q-111 -185 -146.5 -329t-37.5 -312h-174z" />
    <glyph glyph-name="eight.tf" horiz-adv-x="1325" 
d="M662 -16q-104 0 -196 28.5t-162 81t-111 134t-41 180.5q0 127 75 226t191 138q-93 44 -151 121.5t-58 179.5q0 166 126 271.5t327 105.5q200 0 326 -105.5t126 -271.5q0 -102 -58 -179.5t-151 -121.5q117 -39 191.5 -137.5t74.5 -226.5q0 -132 -70.5 -230t-184.5 -146
t-254 -48zM330 408q0 -124 90 -195.5t242 -71.5t241.5 71.5t89.5 195.5q0 127 -89.5 199.5t-241.5 72.5t-242 -72.5t-90 -199.5zM383 1071q0 -107 75.5 -169t203.5 -62t203 62t75 169q0 105 -75 165t-203 60t-203.5 -60t-75.5 -165z" />
    <glyph glyph-name="nine.tf" horiz-adv-x="1325" 
d="M647 489q-222 0 -364 138t-142 350t145.5 349.5t368.5 137.5q245 0 389 -179.5t144 -477.5q0 -197 -42.5 -353t-118.5 -255.5t-177 -151t-221 -51.5q-197 0 -332.5 106t-163.5 277h174q25 -106 109 -166.5t211 -60.5q168 0 277 160t118 401q-44 -99 -149.5 -161.5
t-225.5 -62.5zM322 975q0 -143 93 -235.5t238 -92.5q146 0 240 92.5t94 235.5q0 145 -94 238.5t-240 93.5q-145 0 -238 -93.5t-93 -238.5z" />
    <glyph glyph-name="eight.ss06.inferior" horiz-adv-x="741" 
d="M371 -10q-130 0 -214.5 67t-84.5 170q0 43 12.5 76t31 51t36.5 31.5t30.5 25t12.5 23.5q0 14 -17.5 29t-38 29.5t-38 52t-17.5 90.5q0 100 82 167.5t205 67.5t204.5 -67.5t81.5 -167.5q0 -43 -11.5 -75.5t-27.5 -50t-32 -29.5t-27.5 -23t-11.5 -23t13 -23.5t31.5 -25
t36.5 -31.5t31 -51t13 -76q0 -103 -84.5 -170t-216.5 -67zM193 238q0 -58 51.5 -97t128.5 -39q75 0 126.5 39t51.5 97q0 32 -13.5 57.5t-32.5 42t-38.5 31t-33 31t-13.5 34.5t12.5 34t31 29.5t36.5 28.5t30.5 40t12.5 57q0 59 -48.5 97t-123.5 38t-122.5 -38t-47.5 -97
q0 -32 12 -57t29.5 -40t35 -28.5t29.5 -29.5t12 -34t-13 -34.5t-31.5 -31t-37 -31t-31.5 -42t-13 -57.5z" />
    <glyph glyph-name="eight.tf.ss06" horiz-adv-x="1325" 
d="M662 -16q-212 0 -350 110.5t-138 280.5q0 71 22.5 126t54 86t63.5 53.5t54.5 42.5t22.5 40t-20 38.5t-49 39.5t-58 50.5t-49 83.5t-20 126q0 168 132.5 278.5t334.5 110.5t333 -110.5t131 -278.5q0 -72 -20 -126t-48.5 -83.5t-57 -50.5t-48.5 -39.5t-20 -38.5t22 -40
t54 -42.5t63.5 -53.5t53.5 -86t22 -126q0 -171 -136 -281t-349 -110zM340 385q0 -106 91.5 -176t230.5 -70q140 0 231.5 70t91.5 176q0 55 -24 98.5t-57.5 72t-67.5 53t-58 53.5t-24 61q0 33 22 60.5t53 50.5t62.5 49.5t53.5 69.5t22 98q0 108 -85.5 175.5t-219.5 67.5
q-135 0 -220.5 -67.5t-85.5 -175.5q0 -55 21.5 -98t52 -69.5t60.5 -49.5t51.5 -50.5t21.5 -60.5q0 -32 -23 -61t-55.5 -53.5t-65.5 -53t-56 -72t-23 -98.5z" />
    <glyph glyph-name="zero.tf.zero" horiz-adv-x="1325" 
d="M625 -16q-254 0 -371 169.5t-117 505.5v115q0 336 117 506t371 170h71q256 0 372 -169t116 -507v-115q0 -337 -116 -506t-372 -169h-71zM313 639q0 -208 49 -320l486 936q-64 37 -154 37h-63q-165 0 -241.5 -122.5t-76.5 -374.5v-156zM475 180q62 -39 156 -39h63
q165 0 241.5 123t76.5 375v156q0 204 -49 323z" />
    <glyph glyph-name="zero.dnom" horiz-adv-x="804" 
d="M379 -10q-303 0 -303 407v66q0 407 303 407h45q156 0 229.5 -103t73.5 -304v-66q0 -201 -73.5 -304t-229.5 -103h-45zM207 373q0 -269 178 -269h35q178 0 178 269v116q0 267 -178 267h-35q-178 0 -178 -267v-116z" />
    <glyph glyph-name="one.dnom" horiz-adv-x="438" 
d="M326 860v-860h-129v659q-21 -30 -88 -30h-76v114h67q47 0 71 25.5t30 91.5h125z" />
    <glyph glyph-name="two.dnom" horiz-adv-x="724" 
d="M74 573q-4 136 75.5 216.5t215.5 80.5q128 0 208 -72t80 -190q0 -171 -200 -272l-117 -57q-135 -73 -137 -164h456v-115h-587l-2 92q0 99 62.5 171.5t143.5 113.5l134 67q116 61 116 166q0 67 -44 108.5t-113 41.5q-75 0 -118.5 -51.5t-39.5 -135.5h-133z" />
    <glyph glyph-name="three.dnom" horiz-adv-x="739" 
d="M365 -10q-133 0 -223.5 77.5t-90.5 202.5h127q0 -75 53.5 -120.5t133.5 -45.5q83 0 130.5 38.5t47.5 107.5q0 67 -47 103t-131 36h-72v111h69q68 0 108 38t40 99q0 57 -42 90t-112 33q-67 0 -108.5 -39t-44.5 -107h-121q3 114 80.5 185t195.5 71q121 0 202 -65.5
t81 -163.5q0 -58 -34 -109.5t-85 -78.5q70 -26 112 -79t42 -126q0 -120 -90 -189t-221 -69z" />
    <glyph glyph-name="four.dnom" horiz-adv-x="802" 
d="M500 0v201h-451v114l436 545h146v-545h123v-114h-123v-201h-131zM182 315h318v396z" />
    <glyph glyph-name="five.dnom" horiz-adv-x="727" 
d="M352 -10q-117 0 -201.5 75.5t-93.5 182.5h119q9 -69 56 -107.5t120 -38.5q87 0 139 49t52 132q0 85 -52.5 135.5t-138.5 50.5q-130 0 -172 -92h-104l67 483h467v-115h-370l-35 -229q31 24 75 40.5t87 16.5q135 0 219 -80.5t84 -209.5q0 -130 -89 -211.5t-229 -81.5z" />
    <glyph glyph-name="six.dnom" horiz-adv-x="778" 
d="M403 575q134 0 219 -82.5t85 -209.5q0 -126 -89.5 -209.5t-224.5 -83.5q-150 0 -236.5 110t-86.5 291q0 231 96 355t258 124q113 0 193.5 -66t95.5 -169h-123q-12 57 -57.5 92t-104.5 35q-107 0 -171 -87t-69 -222q28 54 88.5 88t126.5 34zM205 285q0 -82 52.5 -134.5
t135.5 -52.5q84 0 137.5 52.5t53.5 134.5q0 80 -53.5 131t-137.5 51q-83 0 -135.5 -51t-52.5 -131z" />
    <glyph glyph-name="seven.dnom" horiz-adv-x="681" 
d="M184 0q0 117 27.5 218.5t101.5 219.5l191 307h-479v115h624v-104l-229 -375q-63 -103 -85 -189.5t-22 -191.5h-129z" />
    <glyph glyph-name="eight.dnom" horiz-adv-x="753" 
d="M377 -10q-133 0 -222 69.5t-89 186.5q0 77 42 134t109 83q-52 29 -84.5 74.5t-32.5 103.5q0 101 77 165t200 64q124 0 201 -63.5t77 -165.5q0 -58 -33 -104t-87 -74q69 -25 111 -83t42 -134q0 -117 -89 -186.5t-222 -69.5zM193 250q0 -69 50 -108.5t134 -39.5
q85 0 134.5 39.5t49.5 108.5t-49.5 109t-134.5 40q-84 0 -134 -40t-50 -109zM223 637q0 -57 42 -91t112 -34q71 0 113 34t42 91q0 58 -42 91.5t-113 33.5t-112.5 -33.5t-41.5 -91.5z" />
    <glyph glyph-name="nine.dnom" horiz-adv-x="778" 
d="M375 285q-134 0 -218.5 83t-84.5 210q0 126 89 209t224 83q150 0 237 -110t87 -291q0 -231 -96.5 -355t-258.5 -124q-113 0 -193 66t-95 169h122q12 -57 57.5 -92t104.5 -35q107 0 171 87.5t69 222.5q-28 -54 -88.5 -88.5t-126.5 -34.5zM195 575q0 -80 53 -131t137 -51
q83 0 135.5 51t52.5 131q0 82 -52.5 134.5t-135.5 52.5q-84 0 -137 -52.5t-53 -134.5z" />
    <glyph glyph-name="zero.numr" horiz-adv-x="804" 
d="M379 563q-303 0 -303 408v65q0 408 303 408h45q156 0 229.5 -103.5t73.5 -304.5v-65q0 -201 -73.5 -304.5t-229.5 -103.5h-45zM207 946q0 -268 178 -268h35q178 0 178 268v117q0 266 -178 266h-35q-178 0 -178 -266v-117z" />
    <glyph glyph-name="one.numr" horiz-adv-x="438" 
d="M326 1434v-861h-129v660q-22 -31 -88 -31h-76v115h67q47 0 71 25.5t30 91.5h125z" />
    <glyph glyph-name="two.numr" horiz-adv-x="724" 
d="M74 1147q-4 136 75.5 216.5t215.5 80.5q128 0 208 -72t80 -190q0 -172 -200 -273l-117 -57q-135 -73 -137 -164h456v-115h-587l-2 93q0 52 19.5 99.5t52 82.5t65.5 59.5t69 42.5l134 68q116 61 116 166q0 67 -43.5 108t-113.5 41q-75 0 -118.5 -51t-39.5 -135h-133z" />
    <glyph glyph-name="three.numr" horiz-adv-x="739" 
d="M365 563q-133 0 -223.5 78t-90.5 203h127q0 -75 53.5 -120.5t133.5 -45.5q84 0 131 38t47 107q0 67 -47 103.5t-131 36.5h-72v110h69q68 0 108 38t40 99q0 57 -42 90t-112 33q-67 0 -108.5 -38.5t-44.5 -106.5h-121q3 114 80.5 185t195.5 71q121 0 202 -66t81 -164
q0 -58 -34 -109.5t-85 -78.5q70 -26 112 -79t42 -126q0 -120 -90 -189t-221 -69z" />
    <glyph glyph-name="four.numr" horiz-adv-x="802" 
d="M500 573v201h-451v115l436 545h146v-545h123v-115h-123v-201h-131zM182 889h318v395z" />
    <glyph glyph-name="five.numr" horiz-adv-x="727" 
d="M352 563q-117 0 -201.5 75.5t-93.5 182.5h119q9 -68 56 -106.5t120 -38.5q87 0 139 48.5t52 131.5q0 85 -52.5 135.5t-138.5 50.5q-130 0 -172 -92h-104l67 484h467v-115h-370l-35 -229q31 24 75 40.5t87 16.5q135 0 219 -81t84 -210q0 -130 -89 -211.5t-229 -81.5z" />
    <glyph glyph-name="six.numr" horiz-adv-x="778" 
d="M403 1149q134 0 219 -83t85 -210q0 -126 -89.5 -209.5t-224.5 -83.5q-150 0 -236.5 110.5t-86.5 291.5q0 231 96 355t258 124q113 0 193.5 -66.5t95.5 -169.5h-123q-12 57 -57.5 92t-104.5 35q-107 0 -171 -87t-69 -222q28 54 88.5 88.5t126.5 34.5zM205 858
q0 -82 52.5 -134t135.5 -52q85 0 138 52t53 134q0 80 -53.5 131t-137.5 51q-83 0 -135.5 -51t-52.5 -131z" />
    <glyph glyph-name="seven.numr" horiz-adv-x="681" 
d="M184 573q0 117 27.5 219t101.5 220l191 307h-479v115h624v-105l-229 -375q-63 -103 -85 -189.5t-22 -191.5h-129z" />
    <glyph glyph-name="eight.numr" horiz-adv-x="753" 
d="M377 563q-133 0 -222 69.5t-89 186.5q0 77 42 134t109 83q-52 29 -84.5 74.5t-32.5 103.5q0 101 77 165.5t200 64.5q124 0 201 -64t77 -166q0 -58 -33 -104t-87 -74q69 -25 111 -83t42 -134q0 -117 -89 -186.5t-222 -69.5zM193 823q0 -68 50 -107.5t134 -39.5
q85 0 134.5 39t49.5 108t-49.5 109.5t-134.5 40.5q-84 0 -134 -40.5t-50 -109.5zM223 1210q0 -57 42 -91t112 -34q71 0 113 34t42 91q0 58 -42 91.5t-113 33.5t-112.5 -33.5t-41.5 -91.5z" />
    <glyph glyph-name="nine.numr" horiz-adv-x="778" 
d="M375 858q-134 0 -218.5 83t-84.5 210q0 126 89 209.5t224 83.5q150 0 237 -110.5t87 -291.5q0 -231 -96.5 -355t-258.5 -124q-113 0 -193 66t-95 170h122q12 -57 57.5 -92t104.5 -35q107 0 171 87t69 222q-28 -54 -88.5 -88.5t-126.5 -34.5zM195 1149q0 -80 53 -131
t137 -51q83 0 135.5 51t52.5 131q0 82 -52.5 134t-135.5 52q-84 0 -137 -52t-53 -134z" />
    <glyph glyph-name="colon.case" horiz-adv-x="473" 
d="M143 1169h187v-190h-187v190zM143 229v191h187v-191h-187z" />
    <glyph glyph-name="bullet.case" horiz-adv-x="722" 
d="M362 563q-78 0 -132 55t-54 132t54 131.5t132 54.5q75 0 130 -55t55 -131t-55 -131.5t-130 -55.5z" />
    <glyph glyph-name="comma.ss05" horiz-adv-x="430" 
d="M86 -279v115h14q38 0 59 26t21 75v63h-61v195h194v-258q0 -103 -57 -159.5t-160 -56.5h-10z" />
    <glyph glyph-name="semicolon.ss05" horiz-adv-x="493" 
d="M123 -279v115h14q38 0 59 26t21 75v63h-61v195h194v-258q0 -103 -57 -159.5t-160 -56.5h-10zM160 750v190h186v-190h-186z" />
    <glyph glyph-name="question.ss05" horiz-adv-x="929" 
d="M248 520q0 112 43.5 178t146.5 123l119 66q148 81 148 213q0 81 -61.5 128.5t-166.5 47.5h-436v158h444q187 0 296.5 -87.5t109.5 -236.5q0 -111 -62 -193.5t-192 -156.5l-102 -55q-67 -37 -95 -75t-28 -118v-188h-164v196zM246 0v190h186v-190h-186z" />
    <glyph glyph-name="questiondown.ss05" horiz-adv-x="915" 
d="M438 -418q-187 0 -296 87.5t-109 236.5q0 113 61.5 195.5t192.5 154.5l102 55q66 36 93.5 74.5t27.5 118.5v205h166v-213q0 -112 -44 -178t-149 -123l-118 -66q-146 -80 -146 -213q0 -81 61 -128.5t164 -47.5h439v-158h-445zM498 842v190h186v-190h-186z" />
    <glyph glyph-name="question.ss06" horiz-adv-x="1013" 
d="M377 444q0 77 22.5 138t58 99.5t79 71t86.5 61.5t78.5 61.5t58 80.5t22.5 109q0 106 -71.5 168.5t-192.5 62.5q-125 0 -211 -72t-96 -202h-176q9 129 76 227t173 149t234 52q202 1 321 -102t119 -277q0 -78 -23 -141t-59.5 -104.5t-81 -76t-88.5 -65t-80.5 -63
t-59.5 -78.5t-23 -103v-116h-166v120zM375 0v190h186v-190h-186z" />
    <glyph glyph-name="questiondown.ss06" horiz-adv-x="1007" 
d="M631 571q0 -77 -22.5 -137.5t-58 -99.5t-79 -71t-87 -61t-79 -61.5t-58 -80.5t-22.5 -109q0 -106 71.5 -169t192.5 -63q125 0 211.5 72.5t96.5 202.5h176q-9 -129 -76 -227t-173 -149t-235 -52q-202 -1 -321 102t-119 277q0 78 23 141t59.5 104t81 75.5t89 65t81 63
t59.5 78.5t23 103v117h166v-121zM446 825v191h187v-191h-187z" />
    <glyph glyph-name="emdash.alt" horiz-adv-x="2242" 
d="M96 578v143h2048v-143h-2048z" />
    <glyph glyph-name="quotesinglbase.ss05" horiz-adv-x="432" 
d="M96 -252v111h13q37 0 57 25t20 69v47h-65v176h194v-227q0 -94 -53 -147.5t-145 -53.5h-21z" />
    <glyph glyph-name="quotedblbase.ss05" horiz-adv-x="737" 
d="M397 -240v111h13q37 0 57 25t20 69v47h-65v176h194v-227q0 -94 -53 -147.5t-145 -53.5h-21zM98 -240v111h13q37 0 57 25t20 69v47h-65v176h194v-227q0 -94 -53 -147.5t-145 -53.5h-21z" />
    <glyph glyph-name="quotedblleft.ss05" horiz-adv-x="753" 
d="M342 1458v-110h-12q-37 0 -57.5 -25.5t-20.5 -69.5v-47h65v-176h-194v227q0 94 53.5 147.5t145.5 53.5h20zM424 1030v227q0 94 53.5 147.5t145.5 53.5h20v-110h-12q-37 0 -57.5 -25.5t-20.5 -69.5v-47h65v-176h-194z" />
    <glyph glyph-name="quotedblright.ss05" horiz-adv-x="745" 
d="M418 1032v111h12q37 0 57.5 25t20.5 69v47h-66v176h195v-227q0 -94 -53.5 -147.5t-145.5 -53.5h-20zM119 1032v111h12q37 0 57.5 25t20.5 69v47h-66v176h195v-227q0 -94 -53.5 -147.5t-145.5 -53.5h-20z" />
    <glyph glyph-name="quoteleft.ss05" horiz-adv-x="454" 
d="M342 1458v-110h-12q-37 0 -57.5 -25.5t-20.5 -69.5v-47h65v-176h-194v227q0 94 53.5 147.5t145.5 53.5h20z" />
    <glyph glyph-name="quoteright.ss05" horiz-adv-x="446" 
d="M119 1032v111h12q37 0 57.5 25t20.5 69v47h-66v176h195v-227q0 -94 -53.5 -147.5t-145.5 -53.5h-20z" />
    <glyph glyph-name="registered.alt" horiz-adv-x="1822" 
d="M612 297v860h338q129 0 204 -70.5t75 -187.5q0 -131 -125 -194q97 -60 106 -187l19 -221h-127l-17 211q-5 56 -40 91.5t-89 35.5h-213v-338h-131zM113 717q0 166 62 314.5t168 254.5t254 168t314 62t314.5 -62t254.5 -168t168 -254.5t62 -314.5q0 -221 -105 -404.5
t-288.5 -289t-405.5 -105.5q-166 0 -314 62t-254 168.5t-168 254.5t-62 314zM231 717q1 -143 54 -270t143.5 -218.5t216 -144.5t266.5 -53t267 53t216 144.5t143 218.5t54 270q-1 143 -54 270t-143 218.5t-216 144.5t-267 53t-266.5 -53t-216 -144.5t-143.5 -218.5t-54 -270
zM743 750h205q76 0 114 43t38 106q0 64 -37.5 104.5t-114.5 40.5h-205v-294z" />
    <glyph glyph-name="uni030C.alt" 
d="M47 1147l68 354h161l-104 -354h-125z" />
    <glyph glyph-name="uni0308.cas" 
d="M438 1409h156v-188h-156v188zM102 1221v188h156v-188h-156z" />
    <glyph glyph-name="uni0307.cas" 
d="M102 1456h189v-229h-189v229z" />
    <glyph glyph-name="gravecomb.cas" 
d="M416 1147h-154l-227 260h190z" />
    <glyph glyph-name="acutecomb.cas" 
d="M43 1147l190 260h191l-227 -260h-154z" />
    <glyph glyph-name="uni030B.cas" 
d="M66 1147l192 260h188l-225 -260h-155zM342 1147l193 260h188l-225 -260h-156z" />
    <glyph glyph-name="uni0302.cas" 
d="M43 1147l223 244h158l225 -244h-155l-148 143l-151 -143h-152z" />
    <glyph glyph-name="uni030C.cas" 
d="M262 1147l-231 246h164l147 -146l145 146h166l-231 -246h-160z" />
    <glyph glyph-name="uni0306.cas" 
d="M344 1149q-129 0 -209 74t-80 194h138q0 -67 41 -103t110 -36q68 0 110 36t42 103h135q0 -120 -79.5 -194t-207.5 -74z" />
    <glyph glyph-name="uni030A.cas" 
d="M293 1116q-108 0 -177 60.5t-69 154.5t68.5 152.5t177.5 58.5t178.5 -59t69.5 -152q0 -94 -69.5 -154.5t-178.5 -60.5zM166 1331q0 -51 35 -81.5t92 -30.5q58 0 94.5 31t36.5 81q0 49 -37 81t-94 32t-92 -31.5t-35 -81.5z" />
    <glyph glyph-name="tildecomb.cas" 
d="M496 1200q-51 0 -96 20.5t-81 41t-65 20.5q-31 0 -52.5 -20t-27.5 -52h-127q7 93 61 151t132 58q52 0 97 -20.5t80 -41t64 -20.5q30 0 52 19.5t30 52.5h125q-6 -95 -59 -152t-133 -57z" />
    <glyph glyph-name="uni0304.cas" 
d="M51 1210v138h545v-138h-545z" />
    </font>
</defs>
</svg>
