<?xml version="1.0" standalone="no"?>
<!DOCTYPE svg PUBLIC "-//W3C//DTD SVG 1.1//EN" "http://www.w3.org/Graphics/SVG/1.1/DTD/svg11.dtd" >
<svg xmlns="http://www.w3.org/2000/svg" xmlns:xlink="http://www.w3.org/1999/xlink" version="1.1">
<metadata>
Created by FontForge 20201107 at Mon Sep  5 16:12:11 2022
 By 
Copyright (c) 2017 by Martin Va'cha. All rights reserved.
</metadata>
<defs>
<font id="Roobert-SemiBold" horiz-adv-x="0" >
  <font-face 
    font-family="Roobert SemiBold"
    font-weight="600"
    font-stretch="normal"
    units-per-em="1000"
    panose-1="0 0 0 0 0 0 0 0 0 0"
    ascent="800"
    descent="-200"
    x-height="504"
    cap-height="700"
    bbox="-191 -246 1321 1076"
    underline-thickness="50"
    underline-position="-125"
    unicode-range="U+000D-F8FF"
  />
<missing-glyph horiz-adv-x="1091" 
d="M287 722.5q-111 -69.5 -176 -183t-65 -244.5q0 -132 64.5 -245t175.5 -181.5t243 -72.5v1000q-131 -4 -242 -73.5zM639 -119q35 70 55.5 179.5t20.5 234.5t-20.5 235t-55.5 180.5t-76 82.5v-994q41 12 76 82zM765 -88.5q58 70.5 90.5 170.5t32.5 213q0 112 -32.5 212
t-90.5 171.5t-131 99.5q52 -64 82.5 -193.5t30.5 -289.5t-30.5 -289t-82.5 -192q73 27 131 97.5zM869.5 564.5q51.5 -124.5 51.5 -269.5t-51 -269t-138 -194q92 37 163.5 107t111 162.5t39.5 193.5t-40 194t-112 163.5t-165 107.5q89 -71 140.5 -195.5z" />
    <glyph glyph-name="f_f.liga" unicode="ff" horiz-adv-x="711" 
d="M114 401h-99v103h99v47q0 77 49 123t131 46h90v-104h-76q-32 0 -51.5 -19t-19.5 -52v-41h196v47q0 77 49 123t131 46h90v-104h-76q-32 0 -51.5 -19t-19.5 -52v-41h147v-103h-147v-401h-123v401h-196v-401h-123v401z" />
    <glyph glyph-name="f_f_i.liga" unicode="ffi" horiz-adv-x="940" 
d="M878 0h-122v401h-200v-401h-123v401h-196v-401h-123v401h-99v103h99v47q0 77 49 123t131 46h90v-104h-76q-32 0 -51.5 -19t-19.5 -52v-41h196v47q0 77 49 123t131 46h90v-104h-76q-32 0 -51.5 -19t-19.5 -52v-41h322v-504z" />
    <glyph glyph-name="f_f_l.liga" unicode="ffl" horiz-adv-x="937" 
d="M875 720v-720h-123v401h-196v-401h-123v401h-196v-401h-123v401h-99v103h99v47q0 77 49 123t131 46h90v-104h-76q-32 0 -51.5 -19t-19.5 -52v-41h196v47q0 77 49 123t131 46h64v-104h-50q-32 0 -51.5 -19t-19.5 -52v-41h196v216h123z" />
    <glyph glyph-name="f_i.liga" unicode="fi" horiz-adv-x="618" 
d="M556 0h-123v401h-196v-401h-123v401h-99v103h99v47q0 77 49 123t131 46h90v-104h-76q-32 0 -51.5 -19t-19.5 -52v-41h319v-504z" />
    <glyph glyph-name="f_l.liga" unicode="fl" horiz-adv-x="618" 
d="M556 720v-720h-123v401h-196v-401h-123v401h-99v103h99v47q0 77 49 123t131 46h64v-104h-50q-32 0 -51.5 -19t-19.5 -52v-41h196v216h123z" />
    <glyph glyph-name="r_f.liga" unicode="rf" horiz-adv-x="674" 
d="M445 673.5q49 46.5 130 46.5h91v-104h-76q-33 0 -52.5 -19t-19.5 -52v-41h148v-103h-148v-401h-122v551q0 76 49 122.5zM62 504h123v-89q19 48 49.5 68.5t79.5 20.5h41v-103h-61q-57 0 -83 -43.5t-26 -119.5v-238h-123v504z" />
    <glyph glyph-name="r_t.liga" unicode="rt" horiz-adv-x="684" 
d="M518 656v-152h141v-103h-141v-220q0 -38 19.5 -57.5t54.5 -19.5h67v-104h-81q-84 0 -133 46.5t-49 129.5v480h122zM62 504h123v-89q19 48 49.5 68.5t79.5 20.5h41v-103h-61q-57 0 -83 -43.5t-26 -119.5v-238h-123v504z" />
    <glyph glyph-name="t_t.liga" unicode="tt" horiz-adv-x="741" 
d="M233 656v-152h220v152h123v-152h140v-103h-140v-220q0 -38 19 -57.5t54 -19.5h67v-104h-81q-84 0 -133 46.5t-49 129.5v225h-220v-220q0 -38 19 -57.5t54 -19.5h67v-104h-81q-84 0 -133 46.5t-49 129.5v225h-99v103h99v152h123z" />
    <glyph glyph-name=".notdef" horiz-adv-x="1091" 
d="M287 722.5q-111 -69.5 -176 -183t-65 -244.5q0 -132 64.5 -245t175.5 -181.5t243 -72.5v1000q-131 -4 -242 -73.5zM639 -119q35 70 55.5 179.5t20.5 234.5t-20.5 235t-55.5 180.5t-76 82.5v-994q41 12 76 82zM765 -88.5q58 70.5 90.5 170.5t32.5 213q0 112 -32.5 212
t-90.5 171.5t-131 99.5q52 -64 82.5 -193.5t30.5 -289.5t-30.5 -289t-82.5 -192q73 27 131 97.5zM869.5 564.5q51.5 -124.5 51.5 -269.5t-51 -269t-138 -194q92 37 163.5 107t111 162.5t39.5 193.5t-40 194t-112 163.5t-165 107.5q89 -71 140.5 -195.5z" />
    <glyph glyph-name=".null" 
 />
    <glyph glyph-name="nonmarkingreturn" unicode="&#xd;" horiz-adv-x="219" 
 />
    <glyph glyph-name="space" unicode=" " horiz-adv-x="219" 
 />
    <glyph glyph-name="space" unicode="&#xa0;" horiz-adv-x="219" 
 />
    <glyph glyph-name="exclam" unicode="!" horiz-adv-x="267" 
d="M55 700h157l-31 -513h-95zM67 129h134v-129h-134v129z" />
    <glyph glyph-name="quotedbl" unicode="&#x22;" horiz-adv-x="402" 
d="M234 720h128l-26 -244h-76zM40 720h128l-26 -244h-76z" />
    <glyph glyph-name="numbersign" unicode="#" horiz-adv-x="692" 
d="M152 196h-122v91h141l28 126h-126v91h145l43 196h95l-42 -196h132l43 196h95l-43 -196h121v-91h-140l-28 -126h126v-91h-145l-43 -196h-95l43 196h-133l-43 -196h-96zM399 287l29 126h-134l-28 -126h133z" />
    <glyph glyph-name="dollar" unicode="$" horiz-adv-x="594" 
d="M245 -4q-96 15 -153.5 78.5t-61.5 160.5h127q5 -59 43 -93.5t100 -34.5q58 0 92.5 23.5t34.5 68.5q0 30 -19 49t-48.5 29.5t-80.5 23.5q-72 18 -117.5 37.5t-78 61.5t-32.5 113q0 76 53 128t141 64v96h114v-99q84 -17 133.5 -72.5t53.5 -137.5h-126q-5 46 -39 74t-89 28
q-52 0 -82 -22t-30 -59q0 -31 19.5 -50t49 -29.5t82.5 -22.5q73 -17 118.5 -35.5t78.5 -60.5t33 -114q0 -83 -54.5 -137t-147.5 -68v-105l-114 1v104z" />
    <glyph glyph-name="percent" unicode="%" horiz-adv-x="704" 
d="M552 700h109l-508 -700h-109zM45.5 629.5q19.5 36.5 54.5 57.5t79 21t78.5 -21t54 -57.5t19.5 -81.5t-19.5 -81.5t-54 -57.5t-78.5 -21t-79 21t-54.5 57.5t-19.5 81.5t19.5 81.5zM131 490.5q18 -22.5 48 -22.5t48.5 22.5t18.5 57.5t-18.5 57.5t-48.5 22.5t-48 -22.5
t-18 -57.5t18 -57.5zM393.5 233.5q19.5 36.5 54.5 57.5t79 21t78.5 -21t54 -57.5t19.5 -81.5t-19.5 -81.5t-54 -57.5t-78.5 -21t-79 21t-54.5 57.5t-19.5 81.5t19.5 81.5zM479 94.5q18 -22.5 48 -22.5t48.5 22.5t18.5 57.5t-18.5 57.5t-48.5 22.5t-48 -22.5t-18 -57.5
t18 -57.5z" />
    <glyph glyph-name="ampersand" unicode="&#x26;" horiz-adv-x="674" 
d="M103.5 47.5q-63.5 55.5 -63.5 151.5q0 69 35 111.5t97 74.5q-32 41 -50 76t-18 69q0 80 51.5 129t135.5 49q83 0 134 -48t51 -126q0 -69 -36.5 -111.5t-99.5 -74.5l116 -128l50 61q30 43 61.5 57.5t77.5 14.5v-114q-54 0 -95 -60l-24 -36l130 -143h-134l-60 66
q-78 -74 -191 -74q-104 0 -167.5 55.5zM188 126q30 -26 84 -26q65 0 119 44l-146 159q-42 -21 -64.5 -45.5t-22.5 -59.5q0 -46 30 -72zM267 429q50 24 76.5 48.5t26.5 60.5q0 34 -22 55t-57 21t-57 -22t-22 -58q0 -40 55 -105z" />
    <glyph glyph-name="quotesingle" unicode="'" horiz-adv-x="208" 
d="M40 720h128l-26 -244h-76z" />
    <glyph glyph-name="parenleft" unicode="(" horiz-adv-x="306" 
d="M73 73q-34 114 -34 225t34 225.5t95 204.5h117q-58 -99 -91.5 -213.5t-33.5 -216.5t33.5 -216.5t91.5 -213.5h-117q-61 91 -95 205z" />
    <glyph glyph-name="parenright" unicode=")" horiz-adv-x="306" 
d="M233 523q34 -114 34 -225t-34 -225.5t-95 -204.5h-117q58 99 91.5 213.5t33.5 216.5t-33.5 216.5t-91.5 213.5h117q61 -91 95 -205z" />
    <glyph glyph-name="asterisk" unicode="*" horiz-adv-x="454" 
d="M80 401l78 106l-125 42l27 81l124 -42v132h86v-132l124 42l27 -81l-125 -42l77 -106l-68 -50l-78 107l-78 -107z" />
    <glyph glyph-name="plus" unicode="+" horiz-adv-x="646" 
d="M70 370h200v200h105v-200h201v-105h-201v-200h-105v200h-200v105z" />
    <glyph glyph-name="comma" unicode="," horiz-adv-x="231" 
d="M42 -39.5q14 16.5 14 42.5v126h125v-137q0 -67 -40 -108.5t-104 -41.5h-50v102h19q22 0 36 16.5z" />
    <glyph glyph-name="hyphen" unicode="-" horiz-adv-x="472" 
d="M43 370h386v-105h-386v105z" />
    <glyph glyph-name="period" unicode="." horiz-adv-x="240" 
d="M187 129v-129h-134v129h134z" />
    <glyph glyph-name="slash" unicode="/" horiz-adv-x="450" 
d="M326 700h112l-315 -700h-111z" />
    <glyph glyph-name="zero" unicode="0" horiz-adv-x="644" 
d="M111 77.5q-63 85.5 -63 248.5v48q0 163 63 248.5t191 85.5h39q254 0 254 -334v-48q0 -334 -254 -334h-39q-128 0 -191 85.5zM214 153.5q34 -46.5 94 -46.5h28q60 0 93.5 46.5t33.5 137.5v118q0 91 -33.5 138t-93.5 47h-28q-61 0 -94.5 -47t-33.5 -138v-118
q0 -91 34 -137.5z" />
    <glyph glyph-name="one" unicode="1" horiz-adv-x="360" 
d="M288 0h-132v515q-8 -13 -33 -20t-50 -7h-54v114h49q43 0 66 21.5t29 76.5h125v-700z" />
    <glyph glyph-name="two" unicode="2" horiz-adv-x="582" 
d="M74.5 590.5q29.5 56.5 86 87t132.5 30.5q72 0 127.5 -27t86.5 -76t31 -114q0 -141 -167 -224l-107 -54q-38 -19 -63.5 -44t-25.5 -54h362v-115h-491l-1 97q-1 76 48 132.5t113 87.5l112 56q87 42 87 119q0 49 -30.5 78t-81.5 29q-55 0 -85.5 -39t-28.5 -103h-133
q-1 77 28.5 133.5z" />
    <glyph glyph-name="three" unicode="3" horiz-adv-x="589" 
d="M160.5 20q-59.5 28 -94 80t-34.5 121h128q0 -54 37.5 -84t94.5 -30q59 0 93 27t34 74q0 46 -34 72t-93 26h-63v110h61q47 0 75 25.5t28 65.5t-30 63.5t-80 23.5q-49 0 -79 -26.5t-31 -77.5h-125q1 66 33.5 115.5t86.5 76t118 26.5q66 0 120 -25t85 -68.5t31 -94.5
q0 -49 -24.5 -89.5t-64.5 -61.5q53 -19 85 -62.5t32 -101.5q0 -65 -35 -113.5t-94 -74t-129 -25.5q-72 0 -131.5 28z" />
    <glyph glyph-name="four" unicode="4" horiz-adv-x="636" 
d="M385 148h-358v115l347 437h144v-437h89v-115h-89v-148h-133v148zM386 263v279l-227 -279h227z" />
    <glyph glyph-name="five" unicode="5" horiz-adv-x="580" 
d="M160 20q-55 28 -88 77t-37 109h125q7 -47 38.5 -73t82.5 -26q60 0 96 34t36 92t-36 93.5t-95 35.5q-88 0 -121 -62h-113l57 400h393v-114h-295l-24 -158q22 20 55 32t73 12q68 0 122.5 -31.5t85.5 -86t31 -121.5q0 -69 -34.5 -124t-95 -86t-135.5 -31q-66 0 -121 28z" />
    <glyph glyph-name="six" unicode="6" horiz-adv-x="619" 
d="M455.5 436q55.5 -31 86.5 -84.5t31 -120.5t-34 -121.5t-93.5 -86t-131.5 -31.5q-85 0 -146.5 43t-93.5 118.5t-32 171.5q0 120 35.5 206.5t99.5 131.5t148 45q70 0 125.5 -26t89 -71.5t41.5 -101.5h-124q-8 40 -43 64.5t-85 24.5q-46 0 -82 -28t-57.5 -77t-24.5 -110
q22 36 68.5 60t94.5 24q72 0 127.5 -31zM225 141.5q35 -34.5 91 -34.5q55 0 89.5 34.5t34.5 89.5q0 54 -34.5 88.5t-89.5 34.5q-56 0 -91 -34.5t-35 -88.5q0 -55 35 -89.5z" />
    <glyph glyph-name="seven" unicode="7" horiz-adv-x="545" 
d="M154.5 179q21.5 80 78.5 171l149 236h-369v114h515v-104l-183 -290q-46 -74 -63 -143.5t-18 -162.5h-132q1 99 22.5 179z" />
    <glyph glyph-name="eight" unicode="8" horiz-adv-x="598" 
d="M166.5 18q-59.5 26 -93.5 74.5t-34 112.5q0 59 32.5 104t85.5 68q-39 24 -63.5 61t-24.5 82q0 54 29.5 97t82 67t119.5 24t119.5 -24t82 -67t29.5 -97q0 -45 -25 -82.5t-66 -60.5q55 -22 87.5 -67t32.5 -105q0 -64 -34 -112.5t-93.5 -74.5t-132.5 -26q-74 0 -133.5 26z
M203.5 133q35.5 -27 96.5 -27q60 0 95 27t35 75q0 47 -35.5 75t-94.5 28q-60 0 -96 -28t-36 -75q0 -48 35.5 -75zM221 452q29 -23 79 -23q49 0 78 23t29 63t-29 63t-78 23q-50 0 -79 -23t-29 -63t29 -63z" />
    <glyph glyph-name="nine" unicode="9" horiz-adv-x="620" 
d="M164.5 264q-55.5 31 -86.5 84.5t-31 120.5t34 121.5t93.5 86t131.5 31.5q85 0 146.5 -43t93.5 -118.5t32 -171.5q0 -120 -35.5 -206.5t-99.5 -131.5t-148 -45q-70 0 -125.5 26t-89 71.5t-41.5 101.5h124q8 -40 43 -64.5t85 -24.5q46 0 82 28t57.5 77t24.5 110
q-22 -36 -68.5 -60t-94.5 -24q-72 0 -127.5 31zM214.5 380.5q34.5 -34.5 89.5 -34.5q56 0 91 34.5t35 88.5q0 55 -35 89.5t-91 34.5q-55 0 -89.5 -34.5t-34.5 -89.5q0 -54 34.5 -88.5z" />
    <glyph glyph-name="colon" unicode=":" horiz-adv-x="243" 
d="M189 486v-129h-134v129h134zM189 129v-129h-134v129h134z" />
    <glyph glyph-name="semicolon" unicode=";" horiz-adv-x="270" 
d="M62 -39.5q14 16.5 14 42.5v126h125v-137q0 -67 -40 -108.5t-104 -41.5h-50v102h19q22 0 36 16.5zM206 486v-129h-134v129h134z" />
    <glyph glyph-name="less" unicode="&#x3c;" horiz-adv-x="646" 
d="M120 257v106l399 200v-124l-270 -129l270 -129v-123z" />
    <glyph glyph-name="equal" unicode="=" horiz-adv-x="646" 
d="M70 238h506v-105h-506v105zM70 462h506v-105h-506v105z" />
    <glyph glyph-name="greater" unicode="&#x3e;" horiz-adv-x="646" 
d="M127 181l270 129l-270 129v124l400 -200v-106l-400 -199v123z" />
    <glyph glyph-name="question" unicode="?" horiz-adv-x="489" 
d="M115.5 220.5q-42.5 33.5 -42.5 96.5q0 49 23 77.5t55 41.5t84 25q56 13 82.5 27t26.5 46q0 35 -25.5 54.5t-70.5 19.5q-48 0 -78.5 -28t-31.5 -76h-116q1 61 30 107.5t80 71.5t116 25t114.5 -22t77 -62.5t27.5 -93.5q0 -55 -27 -87t-63.5 -45.5t-93.5 -26.5
q-47 -9 -69 -19t-22 -30q0 -39 50 -39h126v-96h-138q-72 0 -114.5 33.5zM172 129h134v-129h-134v129z" />
    <glyph glyph-name="at" unicode="@" horiz-adv-x="912" 
d="M702.5 681q79.5 -43 124 -119t44.5 -173v-77q0 -97 -43 -154t-116 -57q-49 0 -86.5 19t-47.5 50q-14 -33 -50 -53.5t-93 -20.5q-88 0 -139.5 56t-51.5 149q0 95 50.5 152.5t139.5 57.5q37 0 68 -14t49 -38v45h102v-251q0 -22 15.5 -36.5t38.5 -14.5q29 0 44 26.5t15 83.5
v77q0 67 -31 120.5t-87 83.5t-128 30h-116q-75 0 -133.5 -31.5t-91 -87t-32.5 -126.5v-132q0 -77 31.5 -137t88.5 -93.5t129 -33.5h231v-101h-231q-103 0 -183.5 46t-125.5 129t-45 190v132q0 100 46 179t128.5 123t187.5 44h116q103 0 182.5 -43zM372.5 215.5
q29.5 -33.5 77.5 -33.5q49 1 78 34t29 88q0 54 -29 87t-78 33q-48 0 -77.5 -33t-29.5 -87q0 -55 29.5 -88.5z" />
    <glyph glyph-name="A" unicode="A" horiz-adv-x="676" 
d="M244 275h188l-94 256zM276 700h124l270 -700h-137l-60 163h-270l-60 -163h-137z" />
    <glyph glyph-name="B" unicode="B" horiz-adv-x="632" 
d="M73 700h270q99 0 159.5 -47.5t60.5 -132.5q0 -46 -25 -83t-61 -55q54 -20 87 -64t33 -111q0 -97 -66.5 -152t-177.5 -55h-280v700zM340 115q130 0 130 99q0 100 -130 100h-137v-199h137zM334 426q52 0 78.5 21.5t26.5 62.5t-27 62.5t-80 21.5h-129v-168h131z" />
    <glyph glyph-name="C" unicode="C" horiz-adv-x="732" 
d="M212 33q-79 41 -126 121.5t-47 195.5q0 114 47.5 195t126.5 122t174 41q83 0 151.5 -30.5t112 -86t52.5 -127.5h-139q-7 58 -57 94t-121 36q-62 0 -110 -28t-75.5 -83.5t-27.5 -132.5t27.5 -132t75.5 -83t110 -28q72 0 122.5 36t59.5 93h132q-7 -72 -49 -127.5
t-110.5 -86t-153.5 -30.5q-96 0 -175 41z" />
    <glyph glyph-name="D" unicode="D" horiz-adv-x="696" 
d="M73 700h227q99 0 180.5 -39.5t129.5 -118.5t48 -192t-48 -192t-129.5 -118.5t-180.5 -39.5h-227v700zM288 115q101 0 168.5 57t67.5 178t-67.5 178.5t-168.5 57.5h-84v-471h84z" />
    <glyph glyph-name="E" unicode="E" horiz-adv-x="583" 
d="M73 700h465v-114h-334v-170h268v-114h-268v-187h345v-115h-476v700z" />
    <glyph glyph-name="F" unicode="F" horiz-adv-x="556" 
d="M73 700h465v-114h-334v-178h268v-114h-268v-294h-131v700z" />
    <glyph glyph-name="G" unicode="G" horiz-adv-x="748" 
d="M211 33q-78 41 -125 121.5t-47 195.5t48 195.5t128 121.5t174 41q84 0 152.5 -31t109.5 -87t46 -128h-132q-9 59 -57.5 95.5t-119.5 36.5q-63 0 -113.5 -29t-79.5 -84t-29 -131t29 -132.5t79 -86.5t112 -30q47 0 90 19t69 50.5t26 68.5q0 17 -9.5 26.5t-25.5 9.5h-142
v101h185q47 0 82 -33t35 -82v-261h-118v111q-20 -53 -74 -86t-123 -33q-92 0 -170 41z" />
    <glyph glyph-name="H" unicode="H" horiz-adv-x="720" 
d="M648 700v-700h-132v301h-312v-301h-131v700h131v-284h312v284h132z" />
    <glyph glyph-name="I" unicode="I" horiz-adv-x="277" 
d="M73 700h132v-700h-132v700z" />
    <glyph glyph-name="J" unicode="J" horiz-adv-x="357" 
d="M141 136.5q15 21.5 15 68.5v495h132v-500q0 -100 -45.5 -150t-129.5 -50h-100v115h76q37 0 52 21.5z" />
    <glyph glyph-name="K" unicode="K" horiz-adv-x="666" 
d="M73 0v700h132v-306l282 306h164l-257 -278l284 -422h-165l-210 324l-98 -106v-218h-132z" />
    <glyph glyph-name="L" unicode="L" horiz-adv-x="541" 
d="M73 700h132v-585h327v-115h-459v700z" />
    <glyph glyph-name="M" unicode="M" horiz-adv-x="873" 
d="M73 700h152l212 -517l212 517h152v-700h-124v464l-190 -464h-100l-191 464v-464h-123v700z" />
    <glyph glyph-name="N" unicode="N" horiz-adv-x="723" 
d="M73 700h142l304 -494v494h131v-700h-142l-304 493v-493h-131v700z" />
    <glyph glyph-name="O" unicode="O" horiz-adv-x="782" 
d="M210.5 38.5q-80.5 46.5 -126.5 128t-46 183.5t46 183.5t126.5 128t181.5 46.5q100 0 180.5 -46.5t126.5 -128t46 -183.5t-46 -183.5t-126.5 -128t-180.5 -46.5q-101 0 -181.5 46.5zM199.5 225.5q28.5 -55.5 78.5 -87t113 -31.5t113.5 31.5t79 87t28.5 124.5t-28.5 125
t-79 87.5t-113.5 31.5t-113 -31.5t-78.5 -87.5t-28.5 -125t28.5 -124.5z" />
    <glyph glyph-name="P" unicode="P" horiz-adv-x="605" 
d="M73 700h280q72 0 124.5 -27.5t80.5 -76.5t28 -113t-28 -113t-80.5 -76.5t-124.5 -27.5h-148v-266h-132v700zM347 377q55 0 82.5 30t27.5 76t-27.5 76t-82.5 30h-142v-212h142z" />
    <glyph glyph-name="Q" unicode="Q" horiz-adv-x="782" 
d="M615 -204h-95q-96 0 -140.5 38.5t-44.5 124.5v37q-86 13 -153.5 61.5t-105.5 124.5t-38 168q0 102 46 183.5t126.5 128t181.5 46.5q100 0 180.5 -46.5t126.5 -128t46 -183.5q0 -91 -37.5 -167t-104.5 -125t-152 -62v-31q0 -39 17.5 -55t57.5 -16h89v-98zM199.5 225.5
q28.5 -55.5 78.5 -87t113 -31.5t113.5 31.5t79 87t28.5 124.5t-28.5 125t-79 87.5t-113.5 31.5t-113 -31.5t-78.5 -87.5t-28.5 -125t28.5 -124.5z" />
    <glyph glyph-name="R" unicode="R" horiz-adv-x="647" 
d="M73 700h286q72 0 124.5 -27.5t80.5 -76t28 -112.5q0 -102 -94 -151q36 -23 57.5 -61t25.5 -85l17 -187h-131l-17 172q-3 40 -29 65.5t-65 25.5h-151v-263h-132v700zM353 377q55 0 82.5 30.5t27.5 76.5t-27.5 75.5t-82.5 29.5h-148v-212h148z" />
    <glyph glyph-name="S" unicode="S" horiz-adv-x="601" 
d="M163.5 22q-59.5 30 -94 85t-37.5 128h127q5 -59 43 -93.5t100 -34.5q58 0 92.5 23.5t34.5 68.5q0 30 -19 49t-48.5 29.5t-80.5 23.5q-72 18 -117.5 37.5t-78 61.5t-32.5 113q0 57 30.5 101.5t85.5 69t125 24.5q73 0 129.5 -26.5t89 -75.5t35.5 -114h-126q-5 46 -39 74
t-89 28q-52 0 -82 -22t-30 -59q0 -31 19.5 -50t49 -29.5t82.5 -22.5q73 -17 118.5 -35.5t78.5 -60.5t33 -114q0 -64 -33 -111t-92 -72.5t-136 -25.5q-79 0 -138.5 30z" />
    <glyph glyph-name="T" unicode="T" horiz-adv-x="575" 
d="M222 586h-212v114h555v-114h-211v-586h-132v586z" />
    <glyph glyph-name="U" unicode="U" horiz-adv-x="683" 
d="M141.5 60q-74.5 68 -74.5 193v447h124v-448q0 -70 41 -107t110 -37t110 37t41 107v448h123v-447q0 -125 -74.5 -193t-199.5 -68q-126 0 -200.5 68z" />
    <glyph glyph-name="V" unicode="V" horiz-adv-x="658" 
d="M9 700h133l187 -537l187 537h133l-256 -700h-128z" />
    <glyph glyph-name="W" unicode="W" horiz-adv-x="999" 
d="M11 700h134l145 -505l153 505h112l153 -505l146 505h133l-208 -700h-131l-149 495l-149 -495h-129z" />
    <glyph glyph-name="X" unicode="X" horiz-adv-x="588" 
d="M225 352l-213 348h136l146 -237l146 237h137l-214 -349l217 -351h-139l-146 239l-147 -239h-140z" />
    <glyph glyph-name="Y" unicode="Y" horiz-adv-x="640" 
d="M254 291l-241 409h143l164 -286l165 286h142l-241 -409v-291h-132v291z" />
    <glyph glyph-name="Z" unicode="Z" horiz-adv-x="602" 
d="M28 113l388 474h-368v113h516v-113l-387 -474h388v-113h-537v113z" />
    <glyph glyph-name="bracketleft" unicode="[" horiz-adv-x="328" 
d="M70 728h228v-101h-109v-657h109v-102h-228v860z" />
    <glyph glyph-name="backslash" unicode="\" horiz-adv-x="450" 
d="M327 0l-315 700h112l314 -700h-111z" />
    <glyph glyph-name="bracketright" unicode="]" horiz-adv-x="328" 
d="M258 -132h-228v101h109v657h-109v102h228v-860z" />
    <glyph glyph-name="asciicircum" unicode="^" horiz-adv-x="646" 
d="M273 700h100l203 -286h-123l-130 181l-131 -181h-122z" />
    <glyph glyph-name="underscore" unicode="_" horiz-adv-x="602" 
d="M48 0h506v-105h-506v105z" />
    <glyph glyph-name="grave" unicode="`" horiz-adv-x="600" 
d="M105 560l-102 148h133l74 -148h-105z" />
    <glyph glyph-name="a" unicode="a" horiz-adv-x="537" 
d="M121 11.5q-38 19.5 -59 54t-21 77.5q0 73 51.5 116t137.5 43h93q18 0 27 9.5t9 24.5q0 38 -27 61t-75 23q-47 0 -75.5 -25t-30.5 -61h-111q4 50 32 90.5t77.5 64t112.5 23.5q64 0 114 -23.5t77.5 -66t27.5 -98.5v-324h-122v75q-15 -38 -56 -60.5t-95 -22.5
q-49 0 -87 19.5zM181 101q21 -18 56 -18q57 0 89.5 36t32.5 94v8h-113q-39 0 -62.5 -20t-23.5 -53q0 -29 21 -47z" />
    <glyph glyph-name="b" unicode="b" horiz-adv-x="604" 
d="M245 11q-39 19 -60 52v-63h-123v720h123v-277q21 31 60 50t87 19q74 0 127.5 -32.5t82 -91.5t28.5 -136t-28.5 -136t-82.5 -91.5t-128 -32.5q-47 0 -86 19zM214 140q37 -42 99 -42q61 0 98 42t37 112t-37 112t-98 42q-62 0 -99 -42t-37 -112t37 -112z" />
    <glyph glyph-name="c" unicode="c" horiz-adv-x="559" 
d="M154 26.5q-58 34.5 -89.5 94t-31.5 131.5t31.5 131.5t89.5 94t135 34.5q63 0 116 -24t86.5 -67.5t38.5 -100.5h-123q-6 37 -38.5 61.5t-76.5 24.5q-63 0 -97.5 -43t-34.5 -111t35 -111t98 -43q44 0 75 22.5t41 60.5h123q-7 -55 -40.5 -98t-86 -67t-116.5 -24
q-77 0 -135 34.5z" />
    <glyph glyph-name="d" unicode="d" horiz-adv-x="604" 
d="M145 24.5q-54 32.5 -82.5 91.5t-28.5 136t28.5 136t82 91.5t127.5 32.5q48 0 87 -18.5t61 -50.5v277h122v-720h-122v63q-22 -33 -61 -52t-85 -19q-75 0 -129 32.5zM193 140q37 -42 98 -42q62 0 99.5 42t37.5 112t-37.5 112t-99.5 42q-61 0 -98 -42t-37 -112t37 -112z" />
    <glyph glyph-name="e" unicode="e" horiz-adv-x="560" 
d="M151.5 29q-58.5 37 -89 97t-30.5 128q0 69 28 127.5t84 94.5t135 36q80 0 135.5 -34.5t82.5 -90t27 -118.5q0 -22 -2 -42h-372q7 -61 44 -97t95 -36q47 0 77 19t40 55h120q-14 -80 -79 -128t-158 -48q-79 0 -137.5 37zM401 308q-4 50 -36.5 81t-85.5 31q-107 0 -126 -112
h248z" />
    <glyph glyph-name="f" unicode="f" horiz-adv-x="392" 
d="M114 401h-99v103h99v47q0 77 49 123t131 46h90v-104h-76q-32 0 -51.5 -19t-19.5 -52v-41h147v-103h-147v-401h-123v401z" />
    <glyph glyph-name="g" unicode="g" horiz-adv-x="604" 
d="M104 -106h232q37 0 60.5 25.5t23.5 64.5v72q-19 -29 -59 -46.5t-87 -17.5q-75 0 -129 32.5t-82.5 91.5t-28.5 136t28.5 136t82 91.5t127.5 32.5q47 0 86 -17.5t62 -47.5v57h122v-532q0 -79 -52 -127.5t-136 -48.5h-250v98zM193 140q37 -42 98 -42q62 0 99.5 42t37.5 112
t-37.5 112t-99.5 42q-61 0 -98 -42t-37 -112t37 -112z" />
    <glyph glyph-name="h" unicode="h" horiz-adv-x="586" 
d="M62 720h123v-294q20 41 61.5 63.5t95.5 22.5q56 0 98.5 -25.5t65.5 -70.5t23 -104v-312h-122v286q0 52 -29.5 84.5t-76.5 32.5q-51 0 -83.5 -36t-32.5 -92v-275h-123v720z" />
    <glyph glyph-name="i" unicode="i" horiz-adv-x="247" 
d="M62 504h123v-504h-123v504zM189 720v-137h-132v137h132z" />
    <glyph glyph-name="j" unicode="j" horiz-adv-x="247" 
d="M-36 -106h35q29 0 46 20.5t17 57.5v532h123v-544q0 -77 -44.5 -120.5t-123.5 -43.5h-53v98zM190 720v-137h-132v137h132z" />
    <glyph glyph-name="k" unicode="k" horiz-adv-x="540" 
d="M62 720h124v-399l192 183h156l-205 -197l222 -307h-148l-158 225l-59 -57v-168h-124v720z" />
    <glyph glyph-name="l" unicode="l" horiz-adv-x="247" 
d="M62 720h123v-720h-123v720z" />
    <glyph glyph-name="m" unicode="m" horiz-adv-x="890" 
d="M62 504h123v-79q19 40 56.5 63.5t88.5 23.5q60 0 100.5 -24.5t57.5 -71.5q18 41 63.5 68.5t103.5 27.5q53 0 94 -24t63 -66.5t22 -95.5v-326h-123v289q0 54 -26 86t-70 32q-49 0 -77.5 -32.5t-28.5 -85.5v-289h-122v289q0 54 -26 86t-70 32q-49 0 -77.5 -32t-28.5 -86
v-289h-123v504z" />
    <glyph glyph-name="n" unicode="n" horiz-adv-x="586" 
d="M62 504h123v-78q20 41 61.5 63.5t95.5 22.5q56 0 98.5 -25.5t65.5 -70.5t23 -104v-312h-122v286q0 52 -29.5 84.5t-76.5 32.5q-51 0 -83.5 -36t-32.5 -92v-275h-123v504z" />
    <glyph glyph-name="o" unicode="o" horiz-adv-x="591" 
d="M160 25.5q-60 33.5 -94 93t-34 133.5t34 133.5t94 93t136 33.5q75 0 135 -33.5t94 -93t34 -133.5t-34 -133.5t-94 -93t-135 -33.5q-76 0 -136 33.5zM194.5 141q38.5 -43 101.5 -43q62 0 100.5 43t38.5 111t-38.5 111t-100.5 43q-63 0 -101.5 -42.5t-38.5 -111.5
q0 -68 38.5 -111z" />
    <glyph glyph-name="p" unicode="p" horiz-adv-x="604" 
d="M62 504h123v-63q23 33 62.5 52t88.5 19q71 0 124 -32.5t81.5 -91.5t28.5 -136t-30 -136t-85 -91.5t-128 -32.5q-46 0 -84 17t-58 46v-259h-123v708zM214 140q37 -42 99 -42q61 0 98 42t37 112t-37 112t-98 42q-62 0 -99 -42t-37 -112t37 -112z" />
    <glyph glyph-name="q" unicode="q" horiz-adv-x="604" 
d="M420 -204v259q-21 -29 -59 -46t-84 -17q-73 0 -128 32.5t-85 91.5t-30 136t28.5 136t81.5 91.5t124 32.5q49 0 89 -19t63 -52v63h122v-708h-122zM193 140q37 -42 98 -42q62 0 99.5 42t37.5 112t-37.5 112t-99.5 42q-61 0 -98 -42t-37 -112t37 -112z" />
    <glyph glyph-name="r" unicode="r" horiz-adv-x="385" 
d="M211 357.5q-26 -43.5 -26 -119.5v-238h-123v504h123v-89q19 48 49.5 68.5t79.5 20.5h59v-103h-79q-57 0 -83 -43.5z" />
    <glyph glyph-name="s" unicode="s" horiz-adv-x="466" 
d="M89 39.5q-57 47.5 -61 128.5h112q4 -36 30.5 -57t67.5 -21q35 0 57 15.5t22 38.5q0 22 -13.5 34.5t-34 18t-57.5 12.5q-54 10 -87.5 22t-58 43t-24.5 88q0 43 23.5 77.5t64.5 53.5t92 19q89 0 145 -44.5t60 -118.5h-113q-4 33 -30.5 52t-58.5 19q-33 0 -52.5 -14.5
t-19.5 -39.5q0 -30 24.5 -40.5t77.5 -17.5q55 -8 90.5 -19.5t61 -44t25.5 -95.5q0 -71 -53 -114t-141 -43q-92 0 -149 47.5z" />
    <glyph glyph-name="t" unicode="t" horiz-adv-x="398" 
d="M233 656v-152h140v-103h-140v-220q0 -38 19 -57.5t54 -19.5h67v-104h-81q-84 0 -133 46.5t-49 129.5v225h-99v103h99v152h123z" />
    <glyph glyph-name="u" unicode="u" horiz-adv-x="586" 
d="M523 0h-122v78q-21 -41 -62 -63.5t-95 -22.5q-85 0 -136.5 55.5t-51.5 144.5v312h123v-286q0 -52 29 -84.5t76 -32.5q52 0 84.5 36t32.5 92v275h122v-504z" />
    <glyph glyph-name="v" unicode="v" horiz-adv-x="505" 
d="M11 504h125l116 -348l116 348h126l-184 -504h-115z" />
    <glyph glyph-name="w" unicode="w" horiz-adv-x="766" 
d="M12 504h123l93 -337l99 337h113l98 -337l93 337h123l-161 -504h-109l-101 339l-101 -339h-109z" />
    <glyph glyph-name="x" unicode="x" horiz-adv-x="495" 
d="M-1 0l182 263l-169 241h135l101 -145l100 145h134l-168 -241l182 -263h-131l-118 168l-118 -168h-130z" />
    <glyph glyph-name="y" unicode="y" horiz-adv-x="505" 
d="M195 1l-184 503h125l116 -346l116 346h126l-154 -422l-100 -286h-117z" />
    <glyph glyph-name="z" unicode="z" horiz-adv-x="493" 
d="M30 104l278 297h-262v103h402v-103l-275 -297h290v-104h-433v104z" />
    <glyph glyph-name="braceleft" unicode="{" horiz-adv-x="341" 
d="M142 -104q-32 28 -32 74v197q0 42 -18.5 60.5t-61.5 18.5v105q43 0 61.5 18t18.5 60v197q0 46 32 74t79 28h85v-101h-28q-27 0 -38 -10.5t-11 -37.5v-183q0 -46 -18.5 -68.5t-54.5 -29.5q36 -7 54.5 -29.5t18.5 -68.5v-183q0 -26 10.5 -36.5t38.5 -10.5h28v-102h-85
q-47 0 -79 28z" />
    <glyph glyph-name="bar" unicode="|" horiz-adv-x="262" 
d="M71 750h120v-800h-120v800z" />
    <glyph glyph-name="braceright" unicode="}" horiz-adv-x="341" 
d="M199 700q32 -28 32 -74v-197q0 -42 18.5 -60.5t61.5 -18.5v-105q-43 0 -61.5 -18t-18.5 -60v-197q0 -46 -32 -74t-79 -28h-85v101h28q28 0 38.5 10.5t10.5 37.5v183q0 46 18.5 68.5t54.5 29.5q-36 7 -54.5 29.5t-18.5 68.5v183q0 26 -10.5 36.5t-38.5 10.5h-28v102h85
q47 0 79 -28z" />
    <glyph glyph-name="asciitilde" unicode="~" horiz-adv-x="646" 
d="M365 245q-25 11 -58 32q-24 16 -40.5 24t-35.5 8q-28 0 -44.5 -20.5t-18.5 -55.5h-115q2 58 25.5 102t62.5 68t86 24q35 0 61 -11t59 -33q24 -16 39.5 -23.5t32.5 -7.5q26 0 42.5 19t20.5 57h114q-3 -59 -26.5 -103t-61.5 -67.5t-84 -23.5q-34 0 -59 11z" />
    <glyph glyph-name="exclamdown" unicode="&#xa1;" horiz-adv-x="255" 
d="M80 309h95l31 -513h-157zM61 496h134v-129h-134v129z" />
    <glyph glyph-name="cent" unicode="&#xa2;" horiz-adv-x="587" 
d="M250 -3q-94 17 -148.5 87.5t-54.5 167.5t54.5 167.5t148.5 87.5v105h114v-106q75 -16 124 -65.5t56 -120.5h-123q-6 37 -38.5 61.5t-76.5 24.5q-63 0 -97.5 -43t-34.5 -111t35 -111t98 -43q44 0 75 22.5t41 60.5h123q-10 -69 -59 -118t-123 -65v-106h-114v105z" />
    <glyph glyph-name="sterling" unicode="&#xa3;" horiz-adv-x="613" 
d="M155 278q0 7 -2 23h-115v102h75q-23 51 -23 95q0 64 29 111.5t81 73t121 25.5q102 0 165.5 -58t70.5 -153h-132q-3 47 -32 72t-72 25q-45 0 -73 -27.5t-28 -75.5q0 -23 6 -43.5t18 -44.5h216v-102h-176q2 -14 2 -23q0 -42 -20 -85.5t-51 -77.5h200q17 0 26 9.5t9 25.5v46
h131v-70q0 -61 -32 -93.5t-94 -32.5h-394v108q94 60 94 170z" />
    <glyph glyph-name="currency" unicode="&#xa4;" horiz-adv-x="657" 
d="M472 30q-63 -38 -143 -38q-81 0 -145 39l-71 -72l-78 77l72 71q-41 65 -41 145q0 79 40 145l-71 71l77 77l72 -72q62 39 145 39q82 0 144 -39l71 72l77 -77l-70 -71q41 -65 41 -145q0 -81 -41 -146l70 -70l-78 -77zM227.5 141q38.5 -43 101.5 -43q62 0 100.5 43t38.5 111
t-38.5 111t-100.5 43q-63 0 -101.5 -42.5t-38.5 -111.5q0 -68 38.5 -111z" />
    <glyph glyph-name="yen" unicode="&#xa5;" horiz-adv-x="651" 
d="M79 375h131l-192 325h143l164 -286l165 286h142l-192 -325h133v-87h-182v-80h182v-87h-182v-121h-132v121h-180v87h180v80h-180v87z" />
    <glyph glyph-name="brokenbar" unicode="&#xa6;" horiz-adv-x="262" 
d="M71 750h120v-349h-120v349zM71 299h120v-349h-120v349z" />
    <glyph glyph-name="section" unicode="&#xa7;" horiz-adv-x="594" 
d="M168 18q4 -53 38 -84t89 -31q50 0 80.5 21.5t30.5 60.5q0 27 -18 43.5t-44.5 25.5t-75.5 21q-70 17 -114 35.5t-76 58.5t-32 109q0 64 62 119q-46 48 -46 126q0 54 28.5 96t79.5 65.5t117 23.5q104 0 168.5 -55.5t68.5 -149.5h-123q-4 41 -34.5 65.5t-79.5 24.5
q-45 0 -71.5 -19t-26.5 -51q0 -28 18.5 -45t46 -26.5t76.5 -20.5q71 -16 115 -33t76 -56.5t32 -109.5q0 -66 -57 -123q42 -45 42 -122q-1 -92 -67.5 -145.5t-175.5 -53.5q-74 0 -130 28.5t-87.5 80.5t-34.5 121h125zM192.5 233q18.5 -17 46.5 -26.5t77 -20.5q36 -8 71 -18
q34 26 34 62q0 27 -18 43.5t-45 26t-74 20.5q-12 3 -32.5 8.5t-34.5 9.5q-20 -11 -31.5 -26.5t-11.5 -33.5q0 -28 18.5 -45z" />
    <glyph glyph-name="dieresis" unicode="&#xa8;" horiz-adv-x="384" 
d="M364 698v-113h-109v113h109zM66 697h109v-113h-109v113z" />
    <glyph glyph-name="copyright" unicode="&#xa9;" horiz-adv-x="875" 
d="M332.5 162.5q-47.5 24.5 -76 73t-28.5 117.5q0 68 28.5 117t76.5 73.5t105 24.5q78 0 132 -41t63 -110h-94q-5 33 -33 53t-68 20q-53 0 -86.5 -36t-33.5 -101q0 -66 33.5 -102t86.5 -36q41 0 69 19.5t34 53.5h90q-7 -68 -60 -109t-133 -41q-58 0 -105.5 24.5zM98.5 549
q50.5 89 140 140t199.5 51t199 -51t140 -140t51 -199t-51 -199t-140 -140t-199 -51t-199.5 51t-140 140t-50.5 199t50.5 199zM161 186q41 -73 114 -115t163 -42q89 0 161.5 42t114 115t41.5 164t-41.5 164t-114 115t-161.5 42q-90 0 -163 -42t-114 -115t-41 -164t41 -164z
" />
    <glyph glyph-name="ordfeminine" unicode="&#xaa;" horiz-adv-x="359" 
d="M70 422q-28 26 -28 65q0 45 29.5 70t81.5 25h54q20 0 20 21q0 19 -15.5 32t-39.5 13q-26 0 -41 -15t-15 -34h-74q3 46 38.5 77.5t90.5 31.5q60 0 97.5 -30.5t37.5 -80.5v-196h-79v43q-8 -21 -32 -34.5t-54 -13.5q-43 0 -71 26zM133 466.5q12 -9.5 29 -9.5q30 0 47.5 18.5
t17.5 49.5v6h-58q-48 0 -48 -40q0 -15 12 -24.5z" />
    <glyph glyph-name="guillemotleft" unicode="&#xab;" horiz-adv-x="700" 
d="M330 274v72l313 215v-124l-190 -127l190 -127v-124zM45 274v72l313 215v-124l-190 -127l190 -127v-124z" />
    <glyph glyph-name="logicalnot" unicode="&#xac;" horiz-adv-x="646" 
d="M443 297h-372v109h494v-277h-122v168z" />
    <glyph glyph-name="uni00AD" unicode="&#xad;" horiz-adv-x="472" 
d="M43 370h386v-105h-386v105z" />
    <glyph glyph-name="registered" unicode="&#xae;" horiz-adv-x="537" 
d="M153 322q-51 29 -79.5 80t-28.5 115t28.5 115t79.5 79.5t115 28.5q65 0 116 -28.5t79.5 -79.5t28.5 -115t-28.5 -115t-79.5 -80t-116 -29q-64 0 -115 29zM122 429q21 -39 59 -61t87 -22q75 0 121.5 48t46.5 123q0 74 -46.5 121.5t-121.5 47.5q-49 0 -87 -22t-59 -60.5
t-21 -86.5q0 -49 21 -88zM179 640h101q40 0 62 -19.5t22 -52.5q0 -20 -9 -34.5t-23 -20.5q12 -8 18 -19t8 -30l7 -65h-57l-6 54q-2 17 -9 24t-21 7h-35v-85h-58v241zM275 535q15 0 23 7.5t8 19.5t-8 19t-23 7h-38v-53h38z" />
    <glyph glyph-name="macron" unicode="&#xaf;" horiz-adv-x="359" 
d="M20 679h276v-94h-276v94z" />
    <glyph glyph-name="degree" unicode="&#xb0;" horiz-adv-x="361" 
d="M83 488.5q-38 36.5 -38 92.5t38 92.5t97 36.5t97 -36.5t38 -92.5t-38 -92.5t-97 -36.5t-97 36.5zM139 542q16 -15 41 -15t40.5 15t15.5 39t-15.5 38.5t-40.5 14.5t-41 -14.5t-16 -38.5t16 -39z" />
    <glyph glyph-name="plusminus" unicode="&#xb1;" horiz-adv-x="646" 
d="M70 508h200v200h105v-200h201v-105h-201v-200h-105v200h-200v105zM70 105h506v-105h-506v105z" />
    <glyph glyph-name="uni00B2" unicode="&#xb2;" horiz-adv-x="362" 
d="M69.5 704q41.5 41 112.5 41q67 0 108.5 -36t41.5 -96q0 -42 -24.5 -74.5t-75.5 -59.5l-48 -25q-54 -29 -56 -57h203v-77h-300v62q-1 46 28.5 79.5t67.5 52.5l68 34q48 23 48 66q0 27 -17 42.5t-44 15.5q-30 0 -47 -22t-16 -59h-90q-1 72 40.5 113z" />
    <glyph glyph-name="uni00B3" unicode="&#xb3;" horiz-adv-x="362" 
d="M66 352.5q-45 37.5 -45 100.5h85q0 -29 21 -45t52 -16q32 0 50 15t18 40t-18.5 39t-49.5 14h-40v73h37q25 0 40.5 14.5t15.5 37.5q0 22 -16.5 34.5t-43.5 12.5q-25 0 -42 -14.5t-18 -41.5h-80q1 57 41.5 93t100.5 36q41 0 74 -15.5t52 -41.5t19 -57q0 -26 -14 -50
t-36 -39q67 -32 67 -98q0 -59 -45.5 -94t-111.5 -35q-68 0 -113 37.5z" />
    <glyph glyph-name="acute" unicode="&#xb4;" horiz-adv-x="295" 
d="M130 708h132l-101 -148h-106z" />
    <glyph glyph-name="uni00B5" unicode="&#xb5;" horiz-adv-x="597" 
d="M65 504h122v-286q0 -52 29.5 -84.5t76.5 -32.5q51 0 84 36t33 92v275h122v-504h-122v78q-17 -41 -53 -63.5t-81 -22.5q-47 0 -89 31v-227h-122v708z" />
    <glyph glyph-name="paragraph" unicode="&#xb6;" horiz-adv-x="686" 
d="M126.5 301q-51.5 29 -81.5 78t-30 107t30 107t81.5 78t111.5 29h413v-98h-64v-806h-111v806h-127v-806h-111v476q-60 0 -111.5 29z" />
    <glyph glyph-name="periodcentered" unicode="&#xb7;" horiz-adv-x="243" 
d="M187 418v-137h-132v137h132z" />
    <glyph glyph-name="cedilla" unicode="&#xb8;" horiz-adv-x="305" 
d="M138 17h69l-30 -58q6 1 19 1q41 0 69 -20.5t28 -57.5q0 -45 -38 -69.5t-100 -24.5q-42 0 -82 14v67q42 -14 82 -14q55 0 55 28q0 12 -12.5 18t-32.5 6q-23 0 -44 -6l-28 26z" />
    <glyph glyph-name="uni00B9" unicode="&#xb9;" horiz-adv-x="233" 
d="M187 320h-89v301q-6 -8 -22.5 -13t-31.5 -5h-30v77h28q27 0 42 13t19 47h84v-420z" />
    <glyph glyph-name="ordmasculine" unicode="&#xba;" horiz-adv-x="387" 
d="M78.5 440q-44.5 44 -44.5 112t44.5 112t114.5 44q46 0 82.5 -20t57.5 -56t21 -80t-21 -80t-57.5 -56t-82.5 -20q-70 0 -114.5 44zM138 490.5q21 -23.5 55 -23.5t55 23.5t21 61.5t-21 61.5t-55 23.5t-55 -23.5t-21 -61.5t21 -61.5z" />
    <glyph glyph-name="guillemotright" unicode="&#xbb;" horiz-adv-x="699" 
d="M342 183l189 127l-189 127v124l313 -215v-72l-313 -215v124zM57 183l189 127l-189 127v124l313 -215v-72l-313 -215v124z" />
    <glyph glyph-name="onequarter" unicode="&#xbc;" horiz-adv-x="837" 
d="M193 280h-89v301q-6 -8 -22.5 -13t-31.5 -5h-30v77h28q27 0 42 13t19 47h84v-420zM592 700h109l-508 -700h-109zM678 84h-211v76l205 260h96v-260h48v-76h-48v-84h-90v84zM678 160v151l-123 -151h123z" />
    <glyph glyph-name="onehalf" unicode="&#xbd;" horiz-adv-x="891" 
d="M195 280h-89v301q-6 -8 -22.5 -13t-31.5 -5h-30v77h28q27 0 42 13t19 47h84v-420zM595 700h109l-508 -700h-109zM591.5 384q41.5 41 112.5 41q67 0 108.5 -36t41.5 -96q0 -42 -24.5 -74.5t-75.5 -59.5l-48 -25q-54 -29 -56 -57h203v-77h-300v62q-1 46 28.5 79.5
t67.5 52.5l68 34q48 23 48 66q0 27 -17 42.5t-44 15.5q-30 0 -47 -22t-16 -59h-90q-1 72 40.5 113z" />
    <glyph glyph-name="threequarters" unicode="&#xbe;" horiz-adv-x="952" 
d="M77 312.5q-45 37.5 -45 100.5h85q0 -29 21 -45t52 -16q32 0 50 15t18 40t-18.5 39t-49.5 14h-40v73h37q25 0 40.5 14.5t15.5 37.5q0 22 -16.5 34.5t-43.5 12.5q-25 0 -42 -14.5t-18 -41.5h-80q1 57 41.5 93t100.5 36q41 0 74 -15.5t52 -41.5t19 -57q0 -26 -14 -50
t-36 -39q67 -32 67 -98q0 -59 -45.5 -94t-111.5 -35q-68 0 -113 37.5zM702 700h109l-508 -700h-109zM788 84h-211v76l205 260h96v-260h48v-76h-48v-84h-90v84zM788 160v151l-123 -151h123z" />
    <glyph glyph-name="questiondown" unicode="&#xbf;" horiz-adv-x="483" 
d="M370.5 275.5q42.5 -33.5 42.5 -96.5q0 -49 -23 -77.5t-55 -41.5t-84 -25q-56 -13 -82.5 -27t-26.5 -46q0 -35 25.5 -54.5t70.5 -19.5q49 0 79 28t31 76h116q-1 -61 -30 -107.5t-80 -71.5t-116 -25t-114.5 22t-77 62.5t-27.5 93.5q0 55 27 87t63.5 45.5t93.5 26.5
q47 9 69 19t22 30q0 39 -50 39h-126v96h138q72 0 114.5 -33.5zM179 496h134v-129h-134v129z" />
    <glyph glyph-name="Agrave" unicode="&#xc0;" horiz-adv-x="676" 
d="M244 275h188l-94 256zM276 700h124l270 -700h-137l-60 163h-270l-60 -163h-137zM302 756l-110 128h132l83 -128h-105z" />
    <glyph glyph-name="Aacute" unicode="&#xc1;" horiz-adv-x="676" 
d="M244 275h188l-94 256zM276 700h124l270 -700h-137l-60 163h-270l-60 -163h-137zM365 884h133l-110 -128h-106z" />
    <glyph glyph-name="Acircumflex" unicode="&#xc2;" horiz-adv-x="676" 
d="M244 275h188l-94 256zM276 700h124l270 -700h-137l-60 163h-270l-60 -163h-137zM281 876h117l108 -120h-106l-61 59l-62 -59h-104z" />
    <glyph glyph-name="Atilde" unicode="&#xc3;" horiz-adv-x="676" 
d="M244 275h188l-94 256zM276 700h124l270 -700h-137l-60 163h-270l-60 -163h-137zM361 774q-15 6 -35 17q-24 15 -40 15q-15 0 -25.5 -9.5t-12.5 -25.5h-80q0 54 32 90.5t78 36.5q21 0 36.5 -6t33.5 -17q13 -8 22 -12t19 -4q15 0 26 10t14 26h79q-1 -57 -33 -92t-78 -35
q-21 0 -36 6z" />
    <glyph glyph-name="Adieresis" unicode="&#xc4;" horiz-adv-x="676" 
d="M244 275h188l-94 256zM276 700h124l270 -700h-137l-60 163h-270l-60 -163h-137zM487 894v-113h-109v113h109zM189 893h109v-113h-109v113z" />
    <glyph glyph-name="Aring" unicode="&#xc5;" horiz-adv-x="676" 
d="M244 275h188l-94 256zM276 700h124l270 -700h-137l-60 163h-270l-60 -163h-137zM241.5 773.5q-36.5 31.5 -36.5 81.5t37 81.5t95 31.5q59 0 96.5 -31.5t37.5 -81.5t-37.5 -81.5t-96.5 -31.5t-95.5 31.5zM295.5 817q16.5 -15 41.5 -15q26 0 43 15t17 38t-17 37.5t-43 14.5
t-42 -14.5t-16 -37.5t16.5 -38z" />
    <glyph glyph-name="AE" unicode="&#xc6;" horiz-adv-x="928" 
d="M-25 0l434 700h473v-114h-284v-170h218v-114h-218v-187h295v-115h-427v164h-253l-97 -164h-141zM466 279v314l-185 -314h185z" />
    <glyph glyph-name="Ccedilla" unicode="&#xc7;" horiz-adv-x="732" 
d="M328 -4q-83 12 -148 56t-103 119.5t-38 178.5q0 114 47.5 195t126.5 122t174 41q83 0 151.5 -30.5t112 -86t52.5 -127.5h-139q-7 58 -57 94t-121 36q-62 0 -110 -28t-75.5 -83.5t-27.5 -132.5t27.5 -132t75.5 -83t110 -28q72 0 122.5 36t59.5 93h132q-7 -71 -48 -125.5
t-108 -86t-150 -32.5l-17 -33q6 1 19 1q41 0 69 -20.5t28 -57.5q0 -45 -38 -69.5t-100 -24.5q-42 0 -82 14v67q42 -14 82 -14q55 0 55 28q0 12 -12.5 18t-32.5 6q-23 0 -44 -6l-28 26z" />
    <glyph glyph-name="Egrave" unicode="&#xc8;" horiz-adv-x="583" 
d="M73 700h465v-114h-334v-170h268v-114h-268v-187h345v-115h-476v700zM272 756l-110 128h132l83 -128h-105z" />
    <glyph glyph-name="Eacute" unicode="&#xc9;" horiz-adv-x="583" 
d="M73 700h465v-114h-334v-170h268v-114h-268v-187h345v-115h-476v700zM335 884h133l-110 -128h-106z" />
    <glyph glyph-name="Ecircumflex" unicode="&#xca;" horiz-adv-x="583" 
d="M73 700h465v-114h-334v-170h268v-114h-268v-187h345v-115h-476v700zM251 876h117l108 -120h-106l-61 59l-62 -59h-104z" />
    <glyph glyph-name="Edieresis" unicode="&#xcb;" horiz-adv-x="583" 
d="M73 700h465v-114h-334v-170h268v-114h-268v-187h345v-115h-476v700zM457 894v-113h-109v113h109zM159 893h109v-113h-109v113z" />
    <glyph glyph-name="Igrave" unicode="&#xcc;" horiz-adv-x="277" 
d="M73 700h132v-700h-132v700zM102 756l-110 128h132l83 -128h-105z" />
    <glyph glyph-name="Iacute" unicode="&#xcd;" horiz-adv-x="277" 
d="M73 700h132v-700h-132v700zM165 884h133l-110 -128h-106z" />
    <glyph glyph-name="Icircumflex" unicode="&#xce;" horiz-adv-x="277" 
d="M73 700h132v-700h-132v700zM81 876h117l108 -120h-106l-61 59l-62 -59h-104z" />
    <glyph glyph-name="Idieresis" unicode="&#xcf;" horiz-adv-x="277" 
d="M73 700h132v-700h-132v700zM287 894v-113h-109v113h109zM-11 893h109v-113h-109v113z" />
    <glyph glyph-name="Eth" unicode="&#xd0;" horiz-adv-x="746" 
d="M122 304h-100v97h100v299h227q99 0 180.5 -39.5t129.5 -118.5t48 -192t-48 -192t-129.5 -118.5t-180.5 -39.5h-227v304zM337 115q101 0 168.5 57t67.5 178t-67.5 178.5t-168.5 57.5h-84v-185h161v-97h-161v-189h84z" />
    <glyph glyph-name="Ntilde" unicode="&#xd1;" horiz-adv-x="723" 
d="M73 700h142l304 -494v494h131v-700h-142l-304 493v-493h-131v700zM385 774q-15 6 -35 17q-24 15 -40 15q-15 0 -25.5 -9.5t-12.5 -25.5h-80q0 54 32 90.5t78 36.5q21 0 36.5 -6t33.5 -17q13 -8 22 -12t19 -4q15 0 26 10t14 26h79q-1 -57 -33 -92t-78 -35q-21 0 -36 6z
" />
    <glyph glyph-name="Ograve" unicode="&#xd2;" horiz-adv-x="782" 
d="M210.5 38.5q-80.5 46.5 -126.5 128t-46 183.5t46 183.5t126.5 128t181.5 46.5q100 0 180.5 -46.5t126.5 -128t46 -183.5t-46 -183.5t-126.5 -128t-180.5 -46.5q-101 0 -181.5 46.5zM199.5 225.5q28.5 -55.5 78.5 -87t113 -31.5t113.5 31.5t79 87t28.5 124.5t-28.5 125
t-79 87.5t-113.5 31.5t-113 -31.5t-78.5 -87.5t-28.5 -125t28.5 -124.5zM356 756l-110 128h132l83 -128h-105z" />
    <glyph glyph-name="Oacute" unicode="&#xd3;" horiz-adv-x="782" 
d="M210.5 38.5q-80.5 46.5 -126.5 128t-46 183.5t46 183.5t126.5 128t181.5 46.5q100 0 180.5 -46.5t126.5 -128t46 -183.5t-46 -183.5t-126.5 -128t-180.5 -46.5q-101 0 -181.5 46.5zM199.5 225.5q28.5 -55.5 78.5 -87t113 -31.5t113.5 31.5t79 87t28.5 124.5t-28.5 125
t-79 87.5t-113.5 31.5t-113 -31.5t-78.5 -87.5t-28.5 -125t28.5 -124.5zM418 884h133l-110 -128h-106z" />
    <glyph glyph-name="Ocircumflex" unicode="&#xd4;" horiz-adv-x="782" 
d="M210.5 38.5q-80.5 46.5 -126.5 128t-46 183.5t46 183.5t126.5 128t181.5 46.5q100 0 180.5 -46.5t126.5 -128t46 -183.5t-46 -183.5t-126.5 -128t-180.5 -46.5q-101 0 -181.5 46.5zM199.5 225.5q28.5 -55.5 78.5 -87t113 -31.5t113.5 31.5t79 87t28.5 124.5t-28.5 125
t-79 87.5t-113.5 31.5t-113 -31.5t-78.5 -87.5t-28.5 -125t28.5 -124.5zM335 876h117l108 -120h-106l-61 59l-62 -59h-104z" />
    <glyph glyph-name="Otilde" unicode="&#xd5;" horiz-adv-x="782" 
d="M210.5 38.5q-80.5 46.5 -126.5 128t-46 183.5t46 183.5t126.5 128t181.5 46.5q100 0 180.5 -46.5t126.5 -128t46 -183.5t-46 -183.5t-126.5 -128t-180.5 -46.5q-101 0 -181.5 46.5zM199.5 225.5q28.5 -55.5 78.5 -87t113 -31.5t113.5 31.5t79 87t28.5 124.5t-28.5 125
t-79 87.5t-113.5 31.5t-113 -31.5t-78.5 -87.5t-28.5 -125t28.5 -124.5zM415 774q-15 6 -35 17q-24 15 -40 15q-15 0 -25.5 -9.5t-12.5 -25.5h-80q0 54 32 90.5t78 36.5q21 0 36.5 -6t33.5 -17q13 -8 22 -12t19 -4q15 0 26 10t14 26h79q-1 -57 -33 -92t-78 -35q-21 0 -36 6z
" />
    <glyph glyph-name="Odieresis" unicode="&#xd6;" horiz-adv-x="782" 
d="M210.5 38.5q-80.5 46.5 -126.5 128t-46 183.5t46 183.5t126.5 128t181.5 46.5q100 0 180.5 -46.5t126.5 -128t46 -183.5t-46 -183.5t-126.5 -128t-180.5 -46.5q-101 0 -181.5 46.5zM199.5 225.5q28.5 -55.5 78.5 -87t113 -31.5t113.5 31.5t79 87t28.5 124.5t-28.5 125
t-79 87.5t-113.5 31.5t-113 -31.5t-78.5 -87.5t-28.5 -125t28.5 -124.5zM540 894v-113h-109v113h109zM242 893h109v-113h-109v113z" />
    <glyph glyph-name="multiply" unicode="&#xd7;" horiz-adv-x="646" 
d="M93 183l155 156l-155 155l75 75l155 -155l155 155l75 -75l-155 -155l155 -155l-75 -76l-155 155l-155 -155z" />
    <glyph glyph-name="Oslash" unicode="&#xd8;" horiz-adv-x="782" 
d="M207 40l-59 -73l-77 65l58 72q-44 48 -67.5 111t-23.5 135q0 102 46 183.5t126.5 128t181.5 46.5q100 0 184 -49l59 73l77 -65l-58 -71q43 -48 67 -111t24 -135q0 -102 -46 -183.5t-126.5 -128t-180.5 -46.5q-103 0 -185 48zM211 205l289 360q-47 29 -109 29
q-63 0 -113 -31.5t-78.5 -87.5t-28.5 -125q0 -83 40 -145zM391 107q63 0 113.5 31.5t79 87t28.5 124.5q0 82 -39 144l-290 -359q50 -28 108 -28z" />
    <glyph glyph-name="Ugrave" unicode="&#xd9;" horiz-adv-x="683" 
d="M141.5 60q-74.5 68 -74.5 193v447h124v-448q0 -70 41 -107t110 -37t110 37t41 107v448h123v-447q0 -125 -74.5 -193t-199.5 -68q-126 0 -200.5 68zM306 756l-110 128h132l83 -128h-105z" />
    <glyph glyph-name="Uacute" unicode="&#xda;" horiz-adv-x="683" 
d="M141.5 60q-74.5 68 -74.5 193v447h124v-448q0 -70 41 -107t110 -37t110 37t41 107v448h123v-447q0 -125 -74.5 -193t-199.5 -68q-126 0 -200.5 68zM368 884h133l-110 -128h-106z" />
    <glyph glyph-name="Ucircumflex" unicode="&#xdb;" horiz-adv-x="683" 
d="M141.5 60q-74.5 68 -74.5 193v447h124v-448q0 -70 41 -107t110 -37t110 37t41 107v448h123v-447q0 -125 -74.5 -193t-199.5 -68q-126 0 -200.5 68zM285 876h117l108 -120h-106l-61 59l-62 -59h-104z" />
    <glyph glyph-name="Udieresis" unicode="&#xdc;" horiz-adv-x="683" 
d="M141.5 60q-74.5 68 -74.5 193v447h124v-448q0 -70 41 -107t110 -37t110 37t41 107v448h123v-447q0 -125 -74.5 -193t-199.5 -68q-126 0 -200.5 68zM490 894v-113h-109v113h109zM192 893h109v-113h-109v113z" />
    <glyph glyph-name="Yacute" unicode="&#xdd;" horiz-adv-x="640" 
d="M254 291l-241 409h143l164 -286l165 286h142l-241 -409v-291h-132v291zM347 884h133l-110 -128h-106z" />
    <glyph glyph-name="Thorn" unicode="&#xde;" horiz-adv-x="618" 
d="M73 700h132v-143h148q110 0 171.5 -55.5t61.5 -151.5t-61.5 -151.5t-171.5 -55.5h-148v-143h-132v700zM347 254q56 0 83 26t27 70t-27 70t-83 26h-142v-192h142z" />
    <glyph glyph-name="germandbls" unicode="&#xdf;" horiz-adv-x="627" 
d="M123 591.5q31 55.5 87.5 86t130.5 30.5q101 0 160.5 -50t59.5 -133q0 -50 -23.5 -87.5t-58.5 -55.5q52 -20 83.5 -64.5t31.5 -110.5q0 -97 -64 -152t-172 -55h-76v115h63q126 0 126 99q0 50 -32.5 75.5t-93.5 25.5h-63v110h58q49 0 74.5 23t25.5 67q0 39 -25 63.5
t-74 24.5q-56 0 -88.5 -40t-32.5 -106v-457h-128v315h-62v110h62v37q0 74 31 129.5z" />
    <glyph glyph-name="agrave" unicode="&#xe0;" horiz-adv-x="537" 
d="M121 11.5q-38 19.5 -59 54t-21 77.5q0 73 51.5 116t137.5 43h93q18 0 27 9.5t9 24.5q0 38 -27 61t-75 23q-47 0 -75.5 -25t-30.5 -61h-111q4 50 32 90.5t77.5 64t112.5 23.5q64 0 114 -23.5t77.5 -66t27.5 -98.5v-324h-122v75q-15 -38 -56 -60.5t-95 -22.5
q-49 0 -87 19.5zM181 101q21 -18 56 -18q57 0 89.5 36t32.5 94v8h-113q-39 0 -62.5 -20t-23.5 -53q0 -29 21 -47zM214 560l-102 148h133l74 -148h-105z" />
    <glyph glyph-name="aacute" unicode="&#xe1;" horiz-adv-x="537" 
d="M121 11.5q-38 19.5 -59 54t-21 77.5q0 73 51.5 116t137.5 43h93q18 0 27 9.5t9 24.5q0 38 -27 61t-75 23q-47 0 -75.5 -25t-30.5 -61h-111q4 50 32 90.5t77.5 64t112.5 23.5q64 0 114 -23.5t77.5 -66t27.5 -98.5v-324h-122v75q-15 -38 -56 -60.5t-95 -22.5
q-49 0 -87 19.5zM181 101q21 -18 56 -18q57 0 89.5 36t32.5 94v8h-113q-39 0 -62.5 -20t-23.5 -53q0 -29 21 -47zM290 708h132l-101 -148h-106z" />
    <glyph glyph-name="acircumflex" unicode="&#xe2;" horiz-adv-x="537" 
d="M121 11.5q-38 19.5 -59 54t-21 77.5q0 73 51.5 116t137.5 43h93q18 0 27 9.5t9 24.5q0 38 -27 61t-75 23q-47 0 -75.5 -25t-30.5 -61h-111q4 50 32 90.5t77.5 64t112.5 23.5q64 0 114 -23.5t77.5 -66t27.5 -98.5v-324h-122v75q-15 -38 -56 -60.5t-95 -22.5
q-49 0 -87 19.5zM181 101q21 -18 56 -18q57 0 89.5 36t32.5 94v8h-113q-39 0 -62.5 -20t-23.5 -53q0 -29 21 -47zM215 700h107l108 -140h-106l-56 66l-57 -66h-106z" />
    <glyph glyph-name="atilde" unicode="&#xe3;" horiz-adv-x="537" 
d="M121 11.5q-38 19.5 -59 54t-21 77.5q0 73 51.5 116t137.5 43h93q18 0 27 9.5t9 24.5q0 38 -27 61t-75 23q-47 0 -75.5 -25t-30.5 -61h-111q4 50 32 90.5t77.5 64t112.5 23.5q64 0 114 -23.5t77.5 -66t27.5 -98.5v-324h-122v75q-15 -38 -56 -60.5t-95 -22.5
q-49 0 -87 19.5zM181 101q21 -18 56 -18q57 0 89.5 36t32.5 94v8h-113q-39 0 -62.5 -20t-23.5 -53q0 -29 21 -47zM291 578q-15 6 -35 17q-24 15 -40 15q-15 0 -25.5 -9.5t-12.5 -25.5h-80q0 54 32 90.5t78 36.5q21 0 36.5 -6t33.5 -17q13 -8 22 -12t19 -4q15 0 26 10t14 26
h79q-1 -57 -33 -92t-78 -35q-21 0 -36 6z" />
    <glyph glyph-name="adieresis" unicode="&#xe4;" horiz-adv-x="537" 
d="M121 11.5q-38 19.5 -59 54t-21 77.5q0 73 51.5 116t137.5 43h93q18 0 27 9.5t9 24.5q0 38 -27 61t-75 23q-47 0 -75.5 -25t-30.5 -61h-111q4 50 32 90.5t77.5 64t112.5 23.5q64 0 114 -23.5t77.5 -66t27.5 -98.5v-324h-122v75q-15 -38 -56 -60.5t-95 -22.5
q-49 0 -87 19.5zM181 101q21 -18 56 -18q57 0 89.5 36t32.5 94v8h-113q-39 0 -62.5 -20t-23.5 -53q0 -29 21 -47zM416 698v-113h-109v113h109zM118 697h109v-113h-109v113z" />
    <glyph glyph-name="aring" unicode="&#xe5;" horiz-adv-x="537" 
d="M121 11.5q-38 19.5 -59 54t-21 77.5q0 73 51.5 116t137.5 43h93q18 0 27 9.5t9 24.5q0 38 -27 61t-75 23q-47 0 -75.5 -25t-30.5 -61h-111q4 50 32 90.5t77.5 64t112.5 23.5q64 0 114 -23.5t77.5 -66t27.5 -98.5v-324h-122v75q-15 -38 -56 -60.5t-95 -22.5
q-49 0 -87 19.5zM181 101q21 -18 56 -18q57 0 89.5 36t32.5 94v8h-113q-39 0 -62.5 -20t-23.5 -53q0 -29 21 -47zM171.5 580.5q-37.5 34.5 -37.5 86.5t37.5 86.5t94.5 34.5q58 0 96 -34.5t38 -86.5q0 -53 -38 -87t-96 -34q-57 0 -94.5 34.5zM224 627q16 -15 42 -15
q27 0 43.5 15t16.5 40q0 24 -16.5 39t-43.5 15q-26 0 -42 -15t-16 -39q0 -25 16 -40z" />
    <glyph glyph-name="ae" unicode="&#xe6;" horiz-adv-x="885" 
d="M90 34q-49 42 -49 109q0 76 49.5 118.5t139.5 42.5h96q16 0 24.5 8.5t8.5 23.5q0 38 -29 61t-75 23t-74.5 -25.5t-30.5 -61.5h-110q4 50 31.5 91t75 64.5t107.5 23.5q57 0 102.5 -18.5t74.5 -52.5q30 34 74.5 52.5t99.5 18.5q80 0 135 -34.5t82 -90t27 -118.5
q0 -22 -2 -42h-370q5 -60 42.5 -96.5t94.5 -36.5q48 0 78 19t39 55h121q-14 -80 -79 -128t-159 -48q-65 0 -116 26t-85 72q-56 -98 -185 -98q-89 0 -138 42zM181.5 101.5q21.5 -18.5 55.5 -18.5q57 0 89.5 36t32.5 94v10h-113q-43 0 -64.5 -19.5t-21.5 -55.5
q0 -28 21.5 -46.5zM726 308q-3 49 -35.5 80.5t-85.5 31.5q-108 0 -127 -112h248z" />
    <glyph glyph-name="ccedilla" unicode="&#xe7;" horiz-adv-x="559" 
d="M254 -6q-67 8 -117.5 44t-77 91.5t-26.5 122.5q0 72 31.5 131.5t89.5 94t135 34.5q63 0 116 -24t86.5 -67.5t38.5 -100.5h-123q-6 37 -38.5 61.5t-76.5 24.5q-63 0 -97.5 -43t-34.5 -111t35 -111t98 -43q44 0 75 22.5t41 60.5h123q-11 -75 -68 -126.5t-142 -60.5l-18 -35
q6 1 19 1q41 0 69 -20.5t28 -57.5q0 -45 -38 -69.5t-100 -24.5q-42 0 -82 14v67q42 -14 82 -14q55 0 55 28q0 12 -12.5 18t-32.5 6q-23 0 -44 -6l-28 26z" />
    <glyph glyph-name="egrave" unicode="&#xe8;" horiz-adv-x="560" 
d="M151.5 29q-58.5 37 -89 97t-30.5 128q0 69 28 127.5t84 94.5t135 36q80 0 135.5 -34.5t82.5 -90t27 -118.5q0 -22 -2 -42h-372q7 -61 44 -97t95 -36q47 0 77 19t40 55h120q-14 -80 -79 -128t-158 -48q-79 0 -137.5 37zM401 308q-4 50 -36.5 81t-85.5 31q-107 0 -126 -112
h248zM229 560l-102 148h133l74 -148h-105z" />
    <glyph glyph-name="eacute" unicode="&#xe9;" horiz-adv-x="560" 
d="M151.5 29q-58.5 37 -89 97t-30.5 128q0 69 28 127.5t84 94.5t135 36q80 0 135.5 -34.5t82.5 -90t27 -118.5q0 -22 -2 -42h-372q7 -61 44 -97t95 -36q47 0 77 19t40 55h120q-14 -80 -79 -128t-158 -48q-79 0 -137.5 37zM401 308q-4 50 -36.5 81t-85.5 31q-107 0 -126 -112
h248zM305 708h132l-101 -148h-106z" />
    <glyph glyph-name="ecircumflex" unicode="&#xea;" horiz-adv-x="560" 
d="M151.5 29q-58.5 37 -89 97t-30.5 128q0 69 28 127.5t84 94.5t135 36q80 0 135.5 -34.5t82.5 -90t27 -118.5q0 -22 -2 -42h-372q7 -61 44 -97t95 -36q47 0 77 19t40 55h120q-14 -80 -79 -128t-158 -48q-79 0 -137.5 37zM401 308q-4 50 -36.5 81t-85.5 31q-107 0 -126 -112
h248zM230 700h107l108 -140h-106l-56 66l-57 -66h-106z" />
    <glyph glyph-name="edieresis" unicode="&#xeb;" horiz-adv-x="560" 
d="M151.5 29q-58.5 37 -89 97t-30.5 128q0 69 28 127.5t84 94.5t135 36q80 0 135.5 -34.5t82.5 -90t27 -118.5q0 -22 -2 -42h-372q7 -61 44 -97t95 -36q47 0 77 19t40 55h120q-14 -80 -79 -128t-158 -48q-79 0 -137.5 37zM401 308q-4 50 -36.5 81t-85.5 31q-107 0 -126 -112
h248zM431 698v-113h-109v113h109zM133 697h109v-113h-109v113z" />
    <glyph glyph-name="igrave" unicode="&#xec;" horiz-adv-x="247" 
d="M62 504h123v-504h-123v504zM70 560l-102 148h133l74 -148h-105z" />
    <glyph glyph-name="iacute" unicode="&#xed;" horiz-adv-x="247" 
d="M62 504h123v-504h-123v504zM146 708h132l-101 -148h-106z" />
    <glyph glyph-name="icircumflex" unicode="&#xee;" horiz-adv-x="247" 
d="M62 504h123v-504h-123v504zM71 700h107l108 -140h-106l-56 66l-57 -66h-106z" />
    <glyph glyph-name="idieresis" unicode="&#xef;" horiz-adv-x="247" 
d="M62 504h123v-504h-123v504zM272 698v-113h-109v113h109zM-26 697h109v-113h-109v113z" />
    <glyph glyph-name="eth" unicode="&#xf0;" horiz-adv-x="575" 
d="M150.5 25q-57.5 33 -87.5 88.5t-30 122.5q0 64 30.5 120t84.5 90t121 34q34 0 65.5 -9.5t55.5 -29.5q-42 62 -115 132l-81 -57l-47 62l68 48q-67 53 -126 90h145q19 -12 55 -38l71 50l49 -60l-57 -40q189 -165 189 -368q0 -76 -31 -137t-89 -96t-135 -35q-78 0 -135.5 33
zM190.5 137q33.5 -40 95.5 -40q63 0 96.5 40t33.5 99q0 58 -33.5 98.5t-96.5 40.5q-62 0 -95.5 -40.5t-33.5 -98.5q0 -59 33.5 -99z" />
    <glyph glyph-name="ntilde" unicode="&#xf1;" horiz-adv-x="586" 
d="M62 504h123v-78q20 41 61.5 63.5t95.5 22.5q56 0 98.5 -25.5t65.5 -70.5t23 -104v-312h-122v286q0 52 -29.5 84.5t-76.5 32.5q-51 0 -83.5 -36t-32.5 -92v-275h-123v504zM317 578q-15 6 -35 17q-24 15 -40 15q-15 0 -25.5 -9.5t-12.5 -25.5h-80q0 54 32 90.5t78 36.5
q21 0 36.5 -6t33.5 -17q13 -8 22 -12t19 -4q15 0 26 10t14 26h79q-1 -57 -33 -92t-78 -35q-21 0 -36 6z" />
    <glyph glyph-name="ograve" unicode="&#xf2;" horiz-adv-x="591" 
d="M160 25.5q-60 33.5 -94 93t-34 133.5t34 133.5t94 93t136 33.5q75 0 135 -33.5t94 -93t34 -133.5t-34 -133.5t-94 -93t-135 -33.5q-76 0 -136 33.5zM194.5 141q38.5 -43 101.5 -43q62 0 100.5 43t38.5 111t-38.5 111t-100.5 43q-63 0 -101.5 -42.5t-38.5 -111.5
q0 -68 38.5 -111zM243 560l-102 148h133l74 -148h-105z" />
    <glyph glyph-name="oacute" unicode="&#xf3;" horiz-adv-x="591" 
d="M160 25.5q-60 33.5 -94 93t-34 133.5t34 133.5t94 93t136 33.5q75 0 135 -33.5t94 -93t34 -133.5t-34 -133.5t-94 -93t-135 -33.5q-76 0 -136 33.5zM194.5 141q38.5 -43 101.5 -43q62 0 100.5 43t38.5 111t-38.5 111t-100.5 43q-63 0 -101.5 -42.5t-38.5 -111.5
q0 -68 38.5 -111zM318 708h132l-101 -148h-106z" />
    <glyph glyph-name="ocircumflex" unicode="&#xf4;" horiz-adv-x="591" 
d="M160 25.5q-60 33.5 -94 93t-34 133.5t34 133.5t94 93t136 33.5q75 0 135 -33.5t94 -93t34 -133.5t-34 -133.5t-94 -93t-135 -33.5q-76 0 -136 33.5zM194.5 141q38.5 -43 101.5 -43q62 0 100.5 43t38.5 111t-38.5 111t-100.5 43q-63 0 -101.5 -42.5t-38.5 -111.5
q0 -68 38.5 -111zM244 700h107l108 -140h-106l-56 66l-57 -66h-106z" />
    <glyph glyph-name="otilde" unicode="&#xf5;" horiz-adv-x="591" 
d="M160 25.5q-60 33.5 -94 93t-34 133.5t34 133.5t94 93t136 33.5q75 0 135 -33.5t94 -93t34 -133.5t-34 -133.5t-94 -93t-135 -33.5q-76 0 -136 33.5zM194.5 141q38.5 -43 101.5 -43q62 0 100.5 43t38.5 111t-38.5 111t-100.5 43q-63 0 -101.5 -42.5t-38.5 -111.5
q0 -68 38.5 -111zM319 578q-15 6 -35 17q-24 15 -40 15q-15 0 -25.5 -9.5t-12.5 -25.5h-80q0 54 32 90.5t78 36.5q21 0 36.5 -6t33.5 -17q13 -8 22 -12t19 -4q15 0 26 10t14 26h79q-1 -57 -33 -92t-78 -35q-21 0 -36 6z" />
    <glyph glyph-name="odieresis" unicode="&#xf6;" horiz-adv-x="591" 
d="M160 25.5q-60 33.5 -94 93t-34 133.5t34 133.5t94 93t136 33.5q75 0 135 -33.5t94 -93t34 -133.5t-34 -133.5t-94 -93t-135 -33.5q-76 0 -136 33.5zM194.5 141q38.5 -43 101.5 -43q62 0 100.5 43t38.5 111t-38.5 111t-100.5 43q-63 0 -101.5 -42.5t-38.5 -111.5
q0 -68 38.5 -111zM444 698v-113h-109v113h109zM146 697h109v-113h-109v113z" />
    <glyph glyph-name="divide" unicode="&#xf7;" horiz-adv-x="646" 
d="M70 370h506v-105h-506v105zM391 167v-129h-134v129h134zM391 596v-129h-134v129h134z" />
    <glyph glyph-name="oslash" unicode="&#xf8;" horiz-adv-x="593" 
d="M160 26l-46 -56l-55 45l44 55q-34 35 -52 81.5t-18 100.5q0 74 34 133.5t94 93t136 33.5t136 -34l46 56l54 -45l-44 -54q34 -35 52.5 -82t18.5 -101q0 -74 -34 -133.5t-94 -93t-135 -33.5q-77 0 -137 34zM179 163l184 227q-30 16 -66 16q-63 0 -101.5 -42.5t-38.5 -111.5
q0 -50 22 -89zM297 98q62 0 100.5 43t38.5 111q0 51 -22 89l-184 -227q30 -16 67 -16z" />
    <glyph glyph-name="ugrave" unicode="&#xf9;" horiz-adv-x="586" 
d="M523 0h-122v78q-21 -41 -62 -63.5t-95 -22.5q-85 0 -136.5 55.5t-51.5 144.5v312h123v-286q0 -52 29 -84.5t76 -32.5q52 0 84.5 36t32.5 92v275h122v-504zM239 560l-102 148h133l74 -148h-105z" />
    <glyph glyph-name="uacute" unicode="&#xfa;" horiz-adv-x="586" 
d="M523 0h-122v78q-21 -41 -62 -63.5t-95 -22.5q-85 0 -136.5 55.5t-51.5 144.5v312h123v-286q0 -52 29 -84.5t76 -32.5q52 0 84.5 36t32.5 92v275h122v-504zM315 708h132l-101 -148h-106z" />
    <glyph glyph-name="ucircumflex" unicode="&#xfb;" horiz-adv-x="586" 
d="M523 0h-122v78q-21 -41 -62 -63.5t-95 -22.5q-85 0 -136.5 55.5t-51.5 144.5v312h123v-286q0 -52 29 -84.5t76 -32.5q52 0 84.5 36t32.5 92v275h122v-504zM240 700h107l108 -140h-106l-56 66l-57 -66h-106z" />
    <glyph glyph-name="udieresis" unicode="&#xfc;" horiz-adv-x="586" 
d="M523 0h-122v78q-21 -41 -62 -63.5t-95 -22.5q-85 0 -136.5 55.5t-51.5 144.5v312h123v-286q0 -52 29 -84.5t76 -32.5q52 0 84.5 36t32.5 92v275h122v-504zM441 698v-113h-109v113h109zM143 697h109v-113h-109v113z" />
    <glyph glyph-name="yacute" unicode="&#xfd;" horiz-adv-x="505" 
d="M195 1l-184 503h125l116 -346l116 346h126l-154 -422l-100 -286h-117zM280 708h132l-101 -148h-106z" />
    <glyph glyph-name="thorn" unicode="&#xfe;" horiz-adv-x="604" 
d="M62 703h124v-254q26 30 65.5 46.5t84.5 16.5q72 0 125 -32.5t81 -91.5t28 -136t-30 -136t-85 -91.5t-128 -32.5q-45 0 -83 14.5t-58 38.5v-249h-124v907zM213 139q36 -41 99 -41q64 0 100.5 41t36.5 113q0 71 -36.5 112.5t-100.5 41.5q-63 0 -99 -41.5t-36 -112.5
q0 -72 36 -113z" />
    <glyph glyph-name="ydieresis" unicode="&#xff;" horiz-adv-x="505" 
d="M195 1l-184 503h125l116 -346l116 346h126l-154 -422l-100 -286h-117zM406 698v-113h-109v113h109zM108 697h109v-113h-109v113z" />
    <glyph glyph-name="Amacron" unicode="&#x100;" horiz-adv-x="676" 
d="M244 275h188l-94 256zM276 700h124l270 -700h-137l-60 163h-270l-60 -163h-137zM199 875h276v-94h-276v94z" />
    <glyph glyph-name="amacron" unicode="&#x101;" horiz-adv-x="537" 
d="M121 11.5q-38 19.5 -59 54t-21 77.5q0 73 51.5 116t137.5 43h93q18 0 27 9.5t9 24.5q0 38 -27 61t-75 23q-47 0 -75.5 -25t-30.5 -61h-111q4 50 32 90.5t77.5 64t112.5 23.5q64 0 114 -23.5t77.5 -66t27.5 -98.5v-324h-122v75q-15 -38 -56 -60.5t-95 -22.5
q-49 0 -87 19.5zM181 101q21 -18 56 -18q57 0 89.5 36t32.5 94v8h-113q-39 0 -62.5 -20t-23.5 -53q0 -29 21 -47zM129 679h276v-94h-276v94z" />
    <glyph glyph-name="Abreve" unicode="&#x102;" horiz-adv-x="676" 
d="M244 275h188l-94 256zM276 700h124l270 -700h-137l-60 163h-270l-60 -163h-137zM259.5 771.5q-34.5 18.5 -53 50.5t-18.5 70h96q0 -28 14.5 -42t39.5 -14t39.5 14t14.5 42h96q0 -38 -18.5 -70t-53 -50.5t-78.5 -18.5t-78.5 18.5z" />
    <glyph glyph-name="abreve" unicode="&#x103;" horiz-adv-x="537" 
d="M121 11.5q-38 19.5 -59 54t-21 77.5q0 73 51.5 116t137.5 43h93q18 0 27 9.5t9 24.5q0 38 -27 61t-75 23q-47 0 -75.5 -25t-30.5 -61h-111q4 50 32 90.5t77.5 64t112.5 23.5q64 0 114 -23.5t77.5 -66t27.5 -98.5v-324h-122v75q-15 -38 -56 -60.5t-95 -22.5
q-49 0 -87 19.5zM181 101q21 -18 56 -18q57 0 89.5 36t32.5 94v8h-113q-39 0 -62.5 -20t-23.5 -53q0 -29 21 -47zM189.5 576.5q-34.5 19.5 -53 52t-18.5 71.5h96q0 -27 15 -43.5t39 -16.5q25 0 39.5 16t14.5 44h97q0 -39 -19 -71.5t-53 -52t-79 -19.5q-44 0 -78.5 19.5z" />
    <glyph glyph-name="Aogonek" unicode="&#x104;" horiz-adv-x="676" 
d="M244 275h188l-94 256zM276 700h124l270 -700h-137l-60 163h-270l-60 -163h-137zM682 -196.5q-28 -15.5 -61 -15.5q-45 0 -72.5 25.5t-27.5 66.5q0 38 19.5 69.5t50.5 50.5h79q-29 -22 -44 -46t-15 -46q0 -16 8 -24.5t22 -8.5q21 0 42 26l47 -56q-20 -26 -48 -41.5z" />
    <glyph glyph-name="aogonek" unicode="&#x105;" horiz-adv-x="537" 
d="M121 11.5q-38 19.5 -59 54t-21 77.5q0 73 51.5 116t137.5 43h93q18 0 27 9.5t9 24.5q0 38 -27 61t-75 23q-47 0 -75.5 -25t-30.5 -61h-111q4 50 32 90.5t77.5 64t112.5 23.5q64 0 114 -23.5t77.5 -66t27.5 -98.5v-324q-29 -22 -44 -46t-15 -46q0 -16 8 -24.5t22 -8.5
q21 0 42 26l47 -56q-20 -26 -48 -41.5t-61 -15.5q-45 0 -72.5 25.5t-27.5 66.5q0 38 19.5 69.5t50.5 50.5h-43v75q-15 -38 -56 -60.5t-95 -22.5q-49 0 -87 19.5zM181 101q21 -18 56 -18q57 0 89.5 36t32.5 94v8h-113q-39 0 -62.5 -20t-23.5 -53q0 -29 21 -47z" />
    <glyph glyph-name="Cacute" unicode="&#x106;" horiz-adv-x="732" 
d="M212 33q-79 41 -126 121.5t-47 195.5q0 114 47.5 195t126.5 122t174 41q83 0 151.5 -30.5t112 -86t52.5 -127.5h-139q-7 58 -57 94t-121 36q-62 0 -110 -28t-75.5 -83.5t-27.5 -132.5t27.5 -132t75.5 -83t110 -28q72 0 122.5 36t59.5 93h132q-7 -72 -49 -127.5
t-110.5 -86t-153.5 -30.5q-96 0 -175 41zM408 884h133l-110 -128h-106z" />
    <glyph glyph-name="cacute" unicode="&#x107;" horiz-adv-x="559" 
d="M154 26.5q-58 34.5 -89.5 94t-31.5 131.5t31.5 131.5t89.5 94t135 34.5q63 0 116 -24t86.5 -67.5t38.5 -100.5h-123q-6 37 -38.5 61.5t-76.5 24.5q-63 0 -97.5 -43t-34.5 -111t35 -111t98 -43q44 0 75 22.5t41 60.5h123q-7 -55 -40.5 -98t-86 -67t-116.5 -24
q-77 0 -135 34.5zM304 708h132l-101 -148h-106z" />
    <glyph glyph-name="Ccircumflex" unicode="&#x108;" horiz-adv-x="732" 
d="M212 33q-79 41 -126 121.5t-47 195.5q0 114 47.5 195t126.5 122t174 41q83 0 151.5 -30.5t112 -86t52.5 -127.5h-139q-7 58 -57 94t-121 36q-62 0 -110 -28t-75.5 -83.5t-27.5 -132.5t27.5 -132t75.5 -83t110 -28q72 0 122.5 36t59.5 93h132q-7 -72 -49 -127.5
t-110.5 -86t-153.5 -30.5q-96 0 -175 41zM324 876h117l108 -120h-106l-61 59l-62 -59h-104z" />
    <glyph glyph-name="ccircumflex" unicode="&#x109;" horiz-adv-x="559" 
d="M154 26.5q-58 34.5 -89.5 94t-31.5 131.5t31.5 131.5t89.5 94t135 34.5q63 0 116 -24t86.5 -67.5t38.5 -100.5h-123q-6 37 -38.5 61.5t-76.5 24.5q-63 0 -97.5 -43t-34.5 -111t35 -111t98 -43q44 0 75 22.5t41 60.5h123q-7 -55 -40.5 -98t-86 -67t-116.5 -24
q-77 0 -135 34.5zM229 700h107l108 -140h-106l-56 66l-57 -66h-106z" />
    <glyph glyph-name="Cdotaccent" unicode="&#x10a;" horiz-adv-x="732" 
d="M212 33q-79 41 -126 121.5t-47 195.5q0 114 47.5 195t126.5 122t174 41q83 0 151.5 -30.5t112 -86t52.5 -127.5h-139q-7 58 -57 94t-121 36q-62 0 -110 -28t-75.5 -83.5t-27.5 -132.5t27.5 -132t75.5 -83t110 -28q72 0 122.5 36t59.5 93h132q-7 -72 -49 -127.5
t-110.5 -86t-153.5 -30.5q-96 0 -175 41zM447 916v-137h-132v137h132z" />
    <glyph glyph-name="cdotaccent" unicode="&#x10b;" horiz-adv-x="559" 
d="M154 26.5q-58 34.5 -89.5 94t-31.5 131.5t31.5 131.5t89.5 94t135 34.5q63 0 116 -24t86.5 -67.5t38.5 -100.5h-123q-6 37 -38.5 61.5t-76.5 24.5q-63 0 -97.5 -43t-34.5 -111t35 -111t98 -43q44 0 75 22.5t41 60.5h123q-7 -55 -40.5 -98t-86 -67t-116.5 -24
q-77 0 -135 34.5zM348 720v-137h-132v137h132z" />
    <glyph glyph-name="Ccaron" unicode="&#x10c;" horiz-adv-x="732" 
d="M212 33q-79 41 -126 121.5t-47 195.5q0 114 47.5 195t126.5 122t174 41q83 0 151.5 -30.5t112 -86t52.5 -127.5h-139q-7 58 -57 94t-121 36q-62 0 -110 -28t-75.5 -83.5t-27.5 -132.5t27.5 -132t75.5 -83t110 -28q72 0 122.5 36t59.5 93h132q-7 -72 -49 -127.5
t-110.5 -86t-153.5 -30.5q-96 0 -175 41zM208 876h110l62 -59l61 59h109l-111 -120h-117z" />
    <glyph glyph-name="ccaron" unicode="&#x10d;" horiz-adv-x="559" 
d="M154 26.5q-58 34.5 -89.5 94t-31.5 131.5t31.5 131.5t89.5 94t135 34.5q63 0 116 -24t86.5 -67.5t38.5 -100.5h-123q-6 37 -38.5 61.5t-76.5 24.5q-63 0 -97.5 -43t-34.5 -111t35 -111t98 -43q44 0 75 22.5t41 60.5h123q-7 -55 -40.5 -98t-86 -67t-116.5 -24
q-77 0 -135 34.5zM118 700h106l57 -67l56 67h106l-108 -140h-107z" />
    <glyph glyph-name="Dcaron" unicode="&#x10e;" horiz-adv-x="696" 
d="M73 700h227q99 0 180.5 -39.5t129.5 -118.5t48 -192t-48 -192t-129.5 -118.5t-180.5 -39.5h-227v700zM288 115q101 0 168.5 57t67.5 178t-67.5 178.5t-168.5 57.5h-84v-471h84zM123 876h110l62 -59l61 59h109l-111 -120h-117z" />
    <glyph glyph-name="dcaron" unicode="&#x10f;" horiz-adv-x="629" 
d="M145 24.5q-54 32.5 -82.5 91.5t-28.5 136t28.5 136t82 91.5t127.5 32.5q48 0 87 -18.5t61 -50.5v277h122v-720h-122v63q-22 -33 -61 -52t-85 -19q-75 0 -129 32.5zM193 140q37 -42 98 -42q62 0 99.5 42t37.5 112t-37.5 112t-99.5 42q-61 0 -98 -42t-37 -112t37 -112z
M625 745h116l-55 -185h-92z" />
    <glyph glyph-name="Dcroat" unicode="&#x110;" horiz-adv-x="746" 
d="M122 304h-100v97h100v299h227q99 0 180.5 -39.5t129.5 -118.5t48 -192t-48 -192t-129.5 -118.5t-180.5 -39.5h-227v304zM337 115q101 0 168.5 57t67.5 178t-67.5 178.5t-168.5 57.5h-84v-185h161v-97h-161v-189h84z" />
    <glyph glyph-name="dcroat" unicode="&#x111;" horiz-adv-x="604" 
d="M145 24.5q-54 32.5 -82.5 91.5t-28.5 136t28.5 136t82 91.5t127.5 32.5q48 0 87 -18.5t61 -50.5v121h-165v85h165v71h122v-71h76v-85h-76v-564h-122v63q-22 -33 -61 -52t-85 -19q-75 0 -129 32.5zM193 140q37 -42 98 -42q62 0 99.5 42t37.5 112t-37.5 112t-99.5 42
q-61 0 -98 -42t-37 -112t37 -112z" />
    <glyph glyph-name="Emacron" unicode="&#x112;" horiz-adv-x="583" 
d="M73 700h465v-114h-334v-170h268v-114h-268v-187h345v-115h-476v700zM169 875h276v-94h-276v94z" />
    <glyph glyph-name="emacron" unicode="&#x113;" horiz-adv-x="560" 
d="M151.5 29q-58.5 37 -89 97t-30.5 128q0 69 28 127.5t84 94.5t135 36q80 0 135.5 -34.5t82.5 -90t27 -118.5q0 -22 -2 -42h-372q7 -61 44 -97t95 -36q47 0 77 19t40 55h120q-14 -80 -79 -128t-158 -48q-79 0 -137.5 37zM401 308q-4 50 -36.5 81t-85.5 31q-107 0 -126 -112
h248zM144 679h276v-94h-276v94z" />
    <glyph glyph-name="Ebreve" unicode="&#x114;" horiz-adv-x="583" 
d="M73 700h465v-114h-334v-170h268v-114h-268v-187h345v-115h-476v700zM229.5 771.5q-34.5 18.5 -53 50.5t-18.5 70h96q0 -28 14.5 -42t39.5 -14t39.5 14t14.5 42h96q0 -38 -18.5 -70t-53 -50.5t-78.5 -18.5t-78.5 18.5z" />
    <glyph glyph-name="ebreve" unicode="&#x115;" horiz-adv-x="560" 
d="M151.5 29q-58.5 37 -89 97t-30.5 128q0 69 28 127.5t84 94.5t135 36q80 0 135.5 -34.5t82.5 -90t27 -118.5q0 -22 -2 -42h-372q7 -61 44 -97t95 -36q47 0 77 19t40 55h120q-14 -80 -79 -128t-158 -48q-79 0 -137.5 37zM401 308q-4 50 -36.5 81t-85.5 31q-107 0 -126 -112
h248zM203.5 576.5q-34.5 19.5 -53 52t-18.5 71.5h96q0 -27 15 -43.5t39 -16.5q25 0 39.5 16t14.5 44h97q0 -39 -19 -71.5t-53 -52t-79 -19.5q-44 0 -78.5 19.5z" />
    <glyph glyph-name="Edotaccent" unicode="&#x116;" horiz-adv-x="583" 
d="M73 700h465v-114h-334v-170h268v-114h-268v-187h345v-115h-476v700zM375 916v-137h-132v137h132z" />
    <glyph glyph-name="edotaccent" unicode="&#x117;" horiz-adv-x="560" 
d="M151.5 29q-58.5 37 -89 97t-30.5 128q0 69 28 127.5t84 94.5t135 36q80 0 135.5 -34.5t82.5 -90t27 -118.5q0 -22 -2 -42h-372q7 -61 44 -97t95 -36q47 0 77 19t40 55h120q-14 -80 -79 -128t-158 -48q-79 0 -137.5 37zM401 308q-4 50 -36.5 81t-85.5 31q-107 0 -126 -112
h248zM349 720v-137h-132v137h132z" />
    <glyph glyph-name="Eogonek" unicode="&#x118;" horiz-adv-x="583" 
d="M73 700h465v-114h-334v-170h268v-114h-268v-187h345v-115h-476v700zM561 -196.5q-28 -15.5 -61 -15.5q-45 0 -72.5 25.5t-27.5 66.5q0 38 19.5 69.5t50.5 50.5h79q-29 -22 -44 -46t-15 -46q0 -16 8 -24.5t22 -8.5q21 0 42 26l47 -56q-20 -26 -48 -41.5z" />
    <glyph glyph-name="eogonek" unicode="&#x119;" horiz-adv-x="560" 
d="M368 -196.5q-28 -15.5 -61 -15.5q-45 0 -72.5 25.5t-27.5 66.5q0 34 16.5 63.5t43.5 49.5q-73 5 -126 43t-81 96t-28 122q0 69 28 127.5t84 94.5t135 36q80 0 135.5 -34.5t82.5 -90t27 -118.5q0 -22 -2 -42h-372q7 -61 44 -97t95 -36q47 0 77 19t40 55h120
q-11 -65 -57 -109.5t-114 -59.5q-58 -46 -58 -91q0 -16 8 -24.5t22 -8.5q21 0 42 26l47 -56q-20 -26 -48 -41.5zM401 308q-4 50 -36.5 81t-85.5 31q-107 0 -126 -112h248z" />
    <glyph glyph-name="Ecaron" unicode="&#x11a;" horiz-adv-x="583" 
d="M73 700h465v-114h-334v-170h268v-114h-268v-187h345v-115h-476v700zM135 876h110l62 -59l61 59h109l-111 -120h-117z" />
    <glyph glyph-name="ecaron" unicode="&#x11b;" horiz-adv-x="560" 
d="M151.5 29q-58.5 37 -89 97t-30.5 128q0 69 28 127.5t84 94.5t135 36q80 0 135.5 -34.5t82.5 -90t27 -118.5q0 -22 -2 -42h-372q7 -61 44 -97t95 -36q47 0 77 19t40 55h120q-14 -80 -79 -128t-158 -48q-79 0 -137.5 37zM401 308q-4 50 -36.5 81t-85.5 31q-107 0 -126 -112
h248zM119 700h106l57 -67l56 67h106l-108 -140h-107z" />
    <glyph glyph-name="Gcircumflex" unicode="&#x11c;" horiz-adv-x="748" 
d="M211 33q-78 41 -125 121.5t-47 195.5t48 195.5t128 121.5t174 41q84 0 152.5 -31t109.5 -87t46 -128h-132q-9 59 -57.5 95.5t-119.5 36.5q-63 0 -113.5 -29t-79.5 -84t-29 -131t29 -132.5t79 -86.5t112 -30q47 0 90 19t69 50.5t26 68.5q0 17 -9.5 26.5t-25.5 9.5h-142
v101h185q47 0 82 -33t35 -82v-261h-118v111q-20 -53 -74 -86t-123 -33q-92 0 -170 41zM318 876h117l108 -120h-106l-61 59l-62 -59h-104z" />
    <glyph glyph-name="gcircumflex" unicode="&#x11d;" horiz-adv-x="604" 
d="M104 -106h232q37 0 60.5 25.5t23.5 64.5v72q-19 -29 -59 -46.5t-87 -17.5q-75 0 -129 32.5t-82.5 91.5t-28.5 136t28.5 136t82 91.5t127.5 32.5q47 0 86 -17.5t62 -47.5v57h122v-532q0 -79 -52 -127.5t-136 -48.5h-250v98zM193 140q37 -42 98 -42q62 0 99.5 42t37.5 112
t-37.5 112t-99.5 42q-61 0 -98 -42t-37 -112t37 -112zM241 700h107l108 -140h-106l-56 66l-57 -66h-106z" />
    <glyph glyph-name="Gbreve" unicode="&#x11e;" horiz-adv-x="748" 
d="M211 33q-78 41 -125 121.5t-47 195.5t48 195.5t128 121.5t174 41q84 0 152.5 -31t109.5 -87t46 -128h-132q-9 59 -57.5 95.5t-119.5 36.5q-63 0 -113.5 -29t-79.5 -84t-29 -131t29 -132.5t79 -86.5t112 -30q47 0 90 19t69 50.5t26 68.5q0 17 -9.5 26.5t-25.5 9.5h-142
v101h185q47 0 82 -33t35 -82v-261h-118v111q-20 -53 -74 -86t-123 -33q-92 0 -170 41zM296.5 771.5q-34.5 18.5 -53 50.5t-18.5 70h96q0 -28 14.5 -42t39.5 -14t39.5 14t14.5 42h96q0 -38 -18.5 -70t-53 -50.5t-78.5 -18.5t-78.5 18.5z" />
    <glyph glyph-name="gbreve" unicode="&#x11f;" horiz-adv-x="604" 
d="M104 -106h232q37 0 60.5 25.5t23.5 64.5v72q-19 -29 -59 -46.5t-87 -17.5q-75 0 -129 32.5t-82.5 91.5t-28.5 136t28.5 136t82 91.5t127.5 32.5q47 0 86 -17.5t62 -47.5v57h122v-532q0 -79 -52 -127.5t-136 -48.5h-250v98zM193 140q37 -42 98 -42q62 0 99.5 42t37.5 112
t-37.5 112t-99.5 42q-61 0 -98 -42t-37 -112t37 -112zM215.5 576.5q-34.5 19.5 -53 52t-18.5 71.5h96q0 -27 15 -43.5t39 -16.5q25 0 39.5 16t14.5 44h97q0 -39 -19 -71.5t-53 -52t-79 -19.5q-44 0 -78.5 19.5z" />
    <glyph glyph-name="Gdotaccent" unicode="&#x120;" horiz-adv-x="748" 
d="M211 33q-78 41 -125 121.5t-47 195.5t48 195.5t128 121.5t174 41q84 0 152.5 -31t109.5 -87t46 -128h-132q-9 59 -57.5 95.5t-119.5 36.5q-63 0 -113.5 -29t-79.5 -84t-29 -131t29 -132.5t79 -86.5t112 -30q47 0 90 19t69 50.5t26 68.5q0 17 -9.5 26.5t-25.5 9.5h-142
v101h185q47 0 82 -33t35 -82v-261h-118v111q-20 -53 -74 -86t-123 -33q-92 0 -170 41zM441 916v-137h-132v137h132z" />
    <glyph glyph-name="gdotaccent" unicode="&#x121;" horiz-adv-x="604" 
d="M104 -106h232q37 0 60.5 25.5t23.5 64.5v72q-19 -29 -59 -46.5t-87 -17.5q-75 0 -129 32.5t-82.5 91.5t-28.5 136t28.5 136t82 91.5t127.5 32.5q47 0 86 -17.5t62 -47.5v57h122v-532q0 -79 -52 -127.5t-136 -48.5h-250v98zM193 140q37 -42 98 -42q62 0 99.5 42t37.5 112
t-37.5 112t-99.5 42q-61 0 -98 -42t-37 -112t37 -112zM360 720v-137h-132v137h132z" />
    <glyph glyph-name="uni0122" unicode="&#x122;" horiz-adv-x="748" 
d="M211 33q-78 41 -125 121.5t-47 195.5t48 195.5t128 121.5t174 41q84 0 152.5 -31t109.5 -87t46 -128h-132q-9 59 -57.5 95.5t-119.5 36.5q-63 0 -113.5 -29t-79.5 -84t-29 -131t29 -132.5t79 -86.5t112 -30q47 0 90 19t69 50.5t26 68.5q0 17 -9.5 26.5t-25.5 9.5h-142
v101h185q47 0 82 -33t35 -82v-261h-118v111q-20 -53 -74 -86t-123 -33q-92 0 -170 41zM312 -68h138l-82 -161h-107z" />
    <glyph glyph-name="uni0123" unicode="&#x123;" horiz-adv-x="604" 
d="M104 -106h232q37 0 60.5 25.5t23.5 64.5v72q-19 -29 -59 -46.5t-87 -17.5q-75 0 -129 32.5t-82.5 91.5t-28.5 136t28.5 136t82 91.5t127.5 32.5q47 0 86 -17.5t62 -47.5v57h122v-532q0 -79 -52 -127.5t-136 -48.5h-250v98zM193 140q37 -42 98 -42q62 0 99.5 42t37.5 112
t-37.5 112t-99.5 42q-61 0 -98 -42t-37 -112t37 -112zM374 568h-140l62 155h107z" />
    <glyph glyph-name="Hcircumflex" unicode="&#x124;" horiz-adv-x="720" 
d="M648 700v-700h-132v301h-312v-301h-131v700h131v-284h312v284h132zM303 876h117l108 -120h-106l-61 59l-62 -59h-104z" />
    <glyph glyph-name="hcircumflex" unicode="&#x125;" horiz-adv-x="586" 
d="M62 720h123v-294q20 41 61.5 63.5t95.5 22.5q56 0 98.5 -25.5t65.5 -70.5t23 -104v-312h-122v286q0 52 -29.5 84.5t-76.5 32.5q-51 0 -83.5 -36t-32.5 -92v-275h-123v720zM66 876h117l108 -120h-106l-61 59l-62 -59h-104z" />
    <glyph glyph-name="Hbar" unicode="&#x126;" horiz-adv-x="747" 
d="M661 700v-63h64v-99h-64v-538h-132v301h-312v-301h-131v538h-63v99h63v63h131v-63h312v63h132zM529 416v122h-312v-122h312z" />
    <glyph glyph-name="hbar" unicode="&#x127;" horiz-adv-x="586" 
d="M62 564h-75v85h75v71h123v-71h165v-85h-165v-138q20 41 61.5 63.5t95.5 22.5q56 0 98.5 -25.5t65.5 -70.5t23 -104v-312h-122v286q0 52 -29.5 84.5t-76.5 32.5q-51 0 -83.5 -36t-32.5 -92v-275h-123v564z" />
    <glyph glyph-name="Itilde" unicode="&#x128;" horiz-adv-x="277" 
d="M73 700h132v-700h-132v700zM161 774q-15 6 -35 17q-24 15 -40 15q-15 0 -25.5 -9.5t-12.5 -25.5h-80q0 54 32 90.5t78 36.5q21 0 36.5 -6t33.5 -17q13 -8 22 -12t19 -4q15 0 26 10t14 26h79q-1 -57 -33 -92t-78 -35q-21 0 -36 6z" />
    <glyph glyph-name="itilde" unicode="&#x129;" horiz-adv-x="247" 
d="M62 504h123v-504h-123v504zM146 578q-15 6 -35 17q-24 15 -40 15q-15 0 -25.5 -9.5t-12.5 -25.5h-80q0 54 32 90.5t78 36.5q21 0 36.5 -6t33.5 -17q13 -8 22 -12t19 -4q15 0 26 10t14 26h79q-1 -57 -33 -92t-78 -35q-21 0 -36 6z" />
    <glyph glyph-name="Imacron" unicode="&#x12a;" horiz-adv-x="277" 
d="M73 700h132v-700h-132v700zM-1 875h276v-94h-276v94z" />
    <glyph glyph-name="imacron" unicode="&#x12b;" horiz-adv-x="247" 
d="M62 504h123v-504h-123v504zM-16 679h276v-94h-276v94z" />
    <glyph glyph-name="Ibreve" unicode="&#x12c;" horiz-adv-x="277" 
d="M73 700h132v-700h-132v700zM59.5 771.5q-34.5 18.5 -53 50.5t-18.5 70h96q0 -28 14.5 -42t39.5 -14t39.5 14t14.5 42h96q0 -38 -18.5 -70t-53 -50.5t-78.5 -18.5t-78.5 18.5z" />
    <glyph glyph-name="ibreve" unicode="&#x12d;" horiz-adv-x="247" 
d="M62 504h123v-504h-123v504zM44.5 576.5q-34.5 19.5 -53 52t-18.5 71.5h96q0 -27 15 -43.5t39 -16.5q25 0 39.5 16t14.5 44h97q0 -39 -19 -71.5t-53 -52t-79 -19.5q-44 0 -78.5 19.5z" />
    <glyph glyph-name="Iogonek" unicode="&#x12e;" horiz-adv-x="277" 
d="M73 700h132v-700h-132v700zM202 -196.5q-28 -15.5 -61 -15.5q-45 0 -72.5 25.5t-27.5 66.5q0 38 19.5 69.5t50.5 50.5h79q-29 -22 -44 -46t-15 -46q0 -16 8 -24.5t22 -8.5q21 0 42 26l47 -56q-20 -26 -48 -41.5z" />
    <glyph glyph-name="iogonek" unicode="&#x12f;" horiz-adv-x="247" 
d="M62 504h123v-504h-123v504zM189 720v-137h-132v137h132zM198 -196.5q-28 -15.5 -61 -15.5q-45 0 -72.5 25.5t-27.5 66.5q0 38 19.5 69.5t50.5 50.5h79q-29 -22 -44 -46t-15 -46q0 -16 8 -24.5t22 -8.5q21 0 42 26l47 -56q-20 -26 -48 -41.5z" />
    <glyph glyph-name="Idotaccent" unicode="&#x130;" horiz-adv-x="277" 
d="M73 700h132v-700h-132v700zM205 916v-137h-132v137h132z" />
    <glyph glyph-name="dotlessi" unicode="&#x131;" horiz-adv-x="247" 
d="M62 504h123v-504h-123v504z" />
    <glyph glyph-name="IJ" unicode="&#x132;" horiz-adv-x="638" 
d="M73 700h132v-700h-132v700zM422 136.5q15 21.5 15 68.5v495h132v-500q0 -100 -45.5 -150t-129.5 -50h-100v115h76q37 0 52 21.5z" />
    <glyph glyph-name="ij" unicode="&#x133;" horiz-adv-x="480" 
d="M62 504h123v-504h-123v504zM189 720v-137h-132v137h132zM197 -106h35q29 0 46 20.5t17 57.5v532h123v-544q0 -77 -44.5 -120.5t-123.5 -43.5h-53v98zM423 720v-137h-132v137h132z" />
    <glyph glyph-name="Jcircumflex" unicode="&#x134;" horiz-adv-x="357" 
d="M141 136.5q15 21.5 15 68.5v495h132v-500q0 -100 -45.5 -150t-129.5 -50h-100v115h76q37 0 52 21.5zM164 876h117l108 -120h-106l-61 59l-62 -59h-104z" />
    <glyph glyph-name="jcircumflex" unicode="&#x135;" horiz-adv-x="247" 
d="M-36 -106h35q29 0 46 20.5t17 57.5v532h123v-544q0 -77 -44.5 -120.5t-123.5 -43.5h-53v98zM67 680h117l108 -120h-106l-61 59l-62 -59h-104z" />
    <glyph glyph-name="uni0136" unicode="&#x136;" horiz-adv-x="666" 
d="M73 0v700h132v-306l282 306h164l-257 -278l284 -422h-165l-210 324l-98 -106v-218h-132zM266 -68h138l-82 -161h-107z" />
    <glyph glyph-name="uni0137" unicode="&#x137;" horiz-adv-x="540" 
d="M62 720h124v-399l192 183h156l-205 -197l222 -307h-148l-158 225l-59 -57v-168h-124v720zM201 -68h138l-82 -161h-107z" />
    <glyph glyph-name="kgreenlandic" unicode="&#x138;" horiz-adv-x="540" 
d="M62 0v504h124v-182l194 182h154l-205 -197l222 -307h-148l-158 225l-59 -57v-168h-124z" />
    <glyph glyph-name="Lacute" unicode="&#x139;" horiz-adv-x="541" 
d="M73 700h132v-585h327v-115h-459v700zM168 884h133l-110 -128h-106z" />
    <glyph glyph-name="lacute" unicode="&#x13a;" horiz-adv-x="247" 
d="M62 720h123v-720h-123v720zM144 904h132l-101 -148h-106z" />
    <glyph glyph-name="uni013B" unicode="&#x13b;" horiz-adv-x="541" 
d="M73 700h132v-585h327v-115h-459v700zM216 -68h138l-82 -161h-107z" />
    <glyph glyph-name="uni013C" unicode="&#x13c;" horiz-adv-x="247" 
d="M62 720h123v-720h-123v720zM59 -68h138l-82 -161h-107z" />
    <glyph glyph-name="Lcaron" unicode="&#x13d;" horiz-adv-x="544" 
d="M73 700h132v-585h327v-115h-459v700zM351 745h116l-55 -185h-92z" />
    <glyph glyph-name="lcaron" unicode="&#x13e;" horiz-adv-x="272" 
d="M62 720h123v-720h-123v720zM267 745h116l-55 -185h-92z" />
    <glyph glyph-name="Ldot" unicode="&#x13f;" horiz-adv-x="546" 
d="M73 700h132v-585h327v-115h-459v700zM450 431v-137h-132v137h132z" />
    <glyph glyph-name="ldot" unicode="&#x140;" horiz-adv-x="384" 
d="M62 720h123v-720h-123v720zM381 439v-137h-132v137h132z" />
    <glyph glyph-name="Lslash" unicode="&#x141;" horiz-adv-x="572" 
d="M104 230l-70 -42v109l70 42v361h132v-281l80 48v-109l-80 -48v-195h327v-115h-459v230z" />
    <glyph glyph-name="lslash" unicode="&#x142;" horiz-adv-x="339" 
d="M110 284l-79 -48v109l79 48v327h123v-253l80 48v-109l-80 -48v-358h-123v284z" />
    <glyph glyph-name="Nacute" unicode="&#x143;" horiz-adv-x="723" 
d="M73 700h142l304 -494v494h131v-700h-142l-304 493v-493h-131v700zM389 884h133l-110 -128h-106z" />
    <glyph glyph-name="nacute" unicode="&#x144;" horiz-adv-x="586" 
d="M62 504h123v-78q20 41 61.5 63.5t95.5 22.5q56 0 98.5 -25.5t65.5 -70.5t23 -104v-312h-122v286q0 52 -29.5 84.5t-76.5 32.5q-51 0 -83.5 -36t-32.5 -92v-275h-123v504zM316 708h132l-101 -148h-106z" />
    <glyph glyph-name="uni0145" unicode="&#x145;" horiz-adv-x="723" 
d="M73 700h142l304 -494v494h131v-700h-142l-304 493v-493h-131v700zM299 -68h138l-82 -161h-107z" />
    <glyph glyph-name="uni0146" unicode="&#x146;" horiz-adv-x="586" 
d="M62 504h123v-78q20 41 61.5 63.5t95.5 22.5q56 0 98.5 -25.5t65.5 -70.5t23 -104v-312h-122v286q0 52 -29.5 84.5t-76.5 32.5q-51 0 -83.5 -36t-32.5 -92v-275h-123v504zM231 -68h138l-82 -161h-107z" />
    <glyph glyph-name="Ncaron" unicode="&#x147;" horiz-adv-x="723" 
d="M73 700h142l304 -494v494h131v-700h-142l-304 493v-493h-131v700zM189 876h110l62 -59l61 59h109l-111 -120h-117z" />
    <glyph glyph-name="ncaron" unicode="&#x148;" horiz-adv-x="586" 
d="M62 504h123v-78q20 41 61.5 63.5t95.5 22.5q56 0 98.5 -25.5t65.5 -70.5t23 -104v-312h-122v286q0 52 -29.5 84.5t-76.5 32.5q-51 0 -83.5 -36t-32.5 -92v-275h-123v504zM130 700h106l57 -67l56 67h106l-108 -140h-107z" />
    <glyph glyph-name="napostrophe" unicode="&#x149;" horiz-adv-x="586" 
d="M62 504h123v-78q20 41 61.5 63.5t95.5 22.5q56 0 98.5 -25.5t65.5 -70.5t23 -104v-312h-122v286q0 52 -29.5 84.5t-76.5 32.5q-51 0 -83.5 -36t-32.5 -92v-275h-123v504zM3 745h116l-55 -185h-92z" />
    <glyph glyph-name="Eng" unicode="&#x14a;" horiz-adv-x="723" 
d="M375 -89h77q33 0 49.5 21t16.5 59v2l-314 498v-491h-131v700h142l304 -492v492h131v-704q0 -100 -45.5 -150t-129.5 -50h-100v115z" />
    <glyph glyph-name="eng" unicode="&#x14b;" horiz-adv-x="586" 
d="M308 -106h36q29 0 46 20.5t17 57.5v314q0 52 -29.5 84.5t-76.5 32.5q-51 0 -83.5 -36t-32.5 -92v-275h-123v504h123v-78q20 41 61.5 63.5t95.5 22.5q56 0 98.5 -25.5t65.5 -70.5t23 -104v-352q0 -77 -44.5 -120.5t-122.5 -43.5h-54v98z" />
    <glyph glyph-name="Omacron" unicode="&#x14c;" horiz-adv-x="782" 
d="M210.5 38.5q-80.5 46.5 -126.5 128t-46 183.5t46 183.5t126.5 128t181.5 46.5q100 0 180.5 -46.5t126.5 -128t46 -183.5t-46 -183.5t-126.5 -128t-180.5 -46.5q-101 0 -181.5 46.5zM199.5 225.5q28.5 -55.5 78.5 -87t113 -31.5t113.5 31.5t79 87t28.5 124.5t-28.5 125
t-79 87.5t-113.5 31.5t-113 -31.5t-78.5 -87.5t-28.5 -125t28.5 -124.5zM253 875h276v-94h-276v94z" />
    <glyph glyph-name="omacron" unicode="&#x14d;" horiz-adv-x="591" 
d="M160 25.5q-60 33.5 -94 93t-34 133.5t34 133.5t94 93t136 33.5q75 0 135 -33.5t94 -93t34 -133.5t-34 -133.5t-94 -93t-135 -33.5q-76 0 -136 33.5zM194.5 141q38.5 -43 101.5 -43q62 0 100.5 43t38.5 111t-38.5 111t-100.5 43q-63 0 -101.5 -42.5t-38.5 -111.5
q0 -68 38.5 -111zM157 679h276v-94h-276v94z" />
    <glyph glyph-name="Obreve" unicode="&#x14e;" horiz-adv-x="782" 
d="M210.5 38.5q-80.5 46.5 -126.5 128t-46 183.5t46 183.5t126.5 128t181.5 46.5q100 0 180.5 -46.5t126.5 -128t46 -183.5t-46 -183.5t-126.5 -128t-180.5 -46.5q-101 0 -181.5 46.5zM199.5 225.5q28.5 -55.5 78.5 -87t113 -31.5t113.5 31.5t79 87t28.5 124.5t-28.5 125
t-79 87.5t-113.5 31.5t-113 -31.5t-78.5 -87.5t-28.5 -125t28.5 -124.5zM313.5 771.5q-34.5 18.5 -53 50.5t-18.5 70h96q0 -28 14.5 -42t39.5 -14t39.5 14t14.5 42h96q0 -38 -18.5 -70t-53 -50.5t-78.5 -18.5t-78.5 18.5z" />
    <glyph glyph-name="obreve" unicode="&#x14f;" horiz-adv-x="591" 
d="M160 25.5q-60 33.5 -94 93t-34 133.5t34 133.5t94 93t136 33.5q75 0 135 -33.5t94 -93t34 -133.5t-34 -133.5t-94 -93t-135 -33.5q-76 0 -136 33.5zM194.5 141q38.5 -43 101.5 -43q62 0 100.5 43t38.5 111t-38.5 111t-100.5 43q-63 0 -101.5 -42.5t-38.5 -111.5
q0 -68 38.5 -111zM217.5 576.5q-34.5 19.5 -53 52t-18.5 71.5h96q0 -27 15 -43.5t39 -16.5q25 0 39.5 16t14.5 44h97q0 -39 -19 -71.5t-53 -52t-79 -19.5q-44 0 -78.5 19.5z" />
    <glyph glyph-name="Ohungarumlaut" unicode="&#x150;" horiz-adv-x="782" 
d="M210.5 38.5q-80.5 46.5 -126.5 128t-46 183.5t46 183.5t126.5 128t181.5 46.5q100 0 180.5 -46.5t126.5 -128t46 -183.5t-46 -183.5t-126.5 -128t-180.5 -46.5q-101 0 -181.5 46.5zM199.5 225.5q28.5 -55.5 78.5 -87t113 -31.5t113.5 31.5t79 87t28.5 124.5t-28.5 125
t-79 87.5t-113.5 31.5t-113 -31.5t-78.5 -87.5t-28.5 -125t28.5 -124.5zM330 884h132l-110 -128h-105zM497 884h133l-110 -128h-106z" />
    <glyph glyph-name="ohungarumlaut" unicode="&#x151;" horiz-adv-x="591" 
d="M160 25.5q-60 33.5 -94 93t-34 133.5t34 133.5t94 93t136 33.5q75 0 135 -33.5t94 -93t34 -133.5t-34 -133.5t-94 -93t-135 -33.5q-76 0 -136 33.5zM194.5 141q38.5 -43 101.5 -43q62 0 100.5 43t38.5 111t-38.5 111t-100.5 43q-63 0 -101.5 -42.5t-38.5 -111.5
q0 -68 38.5 -111zM226 708h132l-101 -148h-106zM393 708h132l-101 -148h-106z" />
    <glyph glyph-name="OE" unicode="&#x152;" horiz-adv-x="1003" 
d="M216.5 39.5q-81.5 39.5 -129.5 118.5t-48 192t48 192t129.5 118.5t180.5 39.5h561v-114h-333v-170h267v-114h-267v-187h344v-115h-572q-99 0 -180.5 39.5zM240.5 172q67.5 -57 168.5 -57h84v471h-84q-101 0 -168.5 -57.5t-67.5 -178.5t67.5 -178z" />
    <glyph glyph-name="oe" unicode="&#x153;" horiz-adv-x="973" 
d="M160 25.5q-60 33.5 -94 93t-34 133.5t34 133.5t94 93t136 33.5q62 0 114.5 -23.5t88.5 -65.5q32 42 80.5 65.5t112.5 23.5q80 0 135.5 -34.5t82.5 -90t27 -118.5q0 -22 -2 -42h-372q7 -61 44 -97t95 -36q47 0 77 19t40 55h120q-14 -80 -79 -128t-158 -48q-64 0 -114.5 25
t-85.5 68q-36 -44 -89 -68.5t-117 -24.5q-76 0 -136 33.5zM194.5 141q38.5 -43 101.5 -43q62 0 100.5 43t38.5 111t-38.5 111t-100.5 43q-63 0 -101.5 -42.5t-38.5 -111.5q0 -68 38.5 -111zM814 308q-4 50 -36.5 81t-85.5 31q-107 0 -126 -112h248z" />
    <glyph glyph-name="Racute" unicode="&#x154;" horiz-adv-x="647" 
d="M73 700h286q72 0 124.5 -27.5t80.5 -76t28 -112.5q0 -102 -94 -151q36 -23 57.5 -61t25.5 -85l17 -187h-131l-17 172q-3 40 -29 65.5t-65 25.5h-151v-263h-132v700zM353 377q55 0 82.5 30.5t27.5 76.5t-27.5 75.5t-82.5 29.5h-148v-212h148zM337 884h133l-110 -128h-106z
" />
    <glyph glyph-name="racute" unicode="&#x155;" horiz-adv-x="385" 
d="M211 357.5q-26 -43.5 -26 -119.5v-238h-123v504h123v-89q19 48 49.5 68.5t79.5 20.5h59v-103h-79q-57 0 -83 -43.5zM247 708h132l-101 -148h-106z" />
    <glyph glyph-name="uni0156" unicode="&#x156;" horiz-adv-x="647" 
d="M73 700h286q72 0 124.5 -27.5t80.5 -76t28 -112.5q0 -102 -94 -151q36 -23 57.5 -61t25.5 -85l17 -187h-131l-17 172q-3 40 -29 65.5t-65 25.5h-151v-263h-132v700zM353 377q55 0 82.5 30.5t27.5 76.5t-27.5 75.5t-82.5 29.5h-148v-212h148zM259 -68h138l-82 -161h-107z
" />
    <glyph glyph-name="uni0157" unicode="&#x157;" horiz-adv-x="385" 
d="M211 357.5q-26 -43.5 -26 -119.5v-238h-123v504h123v-89q19 48 49.5 68.5t79.5 20.5h59v-103h-79q-57 0 -83 -43.5zM56 -68h138l-82 -161h-107z" />
    <glyph glyph-name="Rcaron" unicode="&#x158;" horiz-adv-x="647" 
d="M73 700h286q72 0 124.5 -27.5t80.5 -76t28 -112.5q0 -102 -94 -151q36 -23 57.5 -61t25.5 -85l17 -187h-131l-17 172q-3 40 -29 65.5t-65 25.5h-151v-263h-132v700zM353 377q55 0 82.5 30.5t27.5 76.5t-27.5 75.5t-82.5 29.5h-148v-212h148zM138 876h110l62 -59l61 59
h109l-111 -120h-117z" />
    <glyph glyph-name="rcaron" unicode="&#x159;" horiz-adv-x="385" 
d="M211 357.5q-26 -43.5 -26 -119.5v-238h-123v504h123v-89q19 48 49.5 68.5t79.5 20.5h59v-103h-79q-57 0 -83 -43.5zM61 700h106l57 -67l56 67h106l-108 -140h-107z" />
    <glyph glyph-name="Sacute" unicode="&#x15a;" horiz-adv-x="601" 
d="M163.5 22q-59.5 30 -94 85t-37.5 128h127q5 -59 43 -93.5t100 -34.5q58 0 92.5 23.5t34.5 68.5q0 30 -19 49t-48.5 29.5t-80.5 23.5q-72 18 -117.5 37.5t-78 61.5t-32.5 113q0 57 30.5 101.5t85.5 69t125 24.5q73 0 129.5 -26.5t89 -75.5t35.5 -114h-126q-5 46 -39 74
t-89 28q-52 0 -82 -22t-30 -59q0 -31 19.5 -50t49 -29.5t82.5 -22.5q73 -17 118.5 -35.5t78.5 -60.5t33 -114q0 -64 -33 -111t-92 -72.5t-136 -25.5q-79 0 -138.5 30zM321 884h133l-110 -128h-106z" />
    <glyph glyph-name="sacute" unicode="&#x15b;" horiz-adv-x="466" 
d="M89 39.5q-57 47.5 -61 128.5h112q4 -36 30.5 -57t67.5 -21q35 0 57 15.5t22 38.5q0 22 -13.5 34.5t-34 18t-57.5 12.5q-54 10 -87.5 22t-58 43t-24.5 88q0 43 23.5 77.5t64.5 53.5t92 19q89 0 145 -44.5t60 -118.5h-113q-4 33 -30.5 52t-58.5 19q-33 0 -52.5 -14.5
t-19.5 -39.5q0 -30 24.5 -40.5t77.5 -17.5q55 -8 90.5 -19.5t61 -44t25.5 -95.5q0 -71 -53 -114t-141 -43q-92 0 -149 47.5zM250 708h132l-101 -148h-106z" />
    <glyph glyph-name="Scircumflex" unicode="&#x15c;" horiz-adv-x="601" 
d="M163.5 22q-59.5 30 -94 85t-37.5 128h127q5 -59 43 -93.5t100 -34.5q58 0 92.5 23.5t34.5 68.5q0 30 -19 49t-48.5 29.5t-80.5 23.5q-72 18 -117.5 37.5t-78 61.5t-32.5 113q0 57 30.5 101.5t85.5 69t125 24.5q73 0 129.5 -26.5t89 -75.5t35.5 -114h-126q-5 46 -39 74
t-89 28q-52 0 -82 -22t-30 -59q0 -31 19.5 -50t49 -29.5t82.5 -22.5q73 -17 118.5 -35.5t78.5 -60.5t33 -114q0 -64 -33 -111t-92 -72.5t-136 -25.5q-79 0 -138.5 30zM237 876h117l108 -120h-106l-61 59l-62 -59h-104z" />
    <glyph glyph-name="scircumflex" unicode="&#x15d;" horiz-adv-x="466" 
d="M89 39.5q-57 47.5 -61 128.5h112q4 -36 30.5 -57t67.5 -21q35 0 57 15.5t22 38.5q0 22 -13.5 34.5t-34 18t-57.5 12.5q-54 10 -87.5 22t-58 43t-24.5 88q0 43 23.5 77.5t64.5 53.5t92 19q89 0 145 -44.5t60 -118.5h-113q-4 33 -30.5 52t-58.5 19q-33 0 -52.5 -14.5
t-19.5 -39.5q0 -30 24.5 -40.5t77.5 -17.5q55 -8 90.5 -19.5t61 -44t25.5 -95.5q0 -71 -53 -114t-141 -43q-92 0 -149 47.5zM175 700h107l108 -140h-106l-56 66l-57 -66h-106z" />
    <glyph glyph-name="Scedilla" unicode="&#x15e;" horiz-adv-x="601" 
d="M262 -6q-102 11 -164 76t-66 165h127q5 -59 43 -93.5t100 -34.5q58 0 92.5 23.5t34.5 68.5q0 30 -19 49t-48.5 29.5t-80.5 23.5q-72 18 -117.5 37.5t-78 61.5t-32.5 113q0 57 30.5 101.5t85.5 69t125 24.5q73 0 129.5 -26.5t89 -75.5t35.5 -114h-126q-5 46 -39 74t-89 28
q-52 0 -82 -22t-30 -59q0 -31 19.5 -50t49 -29.5t82.5 -22.5q73 -17 118.5 -35.5t78.5 -60.5t33 -114q0 -90 -63.5 -145.5t-169.5 -62.5l-18 -34q6 1 19 1q41 0 69 -20.5t28 -57.5q0 -45 -38 -69.5t-100 -24.5q-42 0 -82 14v67q42 -14 82 -14q55 0 55 28q0 12 -12.5 18
t-32.5 6q-23 0 -44 -6l-28 26z" />
    <glyph glyph-name="scedilla" unicode="&#x15f;" horiz-adv-x="466" 
d="M187 -4q-71 13 -113 58t-46 114h112q4 -36 30.5 -57t67.5 -21q35 0 57 15.5t22 38.5q0 22 -13.5 34.5t-34 18t-57.5 12.5q-54 10 -87.5 22t-58 43t-24.5 88q0 43 23.5 77.5t64.5 53.5t92 19q89 0 145 -44.5t60 -118.5h-113q-4 33 -30.5 52t-58.5 19q-33 0 -52.5 -14.5
t-19.5 -39.5q0 -30 24.5 -40.5t77.5 -17.5q55 -8 90.5 -19.5t61 -44t25.5 -95.5q0 -68 -48.5 -110t-130.5 -47l-17 -33q6 1 19 1q41 0 69 -20.5t28 -57.5q0 -45 -38 -69.5t-100 -24.5q-42 0 -82 14v67q42 -14 82 -14q55 0 55 28q0 12 -12.5 18t-32.5 6q-23 0 -44 -6l-28 26z
" />
    <glyph glyph-name="Scaron" unicode="&#x160;" horiz-adv-x="601" 
d="M163.5 22q-59.5 30 -94 85t-37.5 128h127q5 -59 43 -93.5t100 -34.5q58 0 92.5 23.5t34.5 68.5q0 30 -19 49t-48.5 29.5t-80.5 23.5q-72 18 -117.5 37.5t-78 61.5t-32.5 113q0 57 30.5 101.5t85.5 69t125 24.5q73 0 129.5 -26.5t89 -75.5t35.5 -114h-126q-5 46 -39 74
t-89 28q-52 0 -82 -22t-30 -59q0 -31 19.5 -50t49 -29.5t82.5 -22.5q73 -17 118.5 -35.5t78.5 -60.5t33 -114q0 -64 -33 -111t-92 -72.5t-136 -25.5q-79 0 -138.5 30zM121 876h110l62 -59l61 59h109l-111 -120h-117z" />
    <glyph glyph-name="scaron" unicode="&#x161;" horiz-adv-x="466" 
d="M89 39.5q-57 47.5 -61 128.5h112q4 -36 30.5 -57t67.5 -21q35 0 57 15.5t22 38.5q0 22 -13.5 34.5t-34 18t-57.5 12.5q-54 10 -87.5 22t-58 43t-24.5 88q0 43 23.5 77.5t64.5 53.5t92 19q89 0 145 -44.5t60 -118.5h-113q-4 33 -30.5 52t-58.5 19q-33 0 -52.5 -14.5
t-19.5 -39.5q0 -30 24.5 -40.5t77.5 -17.5q55 -8 90.5 -19.5t61 -44t25.5 -95.5q0 -71 -53 -114t-141 -43q-92 0 -149 47.5zM63 700h106l57 -67l56 67h106l-108 -140h-107z" />
    <glyph glyph-name="uni0162" unicode="&#x162;" horiz-adv-x="575" 
d="M222 586h-212v114h555v-114h-211v-586h-61l-21 -41q6 1 19 1q41 0 69 -20.5t28 -57.5q0 -45 -38 -69.5t-100 -24.5q-42 0 -82 14v67q42 -14 82 -14q55 0 55 28q0 12 -12.5 18t-32.5 6q-23 0 -44 -6l-28 26l37 73h-3v586z" />
    <glyph glyph-name="uni0163" unicode="&#x163;" horiz-adv-x="398" 
d="M233 656v-152h140v-103h-140v-220q0 -38 19 -57.5t54 -19.5h67v-104h-81h-1l-21 -41q6 1 19 1q41 0 69 -20.5t28 -57.5q0 -45 -38 -69.5t-100 -24.5q-42 0 -82 14v67q42 -14 82 -14q55 0 55 28q0 12 -12.5 18t-32.5 6q-23 0 -44 -6l-28 26l41 82q-56 16 -86.5 59
t-30.5 108v225h-99v103h99v152h123z" />
    <glyph glyph-name="Tcaron" unicode="&#x164;" horiz-adv-x="575" 
d="M222 586h-212v114h555v-114h-211v-586h-132v586zM115 876h110l62 -59l61 59h109l-111 -120h-117z" />
    <glyph glyph-name="tcaron" unicode="&#x165;" horiz-adv-x="398" 
d="M233 656v-152h140v-103h-140v-220q0 -38 19 -57.5t54 -19.5h67v-104h-81q-84 0 -133 46.5t-49 129.5v225h-99v103h99v152h123zM337 745h116l-55 -185h-92z" />
    <glyph glyph-name="Tbar" unicode="&#x166;" horiz-adv-x="588" 
d="M229 302h-131v97h131v187h-212v114h555v-114h-211v-187h129v-97h-129v-302h-132v302z" />
    <glyph glyph-name="tbar" unicode="&#x167;" horiz-adv-x="413" 
d="M248 656v-152h140v-103h-140v-105h133v-85h-133v-30q0 -38 19 -57.5t54 -19.5h67v-104h-81q-84 0 -133 46.5t-49 129.5v35h-107v85h107v105h-99v103h99v152h123z" />
    <glyph glyph-name="Utilde" unicode="&#x168;" horiz-adv-x="683" 
d="M141.5 60q-74.5 68 -74.5 193v447h124v-448q0 -70 41 -107t110 -37t110 37t41 107v448h123v-447q0 -125 -74.5 -193t-199.5 -68q-126 0 -200.5 68zM365 774q-15 6 -35 17q-24 15 -40 15q-15 0 -25.5 -9.5t-12.5 -25.5h-80q0 54 32 90.5t78 36.5q21 0 36.5 -6t33.5 -17
q13 -8 22 -12t19 -4q15 0 26 10t14 26h79q-1 -57 -33 -92t-78 -35q-21 0 -36 6z" />
    <glyph glyph-name="utilde" unicode="&#x169;" horiz-adv-x="586" 
d="M523 0h-122v78q-21 -41 -62 -63.5t-95 -22.5q-85 0 -136.5 55.5t-51.5 144.5v312h123v-286q0 -52 29 -84.5t76 -32.5q52 0 84.5 36t32.5 92v275h122v-504zM315 578q-15 6 -35 17q-24 15 -40 15q-15 0 -25.5 -9.5t-12.5 -25.5h-80q0 54 32 90.5t78 36.5q21 0 36.5 -6
t33.5 -17q13 -8 22 -12t19 -4q15 0 26 10t14 26h79q-1 -57 -33 -92t-78 -35q-21 0 -36 6z" />
    <glyph glyph-name="Umacron" unicode="&#x16a;" horiz-adv-x="683" 
d="M141.5 60q-74.5 68 -74.5 193v447h124v-448q0 -70 41 -107t110 -37t110 37t41 107v448h123v-447q0 -125 -74.5 -193t-199.5 -68q-126 0 -200.5 68zM203 875h276v-94h-276v94z" />
    <glyph glyph-name="umacron" unicode="&#x16b;" horiz-adv-x="586" 
d="M523 0h-122v78q-21 -41 -62 -63.5t-95 -22.5q-85 0 -136.5 55.5t-51.5 144.5v312h123v-286q0 -52 29 -84.5t76 -32.5q52 0 84.5 36t32.5 92v275h122v-504zM153 679h276v-94h-276v94z" />
    <glyph glyph-name="Ubreve" unicode="&#x16c;" horiz-adv-x="683" 
d="M141.5 60q-74.5 68 -74.5 193v447h124v-448q0 -70 41 -107t110 -37t110 37t41 107v448h123v-447q0 -125 -74.5 -193t-199.5 -68q-126 0 -200.5 68zM263.5 771.5q-34.5 18.5 -53 50.5t-18.5 70h96q0 -28 14.5 -42t39.5 -14t39.5 14t14.5 42h96q0 -38 -18.5 -70t-53 -50.5
t-78.5 -18.5t-78.5 18.5z" />
    <glyph glyph-name="ubreve" unicode="&#x16d;" horiz-adv-x="586" 
d="M523 0h-122v78q-21 -41 -62 -63.5t-95 -22.5q-85 0 -136.5 55.5t-51.5 144.5v312h123v-286q0 -52 29 -84.5t76 -32.5q52 0 84.5 36t32.5 92v275h122v-504zM213.5 576.5q-34.5 19.5 -53 52t-18.5 71.5h96q0 -27 15 -43.5t39 -16.5q25 0 39.5 16t14.5 44h97
q0 -39 -19 -71.5t-53 -52t-79 -19.5q-44 0 -78.5 19.5z" />
    <glyph glyph-name="Uring" unicode="&#x16e;" horiz-adv-x="683" 
d="M141.5 60q-74.5 68 -74.5 193v447h124v-448q0 -70 41 -107t110 -37t110 37t41 107v448h123v-447q0 -125 -74.5 -193t-199.5 -68q-126 0 -200.5 68zM245.5 773.5q-36.5 31.5 -36.5 81.5t37 81.5t95 31.5q59 0 96.5 -31.5t37.5 -81.5t-37.5 -81.5t-96.5 -31.5t-95.5 31.5z
M299.5 817q16.5 -15 41.5 -15q26 0 43 15t17 38t-17 37.5t-43 14.5t-42 -14.5t-16 -37.5t16.5 -38z" />
    <glyph glyph-name="uring" unicode="&#x16f;" horiz-adv-x="586" 
d="M523 0h-122v78q-21 -41 -62 -63.5t-95 -22.5q-85 0 -136.5 55.5t-51.5 144.5v312h123v-286q0 -52 29 -84.5t76 -32.5q52 0 84.5 36t32.5 92v275h122v-504zM196.5 580.5q-37.5 34.5 -37.5 86.5t37.5 86.5t94.5 34.5q58 0 96 -34.5t38 -86.5q0 -53 -38 -87t-96 -34
q-57 0 -94.5 34.5zM249 627q16 -15 42 -15q27 0 43.5 15t16.5 40q0 24 -16.5 39t-43.5 15q-26 0 -42 -15t-16 -39q0 -25 16 -40z" />
    <glyph glyph-name="Uhungarumlaut" unicode="&#x170;" horiz-adv-x="683" 
d="M141.5 60q-74.5 68 -74.5 193v447h124v-448q0 -70 41 -107t110 -37t110 37t41 107v448h123v-447q0 -125 -74.5 -193t-199.5 -68q-126 0 -200.5 68zM280 884h132l-110 -128h-105zM447 884h133l-110 -128h-106z" />
    <glyph glyph-name="uhungarumlaut" unicode="&#x171;" horiz-adv-x="586" 
d="M523 0h-122v78q-21 -41 -62 -63.5t-95 -22.5q-85 0 -136.5 55.5t-51.5 144.5v312h123v-286q0 -52 29 -84.5t76 -32.5q52 0 84.5 36t32.5 92v275h122v-504zM223 708h132l-101 -148h-106zM390 708h132l-101 -148h-106z" />
    <glyph glyph-name="Uogonek" unicode="&#x172;" horiz-adv-x="683" 
d="M403 -196.5q-28 -15.5 -61 -15.5q-45 0 -72.5 25.5t-27.5 66.5q0 35 17 64.5t44 49.5q-109 10 -172.5 77t-63.5 182v447h124v-448q0 -70 41 -107t110 -37t110 37t41 107v448h123v-447q0 -114 -62 -180.5t-170 -78.5q-26 -21 -39 -43t-13 -43q0 -16 8 -24.5t22 -8.5
q21 0 42 26l47 -56q-20 -26 -48 -41.5z" />
    <glyph glyph-name="uogonek" unicode="&#x173;" horiz-adv-x="586" 
d="M523 0h1q-29 -22 -44 -46t-15 -46q0 -16 8 -24.5t22 -8.5q21 0 42 26l47 -56q-20 -26 -48 -41.5t-61 -15.5q-45 0 -72.5 25.5t-27.5 66.5q0 38 19.5 69.5t50.5 50.5h-44v78q-21 -41 -62 -63.5t-95 -22.5q-85 0 -136.5 55.5t-51.5 144.5v312h123v-286q0 -52 29 -84.5
t76 -32.5q52 0 84.5 36t32.5 92v275h122v-504z" />
    <glyph glyph-name="Wcircumflex" unicode="&#x174;" horiz-adv-x="999" 
d="M11 700h134l145 -505l153 505h112l153 -505l146 505h133l-208 -700h-131l-149 495l-149 -495h-129zM443 876h117l108 -120h-106l-61 59l-62 -59h-104z" />
    <glyph glyph-name="wcircumflex" unicode="&#x175;" horiz-adv-x="766" 
d="M12 504h123l93 -337l99 337h113l98 -337l93 337h123l-161 -504h-109l-101 339l-101 -339h-109zM331 700h107l108 -140h-106l-56 66l-57 -66h-106z" />
    <glyph glyph-name="Ycircumflex" unicode="&#x176;" horiz-adv-x="640" 
d="M254 291l-241 409h143l164 -286l165 286h142l-241 -409v-291h-132v291zM263 876h117l108 -120h-106l-61 59l-62 -59h-104z" />
    <glyph glyph-name="ycircumflex" unicode="&#x177;" horiz-adv-x="505" 
d="M195 1l-184 503h125l116 -346l116 346h126l-154 -422l-100 -286h-117zM205 700h107l108 -140h-106l-56 66l-57 -66h-106z" />
    <glyph glyph-name="Ydieresis" unicode="&#x178;" horiz-adv-x="640" 
d="M254 291l-241 409h143l164 -286l165 286h142l-241 -409v-291h-132v291zM469 894v-113h-109v113h109zM171 893h109v-113h-109v113z" />
    <glyph glyph-name="Zacute" unicode="&#x179;" horiz-adv-x="602" 
d="M28 113l388 474h-368v113h516v-113l-387 -474h388v-113h-537v113zM334 884h133l-110 -128h-106z" />
    <glyph glyph-name="zacute" unicode="&#x17a;" horiz-adv-x="493" 
d="M30 104l278 297h-262v103h402v-103l-275 -297h290v-104h-433v104zM283 708h132l-101 -148h-106z" />
    <glyph glyph-name="Zdotaccent" unicode="&#x17b;" horiz-adv-x="602" 
d="M28 113l388 474h-368v113h516v-113l-387 -474h388v-113h-537v113zM374 916v-137h-132v137h132z" />
    <glyph glyph-name="zdotaccent" unicode="&#x17c;" horiz-adv-x="493" 
d="M30 104l278 297h-262v103h402v-103l-275 -297h290v-104h-433v104zM327 720v-137h-132v137h132z" />
    <glyph glyph-name="Zcaron" unicode="&#x17d;" horiz-adv-x="602" 
d="M28 113l388 474h-368v113h516v-113l-387 -474h388v-113h-537v113zM135 876h110l62 -59l61 59h109l-111 -120h-117z" />
    <glyph glyph-name="zcaron" unicode="&#x17e;" horiz-adv-x="493" 
d="M30 104l278 297h-262v103h402v-103l-275 -297h290v-104h-433v104zM97 700h106l57 -67l56 67h106l-108 -140h-107z" />
    <glyph glyph-name="longs" unicode="&#x17f;" horiz-adv-x="319" 
d="M114 401h-99v103h99v47q0 77 49 123t131 46h90v-104h-76q-32 0 -51.5 -19t-19.5 -52v-545h-123v401z" />
    <glyph glyph-name="uni018F" unicode="&#x18f;" horiz-adv-x="743" 
d="M93.5 594.5q43.5 53.5 112 83t153.5 29.5q103 0 182 -49.5t122 -133t43 -181.5q0 -99 -40 -180t-115.5 -127.5t-178.5 -46.5q-102 0 -176.5 44t-113.5 118.5t-39 165.5q0 22 3 52h535q-4 67 -33.5 119t-78.5 81.5t-110 29.5q-79 0 -129 -34t-66 -95h-126
q12 71 55.5 124.5zM198.5 181.5q24.5 -42.5 69.5 -67t104 -24.5q84 0 137.5 48.5t67.5 139.5h-405q2 -54 26.5 -96.5z" />
    <glyph glyph-name="florin" unicode="&#x192;" horiz-adv-x="615" 
d="M590 401h-198l-88 -433q-19 -91 -73.5 -131.5t-145.5 -40.5h-72v99l83 -1q34 0 56 17.5t30 58.5l88 431h-131v103h152l9 44q19 91 73.5 131.5t145.5 40.5h71v-99h-83q-70 2 -85 -75l-9 -42h177v-103z" />
    <glyph glyph-name="uni019D" unicode="&#x19d;" horiz-adv-x="723" 
d="M57.5 -67q15.5 22 15.5 69v698h142l304 -494v494h131v-700h-142l-304 493v-496q0 -100 -45.5 -150t-129.5 -50h-100v114h77q36 0 51.5 22z" />
    <glyph glyph-name="Gcaron" unicode="&#x1e6;" horiz-adv-x="748" 
d="M211 33q-78 41 -125 121.5t-47 195.5t48 195.5t128 121.5t174 41q84 0 152.5 -31t109.5 -87t46 -128h-132q-9 59 -57.5 95.5t-119.5 36.5q-63 0 -113.5 -29t-79.5 -84t-29 -131t29 -132.5t79 -86.5t112 -30q47 0 90 19t69 50.5t26 68.5q0 17 -9.5 26.5t-25.5 9.5h-142
v101h185q47 0 82 -33t35 -82v-261h-118v111q-20 -53 -74 -86t-123 -33q-92 0 -170 41zM211 896h106l57 -67l56 67h106l-108 -140h-107z" />
    <glyph glyph-name="gcaron" unicode="&#x1e7;" horiz-adv-x="604" 
d="M104 -106h232q37 0 60.5 25.5t23.5 64.5v72q-19 -29 -59 -46.5t-87 -17.5q-75 0 -129 32.5t-82.5 91.5t-28.5 136t28.5 136t82 91.5t127.5 32.5q47 0 86 -17.5t62 -47.5v57h122v-532q0 -79 -52 -127.5t-136 -48.5h-250v98zM193 140q37 -42 98 -42q62 0 99.5 42t37.5 112
t-37.5 112t-99.5 42q-61 0 -98 -42t-37 -112t37 -112zM130 700h106l57 -67l56 67h106l-108 -140h-107z" />
    <glyph glyph-name="uni01EA" unicode="&#x1ea;" horiz-adv-x="782" 
d="M210.5 38.5q-80.5 46.5 -126.5 128t-46 183.5t46 183.5t126.5 128t181.5 46.5q100 0 180.5 -46.5t126.5 -128t46 -183.5q0 -82 -31 -152t-86.5 -119.5t-127.5 -71.5q-27 -21 -41.5 -44.5t-14.5 -44.5q0 -16 8 -24.5t22 -8.5q21 0 42 26l47 -56q-20 -26 -48 -41.5
t-61 -15.5q-45 0 -72.5 25.5t-27.5 66.5q0 58 47 102h-9q-101 0 -181.5 46.5zM199.5 225.5q28.5 -55.5 78.5 -87t113 -31.5t113.5 31.5t79 87t28.5 124.5t-28.5 125t-79 87.5t-113.5 31.5t-113 -31.5t-78.5 -87.5t-28.5 -125t28.5 -124.5z" />
    <glyph glyph-name="uni01EB" unicode="&#x1eb;" horiz-adv-x="591" 
d="M396.5 141q38.5 43 38.5 111t-38.5 111t-100.5 43q-63 0 -101.5 -42.5t-38.5 -111.5q0 -68 38.5 -111t101.5 -43q62 0 100.5 43zM66 385.5q34 59.5 94 93t136 33.5q75 0 135 -33.5t94 -93t34 -133.5q0 -65 -26.5 -119t-74 -89.5t-109.5 -46.5q-55 -45 -55 -89
q0 -16 8 -24.5t22 -8.5q21 0 42 26l47 -56q-20 -26 -48 -41.5t-61 -15.5q-45 0 -72.5 25.5t-27.5 66.5q0 35 17 64.5t44 49.5q-68 6 -121 41t-82.5 91.5t-29.5 125.5q0 74 34 133.5z" />
    <glyph glyph-name="Aringacute" unicode="&#x1fa;" horiz-adv-x="676" 
d="M244 275h188l-94 256zM276 700h124l270 -700h-137l-60 163h-270l-60 -163h-137zM231.5 926.5q26.5 29.5 71.5 38.5l72 111h133l-104 -121q31 -14 49 -40.5t18 -59.5q0 -50 -37.5 -81.5t-96.5 -31.5t-95.5 31.5t-36.5 81.5q0 42 26.5 71.5zM295.5 817q16.5 -15 41.5 -15
q26 0 43 15t17 38t-17 37.5t-43 14.5t-42 -14.5t-16 -37.5t16.5 -38z" />
    <glyph glyph-name="aringacute" unicode="&#x1fb;" horiz-adv-x="537" 
d="M121 11.5q-38 19.5 -59 54t-21 77.5q0 73 51.5 116t137.5 43h93q18 0 27 9.5t9 24.5q0 38 -27 61t-75 23q-47 0 -75.5 -25t-30.5 -61h-111q4 50 32 90.5t77.5 64t112.5 23.5q64 0 114 -23.5t77.5 -66t27.5 -98.5v-324h-122v75q-15 -38 -56 -60.5t-95 -22.5
q-49 0 -87 19.5zM156 736q22 30 59 43l74 147h132l-101 -147q37 -14 58.5 -43.5t21.5 -68.5q0 -53 -38 -87t-96 -34q-57 0 -94.5 34.5t-37.5 86.5q0 39 22 69zM181 101q21 -18 56 -18q57 0 89.5 36t32.5 94v8h-113q-39 0 -62.5 -20t-23.5 -53q0 -29 21 -47zM224 627
q16 -15 42 -15q27 0 43.5 15t16.5 40q0 24 -16.5 39t-43.5 15q-26 0 -42 -15t-16 -39q0 -25 16 -40z" />
    <glyph glyph-name="AEacute" unicode="&#x1fc;" horiz-adv-x="928" 
d="M-25 0l434 700h473v-114h-284v-170h218v-114h-218v-187h295v-115h-427v164h-253l-97 -164h-141zM466 279v314l-185 -314h185zM683 884h133l-110 -128h-106z" />
    <glyph glyph-name="aeacute" unicode="&#x1fd;" horiz-adv-x="885" 
d="M90 34q-49 42 -49 109q0 76 49.5 118.5t139.5 42.5h96q16 0 24.5 8.5t8.5 23.5q0 38 -29 61t-75 23t-74.5 -25.5t-30.5 -61.5h-110q4 50 31.5 91t75 64.5t107.5 23.5q57 0 102.5 -18.5t74.5 -52.5q30 34 74.5 52.5t99.5 18.5q80 0 135 -34.5t82 -90t27 -118.5
q0 -22 -2 -42h-370q5 -60 42.5 -96.5t94.5 -36.5q48 0 78 19t39 55h121q-14 -80 -79 -128t-159 -48q-65 0 -116 26t-85 72q-56 -98 -185 -98q-89 0 -138 42zM181.5 101.5q21.5 -18.5 55.5 -18.5q57 0 89.5 36t32.5 94v10h-113q-43 0 -64.5 -19.5t-21.5 -55.5
q0 -28 21.5 -46.5zM726 308q-3 49 -35.5 80.5t-85.5 31.5q-108 0 -127 -112h248zM474 708h132l-101 -148h-106z" />
    <glyph glyph-name="Oslashacute" unicode="&#x1fe;" horiz-adv-x="782" 
d="M207 40l-59 -73l-77 65l58 72q-44 48 -67.5 111t-23.5 135q0 102 46 183.5t126.5 128t181.5 46.5q100 0 184 -49l59 73l77 -65l-58 -71q43 -48 67 -111t24 -135q0 -102 -46 -183.5t-126.5 -128t-180.5 -46.5q-103 0 -185 48zM211 205l289 360q-47 29 -109 29
q-63 0 -113 -31.5t-78.5 -87.5t-28.5 -125q0 -83 40 -145zM391 107q63 0 113.5 31.5t79 87t28.5 124.5q0 82 -39 144l-290 -359q50 -28 108 -28zM418 884h133l-110 -128h-106z" />
    <glyph glyph-name="oslashacute" unicode="&#x1ff;" horiz-adv-x="593" 
d="M160 26l-46 -56l-55 45l44 55q-34 35 -52 81.5t-18 100.5q0 74 34 133.5t94 93t136 33.5t136 -34l46 56l54 -45l-44 -54q34 -35 52.5 -82t18.5 -101q0 -74 -34 -133.5t-94 -93t-135 -33.5q-77 0 -137 34zM179 163l184 227q-30 16 -66 16q-63 0 -101.5 -42.5t-38.5 -111.5
q0 -50 22 -89zM297 98q62 0 100.5 43t38.5 111q0 51 -22 89l-184 -227q30 -16 67 -16zM326 708h132l-101 -148h-106z" />
    <glyph glyph-name="uni0218" unicode="&#x218;" horiz-adv-x="601" 
d="M163.5 22q-59.5 30 -94 85t-37.5 128h127q5 -59 43 -93.5t100 -34.5q58 0 92.5 23.5t34.5 68.5q0 30 -19 49t-48.5 29.5t-80.5 23.5q-72 18 -117.5 37.5t-78 61.5t-32.5 113q0 57 30.5 101.5t85.5 69t125 24.5q73 0 129.5 -26.5t89 -75.5t35.5 -114h-126q-5 46 -39 74
t-89 28q-52 0 -82 -22t-30 -59q0 -31 19.5 -50t49 -29.5t82.5 -22.5q73 -17 118.5 -35.5t78.5 -60.5t33 -114q0 -64 -33 -111t-92 -72.5t-136 -25.5q-79 0 -138.5 30zM240 -68h138l-82 -161h-107z" />
    <glyph glyph-name="uni0219" unicode="&#x219;" horiz-adv-x="466" 
d="M89 39.5q-57 47.5 -61 128.5h112q4 -36 30.5 -57t67.5 -21q35 0 57 15.5t22 38.5q0 22 -13.5 34.5t-34 18t-57.5 12.5q-54 10 -87.5 22t-58 43t-24.5 88q0 43 23.5 77.5t64.5 53.5t92 19q89 0 145 -44.5t60 -118.5h-113q-4 33 -30.5 52t-58.5 19q-33 0 -52.5 -14.5
t-19.5 -39.5q0 -30 24.5 -40.5t77.5 -17.5q55 -8 90.5 -19.5t61 -44t25.5 -95.5q0 -71 -53 -114t-141 -43q-92 0 -149 47.5zM164 -68h138l-82 -161h-107z" />
    <glyph glyph-name="uni021A" unicode="&#x21a;" horiz-adv-x="575" 
d="M222 586h-212v114h555v-114h-211v-586h-132v586zM225 -68h138l-82 -161h-107z" />
    <glyph glyph-name="uni021B" unicode="&#x21b;" horiz-adv-x="398" 
d="M233 656v-152h140v-103h-140v-220q0 -38 19 -57.5t54 -19.5h67v-104h-81q-84 0 -133 46.5t-49 129.5v225h-99v103h99v152h123zM198 -68h138l-82 -161h-107z" />
    <glyph glyph-name="uni0232" unicode="&#x232;" horiz-adv-x="640" 
d="M254 291l-241 409h143l164 -286l165 286h142l-241 -409v-291h-132v291zM181 875h276v-94h-276v94z" />
    <glyph glyph-name="uni0233" unicode="&#x233;" horiz-adv-x="505" 
d="M195 1l-184 503h125l116 -346l116 346h126l-154 -422l-100 -286h-117zM119 679h276v-94h-276v94z" />
    <glyph glyph-name="uni0237" unicode="&#x237;" horiz-adv-x="247" 
d="M-36 -106h35q29 0 46 20.5t17 57.5v532h123v-544q0 -77 -44.5 -120.5t-123.5 -43.5h-53v98z" />
    <glyph glyph-name="uni0259" unicode="&#x259;" horiz-adv-x="560" 
d="M145.5 26.5q-55.5 34.5 -82.5 90t-27 118.5q0 22 2 42h371q-7 61 -43.5 97t-94.5 36q-47 0 -77.5 -19t-39.5 -55h-120q14 80 79 128t158 48q79 0 137 -37t88.5 -97t30.5 -128q0 -69 -28 -127.5t-83.5 -94.5t-134.5 -36q-80 0 -135.5 34.5zM194.5 115.5
q32.5 -31.5 86.5 -31.5q106 0 125 112h-247q3 -49 35.5 -80.5z" />
    <glyph glyph-name="uni0272" unicode="&#x272;" horiz-adv-x="586" 
d="M-36 -106h35q29 0 46 20.5t17 57.5v532h123v-78q20 41 61.5 63.5t95.5 22.5q56 0 98.5 -25.5t65.5 -70.5t23 -104v-312h-122v286q0 52 -29.5 84.5t-76.5 32.5q-51 0 -83.5 -36t-32.5 -92v-315q0 -77 -44.5 -120.5t-123.5 -43.5h-53v98z" />
    <glyph glyph-name="uni02BC" unicode="&#x2bc;" horiz-adv-x="210" 
d="M71 745h116l-56 -185h-92z" />
    <glyph glyph-name="circumflex" unicode="&#x2c6;" horiz-adv-x="408" 
d="M142 700h107l108 -140h-106l-56 66l-57 -66h-106z" />
    <glyph glyph-name="caron" unicode="&#x2c7;" horiz-adv-x="418" 
d="M40 700h106l57 -67l56 67h106l-108 -140h-107z" />
    <glyph glyph-name="breve" unicode="&#x2d8;" horiz-adv-x="387" 
d="M109.5 576.5q-34.5 19.5 -53 52t-18.5 71.5h96q0 -27 15 -43.5t39 -16.5q25 0 39.5 16t14.5 44h97q0 -39 -19 -71.5t-53 -52t-79 -19.5q-44 0 -78.5 19.5z" />
    <glyph glyph-name="dotaccent" unicode="&#x2d9;" horiz-adv-x="223" 
d="M179 720v-137h-132v137h132z" />
    <glyph glyph-name="ring" unicode="&#x2da;" horiz-adv-x="341" 
d="M74.5 580.5q-37.5 34.5 -37.5 86.5t37.5 86.5t94.5 34.5q58 0 96 -34.5t38 -86.5q0 -53 -38 -87t-96 -34q-57 0 -94.5 34.5zM127 627q16 -15 42 -15q27 0 43.5 15t16.5 40q0 24 -16.5 39t-43.5 15q-26 0 -42 -15t-16 -39q0 -25 16 -40z" />
    <glyph glyph-name="ogonek" unicode="&#x2db;" horiz-adv-x="301" 
d="M193 -196.5q-28 -15.5 -61 -15.5q-45 0 -72.5 25.5t-27.5 66.5q0 38 19.5 69.5t50.5 50.5h79q-29 -22 -44 -46t-15 -46q0 -16 8 -24.5t22 -8.5q21 0 42 26l47 -56q-20 -26 -48 -41.5z" />
    <glyph glyph-name="tilde" unicode="&#x2dc;" horiz-adv-x="441" 
d="M243 578q-15 6 -35 17q-24 15 -40 15q-15 0 -25.5 -9.5t-12.5 -25.5h-80q0 54 32 90.5t78 36.5q21 0 36.5 -6t33.5 -17q13 -8 22 -12t19 -4q15 0 26 10t14 26h79q-1 -57 -33 -92t-78 -35q-21 0 -36 6z" />
    <glyph glyph-name="hungarumlaut" unicode="&#x2dd;" horiz-adv-x="428" 
d="M122 708h132l-101 -148h-106zM289 708h132l-101 -148h-106z" />
    <glyph glyph-name="gravecomb" unicode="&#x300;" 
d="M105 560l-102 148h133l74 -148h-105z" />
    <glyph glyph-name="acutecomb" unicode="&#x301;" 
d="M108 708h132l-101 -148h-106z" />
    <glyph glyph-name="uni0302" unicode="&#x302;" 
d="M143 700h107l108 -140h-106l-56 66l-57 -66h-106z" />
    <glyph glyph-name="tildecomb" unicode="&#x303;" 
d="M225 578q-15 6 -35 17q-24 15 -40 15q-15 0 -25.5 -9.5t-12.5 -25.5h-80q0 54 32 90.5t78 36.5q21 0 36.5 -6t33.5 -17q13 -8 22 -12t19 -4q15 0 26 10t14 26h79q-1 -57 -33 -92t-78 -35q-21 0 -36 6z" />
    <glyph glyph-name="uni0304" unicode="&#x304;" 
d="M38 679h276v-94h-276v94z" />
    <glyph glyph-name="uni0306" unicode="&#x306;" 
d="M115.5 576.5q-34.5 19.5 -53 52t-18.5 71.5h96q0 -27 15 -43.5t39 -16.5q25 0 39.5 16t14.5 44h97q0 -39 -19 -71.5t-53 -52t-79 -19.5q-44 0 -78.5 19.5z" />
    <glyph glyph-name="uni0307" unicode="&#x307;" 
d="M182 720v-137h-132v137h132z" />
    <glyph glyph-name="uni0308" unicode="&#x308;" 
d="M348 698v-113h-109v113h109zM50 697h109v-113h-109v113z" />
    <glyph glyph-name="uni030A" unicode="&#x30a;" 
d="M68.5 580.5q-37.5 34.5 -37.5 86.5t37.5 86.5t94.5 34.5q58 0 96 -34.5t38 -86.5q0 -53 -38 -87t-96 -34q-57 0 -94.5 34.5zM121 627q16 -15 42 -15q27 0 43.5 15t16.5 40q0 24 -16.5 39t-43.5 15q-26 0 -42 -15t-16 -39q0 -25 16 -40z" />
    <glyph glyph-name="uni030B" unicode="&#x30b;" 
d="M148 708h132l-101 -148h-106zM315 708h132l-101 -148h-106z" />
    <glyph glyph-name="uni030C" unicode="&#x30c;" 
d="M32 700h106l57 -67l56 67h106l-108 -140h-107z" />
    <glyph glyph-name="uni0312" unicode="&#x312;" 
d="M163 568h-140l62 155h107z" />
    <glyph glyph-name="uni0326" unicode="&#x326;" 
d="M101 -68h138l-82 -161h-107z" />
    <glyph glyph-name="uni0327" unicode="&#x327;" 
d="M115 17h69l-30 -58q6 1 19 1q41 0 69 -20.5t28 -57.5q0 -45 -38 -69.5t-100 -24.5q-42 0 -82 14v67q42 -14 82 -14q55 0 55 28q0 12 -12.5 18t-32.5 6q-23 0 -44 -6l-28 26z" />
    <glyph glyph-name="uni0328" unicode="&#x328;" 
d="M167 -196.5q-28 -15.5 -61 -15.5q-45 0 -72.5 25.5t-27.5 66.5q0 38 19.5 69.5t50.5 50.5h79q-29 -22 -44 -46t-15 -46q0 -16 8 -24.5t22 -8.5q21 0 42 26l47 -56q-20 -26 -48 -41.5z" />
    <glyph glyph-name="uni0E3F" unicode="&#xe3f;" horiz-adv-x="632" 
d="M227 0h-155v700h155v101h125v-101q95 -2 152.5 -49.5t57.5 -130.5q0 -46 -25 -83t-61 -55q54 -20 87 -64t33 -111q0 -97 -66.5 -152t-177.5 -55v-108h-125v108zM339 115q130 0 130 99q0 100 -130 100h-137v-199h137zM333 426q52 0 78.5 21.5t26.5 62.5t-27 62.5t-80 21.5
h-129v-168h131z" />
    <glyph glyph-name="uni1E20" unicode="&#x1e20;" horiz-adv-x="748" 
d="M211 33q-78 41 -125 121.5t-47 195.5t48 195.5t128 121.5t174 41q84 0 152.5 -31t109.5 -87t46 -128h-132q-9 59 -57.5 95.5t-119.5 36.5q-63 0 -113.5 -29t-79.5 -84t-29 -131t29 -132.5t79 -86.5t112 -30q47 0 90 19t69 50.5t26 68.5q0 17 -9.5 26.5t-25.5 9.5h-142
v101h185q47 0 82 -33t35 -82v-261h-118v111q-20 -53 -74 -86t-123 -33q-92 0 -170 41zM236 875h276v-94h-276v94z" />
    <glyph glyph-name="uni1E21" unicode="&#x1e21;" horiz-adv-x="604" 
d="M104 -106h232q37 0 60.5 25.5t23.5 64.5v72q-19 -29 -59 -46.5t-87 -17.5q-75 0 -129 32.5t-82.5 91.5t-28.5 136t28.5 136t82 91.5t127.5 32.5q47 0 86 -17.5t62 -47.5v57h122v-532q0 -79 -52 -127.5t-136 -48.5h-250v98zM193 140q37 -42 98 -42q62 0 99.5 42t37.5 112
t-37.5 112t-99.5 42q-61 0 -98 -42t-37 -112t37 -112zM155 679h276v-94h-276v94z" />
    <glyph glyph-name="Wgrave" unicode="&#x1e80;" horiz-adv-x="999" 
d="M11 700h134l145 -505l153 505h112l153 -505l146 505h133l-208 -700h-131l-149 495l-149 -495h-129zM464 756l-110 128h132l83 -128h-105z" />
    <glyph glyph-name="wgrave" unicode="&#x1e81;" horiz-adv-x="766" 
d="M12 504h123l93 -337l99 337h113l98 -337l93 337h123l-161 -504h-109l-101 339l-101 -339h-109zM330 560l-102 148h133l74 -148h-105z" />
    <glyph glyph-name="Wacute" unicode="&#x1e82;" horiz-adv-x="999" 
d="M11 700h134l145 -505l153 505h112l153 -505l146 505h133l-208 -700h-131l-149 495l-149 -495h-129zM526 884h133l-110 -128h-106z" />
    <glyph glyph-name="wacute" unicode="&#x1e83;" horiz-adv-x="766" 
d="M12 504h123l93 -337l99 337h113l98 -337l93 337h123l-161 -504h-109l-101 339l-101 -339h-109zM406 708h132l-101 -148h-106z" />
    <glyph glyph-name="Wdieresis" unicode="&#x1e84;" horiz-adv-x="999" 
d="M11 700h134l145 -505l153 505h112l153 -505l146 505h133l-208 -700h-131l-149 495l-149 -495h-129zM648 894v-113h-109v113h109zM350 893h109v-113h-109v113z" />
    <glyph glyph-name="wdieresis" unicode="&#x1e85;" horiz-adv-x="766" 
d="M12 504h123l93 -337l99 337h113l98 -337l93 337h123l-161 -504h-109l-101 339l-101 -339h-109zM532 698v-113h-109v113h109zM234 697h109v-113h-109v113z" />
    <glyph glyph-name="uni1E9E" unicode="&#x1e9e;" horiz-adv-x="635" 
d="M99 591.5q32 55.5 90.5 86t134.5 30.5q68 0 123.5 -27t88.5 -76.5t35 -113.5l-126 -93q80 -20 115.5 -68.5t35.5 -122.5q0 -97 -66.5 -152t-177.5 -55h-91v115h77q131 0 131 99q0 48 -34.5 74t-100.5 26h-37v84l143 114q-5 41 -36.5 65.5t-79.5 24.5q-58 0 -92.5 -39.5
t-34.5 -105.5v-457h-130v462q0 74 32 129.5z" />
    <glyph glyph-name="uni1EA0" unicode="&#x1ea0;" horiz-adv-x="676" 
d="M244 275h188l-94 256zM276 700h124l270 -700h-137l-60 163h-270l-60 -163h-137zM404 -68v-137h-132v137h132z" />
    <glyph glyph-name="uni1EA1" unicode="&#x1ea1;" horiz-adv-x="537" 
d="M121 11.5q-38 19.5 -59 54t-21 77.5q0 73 51.5 116t137.5 43h93q18 0 27 9.5t9 24.5q0 38 -27 61t-75 23q-47 0 -75.5 -25t-30.5 -61h-111q4 50 32 90.5t77.5 64t112.5 23.5q64 0 114 -23.5t77.5 -66t27.5 -98.5v-324h-122v75q-15 -38 -56 -60.5t-95 -22.5
q-49 0 -87 19.5zM181 101q21 -18 56 -18q57 0 89.5 36t32.5 94v8h-113q-39 0 -62.5 -20t-23.5 -53q0 -29 21 -47zM329 -68v-137h-132v137h132z" />
    <glyph glyph-name="uni1EB8" unicode="&#x1eb8;" horiz-adv-x="583" 
d="M73 700h465v-114h-334v-170h268v-114h-268v-187h345v-115h-476v700zM378 -68v-137h-132v137h132z" />
    <glyph glyph-name="uni1EB9" unicode="&#x1eb9;" horiz-adv-x="560" 
d="M151.5 29q-58.5 37 -89 97t-30.5 128q0 69 28 127.5t84 94.5t135 36q80 0 135.5 -34.5t82.5 -90t27 -118.5q0 -22 -2 -42h-372q7 -61 44 -97t95 -36q47 0 77 19t40 55h120q-14 -80 -79 -128t-158 -48q-79 0 -137.5 37zM401 308q-4 50 -36.5 81t-85.5 31q-107 0 -126 -112
h248zM341 -68v-137h-132v137h132z" />
    <glyph glyph-name="uni1EBC" unicode="&#x1ebc;" horiz-adv-x="583" 
d="M73 700h465v-114h-334v-170h268v-114h-268v-187h345v-115h-476v700zM331 774q-15 6 -35 17q-24 15 -40 15q-15 0 -25.5 -9.5t-12.5 -25.5h-80q0 54 32 90.5t78 36.5q21 0 36.5 -6t33.5 -17q13 -8 22 -12t19 -4q15 0 26 10t14 26h79q-1 -57 -33 -92t-78 -35q-21 0 -36 6z
" />
    <glyph glyph-name="uni1EBD" unicode="&#x1ebd;" horiz-adv-x="560" 
d="M151.5 29q-58.5 37 -89 97t-30.5 128q0 69 28 127.5t84 94.5t135 36q80 0 135.5 -34.5t82.5 -90t27 -118.5q0 -22 -2 -42h-372q7 -61 44 -97t95 -36q47 0 77 19t40 55h120q-14 -80 -79 -128t-158 -48q-79 0 -137.5 37zM401 308q-4 50 -36.5 81t-85.5 31q-107 0 -126 -112
h248zM305 578q-15 6 -35 17q-24 15 -40 15q-15 0 -25.5 -9.5t-12.5 -25.5h-80q0 54 32 90.5t78 36.5q21 0 36.5 -6t33.5 -17q13 -8 22 -12t19 -4q15 0 26 10t14 26h79q-1 -57 -33 -92t-78 -35q-21 0 -36 6z" />
    <glyph glyph-name="uni1ECA" unicode="&#x1eca;" horiz-adv-x="277" 
d="M73 700h132v-700h-132v700zM204 -68v-137h-132v137h132z" />
    <glyph glyph-name="uni1ECB" unicode="&#x1ecb;" horiz-adv-x="247" 
d="M62 504h123v-504h-123v504zM189 720v-137h-132v137h132zM189 -68v-137h-132v137h132z" />
    <glyph glyph-name="uni1ECC" unicode="&#x1ecc;" horiz-adv-x="782" 
d="M210.5 38.5q-80.5 46.5 -126.5 128t-46 183.5t46 183.5t126.5 128t181.5 46.5q100 0 180.5 -46.5t126.5 -128t46 -183.5t-46 -183.5t-126.5 -128t-180.5 -46.5q-101 0 -181.5 46.5zM199.5 225.5q28.5 -55.5 78.5 -87t113 -31.5t113.5 31.5t79 87t28.5 124.5t-28.5 125
t-79 87.5t-113.5 31.5t-113 -31.5t-78.5 -87.5t-28.5 -125t28.5 -124.5zM458 -68v-137h-132v137h132z" />
    <glyph glyph-name="uni1ECD" unicode="&#x1ecd;" horiz-adv-x="591" 
d="M160 25.5q-60 33.5 -94 93t-34 133.5t34 133.5t94 93t136 33.5q75 0 135 -33.5t94 -93t34 -133.5t-34 -133.5t-94 -93t-135 -33.5q-76 0 -136 33.5zM194.5 141q38.5 -43 101.5 -43q62 0 100.5 43t38.5 111t-38.5 111t-100.5 43q-63 0 -101.5 -42.5t-38.5 -111.5
q0 -68 38.5 -111zM362 -68v-137h-132v137h132z" />
    <glyph glyph-name="uni1EE5" unicode="&#x1ee5;" horiz-adv-x="586" 
d="M523 0h-122v78q-21 -41 -62 -63.5t-95 -22.5q-85 0 -136.5 55.5t-51.5 144.5v312h123v-286q0 -52 29 -84.5t76 -32.5q52 0 84.5 36t32.5 92v275h122v-504zM358 -68v-137h-132v137h132z" />
    <glyph glyph-name="Ygrave" unicode="&#x1ef2;" horiz-adv-x="640" 
d="M254 291l-241 409h143l164 -286l165 286h142l-241 -409v-291h-132v291zM284 756l-110 128h132l83 -128h-105z" />
    <glyph glyph-name="ygrave" unicode="&#x1ef3;" horiz-adv-x="505" 
d="M195 1l-184 503h125l116 -346l116 346h126l-154 -422l-100 -286h-117zM204 560l-102 148h133l74 -148h-105z" />
    <glyph glyph-name="uni1EF8" unicode="&#x1ef8;" horiz-adv-x="640" 
d="M254 291l-241 409h143l164 -286l165 286h142l-241 -409v-291h-132v291zM343 774q-15 6 -35 17q-24 15 -40 15q-15 0 -25.5 -9.5t-12.5 -25.5h-80q0 54 32 90.5t78 36.5q21 0 36.5 -6t33.5 -17q13 -8 22 -12t19 -4q15 0 26 10t14 26h79q-1 -57 -33 -92t-78 -35
q-21 0 -36 6z" />
    <glyph glyph-name="uni1EF9" unicode="&#x1ef9;" horiz-adv-x="505" 
d="M195 1l-184 503h125l116 -346l116 346h126l-154 -422l-100 -286h-117zM280 578q-15 6 -35 17q-24 15 -40 15q-15 0 -25.5 -9.5t-12.5 -25.5h-80q0 54 32 90.5t78 36.5q21 0 36.5 -6t33.5 -17q13 -8 22 -12t19 -4q15 0 26 10t14 26h79q-1 -57 -33 -92t-78 -35q-21 0 -36 6
z" />
    <glyph glyph-name="endash" unicode="&#x2013;" horiz-adv-x="559" 
d="M43 370h472v-105h-472v105z" />
    <glyph glyph-name="emdash" unicode="&#x2014;" horiz-adv-x="766" 
d="M43 370h680v-105h-680v105z" />
    <glyph glyph-name="quoteleft" unicode="&#x2018;" horiz-adv-x="259" 
d="M176.5 610.5q-12.5 -14.5 -12.5 -39.5v-117h-115v127q0 62 36.5 100.5t95.5 38.5h47v-95h-18q-21 0 -33.5 -14.5z" />
    <glyph glyph-name="quoteright" unicode="&#x2019;" horiz-adv-x="261" 
d="M92.5 563.5q12.5 14.5 12.5 39.5v117h115v-127q0 -62 -36.5 -100.5t-95.5 -38.5h-47v95h18q21 0 33.5 14.5z" />
    <glyph glyph-name="quotesinglbase" unicode="&#x201a;" horiz-adv-x="219" 
d="M42.5 -48.5q12.5 14.5 12.5 39.5v117h115v-127q0 -62 -36.5 -100.5t-95.5 -38.5h-47v95h18q21 0 33.5 14.5z" />
    <glyph glyph-name="quotedblleft" unicode="&#x201c;" horiz-adv-x="475" 
d="M176.5 610.5q-12.5 -14.5 -12.5 -39.5v-117h-115v127q0 62 36.5 100.5t95.5 38.5h47v-95h-18q-21 0 -33.5 -14.5zM265 581q0 62 36.5 100.5t95.5 38.5h47v-95h-18q-21 0 -33.5 -14.5t-12.5 -39.5v-117h-115v127z" />
    <glyph glyph-name="quotedblright" unicode="&#x201d;" horiz-adv-x="477" 
d="M308.5 563.5q12.5 14.5 12.5 39.5v117h115v-127q0 -62 -36.5 -100.5t-95.5 -38.5h-47v95h18q21 0 33.5 14.5zM92.5 563.5q12.5 14.5 12.5 39.5v117h115v-127q0 -62 -36.5 -100.5t-95.5 -38.5h-47v95h18q21 0 33.5 14.5z" />
    <glyph glyph-name="quotedblbase" unicode="&#x201e;" horiz-adv-x="434" 
d="M258.5 -58.5q12.5 14.5 12.5 39.5v117h115v-127q0 -62 -36.5 -100.5t-95.5 -38.5h-47v95h18q21 0 33.5 14.5zM42.5 -58.5q12.5 14.5 12.5 39.5v117h115v-127q0 -62 -36.5 -100.5t-95.5 -38.5h-47v95h18q21 0 33.5 14.5z" />
    <glyph glyph-name="dagger" unicode="&#x2020;" horiz-adv-x="480" 
d="M180 401h-149v103h149v246h120v-246h149v-103h-149v-451h-120v451z" />
    <glyph glyph-name="daggerdbl" unicode="&#x2021;" horiz-adv-x="491" 
d="M185 0h-149v103h149v298h-149v103h149v246h121v-246h149v-103h-149v-298h149v-103h-149v-246h-121v246z" />
    <glyph glyph-name="bullet" unicode="&#x2022;" horiz-adv-x="378" 
d="M106.5 182.5q-34.5 34.5 -34.5 83.5t34.5 83t82.5 34t82.5 -34t34.5 -83t-34.5 -83.5t-82.5 -34.5t-82.5 34.5z" />
    <glyph glyph-name="ellipsis" unicode="&#x2026;" horiz-adv-x="661" 
d="M187 129v-129h-134v129h134zM608 129v-129h-134v129h134zM398 129v-129h-134v129h134z" />
    <glyph glyph-name="perthousand" unicode="&#x2030;" horiz-adv-x="1040" 
d="M551 700h109l-508 -700h-109zM44.5 629.5q19.5 36.5 54.5 57.5t79 21t78.5 -21t54 -57.5t19.5 -81.5t-19.5 -81.5t-54 -57.5t-78.5 -21t-79 21t-54.5 57.5t-19.5 81.5t19.5 81.5zM130 490.5q18 -22.5 48 -22.5t48.5 22.5t18.5 57.5t-18.5 57.5t-48.5 22.5t-48 -22.5
t-18 -57.5t18 -57.5zM392.5 233.5q19.5 36.5 54.5 57.5t79 21t78.5 -21t54 -57.5t19.5 -81.5t-19.5 -81.5t-54 -57.5t-78.5 -21t-79 21t-54.5 57.5t-19.5 81.5t19.5 81.5zM478 94.5q18 -22.5 48 -22.5t48.5 22.5t18.5 57.5t-18.5 57.5t-48.5 22.5t-48 -22.5t-18 -57.5
t18 -57.5zM739.5 233.5q19.5 36.5 54.5 57.5t79 21t78.5 -21t54 -57.5t19.5 -81.5t-19.5 -81.5t-54 -57.5t-78.5 -21t-79 21t-54.5 57.5t-19.5 81.5t19.5 81.5zM825 94.5q18 -22.5 48 -22.5t48.5 22.5t18.5 57.5t-18.5 57.5t-48.5 22.5t-48 -22.5t-18 -57.5t18 -57.5z" />
    <glyph glyph-name="guilsinglleft" unicode="&#x2039;" horiz-adv-x="415" 
d="M45 274v72l313 215v-124l-190 -127l190 -127v-124z" />
    <glyph glyph-name="guilsinglright" unicode="&#x203a;" horiz-adv-x="415" 
d="M57 183l189 127l-189 127v124l313 -215v-72l-313 -215v124z" />
    <glyph glyph-name="fraction" unicode="&#x2044;" horiz-adv-x="235" 
d="M317 700h109l-508 -700h-109z" />
    <glyph glyph-name="uni2070" unicode="&#x2070;" horiz-adv-x="401" 
d="M70 367q-39 52 -39 150v27q0 98 39 149.5t118 51.5h25q79 0 118.5 -51.5t39.5 -149.5v-27q0 -98 -39.5 -150t-118.5 -52h-25q-79 0 -118 52zM140 417.5q20 -25.5 53 -25.5h16q33 0 52.5 25t19.5 73v80q0 48 -19.5 73t-52.5 25h-16q-33 0 -53 -25.5t-20 -72.5v-80
q0 -47 20 -72.5z" />
    <glyph glyph-name="uni2074" unicode="&#x2074;" horiz-adv-x="390" 
d="M229 404h-211v76l205 260h96v-260h48v-76h-48v-84h-90v84zM229 480v151l-123 -151h123z" />
    <glyph glyph-name="uni2075" unicode="&#x2075;" horiz-adv-x="354" 
d="M100 333.5q-33 18.5 -53.5 48.5t-22.5 63h77q4 -25 23.5 -40.5t48.5 -15.5q33 0 53 19t20 51t-20.5 51.5t-54.5 19.5q-45 0 -65 -33h-75l35 243h235v-77h-169l-13 -83q28 19 64 19q64 0 105 -39.5t41 -100.5q0 -63 -44 -103.5t-113 -40.5q-39 0 -72 18.5z" />
    <glyph glyph-name="uni2076" unicode="&#x2076;" horiz-adv-x="380" 
d="M308.5 560q40.5 -41 40.5 -101q0 -40 -20.5 -73t-56.5 -52t-80 -19q-78 0 -121 56.5t-43 145.5q0 107 47.5 167.5t127.5 60.5q62 0 103.5 -35t47.5 -87h-79q-4 22 -24 36t-46 14q-43 0 -69 -34t-28 -85q13 21 40.5 34t54.5 13q65 0 105.5 -41zM137 406.5
q21 -19.5 56 -19.5t56 19.5t21 52.5q0 31 -21.5 50.5t-55.5 19.5q-35 0 -56 -19.5t-21 -50.5q0 -33 21 -52.5z" />
    <glyph glyph-name="uni2077" unicode="&#x2077;" horiz-adv-x="337" 
d="M92 428.5q13 48.5 46 99.5l87 135h-213v77h311v-70l-107 -168q-27 -41 -37 -82t-10 -100h-89q-1 60 12 108.5z" />
    <glyph glyph-name="uni2078" unicode="&#x2078;" horiz-adv-x="369" 
d="M71 351q-45 36 -45 93q0 35 19 61.5t50 40.5q-22 14 -36 36.5t-14 48.5q0 50 39 82t101 32t101.5 -32t39.5 -82q0 -26 -14 -48t-37 -37q32 -14 50.5 -40.5t18.5 -61.5q0 -57 -45 -93t-114 -36t-114 36zM130.5 405q20.5 -15 54.5 -15t54 15t20 41t-20 41.5t-54 15.5
t-54.5 -15.5t-20.5 -41.5t20.5 -41zM141.5 592q16.5 -13 43.5 -13q28 0 44.5 13t16.5 35t-16.5 35t-44.5 13q-27 0 -43.5 -13t-16.5 -35t16.5 -35z" />
    <glyph glyph-name="uni2079" unicode="&#x2079;" horiz-adv-x="380" 
d="M71.5 500q-40.5 41 -40.5 101q0 40 20.5 73t56.5 52t80 19q78 0 121 -56.5t43 -145.5q0 -107 -47.5 -167.5t-127.5 -60.5q-62 0 -103.5 35t-47.5 87h79q4 -22 24 -36t46 -14q43 0 69 34t28 85q-13 -21 -40.5 -34t-54.5 -13q-65 0 -105.5 41zM131.5 550.5
q21.5 -19.5 55.5 -19.5q35 0 56 19.5t21 50.5q0 33 -21 52.5t-56 19.5t-56 -19.5t-21 -52.5q0 -31 21.5 -50.5z" />
    <glyph glyph-name="franc" unicode="&#x20a3;" horiz-adv-x="599" 
d="M248 121v-121h-131v121h-87v90h87v489h465v-114h-334v-178h268v-114h-268v-83h187v-90h-187z" />
    <glyph glyph-name="uni20A6" unicode="&#x20a6;" horiz-adv-x="874" 
d="M149 206h-100v87h100v112h-100v87h100v208h142l128 -208h176v208h132v-208h100v-87h-100v-112h100v-87h-100v-206h-143l-127 206h-177v-206h-131v206zM403 293l-69 112h-54v-112h123zM281 492l-1 1v-1h1zM541 293h54v112h-122z" />
    <glyph glyph-name="uni20A9" unicode="&#x20a9;" horiz-adv-x="1122" 
d="M201 249h-157v87h131l-24 80h-107v88h81l-59 196h134l56 -196h183l59 196h112l59 -196h183l57 196h133l-58 -196h94v-88h-120l-24 -80h144v-87h-170l-74 -249h-131l-75 249h-148l-75 -249h-129zM345 195l67 221h-130zM602 336l-48 159l-48 -159h96zM763 195l64 221h-131z
" />
    <glyph glyph-name="uni20AA" unicode="&#x20aa;" horiz-adv-x="876" 
d="M277 522h118v-420h200q47 0 72 25t25 71v502h118v-535q0 -78 -48 -121.5t-128 -43.5h-357v522zM70 700h357q79 0 127 -43.5t48 -121.5v-357h-117v324q0 46 -25 71t-72 25h-200v-598h-118v700z" />
    <glyph glyph-name="dong" unicode="&#x20ab;" horiz-adv-x="655" 
d="M549 -156h-449v86h449v-86zM69.5 388q28.5 59 82 91.5t127.5 32.5q48 0 87 -18.5t61 -50.5v121h-165v85h165v71h122v-71h76v-85h-76v-564h-122v63q-22 -33 -61 -52t-85 -19q-75 0 -129 32.5t-82.5 91.5t-28.5 136t28.5 136zM200 140q37 -42 98 -42q62 0 99.5 42t37.5 112
t-37.5 112t-99.5 42q-61 0 -98 -42t-37 -112t37 -112z" />
    <glyph glyph-name="Euro" unicode="&#x20ac;" horiz-adv-x="726" 
d="M614.5 47.5q-63.5 -55.5 -163.5 -55.5h-47q-113 0 -178.5 59.5t-84.5 173.5h-91v87h83v14v48v18h-83v87h91q20 112 86 170.5t177 58.5h47q98 0 161.5 -53.5t74.5 -143.5h-134q-8 38 -36.5 60.5t-70.5 22.5h-36q-56 0 -91 -29.5t-47 -85.5h207v-87h-214v-80h214v-87h-208
q12 -58 47 -88t92 -30h36q44 0 73 24t37 65h133q-11 -93 -74.5 -148.5z" />
    <glyph glyph-name="uni20B1" unicode="&#x20b1;" horiz-adv-x="757" 
d="M128 367h-90v90h90v47h-90v90h90v106h280q73 0 125.5 -28t80.5 -78h114v-90h-88q1 -7 1 -21q0 -18 -1 -26h89v-90h-118q-28 -48 -80.5 -74.5t-122.5 -26.5h-148v-266h-132v367zM402 377q55 0 82.5 30t27.5 76t-27.5 76t-82.5 30h-142v-212h142z" />
    <glyph glyph-name="uni20B4" unicode="&#x20b4;" horiz-adv-x="768" 
d="M50 323h668v-78h-438q-20 -23 -20 -52q0 -40 35 -63t93 -23q62 0 100 25.5t43 66.5h127q-3 -61 -37.5 -108t-94.5 -73t-138 -26q-76 0 -135 25t-92.5 70.5t-33.5 105.5q0 30 9 52h-86v78zM50 455h428q30 25 30 62q0 34 -31.5 55.5t-81.5 21.5t-85 -23.5t-42 -65.5h-126
q6 61 40.5 107t90.5 71t122 25q70 0 125 -24.5t86 -68t31 -98.5q0 -36 -12 -62h93v-78h-668v78z" />
    <glyph glyph-name="uni20B9" unicode="&#x20b9;" horiz-adv-x="597" 
d="M292.5 217.5q-25.5 25.5 -64.5 25.5h-183v103h162q50 0 80.5 21.5t41.5 61.5h-284v86h284q-10 40 -40.5 61.5t-81.5 21.5h-162v102h519v-86h-145q38 -45 47 -99h98v-86h-103q-19 -73 -92 -111q36 -24 57.5 -63t25.5 -89l14 -166h-131l-13 151q-4 41 -29.5 66.5z" />
    <glyph glyph-name="uni20BA" unicode="&#x20ba;" horiz-adv-x="675" 
d="M144 208l-93 -50v106l93 50v80l-93 -50v107l93 50v199h133v-128l160 85v-107l-160 -85v-80l160 85v-106l-160 -85v-164q103 0 163 57t64 156h130q-2 -100 -47.5 -174t-129 -114t-197.5 -40h-116v208z" />
    <glyph glyph-name="uni20BD" unicode="&#x20bd;" horiz-adv-x="676" 
d="M42 192h96v74h-96v87h96v347h280q72 0 124.5 -27.5t80.5 -76.5t28 -113t-28 -113t-80.5 -76.5t-124.5 -27.5h-148v-74h186v-87h-186v-105h-132v105h-96v87zM412 377q55 0 82.5 30t27.5 76t-27.5 76t-82.5 30h-142v-212h142z" />
    <glyph glyph-name="uni20BF" unicode="&#x20bf;" horiz-adv-x="628" 
d="M343 0h-88v-108h-100v108h-85v700h85v101h100v-101h85h3v101h100v-117q55 -20 86 -62t31 -102q0 -46 -25 -83t-61 -55q54 -20 87 -64t33 -111q0 -74 -39.5 -124t-110.5 -71v-120h-101v108zM337 115q130 0 130 99q0 100 -130 100h-137v-199h137zM331 426q52 0 78.5 21.5
t26.5 62.5t-27 62.5t-80 21.5h-129v-168h131z" />
    <glyph glyph-name="uni2113" unicode="&#x2113;" horiz-adv-x="541" 
d="M442.5 41q-53.5 -48 -133.5 -48q-90 0 -142.5 48.5t-52.5 135.5v65l-78 -20v109l78 21v150q0 94 58 150t154 56q54 0 96 -24.5t65.5 -69.5t23.5 -104q0 -81 -47.5 -136t-142.5 -81l-77 -20v-84q0 -37 18.5 -57.5t55.5 -20.5q29 0 47.5 17.5t22.5 47.5h117
q-9 -87 -62.5 -135zM299 398q89 27 89 108q0 40 -17 63t-46 23q-37 0 -59 -28t-22 -81v-101z" />
    <glyph glyph-name="trademark" unicode="&#x2122;" horiz-adv-x="645" 
d="M291 700h77l72 -179l72 179h75v-277h-64v151l-60 -151h-47l-60 151v-151h-65v277zM25 700h229v-61h-80v-216h-69v216h-80v61z" />
    <glyph glyph-name="uni2126" unicode="&#x2126;" horiz-adv-x="760" 
d="M56 0v115h136q-67 45 -106 113.5t-39 151.5q0 93 43.5 168t120 117.5t170.5 42.5t169.5 -42.5t119 -117.5t43.5 -168q0 -83 -38.5 -152t-104.5 -113h134v-115h-252v151q58 36 92 97t34 126t-25 115.5t-70 78.5t-103 28t-103.5 -28t-70.5 -78.5t-25 -115.5t35 -126t93 -97
v-151h-253z" />
    <glyph glyph-name="uni2153" unicode="&#x2153;" horiz-adv-x="865" 
d="M193 280h-89v301q-6 -8 -22.5 -13t-31.5 -5h-30v77h28q27 0 42 13t19 47h84v-420zM593 700h109l-508 -700h-109zM570 32.5q-45 37.5 -45 100.5h85q0 -29 21 -45t52 -16q32 0 50 15t18 40t-18.5 39t-49.5 14h-40v73h37q25 0 40.5 14.5t15.5 37.5q0 22 -16.5 34.5
t-43.5 12.5q-25 0 -42 -14.5t-18 -41.5h-80q1 57 41.5 93t100.5 36q41 0 74 -15.5t52 -41.5t19 -57q0 -26 -14 -50t-36 -39q67 -32 67 -98q0 -59 -45.5 -94t-111.5 -35q-68 0 -113 37.5z" />
    <glyph glyph-name="uni2154" unicode="&#x2154;" horiz-adv-x="983" 
d="M78.5 664q41.5 41 112.5 41q67 0 108.5 -36t41.5 -96q0 -42 -24.5 -74.5t-75.5 -59.5l-48 -25q-54 -29 -56 -57h203v-77h-300v62q-1 46 28.5 79.5t67.5 52.5l68 34q48 23 48 66q0 27 -17 42.5t-44 15.5q-30 0 -47 -22t-16 -59h-90q-1 72 40.5 113zM711 700h109l-508 -700
h-109zM688 32.5q-45 37.5 -45 100.5h85q0 -29 21 -45t52 -16q32 0 50 15t18 40t-18.5 39t-49.5 14h-40v73h37q25 0 40.5 14.5t15.5 37.5q0 22 -16.5 34.5t-43.5 12.5q-25 0 -42 -14.5t-18 -41.5h-80q1 57 41.5 93t100.5 36q41 0 74 -15.5t52 -41.5t19 -57q0 -26 -14 -50
t-36 -39q67 -32 67 -98q0 -59 -45.5 -94t-111.5 -35q-68 0 -113 37.5z" />
    <glyph glyph-name="oneeighth" unicode="&#x215b;" horiz-adv-x="868" 
d="M193 280h-89v301q-6 -8 -22.5 -13t-31.5 -5h-30v77h28q27 0 42 13t19 47h84v-420zM593 700h109l-508 -700h-109zM570 31q-45 36 -45 93q0 35 19 61.5t50 40.5q-22 14 -36 36.5t-14 48.5q0 50 39 82t101 32t101.5 -32t39.5 -82q0 -26 -14 -48t-37 -37q32 -14 50.5 -40.5
t18.5 -61.5q0 -57 -45 -93t-114 -36t-114 36zM629.5 85q20.5 -15 54.5 -15t54 15t20 41t-20 41.5t-54 15.5t-54.5 -15.5t-20.5 -41.5t20.5 -41zM640.5 272q16.5 -13 43.5 -13q28 0 44.5 13t16.5 35t-16.5 35t-44.5 13q-27 0 -43.5 -13t-16.5 -35t16.5 -35z" />
    <glyph glyph-name="threeeighths" unicode="&#x215c;" horiz-adv-x="980" 
d="M77 312.5q-45 37.5 -45 100.5h85q0 -29 21 -45t52 -16q32 0 50 15t18 40t-18.5 39t-49.5 14h-40v73h37q25 0 40.5 14.5t15.5 37.5q0 22 -16.5 34.5t-43.5 12.5q-25 0 -42 -14.5t-18 -41.5h-80q1 57 41.5 93t100.5 36q41 0 74 -15.5t52 -41.5t19 -57q0 -26 -14 -50
t-36 -39q67 -32 67 -98q0 -59 -45.5 -94t-111.5 -35q-68 0 -113 37.5zM702 700h109l-508 -700h-109zM679 31q-45 36 -45 93q0 35 19 61.5t50 40.5q-22 14 -36 36.5t-14 48.5q0 50 39 82t101 32t101.5 -32t39.5 -82q0 -26 -14 -48t-37 -37q32 -14 50.5 -40.5t18.5 -61.5
q0 -57 -45 -93t-114 -36t-114 36zM738.5 85q20.5 -15 54.5 -15t54 15t20 41t-20 41.5t-54 15.5t-54.5 -15.5t-20.5 -41.5t20.5 -41zM749.5 272q16.5 -13 43.5 -13q28 0 44.5 13t16.5 35t-16.5 35t-44.5 13q-27 0 -43.5 -13t-16.5 -35t16.5 -35z" />
    <glyph glyph-name="fiveeighths" unicode="&#x215d;" horiz-adv-x="959" 
d="M101 293.5q-33 18.5 -53.5 48.5t-22.5 63h77q4 -25 23.5 -40.5t48.5 -15.5q33 0 53 19t20 51t-20.5 51.5t-54.5 19.5q-45 0 -65 -33h-75l35 243h235v-77h-169l-13 -83q28 19 64 19q64 0 105 -39.5t41 -100.5q0 -63 -44 -103.5t-113 -40.5q-39 0 -72 18.5zM685 700h109
l-508 -700h-109zM662 31q-45 36 -45 93q0 35 19 61.5t50 40.5q-22 14 -36 36.5t-14 48.5q0 50 39 82t101 32t101.5 -32t39.5 -82q0 -26 -14 -48t-37 -37q32 -14 50.5 -40.5t18.5 -61.5q0 -57 -45 -93t-114 -36t-114 36zM721.5 85q20.5 -15 54.5 -15t54 15t20 41t-20 41.5
t-54 15.5t-54.5 -15.5t-20.5 -41.5t20.5 -41zM732.5 272q16.5 -13 43.5 -13q28 0 44.5 13t16.5 35t-16.5 35t-44.5 13q-27 0 -43.5 -13t-16.5 -35t16.5 -35z" />
    <glyph glyph-name="seveneighths" unicode="&#x215e;" horiz-adv-x="847" 
d="M99 388.5q13 48.5 46 99.5l87 135h-213v77h311v-70l-107 -168q-27 -41 -37 -82t-10 -100h-89q-1 60 12 108.5zM573 700h109l-508 -700h-109zM550 31q-45 36 -45 93q0 35 19 61.5t50 40.5q-22 14 -36 36.5t-14 48.5q0 50 39 82t101 32t101.5 -32t39.5 -82q0 -26 -14 -48
t-37 -37q32 -14 50.5 -40.5t18.5 -61.5q0 -57 -45 -93t-114 -36t-114 36zM609.5 85q20.5 -15 54.5 -15t54 15t20 41t-20 41.5t-54 15.5t-54.5 -15.5t-20.5 -41.5t20.5 -41zM620.5 272q16.5 -13 43.5 -13q28 0 44.5 13t16.5 35t-16.5 35t-44.5 13q-27 0 -43.5 -13t-16.5 -35
t16.5 -35z" />
    <glyph glyph-name="arrowleft" unicode="&#x2190;" horiz-adv-x="739" 
d="M41 265l289 289l66 -66l-172 -171h469v-105h-469l171 -171l-66 -65z" />
    <glyph glyph-name="arrowup" unicode="&#x2191;" horiz-adv-x="653" 
d="M38 357l289 289l289 -288l-65 -66l-171 170v-467h-105v468l-171 -172z" />
    <glyph glyph-name="arrowright" unicode="&#x2192;" horiz-adv-x="739" 
d="M344 41l171 171h-468v105h468l-172 171l66 66l289 -289l-288 -289z" />
    <glyph glyph-name="arrowdown" unicode="&#x2193;" horiz-adv-x="654" 
d="M37 288l66 66l171 -171v469h105v-468l171 171l66 -66l-290 -289z" />
    <glyph glyph-name="arrowboth" unicode="&#x2194;" horiz-adv-x="1062" 
d="M669 41l171 171h-618l171 -171l-66 -65l-288 289l289 289l66 -66l-172 -171h618l-172 171l66 66l289 -289l-288 -289z" />
    <glyph glyph-name="arrowupdn" unicode="&#x2195;" horiz-adv-x="626" 
d="M23 109l66 66l171 -171v618l-171 -171l-66 66l289 288l290 -289l-66 -66l-171 172v-618l171 172l66 -66l-290 -289z" />
    <glyph glyph-name="uni2196" unicode="&#x2196;" horiz-adv-x="581" 
d="M148 326v-242h-93v409h408v-92l-241 -1l331 -331l-74 -74z" />
    <glyph glyph-name="uni2197" unicode="&#x2197;" horiz-adv-x="581" 
d="M28 69l330 331h-242v93h410v-408h-92l-1 240l-331 -330z" />
    <glyph glyph-name="uni2198" unicode="&#x2198;" horiz-adv-x="581" 
d="M118 87l241 1l-331 331l74 74l331 -331v243h93v-410h-408v92z" />
    <glyph glyph-name="uni2199" unicode="&#x2199;" horiz-adv-x="581" 
d="M55 -4v409h93v-243l331 331l74 -74l-331 -331h241v-93z" />
    <glyph glyph-name="partialdiff" unicode="&#x2202;" horiz-adv-x="600" 
d="M165.5 24q-58.5 32 -92.5 87t-34 121t31 120.5t85.5 86.5t124.5 32q49 0 96 -25t68 -63q-2 72 -33 126.5t-80.5 84t-104.5 29.5q-73 0 -132 -50l-60 88q38 32 86 49t101 17q86 0 164 -45.5t127 -138t49 -225.5q0 -97 -31 -170.5t-91.5 -114.5t-144.5 -41q-70 0 -128.5 32
zM192.5 137q38.5 -36 100.5 -36q63 0 102 36.5t39 95.5q0 58 -39 94t-102 36t-101 -36.5t-38 -95.5q0 -58 38.5 -94z" />
    <glyph glyph-name="uni2206" unicode="&#x2206;" horiz-adv-x="689" 
d="M676 0h-663l270 700h124zM500 112l-155 415l-155 -415h310z" />
    <glyph glyph-name="product" unicode="&#x220f;" horiz-adv-x="681" 
d="M70 700h541v-700h-136v586h-269v-586h-136v700z" />
    <glyph glyph-name="summation" unicode="&#x2211;" horiz-adv-x="546" 
d="M39 109l219 241l-219 241v109h469v-114h-307l176 -186v-100l-176 -185h307v-115h-469v109z" />
    <glyph glyph-name="minus" unicode="&#x2212;" horiz-adv-x="646" 
d="M70 370h506v-105h-506v105z" />
    <glyph glyph-name="radical" unicode="&#x221a;" horiz-adv-x="616" 
d="M156 282h-110v115h190l76 -233l164 536h123l-226 -700h-121z" />
    <glyph glyph-name="infinity" unicode="&#x221e;" horiz-adv-x="913" 
d="M138.5 189.5q-46.5 24.5 -71 68.5t-24.5 101t24.5 101t71 69t108.5 25q59 0 116 -27.5t94 -81.5q36 54 93 81.5t116 27.5q62 0 108 -25t71 -69.5t25 -100.5t-25 -100.5t-71 -69t-108 -24.5q-59 0 -116 27.5t-93 80.5q-37 -54 -94 -81t-116 -27q-62 0 -108.5 24.5z
M183 290q28 -25 74 -25q39 0 75 24.5t64 69.5q-28 45 -64 69.5t-75 24.5q-46 0 -74 -25t-28 -69t28 -69zM581 289.5q36 -24.5 75 -24.5q46 0 74 25t28 69t-28 69t-74 25q-39 0 -75 -24.5t-63 -69.5q27 -45 63 -69.5z" />
    <glyph glyph-name="integral" unicode="&#x222b;" horiz-adv-x="445" 
d="M431 720v-104h-76q-32 0 -51.5 -19t-19.5 -52v-580q0 -77 -49 -123t-131 -46h-90v104h76q32 0 51.5 19t19.5 52v580q0 77 49 123t131 46h90z" />
    <glyph glyph-name="approxequal" unicode="&#x2248;" horiz-adv-x="646" 
d="M365 117q-25 11 -58 32q-24 16 -40.5 24t-35.5 8q-28 0 -44.5 -20.5t-18.5 -55.5h-115q2 58 25.5 102t62.5 68t86 24q35 0 61 -11t59 -33q24 -16 39.5 -23.5t32.5 -7.5q26 0 42.5 19t20.5 57h114q-3 -59 -26.5 -103t-61.5 -67.5t-84 -23.5q-34 0 -59 11zM365 369
q-25 11 -58 32q-24 16 -40.5 24t-35.5 8q-28 0 -44.5 -20.5t-18.5 -55.5h-115q2 58 25.5 102t62.5 68t86 24q35 0 61 -11t59 -33q24 -16 39.5 -23.5t32.5 -7.5q26 0 42.5 19t20.5 57h114q-3 -59 -26.5 -103t-61.5 -67.5t-84 -23.5q-34 0 -59 11z" />
    <glyph glyph-name="notequal" unicode="&#x2260;" horiz-adv-x="646" 
d="M187 133h-119v105h169l57 119h-226v105h276l58 121h112l-58 -121h118v-105h-168l-57 -119h225v-105h-275l-58 -122h-112z" />
    <glyph glyph-name="lessequal" unicode="&#x2264;" horiz-adv-x="646" 
d="M114 105h410v-105h-410v105zM123 434l399 200v-124l-270 -129l270 -129v-123l-399 199v106z" />
    <glyph glyph-name="greaterequal" unicode="&#x2265;" horiz-adv-x="646" 
d="M124 252l270 129l-270 129v124l400 -200v-106l-400 -199v123zM124 106h405v-105h-405v105z" />
    <glyph glyph-name="lozenge" unicode="&#x25ca;" horiz-adv-x="580" 
d="M41 350l193 350h111l194 -350l-194 -350h-111zM290 107l131 243l-131 243l-132 -243z" />
    <glyph glyph-name="uni25CF" unicode="&#x25cf;" horiz-adv-x="812" 
d="M96 529.5q48 82.5 130.5 130.5t179.5 48t179.5 -48t130.5 -130.5t48 -179.5q0 -98 -48 -180t-130.5 -130t-179.5 -48t-179.5 48t-130.5 130t-48 180q0 97 48 179.5z" />
    <glyph glyph-name="uni2669" unicode="&#x2669;" horiz-adv-x="446" 
d="M373 700v-700q0 -49 -24 -90.5t-65 -65.5t-90 -24t-90.5 24t-65.5 65.5t-24 90.5t24 90t65.5 65t90.5 24q63 0 113 -40v561h66z" />
    <glyph glyph-name="musicalnote" unicode="&#x266a;" horiz-adv-x="666" 
d="M559.5 602.5q-35.5 34.5 -90.5 34.5h-96v-637q0 -49 -24 -90.5t-65 -65.5t-90 -24t-90.5 24t-65.5 65.5t-24 90.5t24 90t65.5 65t90.5 24q63 0 113 -40v561h162q53 0 95 -23.5t65.5 -66t23.5 -95.5v-53h-58v53q0 53 -35.5 87.5z" />
    <glyph glyph-name="musicalnotedbl" unicode="&#x266b;" horiz-adv-x="942" 
d="M373 637v-637q0 -49 -24 -90.5t-65 -65.5t-90 -24t-90.5 24t-65.5 65.5t-24 90.5t24 90t65.5 65t90.5 24q63 0 113 -40v561h562v-700q0 -49 -24 -90.5t-65 -65.5t-90 -24t-90.5 24t-65.5 65.5t-24 90.5t24 90t65.5 65t90.5 24q63 0 113 -40v498h-430z" />
    <glyph glyph-name="uniF8FF" unicode="&#xf8ff;" horiz-adv-x="851" 
d="M144 12.5q-35 20.5 -56 55.5t-21 76q0 42 21 77.5t56 56.5t76 21h52v101h-52q-41 0 -76 21t-56 56.5t-21 77.5q0 41 21 76t56 56t76 21t77 -21t57 -56t21 -76v-53h100v53q0 41 21 76t56.5 56t76.5 21t76.5 -21t56.5 -56t21 -76t-21 -77t-56.5 -57t-76.5 -21h-51v-101h51
q41 0 76.5 -21t56.5 -57t21 -77q0 -40 -21 -75t-56.5 -56t-76.5 -21t-76.5 20.5t-56.5 55.5t-21 76v53h-100v-53q0 -41 -21 -76t-56.5 -55.5t-77.5 -20.5q-41 0 -76 20.5zM185 109q15 -15 35 -15q22 0 37 15t15 35v53h-52q-20 0 -35 -15.5t-15 -37.5q0 -20 15 -35z
M185 517.5q15 -15.5 35 -15.5h52v53q0 21 -15 36t-37 15q-20 0 -35 -15.5t-15 -35.5q0 -22 15 -37.5zM475 299v101h-100v-101h100zM593 109q15 -15 36 -15t36 15t15 35q0 22 -15 37.5t-36 15.5h-51v-53q0 -20 15 -35zM629 502q21 0 36 15.5t15 37.5q0 20 -15 35.5t-36 15.5
t-36 -15.5t-15 -35.5v-53h51z" />
    <glyph glyph-name="uni004A0301" horiz-adv-x="357" 
d="M141 136.5q15 21.5 15 68.5v495h132v-500q0 -100 -45.5 -150t-129.5 -50h-100v115h76q37 0 52 21.5zM245 904h132l-101 -148h-106z" />
    <glyph glyph-name="uni013B.loclMAH" horiz-adv-x="541" 
d="M73 700h132v-585h327v-115h-459v700zM216 -68h138l-82 -161h-107z" />
    <glyph glyph-name="uni0145.loclMAH" horiz-adv-x="723" 
d="M73 700h142l304 -494v494h131v-700h-142l-304 493v-493h-131v700zM299 -68h138l-82 -161h-107z" />
    <glyph glyph-name="E.titl" horiz-adv-x="579" 
d="M100.5 32.5q-32.5 32.5 -32.5 93.5v448q0 62 32.5 94t93.5 32h339v-114h-299q-16 0 -25.5 -9t-9.5 -26v-135h268v-114h-268v-152q0 -16 9.5 -25.5t25.5 -9.5h310v-115h-350q-61 0 -93.5 32.5z" />
    <glyph glyph-name="Eacute.titl" horiz-adv-x="579" 
d="M100.5 32.5q-32.5 32.5 -32.5 93.5v448q0 62 32.5 94t93.5 32h339v-114h-299q-16 0 -25.5 -9t-9.5 -26v-135h268v-114h-268v-152q0 -16 9.5 -25.5t25.5 -9.5h310v-115h-350q-61 0 -93.5 32.5zM346 884h133l-110 -128h-106z" />
    <glyph glyph-name="Ebreve.titl" horiz-adv-x="579" 
d="M100.5 32.5q-32.5 32.5 -32.5 93.5v448q0 62 32.5 94t93.5 32h339v-114h-299q-16 0 -25.5 -9t-9.5 -26v-135h268v-114h-268v-152q0 -16 9.5 -25.5t25.5 -9.5h310v-115h-350q-61 0 -93.5 32.5zM240.5 771.5q-34.5 18.5 -53 50.5t-18.5 70h96q0 -28 14.5 -42t39.5 -14
t39.5 14t14.5 42h96q0 -38 -18.5 -70t-53 -50.5t-78.5 -18.5t-78.5 18.5z" />
    <glyph glyph-name="Ecaron.titl" horiz-adv-x="579" 
d="M100.5 32.5q-32.5 32.5 -32.5 93.5v448q0 62 32.5 94t93.5 32h339v-114h-299q-16 0 -25.5 -9t-9.5 -26v-135h268v-114h-268v-152q0 -16 9.5 -25.5t25.5 -9.5h310v-115h-350q-61 0 -93.5 32.5zM146 876h110l62 -59l61 59h109l-111 -120h-117z" />
    <glyph glyph-name="Ecircumflex.titl" horiz-adv-x="579" 
d="M100.5 32.5q-32.5 32.5 -32.5 93.5v448q0 62 32.5 94t93.5 32h339v-114h-299q-16 0 -25.5 -9t-9.5 -26v-135h268v-114h-268v-152q0 -16 9.5 -25.5t25.5 -9.5h310v-115h-350q-61 0 -93.5 32.5zM262 876h117l108 -120h-106l-61 59l-62 -59h-104z" />
    <glyph glyph-name="Edieresis.titl" horiz-adv-x="579" 
d="M100.5 32.5q-32.5 32.5 -32.5 93.5v448q0 62 32.5 94t93.5 32h339v-114h-299q-16 0 -25.5 -9t-9.5 -26v-135h268v-114h-268v-152q0 -16 9.5 -25.5t25.5 -9.5h310v-115h-350q-61 0 -93.5 32.5zM468 894v-113h-109v113h109zM170 893h109v-113h-109v113z" />
    <glyph glyph-name="Edotaccent.titl" horiz-adv-x="579" 
d="M100.5 32.5q-32.5 32.5 -32.5 93.5v448q0 62 32.5 94t93.5 32h339v-114h-299q-16 0 -25.5 -9t-9.5 -26v-135h268v-114h-268v-152q0 -16 9.5 -25.5t25.5 -9.5h310v-115h-350q-61 0 -93.5 32.5zM386 916v-137h-132v137h132z" />
    <glyph glyph-name="uni1EB8.titl" horiz-adv-x="579" 
d="M100.5 32.5q-32.5 32.5 -32.5 93.5v448q0 62 32.5 94t93.5 32h339v-114h-299q-16 0 -25.5 -9t-9.5 -26v-135h268v-114h-268v-152q0 -16 9.5 -25.5t25.5 -9.5h310v-115h-350q-61 0 -93.5 32.5zM350 -68v-137h-132v137h132z" />
    <glyph glyph-name="Egrave.titl" horiz-adv-x="579" 
d="M100.5 32.5q-32.5 32.5 -32.5 93.5v448q0 62 32.5 94t93.5 32h339v-114h-299q-16 0 -25.5 -9t-9.5 -26v-135h268v-114h-268v-152q0 -16 9.5 -25.5t25.5 -9.5h310v-115h-350q-61 0 -93.5 32.5zM283 756l-110 128h132l83 -128h-105z" />
    <glyph glyph-name="Emacron.titl" horiz-adv-x="579" 
d="M100.5 32.5q-32.5 32.5 -32.5 93.5v448q0 62 32.5 94t93.5 32h339v-114h-299q-16 0 -25.5 -9t-9.5 -26v-135h268v-114h-268v-152q0 -16 9.5 -25.5t25.5 -9.5h310v-115h-350q-61 0 -93.5 32.5zM180 875h276v-94h-276v94z" />
    <glyph glyph-name="Eogonek.titl" horiz-adv-x="579" 
d="M100.5 32.5q-32.5 32.5 -32.5 93.5v448q0 62 32.5 94t93.5 32h339v-114h-299q-16 0 -25.5 -9t-9.5 -26v-135h268v-114h-268v-152q0 -16 9.5 -25.5t25.5 -9.5h310v-115h-350q-61 0 -93.5 32.5zM556 -196.5q-28 -15.5 -61 -15.5q-45 0 -72.5 25.5t-27.5 66.5
q0 38 19.5 69.5t50.5 50.5h79q-29 -22 -44 -46t-15 -46q0 -16 8 -24.5t22 -8.5q21 0 42 26l47 -56q-20 -26 -48 -41.5z" />
    <glyph glyph-name="F.titl" horiz-adv-x="554" 
d="M103.5 668q32.5 32 93.5 32h339v-114h-299q-16 0 -25.5 -9t-9.5 -26v-143h268v-114h-268v-294h-131v574q0 62 32.5 94z" />
    <glyph glyph-name="L.titl" horiz-adv-x="539" 
d="M103.5 32.5q-32.5 32.5 -32.5 93.5v574h131v-550q0 -16 9.5 -25.5t25.5 -9.5h293v-115h-333q-61 0 -93.5 32.5z" />
    <glyph glyph-name="Lacute.titl" horiz-adv-x="539" 
d="M103.5 32.5q-32.5 32.5 -32.5 93.5v574h131v-550q0 -16 9.5 -25.5t25.5 -9.5h293v-115h-333q-61 0 -93.5 32.5zM163 884h133l-110 -128h-106z" />
    <glyph glyph-name="Lcaron.titl" horiz-adv-x="542" 
d="M103.5 32.5q-32.5 32.5 -32.5 93.5v574h131v-550q0 -16 9.5 -25.5t25.5 -9.5h293v-115h-333q-61 0 -93.5 32.5zM349 745h116l-55 -185h-92z" />
    <glyph glyph-name="uni013B.titl" horiz-adv-x="539" 
d="M103.5 32.5q-32.5 32.5 -32.5 93.5v574h131v-550q0 -16 9.5 -25.5t25.5 -9.5h293v-115h-333q-61 0 -93.5 32.5zM214 -68h138l-82 -161h-107z" />
    <glyph glyph-name="Ldot.titl" horiz-adv-x="541" 
d="M103.5 32.5q-32.5 32.5 -32.5 93.5v574h131v-550q0 -16 9.5 -25.5t25.5 -9.5h293v-115h-333q-61 0 -93.5 32.5zM429 417v-137h-132v137h132z" />
    <glyph glyph-name="Lslash.titl" horiz-adv-x="571" 
d="M134.5 32.5q-32.5 32.5 -32.5 93.5v104l-69 -42v109l69 42v361h131v-282l82 49v-109l-82 -49v-159q0 -16 9.5 -25.5t25.5 -9.5h293v-115h-333q-61 0 -93.5 32.5z" />
    <glyph glyph-name="uni013B.titl.loclMAH" horiz-adv-x="539" 
d="M103.5 32.5q-32.5 32.5 -32.5 93.5v574h131v-550q0 -16 9.5 -25.5t25.5 -9.5h293v-115h-333q-61 0 -93.5 32.5zM214 -68h138l-82 -161h-107z" />
    <glyph glyph-name="O_O.dlig" horiz-adv-x="1359" 
d="M204 37.5q-78 45.5 -121.5 127t-43.5 185.5q0 103 43 184.5t121 127.5t179 46q63 0 110 -17t77.5 -39t61.5 -53q18 -18 29 -26.5t21 -8.5q9 0 19.5 8t29.5 27q32 31 61 53t76 39t110 17q101 0 179 -46t121.5 -127.5t43.5 -184.5t-43.5 -184.5t-121.5 -127.5t-179 -46
q-63 0 -110 17t-76.5 39.5t-60.5 53.5q-18 18 -29 26.5t-21 8.5q-9 0 -20.5 -8t-30.5 -27q-32 -32 -61.5 -54t-76.5 -39t-110 -17q-99 0 -177 45.5zM198 225q26 -55 73.5 -86.5t110.5 -31.5q46 0 80.5 15t58.5 36t54 54q32 35 54 52t51 17t51 -17t54 -52q30 -34 53.5 -54.5
t58 -35.5t80.5 -15q62 0 110 31.5t74.5 86.5t26.5 125t-26.5 125.5t-74.5 87t-110 31.5q-45 0 -79.5 -15t-58.5 -36t-54 -54q-32 -36 -54 -53t-51 -17t-51 17t-54 53q-31 34 -54.5 54.5t-58.5 35.5t-80 15q-63 0 -110.5 -31.5t-73.5 -87t-26 -125.5t26 -125z" />
    <glyph glyph-name="T_T.dlig" horiz-adv-x="1000" 
d="M222 586h-212v114h980v-114h-211v-586h-132v586h-293v-586h-132v586z" />
    <glyph glyph-name="T_h.dlig" horiz-adv-x="1084" 
d="M560 586h-206v-586h-132v586h-212v114h673v-274q20 41 61.5 63.5t95.5 22.5q56 0 98.5 -25.5t65.5 -70.5t23 -104v-312h-122v286q0 52 -29.5 84.5t-76.5 32.5q-51 0 -83.5 -36t-32.5 -92v-275h-123v586z" />
    <glyph glyph-name="T_i.dlig" horiz-adv-x="722" 
d="M222 586h-212v114h555v-114h-211v-586h-132v586zM537 504h122v-504h-122v504z" />
    <glyph glyph-name="i.loclTRK" horiz-adv-x="247" 
d="M62 504h123v-504h-123v504zM189 720v-137h-132v137h132z" />
    <glyph glyph-name="uni006A0301" horiz-adv-x="247" 
d="M-36 -106h35q29 0 46 20.5t17 57.5v532h123v-544q0 -77 -44.5 -120.5t-123.5 -43.5h-53v98zM146 708h132l-101 -148h-106z" />
    <glyph glyph-name="germandbls.calt" horiz-adv-x="624" 
d="M94 591.5q32 55.5 90.5 86t134.5 30.5q68 0 123.5 -27t88.5 -76.5t35 -113.5l-126 -93q80 -20 115.5 -68.5t35.5 -122.5q0 -97 -66.5 -152t-177.5 -55h-91v115h77q131 0 131 99q0 48 -34.5 74t-100.5 26h-37v84l143 114q-5 41 -36.5 65.5t-79.5 24.5q-58 0 -92.5 -39.5
t-34.5 -105.5v-457h-130v462q0 74 32 129.5z" />
    <glyph glyph-name="uni013C.loclMAH" horiz-adv-x="247" 
d="M62 720h123v-720h-123v720zM59 -68h138l-82 -161h-107z" />
    <glyph glyph-name="uni0146.loclMAH" horiz-adv-x="586" 
d="M62 504h123v-78q20 41 61.5 63.5t95.5 22.5q56 0 98.5 -25.5t65.5 -70.5t23 -104v-312h-122v286q0 52 -29.5 84.5t-76.5 32.5q-51 0 -83.5 -36t-32.5 -92v-275h-123v504zM231 -68h138l-82 -161h-107z" />
    <glyph glyph-name="a.ss01" horiz-adv-x="604" 
d="M145 24.5q-54 32.5 -82.5 91.5t-28.5 136t28.5 136t82 91.5t127.5 32.5q47 0 86 -17.5t62 -47.5v57h122v-504h-122v59q-19 -30 -59 -48.5t-87 -18.5q-75 0 -129 32.5zM193 140q37 -42 98 -42q62 0 99.5 42t37.5 112t-37.5 112t-99.5 42q-61 0 -98 -42t-37 -112t37 -112z
" />
    <glyph glyph-name="aacute.ss01" horiz-adv-x="604" 
d="M145 24.5q-54 32.5 -82.5 91.5t-28.5 136t28.5 136t82 91.5t127.5 32.5q47 0 86 -17.5t62 -47.5v57h122v-504h-122v59q-19 -30 -59 -48.5t-87 -18.5q-75 0 -129 32.5zM193 140q37 -42 98 -42q62 0 99.5 42t37.5 112t-37.5 112t-99.5 42q-61 0 -98 -42t-37 -112t37 -112z
M325 708h132l-101 -148h-106z" />
    <glyph glyph-name="abreve.ss01" horiz-adv-x="604" 
d="M145 24.5q-54 32.5 -82.5 91.5t-28.5 136t28.5 136t82 91.5t127.5 32.5q47 0 86 -17.5t62 -47.5v57h122v-504h-122v59q-19 -30 -59 -48.5t-87 -18.5q-75 0 -129 32.5zM193 140q37 -42 98 -42q62 0 99.5 42t37.5 112t-37.5 112t-99.5 42q-61 0 -98 -42t-37 -112t37 -112z
M223.5 576.5q-34.5 19.5 -53 52t-18.5 71.5h96q0 -27 15 -43.5t39 -16.5q25 0 39.5 16t14.5 44h97q0 -39 -19 -71.5t-53 -52t-79 -19.5q-44 0 -78.5 19.5z" />
    <glyph glyph-name="acircumflex.ss01" horiz-adv-x="604" 
d="M145 24.5q-54 32.5 -82.5 91.5t-28.5 136t28.5 136t82 91.5t127.5 32.5q47 0 86 -17.5t62 -47.5v57h122v-504h-122v59q-19 -30 -59 -48.5t-87 -18.5q-75 0 -129 32.5zM193 140q37 -42 98 -42q62 0 99.5 42t37.5 112t-37.5 112t-99.5 42q-61 0 -98 -42t-37 -112t37 -112z
M250 700h107l108 -140h-106l-56 66l-57 -66h-106z" />
    <glyph glyph-name="adieresis.ss01" horiz-adv-x="604" 
d="M145 24.5q-54 32.5 -82.5 91.5t-28.5 136t28.5 136t82 91.5t127.5 32.5q47 0 86 -17.5t62 -47.5v57h122v-504h-122v59q-19 -30 -59 -48.5t-87 -18.5q-75 0 -129 32.5zM193 140q37 -42 98 -42q62 0 99.5 42t37.5 112t-37.5 112t-99.5 42q-61 0 -98 -42t-37 -112t37 -112z
M451 698v-113h-109v113h109zM153 697h109v-113h-109v113z" />
    <glyph glyph-name="uni1EA1.ss01" horiz-adv-x="604" 
d="M145 24.5q-54 32.5 -82.5 91.5t-28.5 136t28.5 136t82 91.5t127.5 32.5q47 0 86 -17.5t62 -47.5v57h122v-504h-122v59q-19 -30 -59 -48.5t-87 -18.5q-75 0 -129 32.5zM193 140q37 -42 98 -42q62 0 99.5 42t37.5 112t-37.5 112t-99.5 42q-61 0 -98 -42t-37 -112t37 -112z
M368 -68v-137h-132v137h132z" />
    <glyph glyph-name="agrave.ss01" horiz-adv-x="604" 
d="M145 24.5q-54 32.5 -82.5 91.5t-28.5 136t28.5 136t82 91.5t127.5 32.5q47 0 86 -17.5t62 -47.5v57h122v-504h-122v59q-19 -30 -59 -48.5t-87 -18.5q-75 0 -129 32.5zM193 140q37 -42 98 -42q62 0 99.5 42t37.5 112t-37.5 112t-99.5 42q-61 0 -98 -42t-37 -112t37 -112z
M249 560l-102 148h133l74 -148h-105z" />
    <glyph glyph-name="amacron.ss01" horiz-adv-x="604" 
d="M145 24.5q-54 32.5 -82.5 91.5t-28.5 136t28.5 136t82 91.5t127.5 32.5q47 0 86 -17.5t62 -47.5v57h122v-504h-122v59q-19 -30 -59 -48.5t-87 -18.5q-75 0 -129 32.5zM193 140q37 -42 98 -42q62 0 99.5 42t37.5 112t-37.5 112t-99.5 42q-61 0 -98 -42t-37 -112t37 -112z
M163 679h276v-94h-276v94z" />
    <glyph glyph-name="aogonek.ss01" horiz-adv-x="604" 
d="M145 24.5q-54 32.5 -82.5 91.5t-28.5 136t28.5 136t82 91.5t127.5 32.5q47 0 86 -17.5t62 -47.5v57h122v-504q-29 -22 -44 -46t-15 -46q0 -16 8 -24.5t22 -8.5q21 0 42 26l47 -56q-20 -26 -48 -41.5t-61 -15.5q-45 0 -72.5 25.5t-27.5 66.5q0 38 19.5 69.5t50.5 50.5h-43
v59q-19 -30 -59 -48.5t-87 -18.5q-75 0 -129 32.5zM193 140q37 -42 98 -42q62 0 99.5 42t37.5 112t-37.5 112t-99.5 42q-61 0 -98 -42t-37 -112t37 -112z" />
    <glyph glyph-name="aring.ss01" horiz-adv-x="604" 
d="M145 24.5q-54 32.5 -82.5 91.5t-28.5 136t28.5 136t82 91.5t127.5 32.5q47 0 86 -17.5t62 -47.5v57h122v-504h-122v59q-19 -30 -59 -48.5t-87 -18.5q-75 0 -129 32.5zM193 140q37 -42 98 -42q62 0 99.5 42t37.5 112t-37.5 112t-99.5 42q-61 0 -98 -42t-37 -112t37 -112z
M206.5 580.5q-37.5 34.5 -37.5 86.5t37.5 86.5t94.5 34.5q58 0 96 -34.5t38 -86.5q0 -53 -38 -87t-96 -34q-57 0 -94.5 34.5zM259 627q16 -15 42 -15q27 0 43.5 15t16.5 40q0 24 -16.5 39t-43.5 15q-26 0 -42 -15t-16 -39q0 -25 16 -40z" />
    <glyph glyph-name="aringacute.ss01" horiz-adv-x="604" 
d="M145 24.5q-54 32.5 -82.5 91.5t-28.5 136t28.5 136t82 91.5t127.5 32.5q47 0 86 -17.5t62 -47.5v57h122v-504h-122v59q-19 -30 -59 -48.5t-87 -18.5q-75 0 -129 32.5zM193 140q37 -42 98 -42q62 0 99.5 42t37.5 112t-37.5 112t-99.5 42q-61 0 -98 -42t-37 -112t37 -112z
M191 736q22 30 59 43l74 147h132l-101 -147q37 -14 58.5 -43.5t21.5 -68.5q0 -53 -38 -87t-96 -34q-57 0 -94.5 34.5t-37.5 86.5q0 39 22 69zM259 627q16 -15 42 -15q27 0 43.5 15t16.5 40q0 24 -16.5 39t-43.5 15q-26 0 -42 -15t-16 -39q0 -25 16 -40z" />
    <glyph glyph-name="atilde.ss01" horiz-adv-x="604" 
d="M145 24.5q-54 32.5 -82.5 91.5t-28.5 136t28.5 136t82 91.5t127.5 32.5q47 0 86 -17.5t62 -47.5v57h122v-504h-122v59q-19 -30 -59 -48.5t-87 -18.5q-75 0 -129 32.5zM193 140q37 -42 98 -42q62 0 99.5 42t37.5 112t-37.5 112t-99.5 42q-61 0 -98 -42t-37 -112t37 -112z
M325 578q-15 6 -35 17q-24 15 -40 15q-15 0 -25.5 -9.5t-12.5 -25.5h-80q0 54 32 90.5t78 36.5q21 0 36.5 -6t33.5 -17q13 -8 22 -12t19 -4q15 0 26 10t14 26h79q-1 -57 -33 -92t-78 -35q-21 0 -36 6z" />
    <glyph glyph-name="g.ss02" horiz-adv-x="527" 
d="M64.5 -164.5q-41.5 39.5 -41.5 111.5q0 27 13.5 53.5t36.5 45.5q-34 31 -34 73q0 31 15.5 56t47.5 55q-36 44 -36 107q0 52 25.5 91.5t71 61.5t103.5 22q45 0 84 -14l70 81l75 -64l-64 -74q36 -44 36 -104q0 -79 -56 -127t-145 -48q-43 0 -84 13q-14 -14 -20 -23.5
t-6 -19.5q0 -33 48 -33h135q78 0 125 -37.5t47 -104.5q0 -72 -44 -116.5t-120 -44.5h-155q-86 0 -127.5 39.5zM157.5 -88.5q15.5 -16.5 39.5 -16.5h144q51 0 51 54t-61 54h-119q-27 0 -47 4q-23 -24 -23 -54q0 -25 15.5 -41.5zM205.5 278.5q24.5 -21.5 60.5 -21.5t60.5 21.5
t24.5 58.5q0 36 -24.5 58t-60.5 22t-60.5 -22t-24.5 -58q0 -37 24.5 -58.5z" />
    <glyph glyph-name="gbreve.ss02" horiz-adv-x="527" 
d="M64.5 -164.5q-41.5 39.5 -41.5 111.5q0 27 13.5 53.5t36.5 45.5q-34 31 -34 73q0 31 15.5 56t47.5 55q-36 44 -36 107q0 52 25.5 91.5t71 61.5t103.5 22q45 0 84 -14l70 81l75 -64l-64 -74q36 -44 36 -104q0 -79 -56 -127t-145 -48q-43 0 -84 13q-14 -14 -20 -23.5
t-6 -19.5q0 -33 48 -33h135q78 0 125 -37.5t47 -104.5q0 -72 -44 -116.5t-120 -44.5h-155q-86 0 -127.5 39.5zM157.5 -88.5q15.5 -16.5 39.5 -16.5h144q51 0 51 54t-61 54h-119q-27 0 -47 4q-23 -24 -23 -54q0 -25 15.5 -41.5zM205.5 278.5q24.5 -21.5 60.5 -21.5t60.5 21.5
t24.5 58.5q0 36 -24.5 58t-60.5 22t-60.5 -22t-24.5 -58q0 -37 24.5 -58.5zM184.5 576.5q-34.5 19.5 -53 52t-18.5 71.5h96q0 -27 15 -43.5t39 -16.5q25 0 39.5 16t14.5 44h97q0 -39 -19 -71.5t-53 -52t-79 -19.5q-44 0 -78.5 19.5z" />
    <glyph glyph-name="gcaron.ss02" horiz-adv-x="527" 
d="M64.5 -164.5q-41.5 39.5 -41.5 111.5q0 27 13.5 53.5t36.5 45.5q-34 31 -34 73q0 31 15.5 56t47.5 55q-36 44 -36 107q0 52 25.5 91.5t71 61.5t103.5 22q45 0 84 -14l70 81l75 -64l-64 -74q36 -44 36 -104q0 -79 -56 -127t-145 -48q-43 0 -84 13q-14 -14 -20 -23.5
t-6 -19.5q0 -33 48 -33h135q78 0 125 -37.5t47 -104.5q0 -72 -44 -116.5t-120 -44.5h-155q-86 0 -127.5 39.5zM157.5 -88.5q15.5 -16.5 39.5 -16.5h144q51 0 51 54t-61 54h-119q-27 0 -47 4q-23 -24 -23 -54q0 -25 15.5 -41.5zM205.5 278.5q24.5 -21.5 60.5 -21.5t60.5 21.5
t24.5 58.5q0 36 -24.5 58t-60.5 22t-60.5 -22t-24.5 -58q0 -37 24.5 -58.5zM99 700h106l57 -67l56 67h106l-108 -140h-107z" />
    <glyph glyph-name="gcircumflex.ss02" horiz-adv-x="527" 
d="M64.5 -164.5q-41.5 39.5 -41.5 111.5q0 27 13.5 53.5t36.5 45.5q-34 31 -34 73q0 31 15.5 56t47.5 55q-36 44 -36 107q0 52 25.5 91.5t71 61.5t103.5 22q45 0 84 -14l54 62h-69l-56 66l-57 -66h-106l110 140h107l106 -137l56 -48l-64 -74q36 -44 36 -104q0 -79 -56 -127
t-145 -48q-43 0 -84 13q-14 -14 -20 -23.5t-6 -19.5q0 -33 48 -33h135q78 0 125 -37.5t47 -104.5q0 -72 -44 -116.5t-120 -44.5h-155q-86 0 -127.5 39.5zM157.5 -88.5q15.5 -16.5 39.5 -16.5h144q51 0 51 54t-61 54h-119q-27 0 -47 4q-23 -24 -23 -54q0 -25 15.5 -41.5z
M205.5 278.5q24.5 -21.5 60.5 -21.5t60.5 21.5t24.5 58.5q0 36 -24.5 58t-60.5 22t-60.5 -22t-24.5 -58q0 -37 24.5 -58.5z" />
    <glyph glyph-name="uni0123.ss02" horiz-adv-x="527" 
d="M64.5 -164.5q-41.5 39.5 -41.5 111.5q0 27 13.5 53.5t36.5 45.5q-34 31 -34 73q0 31 15.5 56t47.5 55q-36 44 -36 107q0 52 25.5 91.5t71 61.5t103.5 22q45 0 84 -14l70 81l75 -64l-64 -74q36 -44 36 -104q0 -79 -56 -127t-145 -48q-43 0 -84 13q-14 -14 -20 -23.5
t-6 -19.5q0 -33 48 -33h135q78 0 125 -37.5t47 -104.5q0 -72 -44 -116.5t-120 -44.5h-155q-86 0 -127.5 39.5zM157.5 -88.5q15.5 -16.5 39.5 -16.5h144q51 0 51 54t-61 54h-119q-27 0 -47 4q-23 -24 -23 -54q0 -25 15.5 -41.5zM205.5 278.5q24.5 -21.5 60.5 -21.5t60.5 21.5
t24.5 58.5q0 36 -24.5 58t-60.5 22t-60.5 -22t-24.5 -58q0 -37 24.5 -58.5zM343 568h-140l62 155h107z" />
    <glyph glyph-name="gdotaccent.ss02" horiz-adv-x="527" 
d="M64.5 -164.5q-41.5 39.5 -41.5 111.5q0 27 13.5 53.5t36.5 45.5q-34 31 -34 73q0 31 15.5 56t47.5 55q-36 44 -36 107q0 52 25.5 91.5t71 61.5t103.5 22q45 0 84 -14l70 81l75 -64l-64 -74q36 -44 36 -104q0 -79 -56 -127t-145 -48q-43 0 -84 13q-14 -14 -20 -23.5
t-6 -19.5q0 -33 48 -33h135q78 0 125 -37.5t47 -104.5q0 -72 -44 -116.5t-120 -44.5h-155q-86 0 -127.5 39.5zM157.5 -88.5q15.5 -16.5 39.5 -16.5h144q51 0 51 54t-61 54h-119q-27 0 -47 4q-23 -24 -23 -54q0 -25 15.5 -41.5zM205.5 278.5q24.5 -21.5 60.5 -21.5t60.5 21.5
t24.5 58.5q0 36 -24.5 58t-60.5 22t-60.5 -22t-24.5 -58q0 -37 24.5 -58.5zM329 720v-137h-132v137h132z" />
    <glyph glyph-name="uni1E21.ss02" horiz-adv-x="527" 
d="M64.5 -164.5q-41.5 39.5 -41.5 111.5q0 27 13.5 53.5t36.5 45.5q-34 31 -34 73q0 31 15.5 56t47.5 55q-36 44 -36 107q0 52 25.5 91.5t71 61.5t103.5 22q45 0 84 -14l70 81l75 -64l-64 -74q36 -44 36 -104q0 -79 -56 -127t-145 -48q-43 0 -84 13q-14 -14 -20 -23.5
t-6 -19.5q0 -33 48 -33h135q78 0 125 -37.5t47 -104.5q0 -72 -44 -116.5t-120 -44.5h-155q-86 0 -127.5 39.5zM157.5 -88.5q15.5 -16.5 39.5 -16.5h144q51 0 51 54t-61 54h-119q-27 0 -47 4q-23 -24 -23 -54q0 -25 15.5 -41.5zM205.5 278.5q24.5 -21.5 60.5 -21.5t60.5 21.5
t24.5 58.5q0 36 -24.5 58t-60.5 22t-60.5 -22t-24.5 -58q0 -37 24.5 -58.5zM124 679h276v-94h-276v94z" />
    <glyph glyph-name="y.ss03" horiz-adv-x="505" 
d="M58 -106h57q40 0 60 56l19 52l-183 502h125l116 -348l116 348h126l-183 -500l-24 -69q-26 -73 -60 -106t-100 -33h-69v98z" />
    <glyph glyph-name="yacute.ss03" horiz-adv-x="505" 
d="M58 -106h57q40 0 60 56l19 52l-183 502h125l116 -348l116 348h126l-183 -500l-24 -69q-26 -73 -60 -106t-100 -33h-69v98zM280 708h132l-101 -148h-106z" />
    <glyph glyph-name="ycircumflex.ss03" horiz-adv-x="505" 
d="M58 -106h57q40 0 60 56l19 52l-183 502h125l116 -348l116 348h126l-183 -500l-24 -69q-26 -73 -60 -106t-100 -33h-69v98zM205 700h107l108 -140h-106l-56 66l-57 -66h-106z" />
    <glyph glyph-name="ydieresis.ss03" horiz-adv-x="505" 
d="M58 -106h57q40 0 60 56l19 52l-183 502h125l116 -348l116 348h126l-183 -500l-24 -69q-26 -73 -60 -106t-100 -33h-69v98zM406 698v-113h-109v113h109zM108 697h109v-113h-109v113z" />
    <glyph glyph-name="ygrave.ss03" horiz-adv-x="505" 
d="M58 -106h57q40 0 60 56l19 52l-183 502h125l116 -348l116 348h126l-183 -500l-24 -69q-26 -73 -60 -106t-100 -33h-69v98zM204 560l-102 148h133l74 -148h-105z" />
    <glyph glyph-name="uni0233.ss03" horiz-adv-x="505" 
d="M58 -106h57q40 0 60 56l19 52l-183 502h125l116 -348l116 348h126l-183 -500l-24 -69q-26 -73 -60 -106t-100 -33h-69v98zM119 679h276v-94h-276v94z" />
    <glyph glyph-name="uni1EF9.ss03" horiz-adv-x="505" 
d="M58 -106h57q40 0 60 56l19 52l-183 502h125l116 -348l116 348h126l-183 -500l-24 -69q-26 -73 -60 -106t-100 -33h-69v98zM278 578q-15 6 -35 17q-24 15 -40 15q-15 0 -25.5 -9.5t-12.5 -25.5h-80q0 54 32 90.5t78 36.5q21 0 36.5 -6t33.5 -17q13 -8 22 -12t19 -4
q15 0 26 10t14 26h79q-1 -57 -33 -92t-78 -35q-21 0 -36 6z" />
    <glyph glyph-name="t.ss04" horiz-adv-x="398" 
d="M159 46.5q-49 46.5 -49 129.5v225h-99v103h67q32 0 32 33v119h123v-152h140v-103h-140v-220q0 -38 19 -57.5t54 -19.5h67v-104h-81q-84 0 -133 46.5z" />
    <glyph glyph-name="tbar.ss04" horiz-adv-x="412" 
d="M174 46.5q-49 46.5 -49 129.5v35h-107v85h107v105h-99v103h67q32 0 32 33v119h123v-152h140v-103h-140v-105h133v-85h-133v-30q0 -38 19 -57.5t54 -19.5h67v-104h-81q-84 0 -133 46.5z" />
    <glyph glyph-name="tcaron.ss04" horiz-adv-x="398" 
d="M159 46.5q-49 46.5 -49 129.5v225h-99v103h67q32 0 32 33v119h123v-152h140v-103h-140v-220q0 -38 19 -57.5t54 -19.5h67v-104h-81q-84 0 -133 46.5zM337 745h116l-55 -185h-92z" />
    <glyph glyph-name="uni0163.ss04" horiz-adv-x="398" 
d="M289 0l-21 -41q6 1 19 1q41 0 69 -20.5t28 -57.5q0 -45 -38 -69.5t-100 -24.5q-42 0 -82 14v67q42 -14 82 -14q55 0 55 28q0 12 -12.5 18t-32.5 6q-23 0 -44 -6l-28 26l41 82q-54 17 -84.5 60t-30.5 107v225h-99v103h67q32 0 32 33v119h123v-152h140v-103h-140v-220
q0 -38 19 -57.5t54 -19.5h67v-104h-81h-3z" />
    <glyph glyph-name="uni021B.ss04" horiz-adv-x="398" 
d="M159 46.5q-49 46.5 -49 129.5v225h-99v103h67q32 0 32 33v119h123v-152h140v-103h-140v-220q0 -38 19 -57.5t54 -19.5h67v-104h-81q-84 0 -133 46.5zM196 -68h138l-82 -161h-107z" />
    <glyph glyph-name="ae.ss05" horiz-adv-x="962" 
d="M145 24.5q-54 32.5 -82.5 91.5t-28.5 136t28.5 136t82 91.5t127.5 32.5q47 0 86 -17.5t62 -47.5v57h109v-56q58 64 158 64q78 0 131.5 -33.5t80 -89t26.5 -120.5q0 -22 -2 -42h-370q7 -61 43.5 -97t93.5 -36q48 0 78 19t40 55h120q-14 -80 -79 -128t-159 -48
q-101 0 -161 68v-60h-109v59q-19 -30 -59 -48.5t-87 -18.5q-75 0 -129 32.5zM193 140q37 -42 98 -42q62 0 99.5 42t37.5 112t-37.5 112t-99.5 42q-61 0 -98 -42t-37 -112t37 -112zM803 308q-4 50 -33.5 81t-82.5 31t-86.5 -28t-43.5 -84h246z" />
    <glyph glyph-name="aeacute.ss05" horiz-adv-x="962" 
d="M145 24.5q-54 32.5 -82.5 91.5t-28.5 136t28.5 136t82 91.5t127.5 32.5q47 0 86 -17.5t62 -47.5v57h109v-56q58 64 158 64q78 0 131.5 -33.5t80 -89t26.5 -120.5q0 -22 -2 -42h-370q7 -61 43.5 -97t93.5 -36q48 0 78 19t40 55h120q-14 -80 -79 -128t-159 -48
q-101 0 -161 68v-60h-109v59q-19 -30 -59 -48.5t-87 -18.5q-75 0 -129 32.5zM193 140q37 -42 98 -42q62 0 99.5 42t37.5 112t-37.5 112t-99.5 42q-61 0 -98 -42t-37 -112t37 -112zM803 308q-4 50 -33.5 81t-82.5 31t-86.5 -28t-43.5 -84h246zM501 708h132l-101 -148h-106z
" />
    <glyph glyph-name="l.ss06" horiz-adv-x="285" 
d="M268 0h-64q-67 0 -106.5 39t-39.5 109v572h122v-558q0 -27 14.5 -42.5t41.5 -15.5h32v-104z" />
    <glyph glyph-name="lacute.ss06" horiz-adv-x="285" 
d="M268 0h-64q-67 0 -106.5 39t-39.5 109v572h122v-558q0 -27 14.5 -42.5t41.5 -15.5h32v-104zM139 904h132l-101 -148h-106z" />
    <glyph glyph-name="lcaron.ss06" horiz-adv-x="294" 
d="M268 0h-64q-67 0 -106.5 39t-39.5 109v572h122v-558q0 -27 14.5 -42.5t41.5 -15.5h32v-104zM262 745h116l-55 -185h-92z" />
    <glyph glyph-name="uni013C.ss06" horiz-adv-x="285" 
d="M268 0h-64q-67 0 -106.5 39t-39.5 109v572h122v-558q0 -27 14.5 -42.5t41.5 -15.5h32v-104zM104 -68h138l-82 -161h-107z" />
    <glyph glyph-name="ldot.ss06" horiz-adv-x="382" 
d="M268 0h-64q-67 0 -106.5 39t-39.5 109v572h122v-558q0 -27 14.5 -42.5t41.5 -15.5h32v-104zM376 439v-137h-132v137h132z" />
    <glyph glyph-name="lslash.ss06" horiz-adv-x="349" 
d="M316 0h-64q-67 0 -106.5 39t-39.5 109v135l-78 -47v109l78 47v328h122v-254l82 49v-109l-82 -49v-195q0 -27 14.5 -42.5t41.5 -15.5h32v-104z" />
    <glyph glyph-name="o_o.dlig" horiz-adv-x="1000" 
d="M155 26q-58 34 -90 93t-32 133t32 133t90 93t131 34q60 0 97 -18t73 -48q15 -14 24.5 -20t19.5 -6t20 6.5t25 19.5q36 30 73 48t97 18q73 0 130.5 -34t90 -93t32.5 -133t-32.5 -133t-90 -93t-130.5 -34q-60 0 -97 18t-73 48q-15 13 -25 19.5t-20 6.5t-19.5 -6t-24.5 -20
q-36 -30 -73 -48t-97 -18q-73 0 -131 34zM197 143.5q40 -42.5 100 -42.5q38 0 63.5 15t58.5 45q24 23 41.5 34.5t39.5 11.5t39 -11t43 -35q31 -29 57.5 -44.5t64.5 -15.5q39 0 71 19.5t50.5 54t18.5 77.5t-18.5 77.5t-50.5 54t-71 19.5q-38 0 -64.5 -15.5t-57.5 -44.5
q-26 -24 -43 -35t-39 -11t-39.5 11.5t-41.5 34.5q-33 30 -58.5 45t-63.5 15q-60 0 -100 -42.5t-40 -108.5t40 -108.5z" />
    <glyph glyph-name="f_f_l.ss06.liga" horiz-adv-x="980" 
d="M962 0h-64q-67 0 -106.5 39t-39.5 109v253h-196v-401h-123v401h-196v-401h-123v401h-99v103h99v47q0 77 49 123t131 46h90v-104h-76q-32 0 -51.5 -19t-19.5 -52v-41h196v47q0 77 49 123t131 46h64v-104h-50q-32 0 -51.5 -19t-19.5 -52v-41h196v216h122v-558
q0 -27 14.5 -42.5t41.5 -15.5h32v-104z" />
    <glyph glyph-name="f_l.ss06.liga" horiz-adv-x="661" 
d="M644 0h-64q-67 0 -106.5 39t-39.5 109v253h-197v-401h-123v401h-99v103h99v47q0 77 49 123t131 46h64v-104h-50q-32 0 -51.5 -19t-19.5 -52v-41h197v216h122v-558q0 -27 14.5 -42.5t41.5 -15.5h32v-104z" />
    <glyph glyph-name="ordfeminine.ss05" horiz-adv-x="402" 
d="M75.5 439q-38.5 43 -38.5 113q0 71 38 113.5t104 42.5q27 0 49 -9.5t35 -25.5v30h82v-302h-82v32q-12 -16 -34 -26.5t-49 -10.5q-66 0 -104.5 43zM139.5 490.5q20.5 -23.5 52.5 -23.5q34 0 55 23.5t21 61.5t-21 61.5t-55 23.5q-33 0 -53 -23.5t-20 -61.5t20.5 -61.5z" />
    <glyph glyph-name="zero.zero" horiz-adv-x="644" 
d="M111 77.5q-63 85.5 -63 248.5v48q0 163 63 248.5t191 85.5h39q254 0 254 -334v-48q0 -334 -254 -334h-39q-128 0 -191 85.5zM187 217l192 370q-18 7 -43 7h-28q-61 0 -94.5 -47t-33.5 -138v-118q0 -37 7 -74zM308 107h28q60 0 93.5 46.5t33.5 137.5v118q0 42 -8 77
l-192 -371q22 -8 45 -8z" />
    <glyph glyph-name="zero.inferior" horiz-adv-x="401" 
d="M70 47q-39 52 -39 150v27q0 98 39 149.5t118 51.5h25q79 0 118.5 -51.5t39.5 -149.5v-27q0 -98 -39.5 -150t-118.5 -52h-25q-79 0 -118 52zM140 97.5q20 -25.5 53 -25.5h16q33 0 52.5 25t19.5 73v80q0 48 -19.5 73t-52.5 25h-16q-33 0 -53 -25.5t-20 -72.5v-80
q0 -47 20 -72.5z" />
    <glyph glyph-name="one.inferior" horiz-adv-x="233" 
d="M187 0h-89v301q-6 -8 -22.5 -13t-31.5 -5h-30v77h28q27 0 42 13t19 47h84v-420z" />
    <glyph glyph-name="two.inferior" horiz-adv-x="362" 
d="M69.5 384q41.5 41 112.5 41q67 0 108.5 -36t41.5 -96q0 -42 -24.5 -74.5t-75.5 -59.5l-48 -25q-54 -29 -56 -57h203v-77h-300v62q-1 46 28.5 79.5t67.5 52.5l68 34q48 23 48 66q0 27 -17 42.5t-44 15.5q-30 0 -47 -22t-16 -59h-90q-1 72 40.5 113z" />
    <glyph glyph-name="three.inferior" horiz-adv-x="362" 
d="M66 32.5q-45 37.5 -45 100.5h85q0 -29 21 -45t52 -16q32 0 50 15t18 40t-18.5 39t-49.5 14h-40v73h37q25 0 40.5 14.5t15.5 37.5q0 22 -16.5 34.5t-43.5 12.5q-25 0 -42 -14.5t-18 -41.5h-80q1 57 41.5 93t100.5 36q41 0 74 -15.5t52 -41.5t19 -57q0 -26 -14 -50t-36 -39
q67 -32 67 -98q0 -59 -45.5 -94t-111.5 -35q-68 0 -113 37.5z" />
    <glyph glyph-name="four.inferior" horiz-adv-x="390" 
d="M229 84h-211v76l205 260h96v-260h48v-76h-48v-84h-90v84zM229 160v151l-123 -151h123z" />
    <glyph glyph-name="five.inferior" horiz-adv-x="354" 
d="M100 13.5q-33 18.5 -53.5 48.5t-22.5 63h77q4 -25 23.5 -40.5t48.5 -15.5q33 0 53 19t20 51t-20.5 51.5t-54.5 19.5q-45 0 -65 -33h-75l35 243h235v-77h-169l-13 -83q28 19 64 19q64 0 105 -39.5t41 -100.5q0 -63 -44 -103.5t-113 -40.5q-39 0 -72 18.5z" />
    <glyph glyph-name="six.inferior" horiz-adv-x="380" 
d="M308.5 240q40.5 -41 40.5 -101q0 -40 -20.5 -73t-56.5 -52t-80 -19q-78 0 -121 56.5t-43 145.5q0 107 47.5 167.5t127.5 60.5q62 0 103.5 -35t47.5 -87h-79q-4 22 -24 36t-46 14q-43 0 -69 -34t-28 -85q13 21 40.5 34t54.5 13q65 0 105.5 -41zM137 86.5
q21 -19.5 56 -19.5t56 19.5t21 52.5q0 31 -21.5 50.5t-55.5 19.5q-35 0 -56 -19.5t-21 -50.5q0 -33 21 -52.5z" />
    <glyph glyph-name="seven.inferior" horiz-adv-x="337" 
d="M92 108.5q13 48.5 46 99.5l87 135h-213v77h311v-70l-107 -168q-27 -41 -37 -82t-10 -100h-89q-1 60 12 108.5z" />
    <glyph glyph-name="eight.inferior" horiz-adv-x="369" 
d="M71 31q-45 36 -45 93q0 35 19 61.5t50 40.5q-22 14 -36 36.5t-14 48.5q0 50 39 82t101 32t101.5 -32t39.5 -82q0 -26 -14 -48t-37 -37q32 -14 50.5 -40.5t18.5 -61.5q0 -57 -45 -93t-114 -36t-114 36zM130.5 85q20.5 -15 54.5 -15t54 15t20 41t-20 41.5t-54 15.5
t-54.5 -15.5t-20.5 -41.5t20.5 -41zM141.5 272q16.5 -13 43.5 -13q28 0 44.5 13t16.5 35t-16.5 35t-44.5 13q-27 0 -43.5 -13t-16.5 -35t16.5 -35z" />
    <glyph glyph-name="nine.inferior" horiz-adv-x="380" 
d="M71.5 180q-40.5 41 -40.5 101q0 40 20.5 73t56.5 52t80 19q78 0 121 -56.5t43 -145.5q0 -107 -47.5 -167.5t-127.5 -60.5q-62 0 -103.5 35t-47.5 87h79q4 -22 24 -36t46 -14q43 0 69 34t28 85q-13 -21 -40.5 -34t-54.5 -13q-65 0 -105.5 41zM131.5 230.5
q21.5 -19.5 55.5 -19.5q35 0 56 19.5t21 50.5q0 33 -21 52.5t-56 19.5t-56 -19.5t-21 -52.5q0 -31 21.5 -50.5z" />
    <glyph glyph-name="eight.ss06" horiz-adv-x="593" 
d="M166.5 17q-57.5 25 -90 69t-32.5 100q0 55 18 83t49 51q13 10 19 17t6 15q0 9 -5.5 15.5t-17.5 15.5q-27 22 -43 49.5t-16 81.5q0 53 32 97.5t87.5 70.5t123.5 26q67 0 122.5 -26t87.5 -71t32 -97q0 -54 -16 -81.5t-43 -49.5q-12 -9 -17.5 -15.5t-5.5 -15.5q0 -8 6 -15
t19 -17q31 -23 49 -51t18 -83q0 -56 -32.5 -100t-89.5 -69t-130 -25t-130.5 25zM203 132q36 -28 91 -28q57 0 94 27.5t37 70.5q0 32 -15 53t-42 44q-20 17 -29 27.5t-9 25.5t8.5 25.5t27.5 26.5q27 21 41 41t14 53q0 41 -35.5 69.5t-88.5 28.5q-54 0 -90 -28.5t-36 -69.5
q0 -33 14 -53t41 -41q19 -16 27.5 -26.5t8.5 -25.5t-9 -25.5t-29 -27.5q-27 -23 -42 -44t-15 -53q0 -42 36 -70z" />
    <glyph glyph-name="zero.tf" horiz-adv-x="663" 
d="M121 77.5q-63 85.5 -63 248.5v48q0 163 63 248.5t191 85.5h39q254 0 254 -334v-48q0 -334 -254 -334h-39q-128 0 -191 85.5zM224 153.5q34 -46.5 94 -46.5h28q60 0 93.5 46.5t33.5 137.5v118q0 91 -33.5 138t-93.5 47h-28q-61 0 -94.5 -47t-33.5 -138v-118
q0 -91 34 -137.5z" />
    <glyph glyph-name="one.tf" horiz-adv-x="663" 
d="M288 115v400q-8 -13 -33 -20t-50 -7h-54v114h49q43 0 66 21.5t29 76.5h125v-585h138v-115h-432v115h162z" />
    <glyph glyph-name="two.tf" horiz-adv-x="663" 
d="M114.5 590.5q29.5 56.5 86 87t132.5 30.5q72 0 127.5 -27t86.5 -76t31 -114q0 -141 -167 -224l-107 -54q-38 -19 -63.5 -44t-25.5 -54h362v-115h-491l-1 97q-1 76 48 132.5t113 87.5l112 56q87 42 87 119q0 49 -30.5 78t-81.5 29q-55 0 -85.5 -39t-28.5 -103h-133
q-1 77 28.5 133.5z" />
    <glyph glyph-name="three.tf" horiz-adv-x="663" 
d="M197.5 20q-59.5 28 -94 80t-34.5 121h128q0 -54 37.5 -84t94.5 -30q59 0 93 27t34 74q0 46 -34 72t-93 26h-63v110h61q47 0 75 25.5t28 65.5t-30 63.5t-80 23.5q-49 0 -79 -26.5t-31 -77.5h-125q1 66 33.5 115.5t86.5 76t118 26.5q66 0 120 -25t85 -68.5t31 -94.5
q0 -49 -24.5 -89.5t-64.5 -61.5q53 -19 85 -62.5t32 -101.5q0 -65 -35 -113.5t-94 -74t-129 -25.5q-72 0 -131.5 28z" />
    <glyph glyph-name="four.tf" horiz-adv-x="663" 
d="M398 148h-358v115l347 437h144v-437h89v-115h-89v-148h-133v148zM399 263v279l-227 -279h227z" />
    <glyph glyph-name="five.tf" horiz-adv-x="663" 
d="M201 20q-55 28 -88 77t-37 109h125q7 -47 38.5 -73t82.5 -26q60 0 96 34t36 92t-36 93.5t-95 35.5q-88 0 -121 -62h-113l57 400h393v-114h-295l-24 -158q22 20 55 32t73 12q68 0 122.5 -31.5t85.5 -86t31 -121.5q0 -69 -34.5 -124t-95 -86t-135.5 -31q-66 0 -121 28z" />
    <glyph glyph-name="six.tf" horiz-adv-x="663" 
d="M477.5 436q55.5 -31 86.5 -84.5t31 -120.5t-34 -121.5t-93.5 -86t-131.5 -31.5q-85 0 -146.5 43t-93.5 118.5t-32 171.5q0 120 35.5 206.5t99.5 131.5t148 45q70 0 125.5 -26t89 -71.5t41.5 -101.5h-124q-8 40 -43 64.5t-85 24.5q-46 0 -82 -28t-57.5 -77t-24.5 -110
q22 36 68.5 60t94.5 24q72 0 127.5 -31zM247 141.5q35 -34.5 91 -34.5q55 0 89.5 34.5t34.5 89.5q0 54 -34.5 88.5t-89.5 34.5q-56 0 -91 -34.5t-35 -88.5q0 -55 35 -89.5z" />
    <glyph glyph-name="seven.tf" horiz-adv-x="663" 
d="M213.5 179q21.5 80 78.5 171l149 236h-369v114h515v-104l-183 -290q-46 -74 -63 -143.5t-18 -162.5h-132q1 99 22.5 179z" />
    <glyph glyph-name="eight.tf" horiz-adv-x="663" 
d="M198.5 18q-59.5 26 -93.5 74.5t-34 112.5q0 59 32.5 104t85.5 68q-39 24 -63.5 61t-24.5 82q0 54 29.5 97t82 67t119.5 24t119.5 -24t82 -67t29.5 -97q0 -45 -25 -82.5t-66 -60.5q55 -22 87.5 -67t32.5 -105q0 -64 -34 -112.5t-93.5 -74.5t-132.5 -26q-74 0 -133.5 26z
M235.5 133q35.5 -27 96.5 -27q60 0 95 27t35 75q0 47 -35.5 75t-94.5 28q-60 0 -96 -28t-36 -75q0 -48 35.5 -75zM253 452q29 -23 79 -23q49 0 78 23t29 63t-29 63t-78 23q-50 0 -79 -23t-29 -63t29 -63z" />
    <glyph glyph-name="nine.tf" horiz-adv-x="663" 
d="M186.5 267q-55.5 31 -86.5 84.5t-31 120.5t34 121.5t93.5 86t131.5 31.5q85 0 146.5 -43t93.5 -118.5t32 -171.5q0 -120 -35.5 -206.5t-99.5 -131.5t-148 -45q-70 0 -125.5 26t-89 71.5t-41.5 101.5h124q8 -40 43 -64.5t85 -24.5q46 0 82 28t57.5 77t24.5 110
q-22 -36 -68.5 -60t-94.5 -24q-72 0 -127.5 31zM236.5 383.5q34.5 -34.5 89.5 -34.5q56 0 91 34.5t35 88.5q0 55 -35 89.5t-91 34.5q-55 0 -89.5 -34.5t-34.5 -89.5q0 -54 34.5 -88.5z" />
    <glyph glyph-name="eight.ss06.inferior" horiz-adv-x="368" 
d="M73 28.5q-44 33.5 -44 84.5q0 33 10 48.5t28 31.5q15 10 15 18q0 5 -4 10t-9 9q-16 14 -25 29.5t-9 47.5t20 59t54 43t75 16t75 -16t53.5 -43t19.5 -59t-9 -48t-24 -29q-5 -4 -9 -9t-4 -10q0 -8 15 -18q18 -16 28 -31.5t10 -48.5q0 -51 -43.5 -84.5t-111.5 -33.5
q-67 0 -111 33.5zM133.5 84.5q20.5 -15.5 50.5 -15.5q30 1 50.5 16t20.5 39q0 19 -8.5 31t-24.5 26q-12 11 -16.5 16.5t-4.5 13.5q0 9 5 15t16 15q15 12 23.5 23.5t8.5 30.5q0 23 -20 39t-50 16t-50 -16t-20 -39q0 -18 8 -29.5t23 -24.5q11 -9 16 -15t5 -15q0 -8 -4.5 -13.5
t-16.5 -16.5q-15 -13 -23.5 -25.5t-8.5 -31.5q0 -24 20.5 -39.5z" />
    <glyph glyph-name="eight.tf.ss06" horiz-adv-x="663" 
d="M201.5 17q-57.5 25 -90 69t-32.5 100q0 55 18 83t49 51q13 10 19 17t6 15q0 9 -5.5 15.5t-17.5 15.5q-27 22 -43 49.5t-16 81.5q0 53 32 97.5t87.5 70.5t123.5 26q67 0 122.5 -26t87.5 -71t32 -97q0 -54 -16 -81.5t-43 -49.5q-12 -9 -17.5 -15.5t-5.5 -15.5q0 -8 6 -15
t19 -17q31 -23 49 -51t18 -83q0 -56 -32.5 -100t-89.5 -69t-130 -25t-130.5 25zM238 132q36 -28 91 -28q57 0 94 27.5t37 70.5q0 32 -15 53t-42 44q-20 17 -29 27.5t-9 25.5t8.5 25.5t27.5 26.5q27 21 41 41t14 53q0 41 -35.5 69.5t-88.5 28.5q-54 0 -90 -28.5t-36 -69.5
q0 -33 14 -53t41 -41q19 -16 27.5 -26.5t8.5 -25.5t-9 -25.5t-29 -27.5q-27 -23 -42 -44t-15 -53q0 -42 36 -70z" />
    <glyph glyph-name="zero.tf.zero" horiz-adv-x="663" 
d="M121 77.5q-63 85.5 -63 248.5v48q0 163 63 248.5t191 85.5h39q254 0 254 -334v-48q0 -334 -254 -334h-39q-128 0 -191 85.5zM197 217l192 370q-18 7 -43 7h-28q-61 0 -94.5 -47t-33.5 -138v-118q0 -37 7 -74zM318 107h28q60 0 93.5 46.5t33.5 137.5v118q0 42 -8 77
l-192 -371q22 -8 45 -8z" />
    <glyph glyph-name="zero.dnom" horiz-adv-x="401" 
d="M70 47q-39 52 -39 150v27q0 98 39 149.5t118 51.5h25q79 0 118.5 -51.5t39.5 -149.5v-27q0 -98 -39.5 -150t-118.5 -52h-25q-79 0 -118 52zM140 97.5q20 -25.5 53 -25.5h16q33 0 52.5 25t19.5 73v80q0 48 -19.5 73t-52.5 25h-16q-33 0 -53 -25.5t-20 -72.5v-80
q0 -47 20 -72.5z" />
    <glyph glyph-name="one.dnom" horiz-adv-x="233" 
d="M187 0h-89v301q-6 -8 -22.5 -13t-31.5 -5h-30v77h28q27 0 42 13t19 47h84v-420z" />
    <glyph glyph-name="two.dnom" horiz-adv-x="362" 
d="M69.5 384q41.5 41 112.5 41q67 0 108.5 -36t41.5 -96q0 -42 -24.5 -74.5t-75.5 -59.5l-48 -25q-54 -29 -56 -57h203v-77h-300v62q-1 46 28.5 79.5t67.5 52.5l68 34q48 23 48 66q0 27 -17 42.5t-44 15.5q-30 0 -47 -22t-16 -59h-90q-1 72 40.5 113z" />
    <glyph glyph-name="three.dnom" horiz-adv-x="362" 
d="M66 32.5q-45 37.5 -45 100.5h85q0 -29 21 -45t52 -16q32 0 50 15t18 40t-18.5 39t-49.5 14h-40v73h37q25 0 40.5 14.5t15.5 37.5q0 22 -16.5 34.5t-43.5 12.5q-25 0 -42 -14.5t-18 -41.5h-80q1 57 41.5 93t100.5 36q41 0 74 -15.5t52 -41.5t19 -57q0 -26 -14 -50t-36 -39
q67 -32 67 -98q0 -59 -45.5 -94t-111.5 -35q-68 0 -113 37.5z" />
    <glyph glyph-name="four.dnom" horiz-adv-x="390" 
d="M229 84h-211v76l205 260h96v-260h48v-76h-48v-84h-90v84zM229 160v151l-123 -151h123z" />
    <glyph glyph-name="five.dnom" horiz-adv-x="354" 
d="M100 13.5q-33 18.5 -53.5 48.5t-22.5 63h77q4 -25 23.5 -40.5t48.5 -15.5q33 0 53 19t20 51t-20.5 51.5t-54.5 19.5q-45 0 -65 -33h-75l35 243h235v-77h-169l-13 -83q28 19 64 19q64 0 105 -39.5t41 -100.5q0 -63 -44 -103.5t-113 -40.5q-39 0 -72 18.5z" />
    <glyph glyph-name="six.dnom" horiz-adv-x="380" 
d="M308.5 240q40.5 -41 40.5 -101q0 -40 -20.5 -73t-56.5 -52t-80 -19q-78 0 -121 56.5t-43 145.5q0 107 47.5 167.5t127.5 60.5q62 0 103.5 -35t47.5 -87h-79q-4 22 -24 36t-46 14q-43 0 -69 -34t-28 -85q13 21 40.5 34t54.5 13q65 0 105.5 -41zM137 86.5
q21 -19.5 56 -19.5t56 19.5t21 52.5q0 31 -21.5 50.5t-55.5 19.5q-35 0 -56 -19.5t-21 -50.5q0 -33 21 -52.5z" />
    <glyph glyph-name="seven.dnom" horiz-adv-x="337" 
d="M92 108.5q13 48.5 46 99.5l87 135h-213v77h311v-70l-107 -168q-27 -41 -37 -82t-10 -100h-89q-1 60 12 108.5z" />
    <glyph glyph-name="eight.dnom" horiz-adv-x="369" 
d="M71 31q-45 36 -45 93q0 35 19 61.5t50 40.5q-22 14 -36 36.5t-14 48.5q0 50 39 82t101 32t101.5 -32t39.5 -82q0 -26 -14 -48t-37 -37q32 -14 50.5 -40.5t18.5 -61.5q0 -57 -45 -93t-114 -36t-114 36zM130.5 85q20.5 -15 54.5 -15t54 15t20 41t-20 41.5t-54 15.5
t-54.5 -15.5t-20.5 -41.5t20.5 -41zM141.5 272q16.5 -13 43.5 -13q28 0 44.5 13t16.5 35t-16.5 35t-44.5 13q-27 0 -43.5 -13t-16.5 -35t16.5 -35z" />
    <glyph glyph-name="nine.dnom" horiz-adv-x="380" 
d="M71.5 180q-40.5 41 -40.5 101q0 40 20.5 73t56.5 52t80 19q78 0 121 -56.5t43 -145.5q0 -107 -47.5 -167.5t-127.5 -60.5q-62 0 -103.5 35t-47.5 87h79q4 -22 24 -36t46 -14q43 0 69 34t28 85q-13 -21 -40.5 -34t-54.5 -13q-65 0 -105.5 41zM131.5 230.5
q21.5 -19.5 55.5 -19.5q35 0 56 19.5t21 50.5q0 33 -21 52.5t-56 19.5t-56 -19.5t-21 -52.5q0 -31 21.5 -50.5z" />
    <glyph glyph-name="zero.numr" horiz-adv-x="401" 
d="M70 327q-39 52 -39 150v27q0 98 39 149.5t118 51.5h25q79 0 118.5 -51.5t39.5 -149.5v-27q0 -98 -39.5 -150t-118.5 -52h-25q-79 0 -118 52zM140 377.5q20 -25.5 53 -25.5h16q33 0 52.5 25t19.5 73v80q0 48 -19.5 73t-52.5 25h-16q-33 0 -53 -25.5t-20 -72.5v-80
q0 -47 20 -72.5z" />
    <glyph glyph-name="one.numr" horiz-adv-x="233" 
d="M187 280h-89v301q-6 -8 -22.5 -13t-31.5 -5h-30v77h28q27 0 42 13t19 47h84v-420z" />
    <glyph glyph-name="two.numr" horiz-adv-x="362" 
d="M69.5 664q41.5 41 112.5 41q67 0 108.5 -36t41.5 -96q0 -42 -24.5 -74.5t-75.5 -59.5l-48 -25q-54 -29 -56 -57h203v-77h-300v62q-1 46 28.5 79.5t67.5 52.5l68 34q48 23 48 66q0 27 -17 42.5t-44 15.5q-30 0 -47 -22t-16 -59h-90q-1 72 40.5 113z" />
    <glyph glyph-name="three.numr" horiz-adv-x="362" 
d="M66 312.5q-45 37.5 -45 100.5h85q0 -29 21 -45t52 -16q32 0 50 15t18 40t-18.5 39t-49.5 14h-40v73h37q25 0 40.5 14.5t15.5 37.5q0 22 -16.5 34.5t-43.5 12.5q-25 0 -42 -14.5t-18 -41.5h-80q1 57 41.5 93t100.5 36q41 0 74 -15.5t52 -41.5t19 -57q0 -26 -14 -50
t-36 -39q67 -32 67 -98q0 -59 -45.5 -94t-111.5 -35q-68 0 -113 37.5z" />
    <glyph glyph-name="four.numr" horiz-adv-x="390" 
d="M229 364h-211v76l205 260h96v-260h48v-76h-48v-84h-90v84zM229 440v151l-123 -151h123z" />
    <glyph glyph-name="five.numr" horiz-adv-x="354" 
d="M100 293.5q-33 18.5 -53.5 48.5t-22.5 63h77q4 -25 23.5 -40.5t48.5 -15.5q33 0 53 19t20 51t-20.5 51.5t-54.5 19.5q-45 0 -65 -33h-75l35 243h235v-77h-169l-13 -83q28 19 64 19q64 0 105 -39.5t41 -100.5q0 -63 -44 -103.5t-113 -40.5q-39 0 -72 18.5z" />
    <glyph glyph-name="six.numr" horiz-adv-x="380" 
d="M308.5 520q40.5 -41 40.5 -101q0 -40 -20.5 -73t-56.5 -52t-80 -19q-78 0 -121 56.5t-43 145.5q0 107 47.5 167.5t127.5 60.5q62 0 103.5 -35t47.5 -87h-79q-4 22 -24 36t-46 14q-43 0 -69 -34t-28 -85q13 21 40.5 34t54.5 13q65 0 105.5 -41zM137 366.5
q21 -19.5 56 -19.5t56 19.5t21 52.5q0 31 -21.5 50.5t-55.5 19.5q-35 0 -56 -19.5t-21 -50.5q0 -33 21 -52.5z" />
    <glyph glyph-name="seven.numr" horiz-adv-x="337" 
d="M92 388.5q13 48.5 46 99.5l87 135h-213v77h311v-70l-107 -168q-27 -41 -37 -82t-10 -100h-89q-1 60 12 108.5z" />
    <glyph glyph-name="eight.numr" horiz-adv-x="369" 
d="M71 311q-45 36 -45 93q0 35 19 61.5t50 40.5q-22 14 -36 36.5t-14 48.5q0 50 39 82t101 32t101.5 -32t39.5 -82q0 -26 -14 -48t-37 -37q32 -14 50.5 -40.5t18.5 -61.5q0 -57 -45 -93t-114 -36t-114 36zM130.5 365q20.5 -15 54.5 -15t54 15t20 41t-20 41.5t-54 15.5
t-54.5 -15.5t-20.5 -41.5t20.5 -41zM141.5 552q16.5 -13 43.5 -13q28 0 44.5 13t16.5 35t-16.5 35t-44.5 13q-27 0 -43.5 -13t-16.5 -35t16.5 -35z" />
    <glyph glyph-name="nine.numr" horiz-adv-x="380" 
d="M71.5 460q-40.5 41 -40.5 101q0 40 20.5 73t56.5 52t80 19q78 0 121 -56.5t43 -145.5q0 -107 -47.5 -167.5t-127.5 -60.5q-62 0 -103.5 35t-47.5 87h79q4 -22 24 -36t46 -14q43 0 69 34t28 85q-13 -21 -40.5 -34t-54.5 -13q-65 0 -105.5 41zM131.5 510.5
q21.5 -19.5 55.5 -19.5q35 0 56 19.5t21 50.5q0 33 -21 52.5t-56 19.5t-56 -19.5t-21 -52.5q0 -31 21.5 -50.5z" />
    <glyph glyph-name="colon.case" horiz-adv-x="255" 
d="M195 577v-129h-134v129h134zM195 220v-129h-134v129h134z" />
    <glyph glyph-name="bullet.case" horiz-adv-x="377" 
d="M106.5 280.5q-34.5 34.5 -34.5 83.5t34.5 83t82.5 34t82.5 -34t34.5 -83t-34.5 -83.5t-82.5 -34.5t-82.5 34.5z" />
    <glyph glyph-name="comma.ss05" horiz-adv-x="244" 
d="M31 -85h7q23 0 35.5 13.5t12.5 39.5v32h-35v133h141v-165q0 -63 -40.5 -100.5t-106.5 -37.5h-14v85z" />
    <glyph glyph-name="semicolon.ss05" horiz-adv-x="265" 
d="M45 -85h7q23 0 35.5 13.5t12.5 39.5v32h-35v133h141v-165q0 -63 -40.5 -100.5t-106.5 -37.5h-14v85zM202 486v-129h-134v129h134z" />
    <glyph glyph-name="question.ss05" horiz-adv-x="465" 
d="M132 348.5q19 33.5 68 61.5l63 37q31 17 42.5 36t11.5 41q0 29 -22 45.5t-59 16.5h-218v114h223q97 0 153.5 -44.5t56.5 -120.5q0 -55 -29.5 -97.5t-89.5 -77.5l-50 -30q-27 -16 -38.5 -32.5t-11.5 -48.5v-62h-119v78q0 50 19 83.5zM109 129h134v-129h-134v129z" />
    <glyph glyph-name="questiondown.ss05" horiz-adv-x="458" 
d="M66.5 -159q-56.5 45 -56.5 121q0 54 30 96.5t90 77.5l50 30q27 16 38.5 32.5t11.5 48.5v70h119v-86q0 -49 -19.5 -82.5t-67.5 -62.5l-63 -37q-31 -17 -42.5 -36t-11.5 -41q0 -28 21.5 -44.5t59.5 -16.5h218v-115h-224q-97 0 -153.5 45zM221 504h134v-129h-134v129z" />
    <glyph glyph-name="question.ss06" horiz-adv-x="501" 
d="M184 308q14 30 34.5 48.5t53.5 40.5q28 20 43.5 33.5t26 33t10.5 47.5q0 41 -26.5 65.5t-71.5 24.5q-49 0 -80.5 -28.5t-34.5 -79.5h-125q2 61 35 110t87 77t118 28q66 0 117 -24t78.5 -68t27.5 -102q0 -48 -15 -80.5t-36.5 -52t-56.5 -42.5q-40 -26 -60 -49t-20 -61v-42
h-119v48q0 43 14 73zM165 129h134v-129h-134v129z" />
    <glyph glyph-name="questiondown.ss06" horiz-adv-x="498" 
d="M314 188q-14 -30 -34.5 -48.5t-53.5 -40.5q-28 -20 -43.5 -33.5t-26 -33t-10.5 -47.5q0 -41 26.5 -65.5t71.5 -24.5q49 0 80.5 28.5t34.5 79.5h125q-2 -61 -35 -110t-87 -77t-118 -28q-66 0 -117 24t-78.5 68t-27.5 102q0 48 15 80.5t36.5 52t56.5 42.5q40 26 60 49
t20 61v42h119v-48q0 -43 -14 -73zM200 496h134v-129h-134v129z" />
    <glyph glyph-name="emdash.alt" horiz-adv-x="1086" 
d="M43 370h1000v-105h-1000v105z" />
    <glyph glyph-name="quotesinglbase.ss05" horiz-adv-x="240" 
d="M41 -76h4q21 0 33 15t12 39v22h-39v118h139v-145q0 -59 -35 -93t-95 -34h-19v78z" />
    <glyph glyph-name="quotedblbase.ss05" horiz-adv-x="438" 
d="M239 -74h4q21 0 33 15t12 39v22h-39v118h139v-145q0 -59 -35 -93t-95 -34h-19v78zM42 -74h4q21 0 33 15t12 39v22h-39v118h139v-145q0 -59 -35 -93t-95 -34h-19v78z" />
    <glyph glyph-name="quotedblleft.ss05" horiz-adv-x="444" 
d="M199 646h-4q-21 0 -33 -15t-12 -39v-22h39v-118h-139v145q0 59 35 93t95 34h19v-78zM247 597q0 59 35 93t95 34h19v-78h-4q-21 0 -33 -15t-12 -39v-22h39v-118h-139v145z" />
    <glyph glyph-name="quotedblright.ss05" horiz-adv-x="439" 
d="M247 530h4q21 0 33 15t12 39v22h-39v118h139v-145q0 -59 -35 -93t-95 -34h-19v78zM50 530h4q21 0 33 15t12 39v22h-39v118h139v-145q0 -59 -35 -93t-95 -34h-19v78z" />
    <glyph glyph-name="quoteleft.ss05" horiz-adv-x="246" 
d="M199 646h-4q-21 0 -33 -15t-12 -39v-22h39v-118h-139v145q0 59 35 93t95 34h19v-78z" />
    <glyph glyph-name="quoteright.ss05" horiz-adv-x="242" 
d="M50 530h4q21 0 33 15t12 39v22h-39v118h139v-145q0 -59 -35 -93t-95 -34h-19v78z" />
    <glyph glyph-name="registered.alt" horiz-adv-x="875" 
d="M280 565h176q66 0 104 -36.5t38 -95.5q0 -61 -53 -88q42 -29 47 -84l11 -116h-88l-11 104q-2 22 -16.5 35.5t-35.5 13.5h-83v-153h-89v420zM98.5 549q50.5 89 140 140t199.5 51t199 -51t140 -140t51 -199t-51 -199t-140 -140t-199 -51t-199.5 51t-140 140t-50.5 199
t50.5 199zM161 186q41 -73 114 -115t163 -42q89 0 161.5 42t114 115t41.5 164t-41.5 164t-114 115t-161.5 42q-90 0 -163 -42t-114 -115t-41 -164t41 -164zM451 375q30 0 45 16.5t15 41.5t-15 41.5t-45 16.5h-82v-116h82z" />
    <glyph glyph-name="uni030C.alt" 
d="M62 745h116l-55 -185h-92z" />
    <glyph glyph-name="uni0308.cas" 
d="M348 698v-113h-109v113h109zM50 697h109v-113h-109v113z" />
    <glyph glyph-name="uni0307.cas" 
d="M182 720v-137h-132v137h132z" />
    <glyph glyph-name="gravecomb.cas" 
d="M109 560l-110 128h132l83 -128h-105z" />
    <glyph glyph-name="acutecomb.cas" 
d="M112 688h133l-110 -128h-106z" />
    <glyph glyph-name="uni030B.cas" 
d="M152 688h132l-110 -128h-105zM319 688h133l-110 -128h-106z" />
    <glyph glyph-name="uni0302.cas" 
d="M138 680h117l108 -120h-106l-61 59l-62 -59h-104z" />
    <glyph glyph-name="uni030C.cas" 
d="M23 680h110l62 -59l61 59h109l-111 -120h-117z" />
    <glyph glyph-name="uni0306.cas" 
d="M115.5 575.5q-34.5 18.5 -53 50.5t-18.5 70h96q0 -28 14.5 -42t39.5 -14t39.5 14t14.5 42h96q0 -38 -18.5 -70t-53 -50.5t-78.5 -18.5t-78.5 18.5z" />
    <glyph glyph-name="uni030A.cas" 
d="M67.5 577.5q-36.5 31.5 -36.5 81.5t37 81.5t95 31.5q59 0 96.5 -31.5t37.5 -81.5t-37.5 -81.5t-96.5 -31.5t-95.5 31.5zM121.5 621q16.5 -15 41.5 -15q26 0 43 15t17 38t-17 37.5t-43 14.5t-42 -14.5t-16 -37.5t16.5 -38z" />
    <glyph glyph-name="tildecomb.cas" 
d="M225 578q-15 6 -35 17q-24 15 -40 15q-15 0 -25.5 -9.5t-12.5 -25.5h-80q0 54 32 90.5t78 36.5q21 0 36.5 -6t33.5 -17q13 -8 22 -12t19 -4q15 0 26 10t14 26h79q-1 -57 -33 -92t-78 -35q-21 0 -36 6z" />
    <glyph glyph-name="uni0304.cas" 
d="M38 679h276v-94h-276v94z" />
    </font>
</defs>
</svg>
