<?xml version="1.0" standalone="no"?>
<!DOCTYPE svg PUBLIC "-//W3C//DTD SVG 20010904//EN"
 "http://www.w3.org/TR/2001/REC-SVG-20010904/DTD/svg10.dtd">
<svg version="1.0" xmlns="http://www.w3.org/2000/svg"
 width="4884.000000pt" height="4884.000000pt" viewBox="0 0 4884.000000 4884.000000"
 preserveAspectRatio="xMidYMid meet">
<metadata>
Created by potrace 1.14, written by Peter Selinger 2001-2017
</metadata>
<g transform="translate(0.000000,4884.000000) scale(0.100000,-0.100000)"
fill="#000000" stroke="none">
<path d="M3917 29034 c-1 -1 -78 -5 -172 -9 -170 -7 -231 -11 -315 -19 -25 -3
-72 -7 -105 -10 -115 -11 -185 -20 -260 -32 -16 -3 -46 -7 -65 -10 -19 -2 -48
-7 -65 -10 -16 -3 -41 -7 -55 -10 -14 -2 -37 -6 -52 -9 -16 -3 -38 -7 -50 -10
-13 -2 -34 -7 -48 -10 -14 -3 -36 -8 -50 -10 -14 -2 -54 -12 -90 -20 -36 -9
-73 -18 -82 -21 -10 -2 -26 -6 -35 -9 -10 -2 -38 -9 -63 -15 -25 -6 -52 -13
-60 -17 -8 -3 -19 -7 -25 -7 -5 -1 -64 -19 -130 -41 -66 -21 -122 -39 -125
-40 -3 -1 -18 -7 -35 -14 -16 -7 -37 -14 -45 -16 -14 -3 -135 -52 -190 -77
-14 -6 -27 -12 -30 -13 -3 0 -45 -20 -93 -43 -49 -23 -93 -42 -97 -42 -5 0
-10 -3 -12 -8 -3 -6 -66 -42 -135 -76 -13 -6 -23 -15 -23 -19 0 -5 -4 -5 -10
-2 -5 3 -10 1 -10 -4 0 -6 -7 -11 -15 -11 -8 0 -15 -4 -15 -10 0 -5 -5 -10
-10 -10 -12 0 -73 -41 -78 -52 -2 -5 -8 -8 -13 -8 -8 0 -106 -66 -119 -80 -3
-3 -29 -23 -57 -45 -29 -21 -53 -43 -53 -47 0 -4 -5 -8 -10 -8 -6 0 -59 -49
-118 -109 -118 -119 -142 -146 -142 -161 0 -6 -4 -10 -9 -10 -9 0 -89 -117
-136 -200 -47 -84 -103 -229 -122 -316 -10 -48 -16 -126 -17 -199 0 -123 3
-149 31 -245 9 -30 16 -57 15 -60 0 -3 6 -12 13 -20 7 -8 15 -19 16 -25 3 -14
23 -58 31 -70 5 -5 25 -33 46 -62 114 -156 262 -270 510 -391 56 -28 102 -49
102 -46 0 2 18 -5 40 -16 21 -11 44 -20 49 -20 5 0 22 -5 38 -12 15 -6 30 -12
33 -13 3 0 46 -13 95 -28 50 -15 106 -32 125 -38 19 -6 44 -12 55 -14 11 -2
20 -4 20 -5 0 -2 55 -13 127 -26 18 -3 47 -9 63 -14 32 -9 89 -19 143 -26 17
-2 49 -7 70 -10 175 -27 252 -34 252 -23 0 5 -7 26 -16 47 -19 44 -41 116 -48
157 -3 17 -8 41 -11 55 -8 33 -8 217 -1 255 12 65 16 80 32 134 9 31 15 58 14
60 -1 2 2 7 7 10 4 3 23 35 42 71 19 36 40 69 48 73 7 4 13 12 13 17 0 14 96
107 160 157 30 24 60 46 65 51 6 4 44 25 85 46 41 22 82 43 90 48 14 8 67 29
83 33 4 2 9 4 12 5 3 1 8 3 13 5 4 1 14 4 22 8 19 8 183 57 210 63 103 22 154
33 195 38 289 42 404 50 725 50 265 0 378 -6 550 -29 30 -4 69 -9 85 -10 17
-1 37 -5 45 -8 8 -4 33 -8 55 -11 34 -4 88 -14 209 -41 10 -3 44 -12 75 -21
31 -9 63 -17 71 -19 17 -4 166 -53 195 -65 11 -4 38 -16 60 -26 22 -10 45 -19
50 -20 6 -1 57 -25 115 -54 58 -29 115 -58 127 -64 13 -6 23 -14 23 -18 0 -5
5 -8 10 -8 6 0 29 -12 53 -27 57 -37 78 -50 105 -64 12 -7 22 -16 22 -21 0 -4
6 -8 14 -8 8 0 16 -3 18 -7 2 -5 30 -28 63 -53 33 -24 65 -49 71 -55 7 -5 29
-24 51 -42 64 -52 220 -199 256 -242 15 -18 27 -30 27 -27 0 6 30 -27 96 -103
42 -48 55 -61 62 -61 4 0 61 52 127 115 66 63 123 115 128 115 4 0 7 7 7 15 0
8 3 15 8 15 4 0 43 34 87 76 80 76 403 386 499 479 29 28 75 71 103 98 29 26
49 47 46 47 -3 0 5 8 18 19 13 10 70 63 127 118 92 89 118 123 94 123 -5 0
-21 18 -38 41 -16 22 -42 55 -59 73 -16 17 -52 58 -80 91 -58 68 -215 228
-296 300 -100 89 -119 105 -207 173 -48 36 -89 69 -92 72 -3 4 -20 15 -37 25
-18 11 -33 23 -33 27 0 4 -5 8 -11 8 -6 0 -36 17 -67 39 -55 37 -130 83 -202
124 -52 29 -240 126 -245 127 -3 0 -31 12 -62 26 -157 71 -251 107 -418 160
-44 14 -87 28 -95 32 -8 3 -19 7 -25 8 -5 1 -13 3 -17 4 -5 1 -12 4 -18 5 -5
1 -11 3 -12 5 -2 1 -10 3 -18 5 -8 1 -44 11 -80 20 -36 9 -72 18 -80 20 -8 2
-35 8 -60 15 -25 7 -56 14 -70 15 -14 2 -25 4 -25 5 0 2 -13 5 -60 13 -121 23
-141 26 -275 47 -142 22 -211 31 -280 35 -25 2 -45 4 -45 5 0 1 -25 3 -55 5
-127 9 -183 14 -187 19 -3 3 -13 1 -23 -4 -10 -5 -20 -6 -24 -3 -3 4 -43 8
-89 10 -90 4 -537 10 -540 7z"/>
<path d="M17117 29033 c-2 -1 -41 -4 -87 -7 -47 -2 -85 -5 -85 -6 0 -1 -16 -3
-35 -5 -19 -1 -53 -5 -75 -9 -22 -4 -49 -9 -60 -11 -68 -11 -101 -18 -122 -26
-13 -5 -23 -6 -23 -4 0 2 -12 0 -27 -6 -16 -6 -35 -12 -43 -14 -36 -8 -169
-55 -215 -76 -27 -13 -52 -24 -55 -24 -7 -1 -77 -39 -120 -65 -19 -11 -43 -23
-52 -26 -10 -4 -18 -10 -18 -15 0 -5 -5 -9 -11 -9 -30 0 -254 -197 -330 -291
-19 -23 -38 -46 -44 -53 -10 -11 -64 -92 -100 -151 -29 -47 -63 -114 -91 -180
-14 -33 -31 -73 -39 -90 -7 -16 -17 -43 -21 -60 -4 -16 -9 -34 -13 -40 -3 -5
-7 -21 -9 -35 -2 -13 -6 -27 -10 -30 -4 -3 -8 -12 -8 -20 -1 -8 -9 -49 -17
-90 -30 -143 -40 -214 -41 -287 -1 -24 -4 -43 -7 -43 -4 0 -7 -729 -7 -1620
-1 -891 -4 -1625 -7 -1630 -3 -6 -3 -10 2 -10 4 0 7 -63 5 -140 -1 -77 1 -140
6 -140 4 0 48 39 97 86 50 47 131 124 180 171 50 46 162 153 249 236 378 361
566 541 617 588 26 24 120 114 209 199 173 165 184 175 421 400 208 198 208
198 279 260 34 30 75 66 90 80 38 34 81 71 130 111 23 19 54 44 68 57 96 82
374 290 537 402 44 30 82 58 83 63 2 4 10 7 17 7 7 0 26 10 42 23 15 12 37 27
48 34 11 7 69 43 130 80 60 37 119 73 130 79 11 6 70 39 130 73 124 70 418
216 516 256 35 14 78 32 94 40 46 21 216 85 255 97 19 5 41 15 48 20 7 6 15 8
19 5 3 -3 18 0 34 9 16 8 32 15 36 15 5 1 13 3 18 5 53 16 246 68 270 71 39 7
60 11 60 13 0 3 51 13 135 26 37 6 57 9 105 18 17 3 61 8 100 11 38 4 73 9 77
11 5 3 8 -1 8 -8 0 -9 3 -10 8 -2 5 8 57 11 162 9 164 -2 213 -7 325 -32 39
-9 82 -18 98 -20 15 -3 27 -8 27 -12 0 -4 10 -7 21 -8 34 -3 218 -98 281 -146
140 -106 232 -217 316 -382 35 -69 93 -223 109 -289 14 -60 23 -105 29 -139 8
-49 12 -72 14 -72 2 0 7 -59 15 -170 4 -49 8 -1456 9 -3125 l1 -3035 948 0
948 0 -4 3260 c-2 1793 -7 3280 -11 3305 -3 25 -8 70 -10 100 -2 30 -5 55 -6
55 -1 0 -4 18 -5 40 -2 22 -6 51 -9 65 -2 14 -7 45 -10 70 -3 25 -8 56 -11 70
-3 14 -8 41 -11 60 -3 19 -17 82 -31 140 -14 58 -26 112 -28 120 -2 19 -55
180 -93 285 -33 90 -117 277 -142 315 -9 14 -23 40 -31 58 -8 17 -17 32 -21
32 -5 0 -8 5 -8 11 0 11 -125 197 -162 241 -13 15 -34 41 -47 58 -34 44 -176
187 -246 247 -110 95 -362 263 -394 263 -6 0 -11 4 -11 10 0 5 -3 9 -7 8 -5
-1 -46 17 -93 39 -133 63 -373 144 -490 167 -14 2 -59 11 -100 19 -41 9 -95
19 -120 22 -25 4 -58 8 -75 11 -16 2 -45 4 -62 5 -18 1 -33 5 -33 10 0 6 -8 6
-19 0 -10 -6 -21 -7 -25 -4 -8 8 -92 13 -286 15 -199 2 -384 -10 -558 -36 -18
-3 -52 -8 -75 -11 -23 -4 -87 -18 -142 -31 -55 -14 -110 -27 -122 -29 -12 -3
-33 -9 -47 -15 -13 -5 -27 -6 -30 -3 -3 4 -6 1 -6 -6 0 -7 -4 -10 -10 -6 -5 3
-17 1 -27 -4 -10 -5 -70 -28 -133 -51 -63 -24 -148 -58 -188 -77 -41 -18 -78
-35 -85 -36 -6 -1 -19 -9 -29 -17 -10 -8 -22 -15 -26 -15 -20 -2 -303 -171
-314 -189 -4 -6 -8 -7 -8 -3 0 5 -14 -3 -31 -17 -17 -14 -34 -26 -37 -26 -6 0
-28 -16 -79 -60 -7 -5 -15 -10 -17 -10 -5 0 -14 -7 -66 -50 -9 -8 -32 -26 -50
-40 -18 -14 -38 -30 -44 -35 -6 -6 -24 -21 -41 -33 -123 -94 -525 -494 -665
-662 -11 -14 -31 -36 -43 -50 -32 -35 -131 -152 -139 -165 -4 -5 -18 -22 -31
-37 -12 -14 -34 -41 -47 -59 -14 -18 -37 -47 -51 -63 -14 -17 -70 -89 -124
-161 -54 -71 -103 -133 -109 -137 -6 -4 -7 -8 -3 -8 5 0 2 -7 -5 -15 -28 -31
-88 -112 -88 -119 0 -3 -7 -14 -16 -23 -30 -35 -114 -152 -114 -161 0 -5 -9
-17 -20 -27 -11 -10 -20 -22 -20 -27 0 -8 -5 -15 -35 -51 -24 -27 -315 -468
-315 -476 0 -5 -4 -11 -8 -13 -4 -1 -18 -20 -31 -40 -12 -21 -26 -38 -29 -38
-4 0 -7 704 -7 1565 0 861 -2 1565 -5 1566 -13 2 -111 4 -113 2z"/>
<path d="M42077 29034 c-1 -1 -45 -5 -97 -8 -126 -8 -181 -15 -265 -31 -40 -7
-137 -28 -150 -31 -5 -2 -19 -5 -30 -8 -11 -2 -39 -11 -62 -20 -24 -8 -43 -13
-43 -10 0 2 -10 -1 -22 -8 -13 -7 -27 -13 -33 -13 -5 -1 -31 -11 -57 -22 -25
-12 -56 -24 -69 -28 -12 -4 -61 -30 -108 -57 -47 -28 -96 -56 -107 -62 -65
-36 -314 -252 -314 -273 0 -2 -10 -15 -22 -28 -33 -35 -39 -43 -91 -120 -26
-38 -52 -76 -57 -82 -6 -7 -8 -13 -4 -13 3 0 2 -6 -4 -12 -13 -17 -63 -106
-62 -113 0 -3 -9 -24 -20 -48 -27 -60 -70 -181 -70 -201 0 -9 -5 -16 -11 -16
-6 0 -8 -7 -5 -16 4 -9 2 -22 -3 -28 -7 -9 -19 -63 -46 -205 -2 -13 -7 -49
-10 -80 -4 -31 -9 -67 -12 -81 -9 -36 -12 -3600 -4 -3600 4 0 41 33 83 73 215
205 268 254 268 249 0 -4 8 5 17 18 9 14 24 30 33 37 9 7 58 52 108 100 50 48
148 142 218 208 69 66 156 149 194 185 37 36 130 124 205 195 75 72 175 167
223 213 47 45 86 82 88 82 1 0 35 33 76 73 63 61 228 218 402 382 41 39 169
154 250 226 54 47 223 187 265 219 17 14 42 33 54 43 12 10 34 26 50 35 15 9
27 20 27 24 0 4 12 14 28 22 15 8 39 26 54 40 15 14 32 26 38 26 5 0 10 4 10
9 0 5 8 12 18 15 10 4 27 14 38 24 10 9 69 50 129 91 61 41 113 80 117 85 4 6
8 7 8 2 0 -5 9 -1 20 9 11 10 29 23 40 29 11 6 79 48 152 92 73 45 154 93 181
108 26 14 68 38 95 52 26 15 53 31 60 37 6 5 12 6 12 1 0 -5 4 -4 8 1 10 14
172 96 172 88 0 -5 4 -3 8 3 4 5 23 17 42 26 158 72 184 84 278 124 20 9 46
20 57 25 11 5 31 11 44 14 12 2 28 8 35 14 6 5 27 13 46 19 19 5 72 23 118 40
45 17 82 29 82 26 0 -3 9 0 21 6 11 7 32 14 45 16 14 3 44 11 67 19 45 15 158
44 193 49 11 2 25 5 30 8 5 3 33 9 63 12 29 4 56 8 60 10 3 2 31 7 61 11 30 4
57 8 60 10 15 9 194 19 335 19 202 0 291 -12 440 -57 39 -11 72 -21 75 -22 3
0 25 -10 50 -21 25 -11 48 -20 51 -20 4 1 15 -6 25 -15 11 -9 29 -20 42 -23
12 -4 22 -12 22 -17 0 -5 5 -9 11 -9 6 0 24 -10 39 -22 16 -13 37 -30 48 -38
46 -35 90 -79 132 -130 25 -30 47 -57 50 -60 29 -27 140 -236 155 -292 2 -5 4
-10 5 -13 1 -3 3 -8 5 -12 1 -5 4 -15 8 -23 14 -35 47 -159 47 -177 0 -11 3
-23 7 -27 4 -3 8 -14 8 -24 5 -41 15 -119 19 -140 16 -78 19 -512 21 -3247 1
-1666 3 -3032 3 -3035 1 -3 426 -5 945 -5 l942 0 0 3235 c0 1779 -4 3267 -8
3305 -4 39 -8 96 -10 127 -1 32 -4 58 -7 58 -3 0 -6 17 -7 38 -1 20 -4 53 -7
72 -4 19 -11 67 -17 105 -14 84 -13 81 -34 175 -9 41 -17 85 -18 98 -1 12 -4
22 -8 22 -6 0 -11 17 -25 88 -2 13 -23 76 -45 140 -23 64 -41 123 -42 130 0 6
-4 12 -9 12 -4 0 -8 7 -8 15 0 9 -18 55 -41 103 -22 48 -41 92 -42 97 -1 6 -5
12 -8 15 -4 3 -18 28 -33 55 -141 268 -323 488 -573 695 -7 6 -13 9 -13 7 0
-3 -16 10 -35 28 -20 17 -48 38 -63 46 -15 8 -29 16 -32 19 -17 18 -172 106
-270 153 -109 52 -264 113 -310 122 -11 2 -26 7 -33 12 -6 4 -21 9 -31 10 -10
2 -55 12 -98 24 -161 41 -268 59 -433 73 -27 3 -50 6 -50 7 0 4 -158 10 -305
11 -181 1 -400 -12 -490 -28 -14 -3 -38 -7 -53 -9 -15 -2 -47 -7 -70 -10 -23
-4 -44 -8 -47 -10 -3 -2 -21 -6 -41 -9 -19 -3 -62 -13 -95 -22 -32 -8 -68 -17
-79 -19 -19 -3 -224 -69 -255 -82 -8 -3 -17 -7 -20 -8 -3 -1 -22 -9 -44 -18
-21 -9 -45 -17 -52 -17 -8 0 -14 -4 -14 -10 0 -5 -6 -10 -14 -10 -13 0 -119
-48 -156 -70 -8 -5 -42 -23 -75 -40 -33 -17 -69 -36 -80 -43 -89 -55 -127 -77
-134 -77 -5 0 -11 -7 -15 -15 -3 -8 -10 -15 -16 -15 -10 0 -154 -93 -170 -110
-3 -3 -23 -18 -45 -35 -22 -16 -44 -33 -50 -37 -69 -56 -137 -112 -230 -193
-86 -75 -381 -367 -455 -451 -159 -179 -189 -214 -230 -264 -17 -21 -41 -49
-52 -62 -11 -13 -29 -36 -41 -51 -12 -16 -27 -34 -33 -40 -5 -7 -53 -68 -106
-137 -54 -69 -104 -134 -113 -145 -20 -26 -145 -196 -165 -225 -8 -12 -23 -31
-32 -42 -10 -12 -18 -24 -18 -28 0 -4 -10 -18 -21 -31 -12 -13 -29 -35 -38
-49 -9 -14 -19 -29 -24 -35 -25 -33 -175 -254 -311 -458 -86 -130 -158 -237
-159 -237 -1 0 -2 701 -1 1557 0 857 -2 1565 -4 1573 -2 12 -16 16 -48 15 -25
0 -46 -1 -47 -1z"/>
<path d="M8688 28881 c-6 -50 -1 -6297 6 -6411 3 -63 9 -137 11 -165 3 -27 7
-72 10 -100 6 -65 12 -114 21 -167 4 -24 8 -52 10 -63 1 -11 3 -22 4 -25 1 -3
2 -8 1 -12 0 -3 8 -47 19 -97 11 -50 22 -101 24 -113 3 -13 5 -23 6 -23 1 0 3
-7 5 -15 18 -89 86 -299 141 -432 83 -204 227 -455 335 -583 90 -106 162 -185
171 -185 5 0 6 -4 3 -10 -3 -5 -2 -10 2 -10 5 0 27 -17 49 -37 59 -55 119
-106 144 -123 12 -8 28 -21 35 -27 66 -63 359 -222 525 -285 127 -48 133 -50
150 -54 8 -1 53 -14 100 -28 47 -14 101 -28 120 -31 19 -3 51 -10 70 -15 43
-11 81 -18 140 -24 25 -3 54 -7 65 -9 18 -4 63 -9 225 -23 88 -7 397 -7 409 0
6 4 11 2 11 -4 0 -6 5 -8 12 -3 7 4 38 8 68 9 30 1 55 3 55 4 0 0 27 3 60 6
86 8 120 12 120 14 0 1 18 3 40 6 22 2 47 7 55 10 8 4 26 7 40 9 21 2 111 20
145 29 6 2 24 6 40 10 51 12 350 109 355 115 3 4 23 12 45 20 22 7 103 45 180
84 77 38 150 75 162 81 13 6 23 14 23 19 0 4 4 7 10 7 13 0 114 62 118 72 2 4
8 8 13 8 9 0 194 125 215 144 6 6 23 20 39 31 28 20 186 150 247 203 164 143
370 352 563 572 22 25 42 47 45 50 3 3 30 34 60 70 30 36 58 67 63 68 4 2 7 8
7 13 0 5 8 17 18 27 9 10 33 38 52 62 19 24 49 60 65 81 17 20 39 49 50 64 11
16 25 33 30 39 17 19 189 249 215 288 14 21 28 38 33 38 4 0 7 7 7 15 0 7 6
18 13 22 6 4 26 28 42 53 16 25 32 47 35 50 3 3 19 25 35 50 17 25 34 50 38
55 33 43 137 197 137 205 0 4 3 10 8 12 11 5 92 125 92 136 0 6 3 12 8 14 9 4
72 96 72 106 0 4 11 19 23 33 13 13 26 29 28 34 12 28 55 95 64 99 7 2 9 -522
7 -1565 l-2 -1569 22 -1 c95 -3 204 5 378 26 21 3 80 15 243 50 35 8 202 68
254 91 28 13 57 24 62 24 6 0 11 4 11 8 0 5 6 9 13 9 6 0 41 18 76 39 35 21
78 47 95 57 17 11 40 27 52 38 11 10 24 19 28 19 14 0 246 223 246 236 0 4 10
15 22 25 11 11 18 19 15 19 -4 0 1 9 10 19 29 32 37 43 75 106 45 75 129 235
123 235 -2 0 9 30 24 68 15 37 29 70 30 74 1 4 3 13 5 20 28 100 49 180 51
198 1 8 4 29 8 45 7 33 18 102 23 150 2 17 6 55 10 85 8 72 11 3539 3 3552 -4
5 -42 -24 -85 -65 -176 -167 -198 -187 -206 -187 -5 0 -6 -4 -3 -10 3 -5 3
-10 -2 -10 -4 0 -42 -33 -84 -73 -42 -39 -131 -124 -198 -187 -68 -63 -155
-146 -194 -183 -40 -38 -121 -115 -182 -172 -60 -57 -141 -133 -180 -170 -38
-37 -121 -115 -184 -174 -62 -58 -144 -135 -181 -171 -38 -36 -123 -117 -191
-180 -67 -63 -151 -143 -188 -178 -36 -35 -97 -91 -135 -125 -39 -34 -86 -77
-105 -95 -20 -18 -49 -43 -64 -55 -16 -12 -44 -37 -63 -54 -19 -18 -39 -33
-44 -33 -6 0 -10 -4 -10 -10 0 -5 -7 -10 -16 -10 -8 0 -12 -4 -9 -10 3 -5 1
-10 -4 -10 -6 0 -24 -11 -39 -24 -46 -41 -69 -60 -92 -76 -12 -8 -28 -20 -34
-25 -6 -6 -31 -26 -56 -45 -25 -19 -46 -38 -48 -42 -2 -5 -8 -8 -12 -8 -7 0
-104 -68 -160 -114 -27 -21 -350 -236 -355 -236 -3 0 -29 -16 -58 -35 -28 -19
-57 -35 -64 -35 -7 0 -13 -4 -13 -9 0 -5 -15 -16 -32 -25 -18 -9 -40 -21 -48
-26 -55 -36 -194 -110 -205 -110 -7 0 -15 -4 -17 -9 -4 -11 -268 -142 -268
-133 0 4 -4 3 -8 -3 -10 -13 -119 -65 -137 -65 -8 0 -15 -4 -15 -8 0 -5 -6 -9
-12 -9 -7 0 -33 -9 -58 -21 -59 -27 -121 -53 -140 -57 -8 -2 -40 -13 -70 -25
-106 -40 -302 -103 -355 -115 -5 -1 -29 -7 -53 -14 -23 -6 -46 -9 -51 -6 -5 3
-11 1 -13 -4 -1 -5 -16 -12 -33 -15 -16 -3 -43 -8 -60 -11 -143 -27 -176 -32
-325 -51 -70 -8 -352 -13 -364 -6 -5 3 -30 6 -55 7 -73 4 -201 29 -261 52 -8
3 -23 8 -33 9 -10 2 -36 13 -57 24 -22 11 -40 18 -40 16 0 -10 -146 78 -205
123 -50 38 -93 82 -192 194 -80 93 -201 368 -228 522 -13 76 -16 92 -20 105
-3 8 -7 38 -10 65 -3 28 -8 64 -11 80 -3 17 -7 1425 -8 3130 l-2 3100 -946 1
-946 0 -4 -25z"/>
<path d="M25077 28883 c-2 -13 -1 -26 4 -29 4 -2 5 -14 0 -26 -4 -12 -5 -37
-1 -55 5 -18 5 -33 1 -33 -3 0 -6 -25 -6 -55 0 -30 3 -55 7 -55 4 0 5 -6 3
-13 -9 -22 -11 -159 -2 -164 4 -2 4 -9 0 -16 -10 -16 -10 -57 0 -57 4 0 5 -5
2 -11 -11 -17 -13 -59 -3 -65 4 -3 6 -10 2 -15 -10 -16 -12 -59 -4 -64 5 -3 5
-17 1 -33 -4 -15 -4 -42 0 -59 4 -18 4 -33 0 -33 -3 0 -6 -25 -6 -55 0 -30 3
-55 7 -55 4 0 5 -6 3 -13 -9 -22 -11 -159 -2 -164 4 -2 4 -9 0 -16 -10 -16
-10 -57 0 -57 4 0 5 -5 2 -11 -11 -17 -13 -59 -3 -65 4 -3 6 -10 2 -15 -10
-16 -12 -59 -4 -64 5 -3 5 -17 1 -33 -4 -15 -4 -42 0 -59 4 -18 4 -33 0 -33
-3 0 -6 -25 -6 -55 0 -30 3 -55 7 -55 4 0 5 -6 3 -13 -9 -22 -11 -159 -2 -164
4 -2 4 -9 0 -16 -10 -16 -10 -57 0 -57 4 0 5 -5 2 -11 -11 -17 -13 -59 -3 -65
4 -3 6 -10 2 -15 -10 -16 -12 -59 -4 -64 5 -3 5 -17 1 -33 -4 -15 -4 -42 0
-59 4 -18 4 -33 0 -33 -3 0 -6 -25 -6 -55 0 -30 3 -55 7 -55 4 0 5 -6 3 -13
-9 -22 -11 -159 -2 -164 4 -2 4 -9 0 -16 -10 -16 -10 -57 0 -57 4 0 5 -5 2
-11 -11 -17 -13 -59 -3 -65 4 -3 6 -10 2 -15 -10 -16 -12 -59 -4 -64 5 -3 5
-17 1 -33 -4 -15 -4 -42 0 -59 4 -18 4 -33 0 -33 -3 0 -6 -25 -6 -55 0 -30 3
-55 7 -55 4 0 5 -6 3 -13 -9 -22 -11 -159 -2 -164 4 -2 4 -9 0 -16 -10 -16
-10 -57 0 -57 4 0 5 -5 2 -11 -11 -17 -13 -59 -3 -65 4 -3 6 -10 2 -15 -10
-16 -12 -59 -4 -64 5 -3 5 -17 1 -33 -4 -15 -4 -42 0 -59 4 -18 4 -33 0 -33
-3 0 -6 -25 -6 -55 0 -30 3 -55 7 -55 4 0 5 -6 3 -13 -9 -22 -11 -159 -2 -164
4 -2 4 -9 0 -16 -10 -16 -10 -57 0 -57 4 0 5 -5 2 -11 -11 -17 -13 -59 -3 -65
4 -3 6 -10 2 -15 -10 -16 -12 -59 -4 -64 5 -3 5 -17 1 -33 -4 -15 -4 -42 0
-59 4 -18 4 -33 0 -33 -3 0 -6 -25 -6 -55 0 -30 3 -55 7 -55 4 0 5 -6 3 -13
-9 -22 -11 -159 -2 -164 4 -2 4 -9 0 -16 -10 -16 -10 -57 0 -57 4 0 5 -5 2
-11 -11 -17 -13 -59 -3 -65 4 -3 6 -10 2 -15 -10 -16 -12 -59 -4 -64 5 -3 5
-17 1 -33 -4 -15 -4 -42 0 -59 4 -18 4 -33 0 -33 -3 0 -6 -25 -6 -55 0 -30 3
-55 7 -55 4 0 5 -6 3 -13 -9 -22 -11 -159 -2 -164 4 -2 4 -9 0 -16 -10 -16
-10 -57 0 -57 4 0 5 -5 2 -11 -11 -17 -13 -59 -3 -65 4 -3 6 -10 2 -15 -10
-16 -12 -59 -4 -64 5 -3 5 -17 1 -33 -4 -15 -4 -42 0 -59 4 -18 4 -33 0 -33
-3 0 -6 -25 -6 -55 0 -30 3 -55 7 -55 4 0 5 -6 3 -13 -9 -22 -11 -159 -2 -164
4 -2 4 -9 0 -16 -8 -14 -11 -57 -3 -57 3 0 6 -9 6 -20 0 -11 -3 -20 -7 -20 -3
0 -4 -12 -2 -27 5 -34 4 -85 -2 -91 -2 -3 0 -13 6 -23 5 -11 6 -19 2 -19 -4 0
-8 -16 -8 -35 0 -19 3 -35 7 -35 4 0 3 -13 -2 -28 -4 -16 -4 -36 2 -45 5 -10
5 -17 0 -17 -5 0 -7 -12 -5 -27 5 -34 4 -85 -2 -91 -2 -3 0 -13 6 -23 5 -11 6
-19 2 -19 -4 0 -8 -16 -8 -35 0 -19 4 -35 8 -35 5 0 5 -5 1 -11 -8 -14 -8
-134 1 -148 3 -6 3 -11 -2 -11 -4 0 -8 -25 -8 -55 0 -30 3 -55 7 -55 4 0 5 -6
3 -13 -9 -22 -11 -159 -2 -164 4 -2 4 -9 0 -16 -9 -15 -10 -57 -2 -57 4 0 4
-12 0 -27 -4 -16 -4 -43 0 -60 4 -18 4 -33 0 -33 -3 0 -6 -25 -6 -55 0 -30 3
-55 7 -55 4 0 5 -6 3 -13 -9 -22 -11 -159 -2 -164 4 -2 4 -9 0 -16 -9 -15 -10
-57 -2 -57 4 0 4 -12 0 -27 -4 -16 -4 -43 0 -60 4 -18 4 -33 0 -33 -3 0 -6
-25 -6 -55 0 -30 3 -55 6 -55 4 0 4 -15 0 -32 -4 -18 -4 -48 0 -65 3 -18 3
-33 -1 -33 -4 0 -5 -12 -3 -27 5 -34 4 -85 -2 -91 -2 -3 0 -13 6 -23 5 -11 6
-19 2 -19 -4 0 -8 -16 -8 -35 0 -19 3 -35 7 -35 4 0 3 -13 -2 -28 -4 -16 -4
-36 2 -45 5 -10 5 -17 0 -17 -5 0 -7 -12 -5 -27 5 -34 4 -85 -2 -91 -2 -3 0
-13 6 -23 5 -11 6 -19 2 -19 -4 0 -8 -16 -8 -35 0 -19 4 -35 8 -35 5 0 5 -5 1
-11 -8 -14 -8 -134 1 -148 3 -6 3 -11 -2 -11 -4 0 -8 -25 -8 -55 0 -30 3 -55
7 -55 4 0 5 -6 3 -13 -9 -22 -11 -159 -2 -164 4 -2 4 -9 0 -16 -9 -15 -10 -57
-2 -57 4 0 4 -12 0 -27 -4 -16 -4 -43 0 -60 4 -18 3 -33 -1 -33 -4 0 -5 -12
-3 -27 2 -16 4 -35 4 -43 -2 -53 -1 -82 3 -88 2 -4 429 -7 948 -7 l943 0 1
3680 c1 2024 2 3682 3 3685 2 11 2566 1 2566 -10 0 -1 18 -4 39 -6 189 -23
419 -95 556 -173 30 -18 66 -37 80 -44 28 -13 23 -10 105 -74 51 -41 165 -151
201 -195 30 -37 84 -119 84 -127 0 -5 3 -11 8 -13 19 -8 114 -234 126 -300 3
-13 5 -23 7 -23 1 0 3 -9 4 -20 2 -11 8 -45 15 -75 54 -264 14 -648 -95 -895
-12 -27 -28 -65 -35 -82 -7 -18 -16 -33 -21 -33 -5 0 -8 -3 -7 -7 4 -13 -72
-142 -119 -203 -87 -112 -225 -260 -244 -260 -5 0 -9 -4 -9 -8 0 -4 -24 -26
-52 -47 -51 -38 -59 -45 -92 -72 -8 -7 -17 -13 -20 -13 -3 0 -25 -13 -48 -29
-24 -16 -50 -31 -58 -33 -8 -2 -23 -11 -34 -20 -11 -10 -26 -18 -33 -18 -7 0
-13 -5 -13 -11 0 -7 34 -8 108 -4 179 11 218 14 317 28 22 4 65 9 95 13 56 7
69 9 130 19 30 6 126 24 210 41 14 3 68 16 120 30 52 14 100 26 105 27 6 2 16
6 23 10 6 5 12 6 12 3 0 -5 138 40 190 61 8 4 17 7 20 8 99 25 392 168 547
266 54 34 100 65 103 68 3 3 23 19 45 36 22 16 45 34 51 40 7 5 31 26 55 45
49 39 241 230 232 230 -3 0 7 12 22 28 33 33 141 186 184 262 41 72 94 183
116 245 10 28 21 55 25 60 16 25 85 302 94 383 17 133 20 189 20 322 0 136 -9
292 -18 322 -3 7 -7 31 -10 53 -6 44 -12 74 -23 120 -4 17 -8 35 -9 40 -1 6
-3 12 -4 15 -1 3 -3 12 -5 20 -5 23 -52 161 -66 195 -7 17 -13 32 -13 35 -1 3
-19 40 -40 84 -107 219 -245 398 -430 560 -32 28 -64 56 -70 61 -6 6 -27 22
-46 35 -19 13 -37 27 -40 30 -10 13 -178 119 -245 155 -38 20 -75 41 -81 46
-6 5 -14 6 -17 2 -4 -3 -7 -1 -7 5 0 7 -3 11 -7 10 -5 -1 -39 13 -78 31 -75
35 -263 110 -280 111 -3 0 -22 7 -42 15 -21 7 -72 23 -113 35 -41 12 -82 24
-90 27 -8 3 -22 7 -30 8 -8 1 -46 10 -85 19 -38 10 -81 20 -95 22 -14 3 -32 7
-40 9 -16 5 -168 32 -223 40 -17 2 -43 6 -57 9 -25 5 -158 21 -255 32 -27 3
-81 7 -120 10 -38 2 -104 7 -145 10 -41 3 -1149 7 -2462 8 l-2386 2 -5 -23z"/>
<path d="M33629 28881 c0 -15 -1 -1437 -1 -3161 0 -2654 3 -3375 13 -3375 1 0
2 -18 4 -40 1 -22 5 -65 9 -95 4 -30 9 -71 11 -90 8 -67 14 -115 20 -140 3
-14 7 -38 10 -55 2 -16 7 -41 10 -55 3 -14 8 -38 11 -55 3 -16 16 -73 30 -125
13 -52 27 -104 29 -115 7 -28 54 -176 65 -200 5 -11 21 -51 35 -90 40 -104
174 -375 195 -395 3 -3 23 -33 45 -67 22 -35 43 -63 48 -63 4 0 7 -5 7 -11 0
-6 19 -34 43 -63 23 -28 47 -57 52 -65 22 -29 266 -271 275 -271 5 0 21 -12
37 -27 16 -16 36 -32 44 -38 9 -5 56 -37 105 -70 84 -56 320 -182 374 -199 14
-5 27 -9 30 -10 48 -21 175 -66 203 -71 10 -2 32 -8 50 -14 32 -10 84 -23 142
-37 17 -4 32 -8 35 -9 7 -2 101 -18 125 -21 11 -1 20 -3 20 -4 0 -2 29 -6 100
-14 33 -4 76 -9 95 -12 128 -20 543 -19 725 1 33 4 76 8 95 10 19 2 35 4 35 5
0 1 17 4 38 6 75 9 247 47 357 79 30 9 62 18 70 20 8 2 15 4 15 4 0 6 195 67
199 63 3 -3 6 0 6 6 0 7 5 12 10 12 30 0 410 191 451 226 8 8 19 14 22 14 13
0 262 172 270 186 4 8 13 14 19 14 9 0 187 143 258 206 89 81 105 94 113 94 4
0 5 5 2 10 -3 6 -2 10 3 10 12 0 244 231 342 340 41 46 89 98 105 116 17 17
53 59 80 93 28 33 53 61 58 61 4 0 7 5 7 10 0 6 12 22 26 35 15 14 24 25 21
25 -3 0 5 12 19 27 13 14 35 39 47 55 12 16 29 37 37 47 8 10 26 33 40 51 14
18 37 47 52 64 15 17 28 34 28 37 0 3 10 17 21 30 12 13 29 35 37 49 9 14 22
29 29 33 7 4 13 15 13 22 0 8 3 15 8 15 4 1 30 32 57 71 28 39 61 85 75 104
14 18 31 41 38 51 7 11 40 57 73 104 33 47 65 93 72 103 7 11 31 45 55 78 23
32 42 63 42 68 0 5 4 11 8 13 5 2 53 71 107 153 54 83 105 156 112 163 7 8 11
18 8 23 -4 5 -2 9 3 9 4 0 18 17 30 38 12 20 30 47 39 59 17 22 18 -45 16
-1552 l-2 -1575 27 -1 c54 -1 257 7 257 11 0 3 76 12 113 13 17 1 32 5 32 10
0 4 3 6 8 3 6 -4 54 4 117 19 11 3 31 7 45 10 33 6 192 56 205 63 6 4 16 7 23
8 48 8 347 171 399 218 6 6 24 20 38 31 34 25 202 191 234 231 70 87 216 337
227 389 1 6 10 28 20 50 17 38 20 49 27 78 1 6 5 17 9 22 5 9 36 126 44 170 2
11 6 30 9 43 11 46 13 58 20 102 4 25 9 63 11 85 1 22 4 40 4 40 1 0 4 16 7
35 6 52 9 3570 3 3570 -3 0 -26 -19 -50 -41 -67 -62 -315 -296 -379 -358 -31
-29 -103 -97 -161 -151 -58 -54 -135 -127 -171 -162 -61 -58 -261 -247 -389
-368 -183 -173 -310 -292 -364 -343 -33 -32 -119 -113 -190 -180 -71 -67 -148
-140 -171 -162 -48 -45 -187 -172 -225 -205 -14 -12 -38 -34 -55 -48 -30 -27
-133 -114 -168 -142 -10 -8 -31 -25 -45 -38 -15 -12 -70 -55 -122 -95 -52 -40
-101 -77 -108 -84 -7 -7 -26 -20 -42 -30 -17 -9 -30 -21 -30 -25 0 -4 -7 -8
-15 -8 -8 0 -15 -3 -15 -7 0 -5 -17 -19 -38 -33 -20 -14 -39 -27 -42 -30 -3
-3 -25 -19 -50 -35 -25 -16 -47 -32 -50 -35 -7 -8 -61 -42 -87 -56 -12 -7 -28
-17 -35 -24 -78 -67 -733 -439 -760 -432 -5 1 -8 -2 -8 -8 0 -5 -7 -10 -14
-10 -8 0 -35 -11 -59 -24 -44 -23 -101 -45 -114 -45 -3 1 -9 -3 -12 -8 -3 -5
-44 -24 -91 -43 -47 -18 -101 -40 -120 -48 -19 -9 -37 -16 -40 -17 -14 -3 -57
-17 -75 -25 -143 -60 -611 -182 -657 -172 -5 1 -8 -1 -8 -5 0 -5 -10 -8 -22
-9 -13 -1 -54 -5 -93 -9 -38 -5 -96 -9 -127 -9 -32 -1 -58 -4 -58 -7 0 -7
-254 -3 -325 5 -116 12 -315 62 -315 78 0 5 -3 7 -8 4 -19 -11 -235 108 -288
159 -11 11 -33 31 -50 45 -41 35 -134 144 -134 157 0 6 -3 13 -8 15 -13 6 -70
101 -102 173 -38 82 -81 205 -73 205 3 0 1 6 -5 13 -5 6 -12 26 -13 42 -2 17
-7 32 -11 35 -3 3 -9 25 -12 50 -6 48 -13 96 -22 145 -16 90 -18 476 -18 3257
-1 2017 -4 3039 -11 3040 -5 0 -432 2 -947 3 l-938 1 -1 -25z"/>
<path d="M317 26318 c-5 -16 0 -369 7 -423 2 -22 7 -60 10 -85 5 -44 12 -84
21 -125 3 -11 9 -40 14 -65 5 -25 22 -83 37 -130 15 -47 28 -87 29 -90 14 -47
113 -244 156 -310 122 -188 258 -332 449 -476 30 -23 75 -54 100 -70 25 -16
47 -31 50 -35 3 -3 12 -9 20 -12 8 -4 33 -18 55 -31 22 -14 65 -37 95 -52 30
-15 57 -31 58 -36 2 -4 9 -8 16 -8 7 0 38 -13 69 -29 31 -16 57 -27 57 -25 0
2 19 -6 43 -18 23 -12 49 -23 57 -24 8 -2 23 -7 35 -12 35 -16 69 -30 100 -40
17 -6 39 -14 50 -18 11 -4 23 -8 27 -8 3 -1 10 -4 14 -8 4 -5 13 -8 20 -8 7 0
25 -5 41 -12 15 -6 36 -13 47 -15 10 -2 46 -12 80 -24 33 -11 68 -22 76 -24 8
-1 35 -8 60 -15 25 -7 50 -13 55 -14 6 -2 28 -8 50 -14 22 -6 51 -13 65 -16
26 -5 55 -12 93 -22 12 -3 40 -10 62 -14 22 -5 85 -18 140 -30 55 -11 111 -23
125 -26 14 -2 61 -12 105 -21 44 -8 94 -17 110 -20 54 -7 80 -11 101 -16 12
-3 38 -8 58 -11 20 -3 52 -9 72 -12 20 -3 46 -8 58 -10 11 -2 41 -7 66 -10 25
-3 62 -9 82 -15 20 -5 40 -8 45 -7 4 1 28 -2 53 -7 25 -5 53 -10 63 -11 9 -1
18 -2 20 -4 1 -1 16 -3 32 -5 75 -10 178 -25 195 -30 8 -3 35 -7 60 -10 25 -3
52 -7 60 -10 8 -2 35 -7 60 -11 25 -3 56 -8 70 -11 14 -2 39 -6 55 -8 17 -3
75 -14 130 -25 55 -11 115 -22 134 -25 19 -3 52 -10 75 -16 23 -6 55 -12 72
-13 17 -1 35 -5 40 -8 8 -5 61 -19 89 -23 6 -1 12 -3 15 -4 3 -2 16 -5 30 -7
14 -2 72 -18 130 -35 58 -17 112 -32 120 -33 9 -1 20 -5 25 -8 6 -3 33 -13 60
-21 124 -38 416 -174 445 -208 3 -3 12 -10 21 -15 70 -39 189 -158 245 -244
37 -58 99 -190 89 -190 -3 0 0 -12 6 -27 32 -84 31 -364 -1 -449 -5 -13 -8
-24 -5 -24 15 0 -67 -186 -119 -268 -90 -142 -261 -288 -441 -374 -38 -18 -72
-35 -75 -38 -6 -6 -99 -40 -125 -46 -11 -2 -21 -8 -23 -14 -2 -6 -7 -8 -11 -6
-4 3 -27 -2 -52 -10 -42 -15 -53 -18 -100 -29 -11 -2 -28 -6 -37 -9 -9 -3 -32
-8 -51 -11 -19 -3 -37 -7 -40 -9 -3 -2 -26 -7 -51 -10 -25 -3 -54 -8 -66 -10
-12 -2 -45 -7 -75 -11 -30 -3 -65 -8 -79 -10 -82 -15 -621 -29 -644 -17 -5 3
-39 6 -75 8 -87 3 -196 13 -213 19 -7 2 -38 7 -68 9 -30 3 -68 8 -85 11 -16 3
-46 8 -65 11 -57 10 -79 14 -105 19 -14 3 -37 7 -52 10 -16 3 -73 17 -128 31
-55 14 -107 27 -115 29 -26 5 -258 79 -290 92 -8 4 -17 7 -20 8 -3 1 -14 5
-25 10 -11 4 -46 18 -78 31 -108 43 -141 58 -307 142 -91 46 -166 87 -168 92
-2 6 -7 10 -12 10 -11 0 -114 63 -118 73 -2 4 -10 7 -17 7 -7 0 -15 3 -17 8
-1 4 -32 27 -68 51 -36 25 -66 48 -68 53 -2 4 -10 8 -17 8 -7 0 -15 3 -17 8
-1 4 -19 20 -38 35 -162 131 -336 307 -419 423 -13 19 -27 34 -31 34 -4 0 -34
-25 -66 -56 -112 -106 -448 -429 -506 -486 -32 -32 -58 -57 -58 -55 0 1 -56
-52 -124 -118 -134 -130 -453 -437 -464 -445 -4 -3 -17 -17 -29 -30 l-22 -26
24 -28 c14 -16 25 -32 25 -35 0 -3 15 -22 33 -42 17 -19 45 -53 62 -75 31 -40
250 -262 320 -324 51 -45 192 -159 229 -185 16 -11 40 -29 55 -40 34 -27 133
-95 174 -120 154 -94 259 -155 266 -155 5 0 14 -7 21 -15 7 -8 16 -13 20 -10
5 3 10 2 12 -3 10 -23 590 -280 669 -296 8 -2 31 -10 51 -20 21 -9 44 -16 53
-16 8 0 23 -4 33 -9 16 -9 109 -40 135 -45 7 -2 39 -11 72 -21 33 -10 65 -20
70 -21 6 -1 30 -7 55 -15 25 -7 50 -13 57 -15 6 -1 54 -12 105 -24 102 -24
133 -31 164 -34 11 -2 25 -5 30 -9 5 -3 30 -8 54 -12 52 -7 85 -13 120 -20 14
-3 41 -7 60 -10 19 -3 46 -7 60 -9 84 -16 285 -39 338 -40 17 -1 32 -3 32 -6
0 -3 24 -6 53 -7 28 -1 77 -5 107 -8 99 -10 899 -14 905 -4 4 5 13 5 24 -1 10
-5 21 -6 25 -2 4 3 33 7 64 9 67 2 130 10 142 18 5 3 11 1 15 -5 4 -6 12 -7
18 -3 14 9 21 10 102 18 34 3 72 7 86 10 13 2 42 6 64 9 55 8 204 35 283 52
15 3 35 6 45 7 9 1 17 5 17 10 0 4 4 6 8 3 5 -3 26 -1 47 5 20 6 46 13 56 15
11 2 27 6 37 8 9 2 58 16 107 31 50 14 97 28 106 30 24 5 171 56 194 67 12 5
27 10 35 12 8 2 28 8 43 14 94 39 133 56 144 65 7 5 16 6 22 3 5 -3 11 -3 13
1 1 5 59 36 128 70 151 75 224 115 228 126 2 4 10 7 17 7 8 0 20 6 27 13 7 7
48 35 91 62 42 27 77 52 77 56 0 4 9 11 20 14 11 4 33 17 48 31 15 13 32 27
37 31 127 98 271 234 378 358 33 39 64 72 69 73 4 2 8 10 8 18 0 8 7 17 15 20
8 4 15 12 15 20 0 7 6 17 12 21 26 16 154 222 224 361 40 78 71 142 68 142 -2
0 4 17 15 38 17 34 59 160 111 339 12 40 19 77 16 82 -4 5 -1 13 5 16 5 4 8
13 5 20 -2 7 -2 16 2 20 4 4 7 14 8 23 0 9 4 39 9 67 4 27 9 59 10 70 1 11 3
20 4 20 2 0 10 96 16 195 12 200 -2 484 -32 645 -3 17 -6 38 -7 48 0 9 -3 17
-6 17 -3 0 -6 10 -6 23 -2 25 -12 75 -20 97 -3 8 -8 26 -10 39 -3 13 -13 48
-24 78 -10 29 -16 53 -13 53 3 0 1 6 -4 13 -6 6 -16 30 -23 52 -7 22 -17 46
-23 53 -5 6 -7 12 -3 12 3 0 -26 63 -65 140 -40 77 -76 140 -81 140 -4 0 -8 6
-8 13 0 7 -7 22 -15 32 -8 11 -43 58 -77 105 -68 91 -252 282 -333 346 -27 21
-55 44 -61 49 -6 6 -22 17 -34 25 -12 8 -28 20 -34 25 -6 6 -29 22 -51 35 -22
13 -42 26 -45 29 -30 34 -473 265 -525 275 -5 1 -20 8 -32 14 -13 7 -23 10
-23 7 0 -3 -13 1 -29 9 -43 23 -305 112 -426 146 -76 22 -258 69 -325 85 -18
4 -207 45 -235 51 -11 2 -42 8 -70 14 -108 22 -135 27 -190 34 -16 3 -50 9
-75 15 -25 5 -72 13 -105 16 -33 4 -63 9 -67 11 -3 2 -28 7 -55 10 -26 3 -59
7 -73 9 -14 3 -43 7 -65 9 -22 3 -53 7 -70 10 -16 3 -52 8 -80 11 -49 6 -90
12 -90 15 0 0 -25 3 -55 5 -30 2 -68 6 -85 9 -38 7 -125 16 -190 21 -27 2 -50
5 -50 5 0 4 -155 22 -295 35 -19 2 -35 4 -35 5 0 0 -27 3 -60 6 -33 2 -75 6
-94 9 -18 3 -61 8 -95 11 -33 3 -81 8 -106 10 -25 3 -58 7 -75 9 -70 7 -150
16 -179 20 -53 7 -119 15 -181 20 -33 3 -71 8 -85 10 -14 3 -54 7 -90 11 -77
7 -115 12 -115 14 0 1 -11 3 -25 5 -91 10 -149 18 -255 35 -66 11 -138 22
-160 25 -36 5 -92 14 -120 20 -5 2 -28 6 -49 9 -21 4 -48 8 -60 11 -12 3 -32
7 -46 9 -14 3 -68 14 -120 25 -52 12 -106 24 -120 27 -14 2 -33 7 -42 10 -9 3
-27 7 -40 10 -33 7 -37 8 -103 28 -33 10 -67 20 -75 21 -67 15 -363 125 -372
139 -4 6 -8 8 -8 3 0 -7 -189 87 -241 121 -15 9 -45 28 -68 41 -22 14 -41 28
-41 33 0 4 -7 8 -15 8 -7 0 -18 6 -22 13 -4 6 -25 25 -46 40 -43 33 -167 158
-167 169 0 13 -17 9 -23 -4z"/>
<path d="M27440 24118 c0 -4 2 -8 4 -8 3 0 44 -8 136 -26 13 -3 56 -12 95 -20
38 -9 75 -17 80 -18 6 -1 16 -5 23 -9 6 -5 12 -6 12 -4 0 3 17 1 38 -4 20 -6
51 -12 67 -15 17 -3 37 -8 45 -11 18 -7 25 -9 65 -16 17 -3 66 -15 110 -27
118 -33 145 -39 145 -31 0 3 4 1 8 -6 4 -7 21 -14 37 -17 17 -3 68 -17 115
-31 47 -14 90 -27 95 -28 44 -12 133 -40 147 -48 10 -5 22 -9 27 -9 5 0 22 -5
38 -12 15 -6 36 -13 45 -14 9 -2 45 -15 80 -28 88 -34 102 -39 113 -42 6 -1
39 -14 75 -29 62 -25 79 -33 168 -71 20 -9 63 -29 95 -45 31 -15 57 -25 57
-22 0 3 8 0 18 -8 9 -8 53 -32 97 -54 44 -22 82 -42 85 -45 3 -3 26 -16 53
-30 26 -13 47 -28 47 -32 0 -5 5 -8 12 -8 17 0 263 -168 314 -215 6 -5 39 -34
73 -64 83 -72 221 -212 221 -224 0 -3 12 -18 28 -34 37 -39 58 -67 73 -95 6
-13 15 -25 19 -28 15 -10 139 -225 145 -250 1 -3 13 -30 27 -61 38 -83 94
-253 116 -354 25 -110 41 -195 40 -215 0 -8 3 -31 7 -50 15 -76 17 -175 20
-980 2 -459 3 -837 4 -840 1 -7 1874 -6 1886 2 7 4 9 360 9 1040 -2 998 -5
1165 -20 1190 -5 7 -3 8 6 3 8 -5 11 -4 7 2 -7 11 -13 44 -22 123 -7 61 -43
248 -49 259 -2 3 -7 23 -10 44 -3 21 -11 47 -16 58 -6 10 -7 19 -3 19 4 0 2 5
-5 12 -7 7 -12 19 -12 27 0 15 -26 87 -58 161 -8 19 -13 36 -11 36 2 1 -4 11
-14 22 -10 10 -19 28 -22 40 -2 11 -15 38 -29 61 -14 22 -26 43 -26 45 0 6
-102 158 -115 172 -5 6 -26 30 -45 54 -46 57 -141 153 -209 210 -29 25 -59 50
-65 55 -13 13 -165 112 -221 146 -47 28 -164 85 -255 124 -36 15 -74 31 -85
36 -28 12 -229 75 -245 77 -3 0 -17 5 -33 11 -15 6 -40 13 -55 16 -38 8 -57
13 -57 15 0 1 -9 3 -20 4 -11 1 -42 8 -70 14 -27 7 -61 14 -75 16 -14 2 -36 7
-50 10 -30 7 -78 14 -210 32 -113 15 -224 25 -440 40 -127 9 -2680 11 -2680 2z"/>
</g>
</svg>
